<svg width="12" height="17" viewBox="0 0 12 17" fill="none" xmlns="http://www.w3.org/2000/svg">
<path d="M6.01179 0.0957031C7.40354 0.10706 8.74665 0.60909 9.80462 1.51339C10.8626 2.4177 11.5676 3.66628 11.7955 5.03929C11.9733 6.10917 11.7537 7.10748 11.351 8.0858C10.7202 9.61439 9.88416 11.031 8.95074 12.3884C8.148 13.5574 7.29725 14.6935 6.46162 15.8381C6.21226 16.179 5.81933 16.1795 5.56331 15.8519C4.1245 14.0121 2.7746 12.1111 1.63138 10.0704C1.0731 9.07389 0.564606 8.05246 0.283246 6.9368C-0.00478141 5.79758 0.166346 4.69303 0.638836 3.64449C1.50381 1.72163 2.99906 0.573525 5.07348 0.191266C5.37929 0.133927 5.69754 0.125928 6.01179 0.0957031ZM3.87559 5.43977C3.87621 5.86056 4.00143 6.27174 4.23545 6.62145C4.46947 6.97116 4.8018 7.24374 5.19055 7.40481C5.57929 7.56588 6.00703 7.60822 6.4198 7.52649C6.83258 7.44476 7.21191 7.24262 7.50995 6.94558C7.80798 6.64853 8.01138 6.26987 8.09448 5.85737C8.17758 5.44487 8.13667 5.017 7.9769 4.62772C7.81712 4.23844 7.54565 3.9052 7.19672 3.67002C6.84779 3.43484 6.43703 3.30825 6.01624 3.30623C5.73547 3.3053 5.45726 3.35979 5.19759 3.46659C4.93791 3.57339 4.70187 3.7304 4.503 3.92861C4.30413 4.12682 4.14634 4.36234 4.03868 4.62165C3.93101 4.88097 3.87559 5.15899 3.87559 5.43977Z" fill="#111827"/>
</svg>
