<svg width="12" height="16" viewBox="0 0 12 16" fill="none" xmlns="http://www.w3.org/2000/svg">
<path d="M6.01187 0C7.4036 0.0113569 8.74669 0.513386 9.80465 1.41769C10.8626 2.32199 11.5676 3.57058 11.7955 4.94358C11.9733 6.01346 11.7537 7.01178 11.351 7.9901C10.7203 9.51869 9.8842 10.9353 8.95079 12.2927C8.14805 13.4617 7.29731 14.5978 6.46169 15.7424C6.21234 16.0833 5.81942 16.0838 5.56339 15.7562C4.12461 13.9164 2.77472 12.0154 1.63151 9.97473C1.07324 8.97819 0.564754 7.95676 0.283397 6.8411C-0.004627 5.70188 0.166498 4.59733 0.638982 3.54878C1.50394 1.62593 2.99918 0.477822 5.07357 0.0955631C5.37938 0.0382243 5.69763 0.0302251 6.01187 0ZM3.8757 5.34407C3.87632 5.76485 4.00153 6.17604 4.23555 6.52575C4.46956 6.87546 4.8019 7.14804 5.19064 7.30911C5.57937 7.47017 6.00711 7.51251 6.41988 7.43079C6.83265 7.34906 7.21197 7.14692 7.51001 6.84987C7.80804 6.55283 8.01143 6.17417 8.09453 5.76167C8.17764 5.34917 8.13672 4.92129 7.97695 4.53202C7.81718 4.14274 7.54572 3.80949 7.19679 3.57431C6.84786 3.33913 6.4371 3.21255 6.01632 3.21053C5.73555 3.20959 5.45735 3.26409 5.19768 3.37089C4.93801 3.47769 4.70197 3.6347 4.5031 3.83291C4.30423 4.03112 4.14645 4.26663 4.03878 4.52595C3.93112 4.78527 3.8757 5.06329 3.8757 5.34407Z" fill="#28293D"/>
</svg>
