<svg width="13" height="8" viewBox="0 0 13 8" fill="none" xmlns="http://www.w3.org/2000/svg">
<path d="M12.0617 2.93886L10.1223 0.999905C10.0285 0.906172 9.90136 0.853516 9.76879 0.853516C9.63621 0.853516 9.50905 0.906172 9.41529 0.999905C9.32156 1.09367 9.2689 1.22082 9.2689 1.3534C9.2689 1.48598 9.32156 1.61313 9.41529 1.70689L11.1928 3.48535H0.999988C0.867383 3.48535 0.740209 3.53803 0.646443 3.63179C0.552677 3.72556 0.5 3.85273 0.5 3.98534C0.5 4.11794 0.552677 4.24512 0.646443 4.33888C0.740209 4.43265 0.867383 4.48532 0.999988 4.48532H11.2233L9.41529 6.29278C9.36881 6.33922 9.33193 6.39436 9.30677 6.45506C9.2816 6.51576 9.26865 6.58082 9.26865 6.64652C9.26865 6.71223 9.2816 6.77729 9.30677 6.83799C9.33193 6.89869 9.36881 6.95383 9.41529 7.00027C9.50905 7.094 9.63621 7.14666 9.76879 7.14666C9.90136 7.14666 10.0285 7.094 10.1223 7.00027L12.0622 5.06081C12.3427 4.7789 12.5001 4.39739 12.5 3.99973C12.4999 3.60207 12.3423 3.22064 12.0617 2.93886Z" fill="#0063F7"/>
</svg>
