<svg width="17" height="16" viewBox="0 0 17 16" fill="none" xmlns="http://www.w3.org/2000/svg">
<path d="M14.4583 1.25H13.7083V0H12.4583V1.25H4.20825V0H2.95825V1.25H2.20825C1.17438 1.25 0.333252 2.09113 0.333252 3.125V14.125C0.333252 15.1589 1.17438 16 2.20825 16H14.4583C15.4921 16 16.3333 15.1589 16.3333 14.125V3.125C16.3333 2.09113 15.4921 1.25 14.4583 1.25ZM15.0833 14.125C15.0833 14.4696 14.8029 14.75 14.4583 14.75H2.20825C1.86363 14.75 1.58325 14.4696 1.58325 14.125V5.875H15.0833V14.125ZM15.0833 4.625H1.58325V3.125C1.58325 2.78038 1.86363 2.5 2.20825 2.5H2.95825V3.75H4.20825V2.5H12.4583V3.75H13.7083V2.5H14.4583C14.8029 2.5 15.0833 2.78038 15.0833 3.125V4.625Z" fill="#4B5563"/>
<path d="M3.95825 7.1875H2.70825V8.4375H3.95825V7.1875Z" fill="#4B5563"/>
<path d="M6.45825 7.1875H5.20825V8.4375H6.45825V7.1875Z" fill="#4B5563"/>
<path d="M8.95825 7.1875H7.70825V8.4375H8.95825V7.1875Z" fill="#4B5563"/>
<path d="M11.4583 7.1875H10.2083V8.4375H11.4583V7.1875Z" fill="#4B5563"/>
<path d="M13.9583 7.1875H12.7083V8.4375H13.9583V7.1875Z" fill="#4B5563"/>
<path d="M3.95825 9.6875H2.70825V10.9375H3.95825V9.6875Z" fill="#4B5563"/>
<path d="M6.45825 9.6875H5.20825V10.9375H6.45825V9.6875Z" fill="#4B5563"/>
<path d="M8.95825 9.6875H7.70825V10.9375H8.95825V9.6875Z" fill="#4B5563"/>
<path d="M11.4583 9.6875H10.2083V10.9375H11.4583V9.6875Z" fill="#4B5563"/>
<path d="M3.95825 12.1875H2.70825V13.4375H3.95825V12.1875Z" fill="#4B5563"/>
<path d="M6.45825 12.1875H5.20825V13.4375H6.45825V12.1875Z" fill="#4B5563"/>
<path d="M8.95825 12.1875H7.70825V13.4375H8.95825V12.1875Z" fill="#4B5563"/>
<path d="M11.4583 12.1875H10.2083V13.4375H11.4583V12.1875Z" fill="#4B5563"/>
<path d="M13.9583 9.6875H12.7083V10.9375H13.9583V9.6875Z" fill="#4B5563"/>
</svg>
