<svg width="16" height="16" viewBox="0 0 16 16" fill="none" xmlns="http://www.w3.org/2000/svg">
<path d="M14.0523 3.38429H11.7621L11.4955 2.61506C11.3669 2.24156 11.1191 1.91657 10.7873 1.68637C10.4555 1.45618 10.0566 1.33252 9.64747 1.33301H6.35253C5.94349 1.33271 5.54476 1.45645 5.21307 1.68662C4.88139 1.91679 4.63364 2.24168 4.50507 2.61506L4.23787 3.38429H1.94773C1.43134 3.38483 0.93625 3.58232 0.571102 3.93343C0.205953 4.28453 0.000564678 4.76058 0 5.25711V12.7956C0.00112886 13.2918 0.206766 13.7673 0.571854 14.1179C0.936941 14.4686 1.4317 14.6658 1.94773 14.6663H14.0544C14.5704 14.6653 15.065 14.4675 15.4297 14.1165C15.7943 13.7654 15.9994 13.2897 16 12.7935V5.25506C15.9989 4.75888 15.7932 4.28336 15.4281 3.9327C15.0631 3.58204 14.5683 3.38483 14.0523 3.38429V3.38429ZM14.9333 12.7935C14.9331 13.0181 14.8401 13.2334 14.675 13.3923C14.5098 13.5511 14.2859 13.6404 14.0523 13.6407H1.94773C1.71415 13.6404 1.49021 13.5511 1.32504 13.3923C1.15987 13.2334 1.06695 13.0181 1.06667 12.7935V5.25506C1.06751 5.03081 1.16068 4.81601 1.32579 4.65764C1.4909 4.49926 1.71452 4.4102 1.94773 4.40993H4.6224C4.73429 4.40985 4.84332 4.37593 4.93406 4.31298C5.02479 4.25003 5.09264 4.16124 5.128 4.05916L5.5168 2.93762C5.57518 2.76893 5.68735 2.62221 5.83736 2.51828C5.98738 2.41435 6.16763 2.3585 6.35253 2.35865H9.64747C9.83245 2.35846 10.0128 2.41435 10.1628 2.51839C10.3129 2.62243 10.425 2.76931 10.4832 2.93814L10.872 4.05916C10.9074 4.16124 10.9752 4.25003 11.0659 4.31298C11.1567 4.37593 11.2657 4.40985 11.3776 4.40993H14.0523C14.2859 4.4102 14.5098 4.49955 14.675 4.65837C14.8401 4.81718 14.9331 5.03251 14.9333 5.25711V12.7935Z" fill="white"/>
<path d="M8 5C7.25832 5 6.5333 5.21993 5.91661 5.63199C5.29993 6.04404 4.81928 6.62971 4.53545 7.31494C4.25162 8.00016 4.17736 8.75416 4.32206 9.48159C4.46675 10.209 4.8239 10.8772 5.34835 11.4017C5.8728 11.9261 6.54098 12.2833 7.26841 12.4279C7.99584 12.5726 8.74984 12.4984 9.43506 12.2145C10.1203 11.9307 10.706 11.4501 11.118 10.8334C11.5301 10.2167 11.75 9.49168 11.75 8.75C11.7489 7.75576 11.3535 6.80255 10.6505 6.09952C9.94745 5.39649 8.99424 5.00106 8 5V5ZM8 11.5C7.4561 11.5 6.92442 11.3387 6.47218 11.0365C6.01995 10.7344 5.66747 10.3049 5.45933 9.80238C5.25119 9.29988 5.19673 8.74695 5.30284 8.2135C5.40895 7.68005 5.67086 7.19005 6.05546 6.80546C6.44005 6.42086 6.93006 6.15895 7.4635 6.05284C7.99695 5.94673 8.54988 6.00119 9.05238 6.20933C9.55488 6.41747 9.98437 6.76995 10.2865 7.22218C10.5887 7.67442 10.75 8.2061 10.75 8.75C10.7492 9.4791 10.4592 10.1781 9.94367 10.6937C9.42811 11.2092 8.7291 11.4992 8 11.5V11.5Z" fill="white"/>
<path d="M13 6.5C13.2761 6.5 13.5 6.27614 13.5 6C13.5 5.72386 13.2761 5.5 13 5.5C12.7239 5.5 12.5 5.72386 12.5 6C12.5 6.27614 12.7239 6.5 13 6.5Z" fill="white"/>
</svg>
