<svg width="16" height="16" viewBox="0 0 16 16" fill="none" xmlns="http://www.w3.org/2000/svg">
<path d="M11.2009 0H4.80263C2.15667 0 0.00390625 2.15276 0.00390625 4.79872V8.53106C0.00390625 11.0877 2.0135 13.1837 4.53603 13.3226V15.5471C4.53603 15.7969 4.73971 16 4.99004 16C5.10975 16 5.22305 15.9525 5.30863 15.867L5.80876 15.3668C7.12201 14.0533 8.86848 13.3298 10.7261 13.3298H11.2009C13.8469 13.3298 15.9996 11.177 15.9996 8.53106V4.79872C15.9996 2.15276 13.8469 0 11.2009 0ZM4.53603 7.73127C3.94792 7.73127 3.46965 7.253 3.46965 6.66489C3.46965 6.07678 3.94792 5.59851 4.53603 5.59851C5.12414 5.59851 5.60241 6.07678 5.60241 6.66489C5.60241 7.253 5.12387 7.73127 4.53603 7.73127ZM8.00177 7.73127C7.41366 7.73127 6.93539 7.253 6.93539 6.66489C6.93539 6.07678 7.41366 5.59851 8.00177 5.59851C8.58988 5.59851 9.06816 6.07678 9.06816 6.66489C9.06816 7.253 8.58962 7.73127 8.00177 7.73127ZM11.4675 7.73127C10.8794 7.73127 10.4011 7.253 10.4011 6.66489C10.4011 6.07678 10.8794 5.59851 11.4675 5.59851C12.0556 5.59851 12.5339 6.07678 12.5339 6.66489C12.5339 7.253 12.0554 7.73127 11.4675 7.73127Z" fill="#1F2937"/>
</svg>
