<svg width="17" height="16" viewBox="0 0 17 16" fill="none" xmlns="http://www.w3.org/2000/svg">
<path d="M8.9917 0C4.58058 0 0.991699 3.58888 0.991699 8C0.991699 12.4111 4.58058 16 8.9917 16C13.4028 16 16.9917 12.4111 16.9917 8C16.9917 3.58888 13.4028 0 8.9917 0ZM8.9917 15C5.13183 15 1.9917 11.8599 1.9917 8C1.9917 4.14013 5.13183 1 8.9917 1C12.8516 1 15.9917 4.14013 15.9917 8C15.9917 11.8599 12.8516 15 8.9917 15Z" fill="#0063F7"/>
<path d="M9.4917 3H8.4917V8.20702L11.6382 11.3535L12.3452 10.6465L9.4917 7.79295V3Z" fill="#0063F7"/>
</svg>
