<svg width="18" height="19" viewBox="0 0 18 19" fill="none" xmlns="http://www.w3.org/2000/svg">
<g clip-path="url(#clip0_1798_95025)">
<path d="M11.5841 3.18652H3.21626C2.43109 3.18652 1.79337 3.82425 1.79337 4.60942V16.6156C1.79337 17.4007 2.43109 18.0385 3.21626 18.0385H11.5841C12.3692 18.0385 13.007 17.4007 13.007 16.6156V4.60942C13.0033 3.82425 12.3656 3.18652 11.5841 3.18652ZM12.008 16.6119C12.008 16.8478 11.8163 17.0395 11.5804 17.0395H3.21258C2.97665 17.0395 2.78497 16.8478 2.78497 16.6119V4.60942C2.78497 4.3735 2.97665 4.18181 3.21258 4.18181H11.5804C11.8163 4.18181 12.008 4.3735 12.008 4.60942V16.6119Z" fill="#06C270"/>
<path d="M14.7837 0.0380859H6.41593C5.63076 0.0380859 4.99303 0.675809 4.99303 1.46098C4.99303 1.73745 5.21421 1.95863 5.49068 1.95863C5.76715 1.95863 5.98832 1.73745 5.98832 1.46098C5.98832 1.22506 6.18001 1.03338 6.41593 1.03338H14.7837C15.0197 1.03338 15.2113 1.22506 15.2113 1.46098V13.4671C15.2113 13.703 15.0197 13.8947 14.7837 13.8947C14.5073 13.8947 14.2861 14.1159 14.2861 14.3924C14.2861 14.6688 14.5073 14.89 14.7837 14.89C15.5689 14.89 16.2066 14.2523 16.2066 13.4671V1.46098C16.2066 0.675809 15.5689 0.0380859 14.7837 0.0380859Z" fill="#06C270"/>
</g>
<defs>
<clipPath id="clip0_1798_95025">
<rect width="18" height="18" fill="white" transform="translate(0 0.0380859)"/>
</clipPath>
</defs>
</svg>
