<svg width="24" height="24" viewBox="0 0 24 24" fill="none" xmlns="http://www.w3.org/2000/svg">
<mask id="path-1-inside-1_3007_88856" fill="white">
<path d="M9.15076 10.5849C9.50365 11.5259 9.50506 12.4679 9.14936 13.4169C9.21684 13.461 9.28011 13.505 9.34525 13.5453C9.9081 13.8921 10.4723 14.2371 11.0343 14.5853C11.4701 14.8552 11.9031 15.1303 12.339 15.4016C12.9196 15.763 13.5003 16.1234 14.0823 16.4828C14.5603 16.7781 15.0398 17.071 15.5187 17.3643C15.6007 17.4145 15.6134 17.4135 15.6804 17.3428C15.9363 17.071 16.2297 16.846 16.5516 16.6595C16.7653 16.5358 16.9921 16.4383 17.2255 16.3539C17.4444 16.2752 17.6684 16.2138 17.8962 16.1838C18.2031 16.143 18.511 16.1018 18.825 16.1477C19.0472 16.1805 19.2702 16.2035 19.4877 16.2602C19.7028 16.3164 19.9118 16.3881 20.1147 16.4805C20.3031 16.5662 20.4836 16.6637 20.657 16.7762C21.1158 17.0733 21.493 17.4524 21.7948 17.9061C21.979 18.1831 22.1252 18.4806 22.2307 18.7974C22.2907 18.9779 22.3413 19.1602 22.3741 19.3481C22.4228 19.6251 22.4589 19.902 22.4495 20.1828C22.4439 20.3468 22.4369 20.5136 22.4036 20.6734C22.3474 20.9424 22.286 21.2096 22.1843 21.4683C22.0587 21.7869 21.9036 22.0869 21.7039 22.3629C21.4888 22.6605 21.2381 22.9262 20.9475 23.1544C20.6959 23.3522 20.4269 23.5228 20.1363 23.6531C19.9451 23.7388 19.7497 23.8209 19.5406 23.8598C19.3874 23.8883 19.2356 23.9244 19.0828 23.9577C18.8274 24.013 18.5682 23.9994 18.3095 23.9961C18.0991 23.9933 17.8919 23.9666 17.6886 23.9104C17.503 23.8593 17.3127 23.8218 17.1327 23.7557C16.8661 23.6573 16.6121 23.5284 16.3731 23.3724C16.0328 23.1498 15.732 22.8812 15.4728 22.5691C15.2666 22.3212 15.0904 22.0513 14.9573 21.7565C14.8725 21.569 14.8012 21.375 14.7314 21.181C14.7028 21.1013 14.6916 21.0151 14.6752 20.9312C14.6489 20.8 14.625 20.6683 14.6002 20.5366C14.5955 20.5108 14.5889 20.485 14.5885 20.4588C14.5875 20.2001 14.5791 19.9409 14.5917 19.6832C14.5983 19.5435 14.64 19.4053 14.6672 19.2666C14.6841 19.1789 14.6995 19.0913 14.7225 19.0051C14.7422 18.9305 14.7675 18.8574 14.7965 18.7862C14.8392 18.6822 14.8256 18.6315 14.7319 18.5744C14.3855 18.3621 14.0383 18.1512 13.6929 17.9365C13.1811 17.6188 12.6717 17.2973 12.1599 16.9791C11.5544 16.6028 10.9471 16.2283 10.3407 15.8529C9.80921 15.524 9.27823 15.1945 8.74679 14.8655C8.66243 14.8135 8.5762 14.7638 8.49091 14.7127C8.38828 14.6513 8.385 14.6509 8.30392 14.7338C8.05179 14.992 7.77154 15.2137 7.45895 15.3937C7.24009 15.5197 7.01514 15.6313 6.77285 15.7095C6.60039 15.7653 6.42699 15.8122 6.24891 15.8506C5.95085 15.9153 5.65138 15.9382 5.34817 15.9331C5.13447 15.9293 4.92498 15.897 4.71737 15.8492C4.6452 15.8328 4.57209 15.8192 4.49992 15.8019C3.78945 15.6303 3.19005 15.2662 2.67548 14.7535C2.36852 14.4479 2.12576 14.0951 1.93455 13.7094C1.8516 13.5425 1.78412 13.3663 1.73116 13.1845C1.67164 12.9806 1.62853 12.7753 1.5901 12.5663C1.53292 12.2561 1.54511 11.9463 1.5601 11.6365C1.5676 11.4847 1.60978 11.3352 1.63368 11.1838C1.66227 11.0034 1.72132 10.8319 1.78084 10.6599C1.868 10.4077 1.98376 10.1687 2.12342 9.94238C2.34837 9.57871 2.62674 9.25956 2.95386 8.984C3.21817 8.76186 3.50311 8.57019 3.82179 8.43521C4.00972 8.35555 4.20092 8.28244 4.39354 8.21495C4.48399 8.18308 4.58053 8.16856 4.67519 8.15122C4.82141 8.12403 4.9681 8.09873 5.11525 8.07623C5.17805 8.06686 5.24226 8.06733 5.30552 8.06311C5.57968 8.0453 5.85243 8.07436 6.12237 8.11279C6.2864 8.13622 6.44527 8.19293 6.60742 8.23276C6.86939 8.29743 7.11262 8.41085 7.34835 8.53644C7.6989 8.72343 8.01055 8.96619 8.29314 9.24597C8.39296 9.34486 8.39249 9.34486 8.50309 9.2755C8.89441 9.03086 9.2848 8.78529 9.67705 8.5416C10.208 8.21167 10.739 7.88221 11.2714 7.55463C11.6922 7.295 12.1154 7.03865 12.5367 6.77996C12.9149 6.54751 13.2922 6.31412 13.6694 6.08027C14.028 5.85813 14.3855 5.63506 14.7436 5.41292C14.82 5.36558 14.842 5.32294 14.8045 5.23764C14.7216 5.04972 14.6836 4.84914 14.64 4.65184C14.6025 4.48172 14.5941 4.3041 14.5828 4.12883C14.5739 3.99433 14.5744 3.85842 14.5828 3.72392C14.5936 3.55286 14.6053 3.37993 14.6372 3.21169C14.6883 2.94268 14.7633 2.67837 14.8687 2.42577C14.9817 2.15536 15.1223 1.89714 15.2938 1.65953C15.5375 1.32117 15.8257 1.02358 16.1617 0.773323C16.4218 0.579772 16.7011 0.420432 16.9973 0.292492C17.1487 0.226881 17.3099 0.180954 17.4697 0.139713C17.6637 0.0900367 17.8615 0.0539509 18.0583 0.014116C18.0986 0.00614902 18.1403 0.00521178 18.1816 0.00474314C18.3428 0.00239991 18.504 0.00193124 18.6652 5.66607e-05C18.8906 -0.00181792 19.1095 0.0431721 19.3302 0.083007C19.5177 0.11675 19.6967 0.174862 19.8743 0.236723C20.1194 0.321548 20.3528 0.437772 20.5721 0.576491C20.9105 0.790662 21.2156 1.04561 21.478 1.35023C21.6964 1.60329 21.8815 1.87745 22.031 2.17645C22.1444 2.4028 22.2354 2.63853 22.3038 2.88223C22.3338 2.98955 22.3502 3.10062 22.3722 3.21028C22.4252 3.4746 22.465 3.74173 22.4481 4.0112C22.4355 4.21881 22.427 4.42829 22.3745 4.63215C22.3394 4.769 22.3141 4.90865 22.2775 5.04503C22.2143 5.2817 22.1173 5.50524 22.0053 5.72316C21.7386 6.24289 21.3745 6.67967 20.9124 7.03678C20.6063 7.27344 20.2769 7.46746 19.9113 7.59587C19.7253 7.66148 19.5383 7.72615 19.348 7.77536C19.2187 7.80864 19.0828 7.81754 18.9492 7.83066C18.7857 7.84706 18.6207 7.87331 18.4576 7.86628C18.242 7.85691 18.0274 7.81895 17.8123 7.79458C17.6145 7.77208 17.4266 7.71069 17.2391 7.64836C16.9467 7.55135 16.6707 7.41778 16.4106 7.25329C16.1505 7.08833 15.911 6.89712 15.6982 6.67404C15.6101 6.58172 15.6087 6.58172 15.4958 6.65108C14.9793 6.96695 14.4619 7.28141 13.9469 7.60009C13.4782 7.89018 13.0133 8.18636 12.5452 8.47692C12.181 8.70281 11.8141 8.92401 11.449 9.14803C11.0966 9.36454 10.7451 9.58152 10.3936 9.79944C10.133 9.96113 9.87342 10.1252 9.61332 10.2878C9.47225 10.3759 9.33025 10.4635 9.18919 10.5516C9.17794 10.5605 9.16763 10.5708 9.15076 10.5849ZM18.5077 22.5513C19.8949 22.5649 20.9967 21.4242 20.9986 20.0801C21.0005 18.6934 19.8931 17.5799 18.5054 17.5808C17.1543 17.5818 16.031 18.6775 16.0258 20.0661C16.0202 21.4303 17.1487 22.5663 18.5077 22.5513ZM18.5232 1.4477C17.1773 1.42287 16.0356 2.53543 16.0258 3.90669C16.0155 5.29201 17.1318 6.40317 18.4796 6.41676C19.8785 6.43082 20.9761 5.31966 20.9986 3.96855C21.0211 2.58558 19.901 1.43974 18.5232 1.4477ZM5.48127 9.51591C4.11188 9.50139 2.9951 10.6463 2.99416 11.9955C2.99369 13.3537 4.11001 14.4836 5.47564 14.4836C6.86471 14.4836 7.96415 13.3583 7.96884 12.0068C7.97353 10.6528 6.87221 9.50748 5.48127 9.51591Z"/>
</mask>
<path d="M9.15076 10.5849C9.50365 11.5259 9.50506 12.4679 9.14936 13.4169C9.21684 13.461 9.28011 13.505 9.34525 13.5453C9.9081 13.8921 10.4723 14.2371 11.0343 14.5853C11.4701 14.8552 11.9031 15.1303 12.339 15.4016C12.9196 15.763 13.5003 16.1234 14.0823 16.4828C14.5603 16.7781 15.0398 17.071 15.5187 17.3643C15.6007 17.4145 15.6134 17.4135 15.6804 17.3428C15.9363 17.071 16.2297 16.846 16.5516 16.6595C16.7653 16.5358 16.9921 16.4383 17.2255 16.3539C17.4444 16.2752 17.6684 16.2138 17.8962 16.1838C18.2031 16.143 18.511 16.1018 18.825 16.1477C19.0472 16.1805 19.2702 16.2035 19.4877 16.2602C19.7028 16.3164 19.9118 16.3881 20.1147 16.4805C20.3031 16.5662 20.4836 16.6637 20.657 16.7762C21.1158 17.0733 21.493 17.4524 21.7948 17.9061C21.979 18.1831 22.1252 18.4806 22.2307 18.7974C22.2907 18.9779 22.3413 19.1602 22.3741 19.3481C22.4228 19.6251 22.4589 19.902 22.4495 20.1828C22.4439 20.3468 22.4369 20.5136 22.4036 20.6734C22.3474 20.9424 22.286 21.2096 22.1843 21.4683C22.0587 21.7869 21.9036 22.0869 21.7039 22.3629C21.4888 22.6605 21.2381 22.9262 20.9475 23.1544C20.6959 23.3522 20.4269 23.5228 20.1363 23.6531C19.9451 23.7388 19.7497 23.8209 19.5406 23.8598C19.3874 23.8883 19.2356 23.9244 19.0828 23.9577C18.8274 24.013 18.5682 23.9994 18.3095 23.9961C18.0991 23.9933 17.8919 23.9666 17.6886 23.9104C17.503 23.8593 17.3127 23.8218 17.1327 23.7557C16.8661 23.6573 16.6121 23.5284 16.3731 23.3724C16.0328 23.1498 15.732 22.8812 15.4728 22.5691C15.2666 22.3212 15.0904 22.0513 14.9573 21.7565C14.8725 21.569 14.8012 21.375 14.7314 21.181C14.7028 21.1013 14.6916 21.0151 14.6752 20.9312C14.6489 20.8 14.625 20.6683 14.6002 20.5366C14.5955 20.5108 14.5889 20.485 14.5885 20.4588C14.5875 20.2001 14.5791 19.9409 14.5917 19.6832C14.5983 19.5435 14.64 19.4053 14.6672 19.2666C14.6841 19.1789 14.6995 19.0913 14.7225 19.0051C14.7422 18.9305 14.7675 18.8574 14.7965 18.7862C14.8392 18.6822 14.8256 18.6315 14.7319 18.5744C14.3855 18.3621 14.0383 18.1512 13.6929 17.9365C13.1811 17.6188 12.6717 17.2973 12.1599 16.9791C11.5544 16.6028 10.9471 16.2283 10.3407 15.8529C9.80921 15.524 9.27823 15.1945 8.74679 14.8655C8.66243 14.8135 8.5762 14.7638 8.49091 14.7127C8.38828 14.6513 8.385 14.6509 8.30392 14.7338C8.05179 14.992 7.77154 15.2137 7.45895 15.3937C7.24009 15.5197 7.01514 15.6313 6.77285 15.7095C6.60039 15.7653 6.42699 15.8122 6.24891 15.8506C5.95085 15.9153 5.65138 15.9382 5.34817 15.9331C5.13447 15.9293 4.92498 15.897 4.71737 15.8492C4.6452 15.8328 4.57209 15.8192 4.49992 15.8019C3.78945 15.6303 3.19005 15.2662 2.67548 14.7535C2.36852 14.4479 2.12576 14.0951 1.93455 13.7094C1.8516 13.5425 1.78412 13.3663 1.73116 13.1845C1.67164 12.9806 1.62853 12.7753 1.5901 12.5663C1.53292 12.2561 1.54511 11.9463 1.5601 11.6365C1.5676 11.4847 1.60978 11.3352 1.63368 11.1838C1.66227 11.0034 1.72132 10.8319 1.78084 10.6599C1.868 10.4077 1.98376 10.1687 2.12342 9.94238C2.34837 9.57871 2.62674 9.25956 2.95386 8.984C3.21817 8.76186 3.50311 8.57019 3.82179 8.43521C4.00972 8.35555 4.20092 8.28244 4.39354 8.21495C4.48399 8.18308 4.58053 8.16856 4.67519 8.15122C4.82141 8.12403 4.9681 8.09873 5.11525 8.07623C5.17805 8.06686 5.24226 8.06733 5.30552 8.06311C5.57968 8.0453 5.85243 8.07436 6.12237 8.11279C6.2864 8.13622 6.44527 8.19293 6.60742 8.23276C6.86939 8.29743 7.11262 8.41085 7.34835 8.53644C7.6989 8.72343 8.01055 8.96619 8.29314 9.24597C8.39296 9.34486 8.39249 9.34486 8.50309 9.2755C8.89441 9.03086 9.2848 8.78529 9.67705 8.5416C10.208 8.21167 10.739 7.88221 11.2714 7.55463C11.6922 7.295 12.1154 7.03865 12.5367 6.77996C12.9149 6.54751 13.2922 6.31412 13.6694 6.08027C14.028 5.85813 14.3855 5.63506 14.7436 5.41292C14.82 5.36558 14.842 5.32294 14.8045 5.23764C14.7216 5.04972 14.6836 4.84914 14.64 4.65184C14.6025 4.48172 14.5941 4.3041 14.5828 4.12883C14.5739 3.99433 14.5744 3.85842 14.5828 3.72392C14.5936 3.55286 14.6053 3.37993 14.6372 3.21169C14.6883 2.94268 14.7633 2.67837 14.8687 2.42577C14.9817 2.15536 15.1223 1.89714 15.2938 1.65953C15.5375 1.32117 15.8257 1.02358 16.1617 0.773323C16.4218 0.579772 16.7011 0.420432 16.9973 0.292492C17.1487 0.226881 17.3099 0.180954 17.4697 0.139713C17.6637 0.0900367 17.8615 0.0539509 18.0583 0.014116C18.0986 0.00614902 18.1403 0.00521178 18.1816 0.00474314C18.3428 0.00239991 18.504 0.00193124 18.6652 5.66607e-05C18.8906 -0.00181792 19.1095 0.0431721 19.3302 0.083007C19.5177 0.11675 19.6967 0.174862 19.8743 0.236723C20.1194 0.321548 20.3528 0.437772 20.5721 0.576491C20.9105 0.790662 21.2156 1.04561 21.478 1.35023C21.6964 1.60329 21.8815 1.87745 22.031 2.17645C22.1444 2.4028 22.2354 2.63853 22.3038 2.88223C22.3338 2.98955 22.3502 3.10062 22.3722 3.21028C22.4252 3.4746 22.465 3.74173 22.4481 4.0112C22.4355 4.21881 22.427 4.42829 22.3745 4.63215C22.3394 4.769 22.3141 4.90865 22.2775 5.04503C22.2143 5.2817 22.1173 5.50524 22.0053 5.72316C21.7386 6.24289 21.3745 6.67967 20.9124 7.03678C20.6063 7.27344 20.2769 7.46746 19.9113 7.59587C19.7253 7.66148 19.5383 7.72615 19.348 7.77536C19.2187 7.80864 19.0828 7.81754 18.9492 7.83066C18.7857 7.84706 18.6207 7.87331 18.4576 7.86628C18.242 7.85691 18.0274 7.81895 17.8123 7.79458C17.6145 7.77208 17.4266 7.71069 17.2391 7.64836C16.9467 7.55135 16.6707 7.41778 16.4106 7.25329C16.1505 7.08833 15.911 6.89712 15.6982 6.67404C15.6101 6.58172 15.6087 6.58172 15.4958 6.65108C14.9793 6.96695 14.4619 7.28141 13.9469 7.60009C13.4782 7.89018 13.0133 8.18636 12.5452 8.47692C12.181 8.70281 11.8141 8.92401 11.449 9.14803C11.0966 9.36454 10.7451 9.58152 10.3936 9.79944C10.133 9.96113 9.87342 10.1252 9.61332 10.2878C9.47225 10.3759 9.33025 10.4635 9.18919 10.5516C9.17794 10.5605 9.16763 10.5708 9.15076 10.5849ZM18.5077 22.5513C19.8949 22.5649 20.9967 21.4242 20.9986 20.0801C21.0005 18.6934 19.8931 17.5799 18.5054 17.5808C17.1543 17.5818 16.031 18.6775 16.0258 20.0661C16.0202 21.4303 17.1487 22.5663 18.5077 22.5513ZM18.5232 1.4477C17.1773 1.42287 16.0356 2.53543 16.0258 3.90669C16.0155 5.29201 17.1318 6.40317 18.4796 6.41676C19.8785 6.43082 20.9761 5.31966 20.9986 3.96855C21.0211 2.58558 19.901 1.43974 18.5232 1.4477ZM5.48127 9.51591C4.11188 9.50139 2.9951 10.6463 2.99416 11.9955C2.99369 13.3537 4.11001 14.4836 5.47564 14.4836C6.86471 14.4836 7.96415 13.3583 7.96884 12.0068C7.97353 10.6528 6.87221 9.50748 5.48127 9.51591Z" fill="black" stroke="#0063F7" stroke-width="2" mask="url(#path-1-inside-1_3007_88856)"/>
</svg>
