<svg width="24" height="25" viewBox="0 0 24 25" fill="none" xmlns="http://www.w3.org/2000/svg">
<path d="M14.625 12.5C14.625 13.0192 14.471 13.5267 14.1826 13.9584C13.8942 14.3901 13.4842 14.7265 13.0045 14.9252C12.5249 15.1239 11.9971 15.1758 11.4879 15.0746C10.9787 14.9733 10.511 14.7233 10.1438 14.3562C9.77673 13.989 9.52673 13.5213 9.42544 13.0121C9.32415 12.5029 9.37614 11.9751 9.57482 11.4955C9.7735 11.0158 10.11 10.6058 10.5416 10.3174C10.9733 10.029 11.4808 9.875 12 9.875C12.696 9.87569 13.3633 10.1525 13.8554 10.6446C14.3475 11.1367 14.6243 11.804 14.625 12.5ZM12 7.625C12.5192 7.625 13.0267 7.47105 13.4584 7.18261C13.8901 6.89417 14.2265 6.4842 14.4252 6.00454C14.6239 5.52489 14.6758 4.99709 14.5746 4.48789C14.4733 3.97869 14.2233 3.51096 13.8562 3.14385C13.489 2.77673 13.0213 2.52673 12.5121 2.42544C12.0029 2.32415 11.4751 2.37614 10.9955 2.57482C10.5158 2.7735 10.1058 3.10995 9.81739 3.54163C9.52895 3.97331 9.375 4.48083 9.375 5C9.37569 5.69598 9.65247 6.36326 10.1446 6.8554C10.6367 7.34753 11.304 7.62431 12 7.625ZM12 17.375C11.4808 17.375 10.9733 17.529 10.5416 17.8174C10.11 18.1058 9.7735 18.5158 9.57482 18.9955C9.37614 19.4751 9.32415 20.0029 9.42544 20.5121C9.52673 21.0213 9.77673 21.489 10.1438 21.8562C10.511 22.2233 10.9787 22.4733 11.4879 22.5746C11.9971 22.6758 12.5249 22.6239 13.0045 22.4252C13.4842 22.2265 13.8942 21.8901 14.1826 21.4584C14.471 21.0267 14.625 20.5192 14.625 20C14.6243 19.304 14.3475 18.6367 13.8554 18.1446C13.3633 17.6525 12.696 17.3757 12 17.375Z" fill="#374151"/>
</svg>
