<svg width="72" height="72" viewBox="0 0 72 72" fill="none" xmlns="http://www.w3.org/2000/svg">
<path fill-rule="evenodd" clip-rule="evenodd" d="M20.6769 28.6697C15.1808 25.5291 9.13625 24.1016 9.13625 24.1016L9.1333 41.6528C9.1333 56.3499 21.2561 68.2725 35.939 68.34V68.3403C35.9594 68.3403 35.9798 68.3403 36.0002 68.3403C36.0206 68.3403 36.041 68.3403 36.0614 68.3403V68.34C50.7443 68.2725 62.867 56.3499 62.867 41.6528L62.864 24.1016C62.864 24.1016 56.8195 25.5291 51.3234 28.6697C44.1107 32.7908 36.7585 38.8104 36.0002 39.4363C35.2418 38.8104 27.8896 32.7908 20.6769 28.6697Z" fill="#141C42"/>
<path fill-rule="evenodd" clip-rule="evenodd" d="M20.677 26.9858C11.1237 22.9097 0 21.6963 0 21.6963L35.9361 3.72827V3.66406L36.0003 3.69617L36.0645 3.66406V3.72827L72.0004 21.6963C72.0004 21.6963 60.8767 22.9097 51.3235 26.9858C43.5833 30.2881 37.05 36.071 36.0645 36.9655V37.0832C36.0645 37.0832 36.0428 37.0629 36.0003 37.024C35.9578 37.0629 35.9361 37.0832 35.9361 37.0832V36.9655C34.9505 36.071 28.4171 30.2881 20.677 26.9858Z" fill="#01A885"/>
</svg>
