<svg width="24" height="24" viewBox="0 0 24 24" fill="none" xmlns="http://www.w3.org/2000/svg">
<path fill-rule="evenodd" clip-rule="evenodd" d="M23.9086 12.1301C23.9086 5.66648 18.6679 0.425781 12.2043 0.425781C5.7407 0.425781 0.5 5.66648 0.5 12.1301C0.5 17.9715 4.7795 22.8139 10.3757 23.6929V15.5142H7.40309V12.1301H10.3757V9.55088C10.3757 6.61778 12.1237 4.99652 14.7967 4.99652C16.0772 4.99652 17.417 5.2253 17.417 5.2253V8.10575H15.9406C14.4873 8.10575 14.0329 9.00773 14.0329 9.93437V12.13H17.2787L16.7602 15.5141H14.0328V23.6929C19.629 22.8154 23.9085 17.9731 23.9085 12.13L23.9086 12.1301Z" fill="#ADBDCC"/>
</svg>
