<svg width="25" height="25" viewBox="0 0 25 25" fill="none" xmlns="http://www.w3.org/2000/svg">
<path d="M24.4988 12.395C24.4988 16.045 23.1588 19.125 20.8488 21.215C18.8188 23.055 16.0488 24.125 12.7388 24.125C7.94878 24.125 3.81878 21.435 1.79878 17.515C0.968779 15.885 0.498779 14.055 0.498779 12.125C0.498779 10.195 0.968779 8.365 1.79878 6.735C3.81878 2.815 7.94878 0.125 12.7388 0.125C16.0488 0.125 18.8088 1.315 20.9288 3.245L17.4788 6.555C16.5888 5.735 15.0388 4.765 12.7388 4.765C9.49878 4.765 6.75878 6.855 5.75878 9.755C5.51878 10.495 5.36878 11.295 5.36878 12.125C5.36878 12.955 5.51878 13.755 5.77878 14.495C6.75878 17.395 9.49878 19.485 12.7388 19.485C14.5688 19.485 15.9488 18.995 16.9888 18.285C18.6188 17.165 19.3488 15.495 19.4888 14.395H12.7388V9.935H24.2388C24.4188 10.685 24.4988 11.405 24.4988 12.395Z" fill="#ADBDCC"/>
</svg>
