<svg width="22" height="21" viewBox="0 0 22 21" fill="none" xmlns="http://www.w3.org/2000/svg">
<path d="M15.689 0.515625C15.6748 0.515625 15.6558 0.515625 15.6416 0.515625C13.759 0.515625 12.0946 1.51144 11.1367 2.98145C10.1788 1.51144 8.51441 0.515625 6.63186 0.515625C6.61763 0.515625 6.59866 0.515625 6.58444 0.515625C3.64916 0.544077 1.27344 2.92928 1.27344 5.87404C1.27344 7.62857 2.04164 10.1181 3.5401 12.1666C6.39476 16.0693 11.1367 19.4835 11.1367 19.4835C11.1367 19.4835 15.8787 16.0693 18.7333 12.1666C20.2318 10.1181 21 7.62857 21 5.87404C21 2.92928 18.6243 0.544077 15.689 0.515625ZM17.6617 11.3842C15.6416 14.1488 12.564 16.6999 11.1367 17.8143C9.70939 16.6999 6.63186 14.144 4.61178 11.3795C3.22238 9.48268 2.60119 7.24921 2.60119 5.87404C2.60119 4.80236 3.01848 3.79706 3.76771 3.03835C4.52168 2.27963 5.52224 1.8576 6.59392 1.84812C6.59392 1.84812 6.59392 1.84812 6.59866 1.84812C6.60815 1.84812 6.61763 1.84812 6.62711 1.84812H6.6366C7.3147 1.84812 7.98806 2.02357 8.58554 2.36025C9.16406 2.68744 9.66671 3.15216 10.0271 3.71171C10.2737 4.08632 10.691 4.31394 11.1415 4.31394C11.5919 4.31394 12.0092 4.08632 12.2558 3.71171C12.621 3.15216 13.1189 2.68744 13.6974 2.36025C14.2949 2.02357 14.9682 1.84812 15.6463 1.84812H15.6558C15.6653 1.84812 15.6748 1.84812 15.6843 1.84812C15.6843 1.84812 15.6843 1.84812 15.689 1.84812C16.7559 1.8576 17.7612 2.27964 18.5152 3.03835C19.2692 3.79706 19.6817 4.8071 19.6817 5.87404C19.6723 7.24921 19.0511 9.48268 17.6617 11.3842Z" fill="#0CBEA6"/>
<path d="M15.689 0.515625V0.515625ZM15.689 0.515625C15.6748 0.515625 15.6558 0.515625 15.6416 0.515625C13.759 0.515625 12.0946 1.51144 11.1367 2.98145C10.1788 1.51144 8.51441 0.515625 6.63186 0.515625C6.61763 0.515625 6.59866 0.515625 6.58444 0.515625M15.689 0.515625C18.6243 0.544077 21 2.92928 21 5.87404C21 7.62857 20.2318 10.1181 18.7333 12.1666C15.8787 16.0693 11.1367 19.4835 11.1367 19.4835C11.1367 19.4835 6.39476 16.0693 3.5401 12.1666C2.04164 10.1181 1.27344 7.62857 1.27344 5.87404C1.27344 2.92928 3.64916 0.544077 6.58444 0.515625M6.58444 0.515625V0.515625ZM17.6617 11.3842C15.6416 14.1488 12.564 16.6999 11.1367 17.8143C9.70939 16.6999 6.63186 14.144 4.61178 11.3795C3.22238 9.48268 2.60119 7.24921 2.60119 5.87404C2.60119 4.80236 3.01848 3.79706 3.76771 3.03835C4.52168 2.27963 5.52224 1.8576 6.59392 1.84812C6.59392 1.84812 6.59392 1.84812 6.59866 1.84812C6.60815 1.84812 6.61763 1.84812 6.62711 1.84812H6.6366C7.3147 1.84812 7.98806 2.02357 8.58554 2.36025C9.16406 2.68744 9.66671 3.15216 10.0271 3.71171C10.2737 4.08632 10.691 4.31394 11.1415 4.31394C11.5919 4.31394 12.0092 4.08632 12.2558 3.71171C12.621 3.15216 13.1189 2.68744 13.6974 2.36025C14.2949 2.02357 14.9682 1.84812 15.6463 1.84812H15.6558C15.6653 1.84812 15.6748 1.84812 15.6843 1.84812C15.6843 1.84812 15.6843 1.84812 15.689 1.84812C16.7559 1.8576 17.7612 2.27964 18.5152 3.03835C19.2692 3.79706 19.6817 4.8071 19.6817 5.87404C19.6723 7.24921 19.0511 9.48268 17.6617 11.3842Z" stroke="#0CBEA6"/>
</svg>
