<svg width="17" height="16" viewBox="0 0 17 16" fill="none" xmlns="http://www.w3.org/2000/svg">
<g clip-path="url(#clip0_3007_88847)">
<path d="M15.2307 2.26807C14.4025 1.36975 13.266 0.875 12.0304 0.875C11.1068 0.875 10.261 1.16699 9.51636 1.7428C9.14062 2.03345 8.80017 2.38904 8.5 2.80408C8.19995 2.38916 7.85938 2.03345 7.48352 1.7428C6.73901 1.16699 5.89319 0.875 4.9696 0.875C3.73401 0.875 2.59741 1.36975 1.76917 2.26807C0.950806 3.15588 0.5 4.36877 0.5 5.68347C0.5 7.03662 1.00427 8.27527 2.08691 9.58167C3.05542 10.7502 4.44739 11.9365 6.05933 13.3102C6.60974 13.7793 7.23364 14.311 7.88147 14.8774C8.05261 15.0273 8.27222 15.1099 8.5 15.1099C8.72766 15.1099 8.94739 15.0273 9.11829 14.8777C9.76611 14.3112 10.3904 13.7792 10.941 13.3098C12.5527 11.9364 13.9447 10.7502 14.9132 9.58154C15.9958 8.27527 16.5 7.03662 16.5 5.68335C16.5 4.36877 16.0492 3.15588 15.2307 2.26807Z" fill="white"/>
</g>
<defs>
<clipPath id="clip0_3007_88847">
<rect width="16" height="16" fill="white" transform="translate(0.5)"/>
</clipPath>
</defs>
</svg>
