<svg width="16" height="16" viewBox="0 0 16 16" fill="none" xmlns="http://www.w3.org/2000/svg">
<path d="M7.99998 3.40408C7.80746 3.40407 7.62663 3.31168 7.51381 3.15567C7.24472 2.78357 6.94347 2.4703 6.61648 2.21744L6.61645 2.21741C5.97487 1.72121 5.2576 1.475 4.4696 1.475C3.39948 1.475 2.42355 1.90121 1.71034 2.67472L7.99998 3.40408ZM7.99998 3.40408C8.19251 3.40408 8.37335 3.3117 8.48617 3.1557M7.99998 3.40408L8.48617 3.1557M8.48617 3.1557C8.7554 2.78344 9.05656 2.47026 9.38347 2.21738C10.0252 1.72118 10.7424 1.475 11.5304 1.475C12.6005 1.475 13.5763 1.90121 14.2896 2.67475C14.9965 3.44154 15.4 4.50496 15.4 5.68335C15.4 6.86428 14.9679 7.97201 13.9512 9.19867L13.9512 9.1987C13.0232 10.3186 11.6771 11.4682 10.0519 12.8531L10.0518 12.8532L10.0374 12.8655C9.49057 13.3316 8.86875 13.8616 8.22331 14.426L8.223 14.4263C8.16175 14.4799 8.08257 14.5099 8 14.5099C7.91746 14.5099 7.83839 14.48 7.7768 14.4261L7.7764 14.4257C7.1262 13.8573 6.50036 13.3239 5.95078 12.8555L5.94852 12.8535L5.94849 12.8535M8.48617 3.1557L5.94849 12.8535M5.94849 12.8535C4.32301 11.4683 2.97696 10.3186 2.04889 9.19881L5.94849 12.8535ZM0.6 5.68347C0.6 4.50498 1.00352 3.44156 1.71028 2.67478L2.04888 9.19879C1.03218 7.97197 0.6 6.86424 0.6 5.68347Z" stroke="#0063F7" stroke-width="1.2" stroke-linejoin="round"/>
</svg>
