<svg width="14" height="14" viewBox="0 0 14 14" fill="none" xmlns="http://www.w3.org/2000/svg">
<path d="M5.01233 9.15419C5.54772 8.64279 6.25963 8.35742 7.00002 8.35742C7.74041 8.35742 8.45231 8.64279 8.98771 9.15419" stroke="black" stroke-width="1.5" stroke-linecap="round" stroke-linejoin="round"/>
<path d="M3.08875 7.23123C4.13436 6.20964 5.53817 5.6377 7 5.6377C8.46183 5.6377 9.86565 6.20964 10.9113 7.23123" stroke="black" stroke-width="1.5" stroke-linecap="round" stroke-linejoin="round"/>
<path d="M1.16669 5.3073C2.72189 3.77556 4.81716 2.91699 7.00002 2.91699C9.18288 2.91699 11.2781 3.77556 12.8334 5.3073" stroke="black" stroke-width="1.5" stroke-linecap="round" stroke-linejoin="round"/>
<path d="M7.00058 11.7576C7.37618 11.7576 7.68066 11.4531 7.68066 11.0775C7.68066 10.7019 7.37618 10.3975 7.00058 10.3975C6.62498 10.3975 6.3205 10.7019 6.3205 11.0775C6.3205 11.4531 6.62498 11.7576 7.00058 11.7576Z" fill="black"/>
</svg>
