<svg width="14" height="14" viewBox="0 0 14 14" fill="none" xmlns="http://www.w3.org/2000/svg">
<path d="M4.58335 5.28092C4.58335 5.00478 4.3595 4.78092 4.08335 4.78092C3.80721 4.78092 3.58335 5.00478 3.58335 5.28092H4.58335ZM4.08335 8.92213L3.72168 9.26737C3.81602 9.36621 3.94671 9.42213 4.08335 9.42213C4.22 9.42213 4.35068 9.36621 4.44503 9.26737L4.08335 8.92213ZM5.86691 7.77778C6.05758 7.57803 6.05022 7.26154 5.85047 7.07087C5.65072 6.8802 5.33422 6.88756 5.14355 7.08731L5.86691 7.77778ZM3.02316 7.08731C2.83249 6.88756 2.51599 6.8802 2.31624 7.07087C2.11649 7.26154 2.10913 7.57803 2.2998 7.77778L3.02316 7.08731ZM9.41669 8.92213C9.41669 9.19827 9.64054 9.42213 9.91669 9.42213C10.1928 9.42213 10.4167 9.19827 10.4167 8.92213H9.41669ZM9.91669 5.28092L10.2784 4.93569C10.184 4.83685 10.0533 4.78092 9.91669 4.78092C9.78004 4.78092 9.64936 4.83685 9.55501 4.93569L9.91669 5.28092ZM8.13313 6.42527C7.94246 6.62502 7.94982 6.94152 8.14957 7.13219C8.34932 7.32286 8.66582 7.3155 8.85649 7.11575L8.13313 6.42527ZM10.9769 7.11575C11.1676 7.3155 11.484 7.32286 11.6838 7.13219C11.8835 6.94152 11.8909 6.62502 11.7002 6.42527L10.9769 7.11575ZM3.58335 5.28092V8.92213H4.58335V5.28092H3.58335ZM5.14355 7.08731L3.72168 8.57689L4.44503 9.26737L5.86691 7.77778L5.14355 7.08731ZM4.44503 8.57689L3.02316 7.08731L2.2998 7.77778L3.72168 9.26737L4.44503 8.57689ZM10.4167 8.92213V5.28092H9.41669V8.92213H10.4167ZM8.85649 7.11575L10.2784 5.62616L9.55501 4.93569L8.13313 6.42527L8.85649 7.11575ZM9.55501 5.62616L10.9769 7.11575L11.7002 6.42527L10.2784 4.93569L9.55501 5.62616ZM12.3334 2.00893V13.0089H13.3334V2.00893H12.3334ZM1.66669 13.0089V2.00893H0.666687V13.0089H1.66669ZM1.55558 12.9163C1.59396 12.9163 1.62479 12.9335 1.64227 12.9518C1.65936 12.9697 1.66669 12.991 1.66669 13.0089H0.666687C0.666687 13.4879 1.04299 13.9163 1.55558 13.9163V12.9163ZM12.3334 13.0089C12.3334 12.991 12.3407 12.9697 12.3578 12.9518C12.3752 12.9335 12.4061 12.9163 12.4445 12.9163V13.9163C12.957 13.9163 13.3334 13.4879 13.3334 13.0089H12.3334ZM11.4722 1.08301C11.9262 1.08301 12.3334 1.47538 12.3334 2.00893H13.3334C13.3334 0.967449 12.5218 0.0830078 11.4722 0.0830078V1.08301ZM2.5278 0.0830078C1.47827 0.0830078 0.666687 0.967449 0.666687 2.00893H1.66669C1.66669 1.47538 2.07388 1.08301 2.5278 1.08301V0.0830078ZM2.5278 1.08301H7.00002V0.0830078H2.5278V1.08301ZM7.00002 1.08301H11.4722V0.0830078H7.00002V1.08301ZM12.4445 12.9163H7.00002V13.9163H12.4445V12.9163ZM7.00002 12.9163H1.55558V13.9163H7.00002V12.9163ZM6.50002 0.583008V13.4163H7.50002V0.583008H6.50002Z" fill="black"/>
</svg>
