<svg width="14" height="14" viewBox="0 0 14 14" fill="none" xmlns="http://www.w3.org/2000/svg">
<path d="M13.6303 12.1268C13.6303 13.1613 12.7916 14 11.7571 14H7.46834L10.3524 8.18785C11.8804 8.77942 13.0628 9.76283 13.6303 10.9473V12.1268Z" fill="black"/>
<path d="M2.24299 14C1.20843 14 0.369751 13.1613 0.369751 12.1268V10.9474C0.932965 9.7718 2.10182 8.7943 3.61311 8.20133L6.55637 14H2.24299Z" fill="black"/>
<path d="M6.97538 8.03521L5.47186 9.3662L6.97538 12.5704L8.50355 9.3662L6.97538 8.03521Z" fill="black"/>
<path d="M10.2782 3.25352C10.2782 5.05039 8.82155 6.50704 7.02468 6.50704C5.22781 6.50704 3.77116 5.05039 3.77116 3.25352C3.77116 1.45665 5.22781 0 7.02468 0C8.82155 0 10.2782 1.45665 10.2782 3.25352Z" fill="black"/>
</svg>
