<svg width="14" height="14" viewBox="0 0 14 14" fill="none" xmlns="http://www.w3.org/2000/svg">
<path d="M3.68054 1.45801H1.66946C1.39179 1.45801 1.16669 1.68311 1.16669 1.96078V12.0162C1.16669 12.2939 1.39179 12.519 1.66946 12.519H3.68054C3.95822 12.519 4.18331 12.2939 4.18331 12.0162V1.96078C4.18331 1.68311 3.95822 1.45801 3.68054 1.45801Z" stroke="black" stroke-width="1.5" stroke-linecap="round" stroke-linejoin="round"/>
<path d="M1.16669 3.97168H4.18331" stroke="black" stroke-width="1.5" stroke-linecap="round" stroke-linejoin="round"/>
<path d="M6.69714 1.45801H4.68606C4.40839 1.45801 4.18329 1.68311 4.18329 1.96078V12.0162C4.18329 12.2939 4.40839 12.519 4.68606 12.519H6.69714C6.97482 12.519 7.19991 12.2939 7.19991 12.0162V1.96078C7.19991 1.68311 6.97482 1.45801 6.69714 1.45801Z" stroke="black" stroke-width="1.5" stroke-linecap="round" stroke-linejoin="round"/>
<path d="M4.18329 10.0049H7.19991" stroke="black" stroke-width="1.5" stroke-linecap="round" stroke-linejoin="round"/>
<path d="M9.63072 1.29663L7.68816 1.81714C7.41994 1.88901 7.26077 2.16469 7.33264 2.43291L9.93519 12.1457C10.0071 12.414 10.2827 12.5731 10.551 12.5013L12.4935 11.9807C12.7617 11.9089 12.9209 11.6332 12.849 11.365L10.2465 1.65214C10.1746 1.38393 9.89893 1.22476 9.63072 1.29663Z" stroke="black" stroke-width="1.5" stroke-linecap="round" stroke-linejoin="round"/>
<path d="M9.41479 10.2036L12.3286 9.42285" stroke="black" stroke-width="1.5" stroke-linecap="round" stroke-linejoin="round"/>
<path d="M7.85321 4.37549L10.767 3.59473" stroke="black" stroke-width="1.5" stroke-linecap="round" stroke-linejoin="round"/>
</svg>
