<svg width="24" height="24" viewBox="0 0 24 24" fill="none" xmlns="http://www.w3.org/2000/svg">
<g clip-path="url(#clip0_2237_77176)">
<path d="M13.5396 16.6382C13.1124 16.9002 12.5654 17.0445 11.9992 17.0445C11.433 17.0445 10.886 16.9003 10.4588 16.6382L3.48493 12.3611C3.48493 12.3611 2.85547 11.9753 2.85547 12.8493C2.85547 13.8419 2.85547 16.8196 2.85547 16.8196C2.85547 16.8593 2.85547 17.0585 2.85547 17.1203C2.85547 19.3702 6.94919 21.7957 11.999 21.7957C17.0488 21.7957 21.1426 19.3703 21.1426 17.1203C21.1426 17.0585 21.1426 16.8593 21.1426 16.8196C21.1426 16.8196 21.1426 13.6613 21.1426 12.6085C21.1426 11.9069 20.6951 12.2498 20.6951 12.2498L13.5396 16.6382Z" fill="black"/>
<path d="M23.5981 8.95923C24.134 8.6306 24.134 8.09281 23.5981 7.76413L12.9743 2.45155C12.4384 2.12292 11.5615 2.12292 11.0257 2.45155L0.401895 7.76413C-0.133965 8.09275 -0.133965 8.63054 0.401895 8.95923L11.0257 15.4749C11.5615 15.8035 12.4384 15.8035 12.9743 15.4749" fill="black"/>
<path d="M23.1568 18.617C23.1568 16.818 23.1568 11.421 23.1568 11.421C23.1568 11.421 23.1618 11.0802 22.9596 11.1927C22.7973 11.283 22.3997 11.5047 22.2596 11.6266C22.0978 11.7671 22.1342 12.0827 22.1342 12.0827C22.1342 12.0827 22.1342 16.9835 22.1342 18.617C22.1342 18.7098 22.0545 18.7541 22.0165 18.7764C21.6493 18.9923 21.4023 19.3909 21.4023 19.8477C21.4023 20.5344 21.9589 21.091 22.6456 21.091C23.3322 21.091 23.8887 20.5344 23.8887 19.8477C23.8887 19.3891 23.64 18.9893 23.2704 18.774C23.2336 18.7526 23.1568 18.7097 23.1568 18.617Z" fill="black"/>
</g>
<defs>
<clipPath id="clip0_2237_77176">
<rect width="24" height="24" fill="white"/>
</clipPath>
</defs>
</svg>
