<svg width="24" height="24" viewBox="0 0 24 24" fill="none" xmlns="http://www.w3.org/2000/svg">
<path fill-rule="evenodd" clip-rule="evenodd" d="M18.2901 20.2326H19.2027C21.1959 20.2326 22.8049 18.6236 22.8049 16.6664V3.56623C22.8049 1.597 21.1959 0 19.2027 0H4.79366C2.80041 0 1.19141 1.597 1.19141 3.56623V16.6664C1.19141 18.6356 2.80041 20.2326 4.79366 20.2326H5.69422C6.64281 20.2326 7.56738 20.6049 8.2398 21.2773L10.2931 23.3066C11.2297 24.2311 12.7546 24.2311 13.6912 23.3066L15.7445 21.2773C16.4169 20.6049 17.3295 20.2326 18.2901 20.2326ZM11.6617 15.5497C11.8538 15.6097 12.154 15.6097 12.3341 15.5497C13.8951 15.0093 17.3893 12.788 17.4013 9.00562C17.4013 7.33657 16.0565 5.99172 14.3994 5.99172C13.4148 5.99172 12.5503 6.46001 11.9979 7.19247C11.4456 6.46001 10.581 5.99172 9.59643 5.99172C7.9394 5.99172 6.59456 7.33657 6.59456 9.00562C6.59456 12.788 10.1007 15.0093 11.6617 15.5497Z" fill="black"/>
</svg>
