<svg width="24" height="24" viewBox="0 0 24 24" fill="none" xmlns="http://www.w3.org/2000/svg">
<path fill-rule="evenodd" clip-rule="evenodd" d="M22.7992 18V6C22.7992 2.4 20.9992 0 16.7992 0H7.19922C2.99922 0 1.19922 2.4 1.19922 6V18C1.19922 21.6 2.99922 24 7.19922 24H16.7992C20.9992 24 22.7992 21.6 22.7992 18ZM17.3991 8.7H19.7991C20.2911 8.7 20.6991 8.292 20.6991 7.8C20.6991 7.308 20.2911 6.9 19.7991 6.9H17.3991C16.5711 6.9 15.8991 6.228 15.8991 5.4V3C15.8991 2.508 15.4911 2.1 14.9991 2.1C14.5071 2.1 14.0991 2.508 14.0991 3V5.4C14.0991 7.224 15.5751 8.7 17.3991 8.7ZM11.9989 14.1H7.19891C6.70691 14.1 6.29891 13.692 6.29891 13.2C6.29891 12.708 6.70691 12.3 7.19891 12.3H11.9989C12.4909 12.3 12.8989 12.708 12.8989 13.2C12.8989 13.692 12.4909 14.1 11.9989 14.1ZM6.29891 18C6.29891 18.492 6.70691 18.9 7.19891 18.9H16.7989C17.2909 18.9 17.6989 18.492 17.6989 18C17.6989 17.508 17.2909 17.1 16.7989 17.1H7.19891C6.70691 17.1 6.29891 17.508 6.29891 18Z" fill="black"/>
</svg>
