<svg width="24" height="24" viewBox="0 0 24 24" fill="none" xmlns="http://www.w3.org/2000/svg">
<path d="M21.4097 3.55122H12.9057V1.85041C12.9057 1.62486 12.8161 1.40856 12.6566 1.24908C12.4971 1.0896 12.2808 1 12.0553 1C11.8297 1 11.6134 1.0896 11.4539 1.24908C11.2945 1.40856 11.2049 1.62486 11.2049 1.85041V3.55122H2.70081C2.24989 3.55173 1.81758 3.73109 1.49873 4.04994C1.17987 4.3688 1.00052 4.8011 1 5.25203V18.0081C1.00052 18.459 1.17987 18.8914 1.49873 19.2102C1.81758 19.5291 2.24989 19.7084 2.70081 19.7089H6.88433L4.58796 22.5794C4.51809 22.6666 4.46609 22.7667 4.43493 22.874C4.40376 22.9813 4.39406 23.0937 4.40635 23.2047C4.41865 23.3158 4.45271 23.4233 4.5066 23.5212C4.56048 23.6191 4.63312 23.7054 4.72038 23.7752C4.80763 23.845 4.90779 23.8969 5.01512 23.928C5.12245 23.959 5.23485 23.9687 5.34589 23.9563C5.45694 23.9439 5.56445 23.9097 5.66229 23.8557C5.76013 23.8018 5.84638 23.7291 5.9161 23.6417L9.06235 19.7089H15.0482L18.1945 23.6417C18.3354 23.8176 18.5404 23.9304 18.7645 23.9552C18.9885 23.98 19.2132 23.9149 19.3893 23.774C19.5653 23.6332 19.6782 23.4283 19.7032 23.2043C19.7282 22.9803 19.6632 22.7555 19.5226 22.5794L17.2262 19.7089H21.4097C21.8607 19.7084 22.293 19.5291 22.6118 19.2102C22.9307 18.8914 23.11 18.459 23.1106 18.0081V5.25203C23.11 4.8011 22.9307 4.3688 22.6118 4.04994C22.293 3.73109 21.8607 3.55173 21.4097 3.55122ZM9.50406 14.6065C9.50406 14.832 9.41446 15.0483 9.25498 15.2078C9.0955 15.3673 8.8792 15.4569 8.65365 15.4569C8.42811 15.4569 8.21181 15.3673 8.05233 15.2078C7.89284 15.0483 7.80325 14.832 7.80325 14.6065V12.0553C7.80325 11.8297 7.89284 11.6134 8.05233 11.4539C8.21181 11.2945 8.42811 11.2049 8.65365 11.2049C8.8792 11.2049 9.0955 11.2945 9.25498 11.4539C9.41446 11.6134 9.50406 11.8297 9.50406 12.0553V14.6065ZM12.9057 14.6065C12.9057 14.832 12.8161 15.0483 12.6566 15.2078C12.4971 15.3673 12.2808 15.4569 12.0553 15.4569C11.8297 15.4569 11.6134 15.3673 11.4539 15.2078C11.2945 15.0483 11.2049 14.832 11.2049 14.6065V10.3545C11.2049 10.1289 11.2945 9.91262 11.4539 9.75314C11.6134 9.59366 11.8297 9.50406 12.0553 9.50406C12.2808 9.50406 12.4971 9.59366 12.6566 9.75314C12.8161 9.91262 12.9057 10.1289 12.9057 10.3545V14.6065ZM16.3073 14.6065C16.3073 14.832 16.2177 15.0483 16.0582 15.2078C15.8987 15.3673 15.6824 15.4569 15.4569 15.4569C15.2314 15.4569 15.0151 15.3673 14.8556 15.2078C14.6961 15.0483 14.6065 14.832 14.6065 14.6065V8.65365C14.6065 8.42811 14.6961 8.21181 14.8556 8.05233C15.0151 7.89284 15.2314 7.80325 15.4569 7.80325C15.6824 7.80325 15.8987 7.89284 16.0582 8.05233C16.2177 8.21181 16.3073 8.42811 16.3073 8.65365V14.6065Z" fill="black"/>
</svg>
