<svg width="24" height="24" viewBox="0 0 24 24" fill="none" xmlns="http://www.w3.org/2000/svg">
<path fill-rule="evenodd" clip-rule="evenodd" d="M23.6262 10.5328L22.4493 15.5522C21.4407 19.8872 19.4473 21.6404 15.7007 21.2801C15.1003 21.2321 14.4519 21.124 13.7554 20.9559L11.738 20.4756C6.7306 19.2868 5.18154 16.8131 6.35835 11.7936L7.53515 6.76219C7.77532 5.74149 8.06351 4.85289 8.42376 4.12038C9.82872 1.2144 12.2184 0.433865 16.2291 1.38251L18.2345 1.85083C23.2659 3.02764 24.803 5.51334 23.6262 10.5328ZM18.4224 10.5974L18.4223 10.5974L18.3909 10.5928L12.5669 9.11582C12.0866 8.99573 11.7984 8.5034 11.9185 8.02307C12.0385 7.54274 12.5309 7.25454 13.0112 7.37463L18.8352 8.85163C19.3155 8.97172 19.6037 9.46405 19.4836 9.94438C19.3876 10.3407 19.0153 10.6168 18.619 10.6168C18.5561 10.6168 18.4932 10.6077 18.4224 10.5974ZM14.9037 14.6561C14.9745 14.6665 15.0374 14.6756 15.1003 14.6756C15.5086 14.6756 15.8689 14.4114 15.9649 14.0031C16.085 13.5228 15.7968 13.0305 15.3165 12.9104L11.8221 12.0218C11.3418 11.9017 10.8494 12.1899 10.7294 12.6702C10.6093 13.1506 10.8975 13.6429 11.3778 13.763L14.8722 14.6516C14.8829 14.6531 14.8933 14.6546 14.9037 14.6561Z" fill="black"/>
<path fill-rule="evenodd" clip-rule="evenodd" d="M23.6262 10.5328L22.4493 15.5522C21.4407 19.8872 19.4473 21.6404 15.7007 21.2801C15.1003 21.2321 14.4519 21.124 13.7554 20.9559L11.738 20.4756C6.7306 19.2868 5.18154 16.8131 6.35835 11.7936L7.53515 6.76219C7.77532 5.74149 8.06351 4.85289 8.42376 4.12038C9.82872 1.2144 12.2184 0.433865 16.2291 1.38251L18.2345 1.85083C23.2659 3.02764 24.803 5.51334 23.6262 10.5328ZM18.6189 10.6168C18.556 10.6168 18.4932 10.6077 18.4223 10.5974L18.3908 10.5928L12.5668 9.11582C12.0865 8.99573 11.7983 8.5034 11.9184 8.02307C12.0384 7.54274 12.5308 7.25454 13.0111 7.37462L18.8351 8.85163C19.3154 8.97172 19.6036 9.46405 19.4835 9.94438C19.3875 10.3407 19.0152 10.6168 18.6189 10.6168ZM14.9036 14.6561C14.9745 14.6665 15.0374 14.6756 15.1003 14.6756C15.5085 14.6756 15.8688 14.4114 15.9649 14.0031C16.0849 13.5228 15.7967 13.0305 15.3164 12.9104L11.822 12.0218C11.3417 11.9017 10.8494 12.1899 10.7293 12.6702C10.6092 13.1506 10.8974 13.6429 11.3777 13.763L14.8721 14.6516C14.8828 14.6531 14.8933 14.6546 14.9036 14.6561Z" fill="black"/>
<path fill-rule="evenodd" clip-rule="evenodd" d="M13.8841 20.9874C13.841 20.9774 13.7977 20.9671 13.7542 20.9566L13.7541 20.9566C13.7976 20.9671 13.841 20.9774 13.8841 20.9874ZM11.7368 20.4763C6.72942 19.2875 5.18036 16.8138 6.35716 11.7943L7.53397 6.7629C7.77413 5.7422 8.06233 4.85359 8.42257 4.12109C8.42252 4.1211 8.42246 4.12111 8.42241 4.12112C8.06218 4.85361 7.77399 5.7422 7.53383 6.76287L6.35703 11.7943C5.18022 16.8137 6.72928 19.2874 11.7367 20.4762L11.7368 20.4763ZM6.94857 4.51607L5.12032 5.11777C0.353057 6.65483 -0.919813 9.17655 0.617238 13.9438L2.15429 18.687C3.70335 23.4543 6.21306 24.7392 10.9803 23.2021L12.8776 22.5777C13.231 22.4624 13.5648 22.3425 13.8794 22.2169C13.7456 22.1881 13.6107 22.1573 13.4746 22.1244L13.4723 22.1239L11.4593 21.6446C8.84139 21.023 6.82281 20.0007 5.7077 18.2053C4.59173 16.4085 4.57224 14.1466 5.18791 11.5202L6.36493 6.48783C6.52948 5.78849 6.72038 5.12624 6.94857 4.51607ZM15.6994 21.2809L15.6994 21.2808C15.6995 21.2808 15.6995 21.2808 15.6995 21.2808C15.6995 21.2809 15.6995 21.2809 15.6994 21.2809Z" fill="black"/>
</svg>
