<svg width="24" height="24" viewBox="0 0 24 24" fill="none" xmlns="http://www.w3.org/2000/svg">
<path fill-rule="evenodd" clip-rule="evenodd" d="M0 10.9452V13.0562C0 14.3036 1.01949 15.335 2.27886 15.335C4.44978 15.335 5.33733 16.8703 4.24588 18.7533C3.62219 19.8328 3.994 21.2361 5.08546 21.8598L7.16042 23.0472C8.10795 23.6109 9.33133 23.2751 9.89505 22.3275L10.027 22.0997C11.1184 20.2166 12.8936 20.2166 13.973 22.0997L14.1049 22.3275C14.6687 23.2751 15.8921 23.6109 16.8396 23.0472L18.9145 21.8598C20.006 21.2361 20.3778 19.8448 19.7541 18.7533C18.6627 16.8703 19.5502 15.335 21.7211 15.335C22.9805 15.335 24 14.3036 24 13.0562V10.9452C24 9.68587 22.9685 8.66638 21.7211 8.66638C19.5502 8.66638 18.6627 7.13114 19.7541 5.24809C20.3778 4.16862 20.006 2.76533 18.9145 2.14164L16.8396 0.954232C15.8921 0.390514 14.6687 0.726346 14.1049 1.67387L13.973 1.90176C12.8816 3.78482 11.1064 3.78482 10.027 1.90176L9.89505 1.67387C9.33133 0.726346 8.10795 0.390514 7.16042 0.954232L5.08546 2.14164C3.994 2.76533 3.62219 4.16862 4.24588 5.24809C5.33733 7.13114 4.44978 8.66638 2.27886 8.66638C1.01949 8.66638 0 9.69786 0 10.9452ZM15.8919 12.0007C15.8919 14.1536 14.1467 15.8988 11.9939 15.8988C9.84106 15.8988 8.09584 14.1536 8.09584 12.0007C8.09584 9.84789 9.84106 8.10268 11.9939 8.10268C14.1467 8.10268 15.8919 9.84789 15.8919 12.0007Z" fill="black"/>
</svg>
