<svg width="24" height="24" viewBox="0 0 24 24" fill="none" xmlns="http://www.w3.org/2000/svg">
<path fill-rule="evenodd" clip-rule="evenodd" d="M18.9815 13.0411C19.8677 11.7119 20.3826 10.1191 20.3826 8.38271C20.3826 3.74827 16.6343 0 11.9999 0C7.36546 0 3.61719 3.74827 3.61719 8.38271C3.61719 10.1191 4.13213 11.7119 5.0183 13.0411C6.31163 14.9572 8.3594 16.3104 10.7425 16.6576C11.1496 16.7295 11.5688 16.7654 11.9999 16.7654C12.431 16.7654 12.8501 16.7295 13.2573 16.6576C15.6404 16.3104 17.6882 14.9572 18.9815 13.0411ZM13.4009 6.17924L12.6944 4.76616C12.3112 3.99974 11.6885 3.99974 11.3412 4.76616L10.6346 6.17924C10.5388 6.37084 10.2873 6.56245 10.0718 6.59838L8.79043 6.81393C7.97611 6.95763 7.78451 7.54443 8.3713 8.13122L9.36525 9.12515C9.5329 9.2928 9.61673 9.62813 9.56883 9.85566L9.28142 11.0891C9.05389 12.0591 9.56883 12.4303 10.431 11.9274L11.6286 11.2208C11.8441 11.0891 12.2034 11.0891 12.4189 11.2208L13.6165 11.9274C14.4787 12.4423 14.9936 12.0591 14.7661 11.0891L14.4787 9.85566C14.4188 9.61616 14.5146 9.2928 14.6823 9.12515L15.6762 8.13122C16.263 7.54443 16.0714 6.94566 15.2571 6.81393L13.9757 6.59838C13.7482 6.56245 13.4967 6.37084 13.4009 6.17924Z" fill="black"/>
<path fill-rule="evenodd" clip-rule="evenodd" d="M11.1665 17.7252C10.9705 17.7057 10.7761 17.6792 10.5836 17.6456C7.98653 17.263 5.75094 15.8154 4.30438 13.7676L0.347986 17.724C-0.310655 18.3827 0.0126777 19.5203 0.9228 19.7359L2.89872 20.2029C3.32983 20.2987 3.67712 20.646 3.7849 21.0891L4.20403 22.8494C4.43156 23.8075 5.65304 24.0949 6.28773 23.3404L11.1665 17.7252ZM12 16.766L11.9999 16.766L11.9999 16.766C11.9999 16.766 12 16.766 12 16.766ZM19.6955 13.7676C18.2489 15.8154 16.0133 17.2629 13.4162 17.6456C13.2241 17.6792 13.0303 17.7056 12.8348 17.7251L17.7122 23.3285C18.3469 24.0829 19.5683 23.7955 19.7959 22.8375L20.215 21.0771C20.3108 20.634 20.6581 20.2987 21.1012 20.1909L23.0771 19.7239C23.9872 19.5084 24.3105 18.3707 23.6519 17.724L19.6955 13.7676Z" fill="black"/>
</svg>
