<svg width="24" height="24" viewBox="0 0 24 24" fill="none" xmlns="http://www.w3.org/2000/svg">
<path d="M22.1538 4.69231H17.5376V3.76923C17.5367 3.03504 17.2447 2.33117 16.7255 1.81202C16.2064 1.29287 15.5025 1.00084 14.7683 1H9.22987C8.49568 1.00084 7.7918 1.29287 7.27265 1.81202C6.7535 2.33117 6.46148 3.03504 6.46064 3.76923V4.69231H1.84615C1.3567 4.69287 0.887444 4.88755 0.541344 5.23365C0.195244 5.57975 0.000559775 6.049 0 6.53846V21.3077C0.000559775 21.7972 0.195244 22.2664 0.541344 22.6125C0.887444 22.9586 1.3567 23.1533 1.84615 23.1538H22.1538C22.6433 23.1533 23.1126 22.9586 23.4587 22.6125C23.8048 22.2664 23.9994 21.7972 24 21.3077V6.53846C23.9994 6.049 23.8048 5.57975 23.4587 5.23365C23.1126 4.88755 22.6433 4.69287 22.1538 4.69231ZM8.30679 3.76923C8.30707 3.5245 8.40441 3.28988 8.57746 3.11683C8.75051 2.94378 8.98514 2.84643 9.22987 2.84615H14.7683C15.0131 2.84643 15.2477 2.94378 15.4207 3.11683C15.5938 3.28988 15.6911 3.5245 15.6914 3.76923V4.69231H8.30679V3.76923ZM22.1538 6.53846L22.1542 11.3392C19.0382 13.0354 15.5469 13.9238 11.9991 13.9231C8.45217 13.9238 4.96159 13.0358 1.84615 11.3403V6.53846H22.1538ZM9.69141 11.1538C9.69142 10.909 9.78867 10.6743 9.96178 10.5011C10.1349 10.328 10.3697 10.2308 10.6145 10.2308H13.3837C13.6285 10.2308 13.8633 10.328 14.0364 10.5011C14.2095 10.6742 14.3068 10.909 14.3068 11.1538C14.3068 11.3987 14.2095 11.6334 14.0364 11.8066C13.8633 11.9797 13.6285 12.0769 13.3837 12.0769H10.6145C10.3697 12.0769 10.1349 11.9797 9.96178 11.8065C9.78867 11.6334 9.69142 11.3987 9.69141 11.1538Z" fill="black"/>
</svg>
