<svg width="61" height="60" viewBox="0 0 61 60" fill="none" xmlns="http://www.w3.org/2000/svg">
<g clip-path="url(#clip0_1600_29634)">
<path d="M52.3168 0H49.7371C48.6032 0 48.6032 1.75807 49.7371 1.75807H52.3168C54.9809 1.75807 57.1483 3.91768 57.1483 6.57212V26.9155C57.1483 29.5701 54.981 31.7297 52.3168 31.7297H49.391C49.198 31.7297 49.0103 31.7932 48.8569 31.9106L43.4883 36.0172V32.6087C43.4883 32.1233 43.0948 31.7297 42.6092 31.7297H31.9108C31.0347 31.7297 30.1927 31.4985 29.4501 31.0588V21.1911C29.4501 19.3428 28.5087 17.7098 27.0792 16.7437V6.57212C27.0792 3.91768 29.2466 1.75807 31.9108 1.75807H44.2285C45.3624 1.75807 45.3624 0 44.2285 0H31.9108C28.2772 0 25.3211 2.94828 25.3211 6.57212V15.9711C24.9186 15.875 24.4993 15.8226 24.0677 15.8226H7.97601C5.00828 15.8226 2.59375 18.2309 2.59375 21.1911V23.0893C2.59375 24.2231 4.35182 24.2231 4.35182 23.0893V21.1911C4.35182 19.2003 5.97756 17.5807 7.97601 17.5807H24.0678C26.0663 17.5807 27.6921 19.2003 27.6921 21.1911V31.4088C27.6816 31.4864 27.6821 31.5646 27.6921 31.6416V37.2336C27.6921 37.3441 27.6855 37.4542 27.6755 37.5637H25.8627C23.8652 37.5637 22.1999 39.0054 21.8547 40.9002C21.7747 40.9304 21.698 40.9724 21.6268 41.0273L17.6952 44.063V41.7231C17.6952 41.2377 17.3017 40.8441 16.8162 40.8441H7.97601C5.97756 40.8441 4.35182 39.2245 4.35182 37.2336V28.3635C4.35182 27.2296 2.59375 27.2296 2.59375 28.3635V37.2337C2.59375 40.194 5.00828 42.6023 7.97601 42.6023H15.9372V45.8524C15.9372 46.5575 16.7934 46.9805 17.3535 46.5482L21.788 43.1243V53.0134C21.788 55.255 23.616 57.0784 25.8628 57.0784H31.2572V59.1296C31.2572 59.8345 32.1133 60.258 32.6733 59.8255L36.2312 57.0784H37.2823C39.5291 57.0784 41.3571 55.2549 41.3571 53.0134V51.4528C41.3571 50.3189 39.5991 50.3189 39.5991 51.4528V53.0134C39.5991 54.2856 38.5598 55.3204 37.2823 55.3204H35.9313C35.7368 55.3204 35.5479 55.3848 35.3941 55.5036L33.0151 57.3403V56.1993C33.0151 55.7138 32.6216 55.3203 32.1361 55.3203H25.8627C24.5853 55.3203 23.5459 54.2853 23.5459 53.0133V41.6288C23.5459 40.3567 24.5852 39.3219 25.8627 39.3219H37.2823C38.5597 39.3219 39.5991 40.3568 39.5991 41.6288V45.9441C39.5991 47.078 41.3571 47.078 41.3571 45.9441V41.6289C41.3571 39.3874 39.5291 37.5639 37.2823 37.5639H29.4401C29.4468 37.4541 29.4502 33.0143 29.4502 33.0143C30.2253 33.3259 31.0563 33.4879 31.9109 33.4879H41.7303V37.7963C41.7303 38.4997 42.5829 38.9231 43.1434 38.4945L49.6888 33.4879H52.3169C55.9504 33.4879 58.9065 30.5396 58.9065 26.9156V6.57212C58.9064 2.94828 55.9503 0 52.3168 0V0Z" fill="#00A4FF"/>
<path d="M44.3103 6.4941C43.1942 6.20917 42.0568 7.09102 42.0568 8.24431C42.0568 9.50438 41.5976 10.7187 40.7644 11.663L38.3425 14.4036C38.1857 14.163 37.9147 14.0037 37.6061 14.0037H32.8781C32.3925 14.0037 31.999 14.3973 31.999 14.8828V25.5208C31.999 26.0063 32.3925 26.3999 32.8781 26.3999H37.6061C37.9613 26.3999 38.2665 26.1888 38.4052 25.8857C39.3624 26.4705 40.4716 26.7868 41.6002 26.7868H49.9559C51.2327 26.7868 52.2861 25.6788 52.2262 24.4053C52.1996 23.8413 52.2286 16.2684 52.2286 16.1002C52.2286 14.847 51.2091 13.8273 49.9585 13.8273L45.6134 13.8143L45.7933 13.3883C46.6155 11.4412 46.4801 9.18335 45.4316 7.34828C45.1869 6.91955 44.7885 6.61634 44.3103 6.4941C44.7885 6.61634 43.8319 6.37197 44.3103 6.4941C44.7885 6.61634 43.1943 6.20917 44.3103 6.4941ZM36.7271 24.6418H33.7571V15.7618H36.7271V24.6418ZM49.9559 15.5853C50.2398 15.5853 50.4707 15.8162 50.4707 16.1001C50.4707 16.2673 50.4689 16.7212 50.4666 17.3367C50.4536 20.7347 50.4449 23.9529 50.47 24.4878C50.4791 24.6808 50.3852 24.8095 50.3285 24.8691C50.2303 24.972 50.098 25.0286 49.9559 25.0286H41.6002C40.6042 25.0286 39.6294 24.6834 38.8551 24.0567L38.4851 23.7571V16.897L42.0822 12.8267C43.1996 11.5604 43.8149 9.93299 43.8149 8.24419C43.8149 8.1945 43.8827 8.18161 43.9052 8.22028C44.6837 9.58255 44.784 11.2587 44.1738 12.7042L43.48 14.3473C43.3655 14.6184 43.3943 14.9286 43.5564 15.174C43.7188 15.4194 43.993 15.5674 44.2871 15.5683L49.9559 15.5853Z" fill="#00A4FF"/>
<path d="M10.1207 30.5313C9.63515 30.5313 9.2417 30.9249 9.2417 31.4103C9.2417 31.8958 9.63515 32.2894 10.1207 32.2894H12.7119L12.2278 35.217C12.1486 35.6959 12.4728 36.1485 12.9517 36.2277C13.0003 36.2358 13.0485 36.2396 13.0961 36.2396C13.5185 36.2396 13.8911 35.9343 13.9623 35.5038L14.4937 32.2895H16.6143L16.1303 35.2171C16.051 35.696 16.3752 36.1486 16.8541 36.2278C16.9028 36.2359 16.9509 36.2398 16.9985 36.2398C17.4209 36.2398 17.7935 35.9344 17.8648 35.5039L18.3962 32.2896H21.9232C22.4088 32.2896 22.8023 31.896 22.8023 31.4106C22.8023 30.9251 22.4088 30.5315 21.9232 30.5315H18.6869L19.0414 28.3872H21.9232C22.4088 28.3872 22.8023 27.9936 22.8023 27.5081C22.8023 27.0227 22.4088 26.6291 21.9232 26.6291H19.3321L19.8161 23.7015C19.8954 23.2226 19.5712 22.77 19.0923 22.6908C18.6128 22.6113 18.1608 22.9358 18.0816 23.4147L17.5502 26.629H15.4296L15.9137 23.7013C15.9929 23.2224 15.6687 22.7699 15.1898 22.6907C14.7098 22.6112 14.2585 22.9356 14.1792 23.4145L13.6478 26.6289H10.1207C9.63515 26.6289 9.2417 27.0224 9.2417 27.5079C9.2417 27.9934 9.63515 28.3869 10.1207 28.3869H13.3571L13.0026 30.5313H10.1207ZM15.1391 28.3869H17.2597L16.9051 30.5313H14.7845L15.1391 28.3869Z" fill="#00A4FF"/>
<path d="M31.5619 43.8573C30.8521 43.2729 29.9078 43.0423 28.9605 43.2726C27.7466 43.5674 26.5217 44.7022 26.5217 46.5726C26.5217 47.7368 26.9466 48.7474 27.8206 49.662C28.5345 50.4092 29.5647 51.1197 31.1608 51.9659C31.2896 52.0343 31.4311 52.0684 31.5725 52.0684C31.714 52.0684 31.8555 52.0343 31.9843 51.9659C34.7688 50.4897 36.6232 49.0077 36.6232 46.5726C36.6232 44.692 35.3548 43.5688 34.0977 43.29C33.1533 43.0804 32.2377 43.3029 31.5619 43.8573ZM34.865 46.5726C34.865 47.886 33.9939 48.8573 31.5724 50.1903C29.151 48.8572 28.2797 47.8859 28.2797 46.5726C28.2797 45.5954 28.8455 45.1097 29.3752 44.981C29.4728 44.9573 29.5774 44.944 29.6848 44.944C30.0832 44.944 30.5212 45.128 30.7913 45.6515C30.9451 45.9495 31.2562 46.1342 31.5899 46.1273C31.925 46.1206 32.2272 45.9239 32.3689 45.6201C32.6534 45.0104 33.2516 44.9032 33.7167 45.0064C34.272 45.1294 34.865 45.6056 34.865 46.5726Z" fill="#00A4FF"/>
</g>
<defs>
<clipPath id="clip0_1600_29634">
<rect width="60" height="60" fill="white" transform="translate(0.75)"/>
</clipPath>
</defs>
</svg>
