<svg width="61" height="60" viewBox="0 0 61 60" fill="none" xmlns="http://www.w3.org/2000/svg">
<path d="M57.4375 29.0625H49.9375C49.6889 29.0625 49.4504 29.1613 49.2746 29.3371C49.0988 29.5129 49 29.7514 49 30V38.4375H42.4375C42.1889 38.4375 41.9504 38.5363 41.7746 38.7121C41.5988 38.8879 41.5 39.1264 41.5 39.375V45.9375H34.9375C34.6889 45.9375 34.4504 46.0363 34.2746 46.2121C34.0988 46.3879 34 46.6264 34 46.875V55.3125H32.125V45.9375C32.125 45.4104 31.8701 44.4241 30.1627 43.7413C29.1693 43.3438 27.8685 43.125 26.5 43.125C25.1315 43.125 23.8307 43.3438 22.8373 43.7413C22.8074 43.7532 22.779 43.7655 22.75 43.7776V41.25C22.75 40.7229 22.4951 39.7366 20.7877 39.0538C19.7943 38.6563 18.4935 38.4375 17.125 38.4375C15.7565 38.4375 14.4557 38.6563 13.4623 39.0538C13.4324 39.0657 13.404 39.078 13.375 39.0901V31.875C13.375 31.3479 13.1201 30.3616 11.4127 29.6788C10.4193 29.2813 9.11848 29.0625 7.75 29.0625C6.38152 29.0625 5.08072 29.2813 4.08726 29.6788C2.37992 30.3616 2.125 31.3479 2.125 31.875V55.3125C2.125 55.8396 2.37992 56.8259 4.08726 57.5087C5.08072 57.9062 6.38152 58.125 7.75 58.125C9.11848 58.125 10.4193 57.9062 11.4127 57.5087C11.7769 57.3686 12.1214 57.1818 12.4375 56.9531C12.7536 57.1818 13.0981 57.3686 13.4623 57.5087C14.4557 57.9062 15.7565 58.125 17.125 58.125C18.4935 58.125 19.7943 57.9062 20.7877 57.5087C21.1519 57.3686 21.4964 57.1818 21.8125 56.9531C22.1286 57.1818 22.4731 57.3686 22.8373 57.5087C23.8307 57.9062 25.1315 58.125 26.5 58.125C27.8685 58.125 29.1693 57.9062 30.1627 57.5087C30.3924 57.4179 30.6152 57.3106 30.8293 57.1875H57.4375C57.6861 57.1875 57.9246 57.0887 58.1004 56.9129C58.2762 56.7371 58.375 56.4986 58.375 56.25V30C58.375 29.7514 58.2762 29.5129 58.1004 29.3371C57.9246 29.1613 57.6861 29.0625 57.4375 29.0625ZM4 48.0974C4.02899 48.1095 4.05739 48.1218 4.08726 48.1337C5.08072 48.5312 6.38152 48.75 7.75 48.75C9.11848 48.75 10.4193 48.5312 11.4127 48.1337C11.4426 48.1218 11.471 48.1095 11.5 48.0974V50.5895C11.3371 50.8798 10.04 51.5625 7.75 51.5625C5.46 51.5625 4.16286 50.8798 4 50.5895V48.0974ZM4 43.4099C4.02899 43.422 4.05739 43.4343 4.08726 43.4462C5.08072 43.8437 6.38152 44.0625 7.75 44.0625C9.11848 44.0625 10.4193 43.8437 11.4127 43.4462C11.4426 43.4343 11.471 43.422 11.5 43.4099V45.902C11.3371 46.1923 10.04 46.875 7.75 46.875C5.46 46.875 4.16286 46.1923 4 45.902V43.4099ZM4 38.7224C4.02899 38.7345 4.05739 38.7468 4.08726 38.7587C5.08072 39.1562 6.38152 39.375 7.75 39.375C9.11848 39.375 10.4193 39.1562 11.4127 38.7587C11.4426 38.7468 11.471 38.7345 11.5 38.7224V41.2145C11.3371 41.5048 10.04 42.1875 7.75 42.1875C5.46 42.1875 4.16286 41.5048 4 41.2145V38.7224ZM4 34.0349C4.02899 34.047 4.05739 34.0593 4.08726 34.0712C5.08072 34.4687 6.38152 34.6875 7.75 34.6875C9.11848 34.6875 10.4193 34.4687 11.4127 34.0712C11.4426 34.0593 11.471 34.047 11.5 34.0349V36.527C11.3371 36.8173 10.04 37.5 7.75 37.5C5.46 37.5 4.16286 36.8173 4 36.527V34.0349ZM17.125 46.875C14.835 46.875 13.5379 46.1923 13.375 45.902V43.4099C13.404 43.422 13.4324 43.4343 13.4623 43.4462C14.4557 43.8437 15.7565 44.0625 17.125 44.0625C18.4935 44.0625 19.7943 43.8437 20.7877 43.4462C20.8176 43.4343 20.846 43.422 20.875 43.4099V45.902C20.7121 46.1923 19.415 46.875 17.125 46.875ZM13.375 48.0974C13.404 48.1095 13.4324 48.1218 13.4623 48.1337C14.4557 48.5312 15.7565 48.75 17.125 48.75C18.4935 48.75 19.7943 48.5312 20.7877 48.1337C20.8176 48.1218 20.846 48.1095 20.875 48.0974V50.5895C20.7121 50.8798 19.415 51.5625 17.125 51.5625C14.835 51.5625 13.5379 50.8798 13.375 50.5895V48.0974ZM22.75 48.0974C22.779 48.1095 22.8074 48.1218 22.8373 48.1337C23.8307 48.5312 25.1315 48.75 26.5 48.75C27.8685 48.75 29.1693 48.5312 30.1627 48.1337C30.1926 48.1218 30.221 48.1095 30.25 48.0974V50.5895C30.0871 50.8798 28.79 51.5625 26.5 51.5625C24.21 51.5625 22.9129 50.8798 22.75 50.5895V48.0974ZM26.5 45C28.7061 45 29.9883 45.6329 30.2252 45.9388C29.9814 46.246 28.6978 46.875 26.5 46.875C24.3022 46.875 23.0186 46.246 22.7748 45.9388C23.0117 45.6329 24.2939 45 26.5 45ZM17.125 40.3125C19.3311 40.3125 20.6133 40.9454 20.8502 41.2513C20.6064 41.5585 19.3228 42.1875 17.125 42.1875C14.924 42.1875 13.64 41.5568 13.3989 41.25C13.64 40.9432 14.924 40.3125 17.125 40.3125ZM7.75 30.9375C9.95609 30.9375 11.2383 31.5704 11.4752 31.8763C11.2314 32.1835 9.94784 32.8125 7.75 32.8125C5.55216 32.8125 4.26862 32.1835 4.02484 31.8763C4.26169 31.5704 5.54391 30.9375 7.75 30.9375ZM7.75 56.25C5.46404 56.25 4.16657 55.5694 4 55.2783V52.7849C4.02899 52.797 4.05739 52.8093 4.08726 52.8212C5.08072 53.2187 6.38152 53.4375 7.75 53.4375C9.11848 53.4375 10.4193 53.2187 11.4127 52.8212C11.4426 52.8093 11.471 52.797 11.5 52.7849V55.2783C11.3334 55.5694 10.036 56.25 7.75 56.25ZM17.125 56.25C14.835 56.25 13.5379 55.5673 13.375 55.277V52.7849C13.404 52.797 13.4324 52.8093 13.4623 52.8212C14.4557 53.2187 15.7565 53.4375 17.125 53.4375C18.4935 53.4375 19.7943 53.2187 20.7877 52.8212C20.8176 52.8093 20.846 52.797 20.875 52.7849V55.2783C20.7084 55.5694 19.411 56.25 17.125 56.25ZM26.5 56.25C24.214 56.25 22.9166 55.5694 22.75 55.2783V52.7849C22.779 52.797 22.8074 52.8093 22.8373 52.8212C23.8307 53.2187 25.1315 53.4375 26.5 53.4375C27.8685 53.4375 29.1693 53.2187 30.1627 52.8212C30.1926 52.8093 30.221 52.797 30.25 52.7849V55.2783C30.0834 55.5694 28.786 56.25 26.5 56.25ZM35.875 47.8125H41.5V55.3125H35.875V47.8125ZM43.375 40.3125H49V55.3125H43.375V40.3125ZM50.875 55.3125V30.9375H56.5V55.3125H50.875Z" fill="#00A4FF"/>
<path d="M28.375 39.375H26.5V41.25H28.375V39.375Z" fill="#00A4FF"/>
<path d="M30.25 39.375V41.25H34.9375C35.1861 41.25 35.4246 41.1512 35.6004 40.9755L54.625 21.9509V23.4375H56.5V19.6875C56.5 19.4389 56.4012 19.2004 56.2254 19.0246C56.0496 18.8488 55.8111 18.75 55.5625 18.75H51.8125V20.625H53.2991L34.5491 39.375H30.25Z" fill="#00A4FF"/>
<path d="M42.6866 7.83052C38.5353 3.99529 33.0893 1.86836 27.4375 1.87502C15.031 1.87502 4.9375 11.9685 4.9375 24.375C4.93751 25.3559 5.00085 26.3358 5.12713 27.3086L6.98645 27.0664C6.87061 26.174 6.8125 25.275 6.8125 24.375C6.8125 24.0608 6.82074 23.7484 6.83472 23.4375H11.0312L13.5625 26.8125C13.6498 26.9289 13.7631 27.0234 13.8932 27.0885C14.0234 27.1536 14.167 27.1875 14.3125 27.1875H21.2817L23.3861 30.6948L20.3125 33C20.1961 33.0873 20.1016 33.2005 20.0365 33.3307C19.9714 33.4609 19.9375 33.6045 19.9375 33.75V36.5625H21.8125V34.2188L25.1875 31.6876C25.373 31.5484 25.5004 31.3454 25.545 31.1177C25.5896 30.8901 25.5482 30.654 25.4289 30.4551L22.6164 25.7676C22.5331 25.6288 22.4153 25.514 22.2744 25.4342C22.1335 25.3544 21.9744 25.3125 21.8125 25.3125H14.7812L12.25 21.9375C12.1627 21.8211 12.0494 21.7266 11.9193 21.6615C11.7891 21.5964 11.6455 21.5625 11.5 21.5625H7.00507C7.4961 17.9856 8.9219 14.6014 11.1386 11.7515L14.3125 13.6558V16.875C14.3125 17.1237 14.4113 17.3621 14.5871 17.5379C14.7629 17.7137 15.0014 17.8125 15.25 17.8125H19.5491L23.0246 21.288C23.1779 21.4412 23.3795 21.5366 23.5951 21.558C23.8108 21.5793 24.0272 21.5253 24.2075 21.405L29.8325 17.655C29.9609 17.5694 30.0662 17.4535 30.1391 17.3174C30.2119 17.1813 30.25 17.0294 30.25 16.875V11.6383L36.1923 5.69609C37.6491 6.3796 39.0207 7.23164 40.279 8.23473L35.2748 12.4048C35.1227 12.5316 35.0147 12.7032 34.9661 12.8951C34.9176 13.087 34.931 13.2894 35.0046 13.4732L36.6839 17.6715L34.4688 20.625H30.25C30.0472 20.625 29.8498 20.6908 29.6875 20.8125L25.9375 23.625C25.7458 23.7688 25.6164 23.9805 25.576 24.2167C25.5355 24.4529 25.587 24.6956 25.72 24.895L29.47 30.52C29.5556 30.6485 29.6716 30.7538 29.8076 30.8266C29.9437 30.8994 30.0957 30.9375 30.25 30.9375H33.0625V36.5625H34.9375V30C34.9375 29.7514 34.8387 29.5129 34.6629 29.3371C34.4871 29.1613 34.2486 29.0625 34 29.0625H30.7517L27.772 24.5929L30.5625 22.5H34.9375C35.083 22.5 35.2266 22.4661 35.3568 22.401C35.4869 22.3359 35.6002 22.2414 35.6875 22.125L38.5 18.375C38.5965 18.2463 38.6583 18.0949 38.6794 17.9355C38.7005 17.776 38.6802 17.6137 38.6204 17.4644L36.9984 13.4092L41.7077 9.48474C45.3246 12.9404 47.5567 17.5966 47.9855 22.5805L49.8537 22.4196C49.3731 16.8314 46.8159 11.6262 42.6866 7.83052ZM28.6496 10.5871C28.4738 10.7629 28.375 11.0014 28.375 11.25V16.3733L23.807 19.4187L20.6004 16.2121C20.4246 16.0363 20.1861 15.9375 19.9375 15.9375H16.1875V13.125C16.1875 12.9631 16.1456 12.804 16.0658 12.6631C15.986 12.5222 15.8711 12.4044 15.7323 12.3211L12.372 10.3049C15.1087 7.37056 18.6422 5.29862 22.5392 4.34311C26.4362 3.38759 30.5274 3.59005 34.311 4.92564L28.6496 10.5871Z" fill="#00A4FF"/>
</svg>
