<svg width="61" height="60" viewBox="0 0 61 60" fill="none" xmlns="http://www.w3.org/2000/svg">
<path d="M56.8287 40.2931C56.3429 40.2931 55.9492 40.6868 55.9492 41.1726V51.2943C55.9492 52.249 55.1725 53.0257 54.2178 53.0257H28.8847V50.4401C28.8847 50.1761 28.833 49.8388 28.6561 49.4684C29.7453 49.069 30.6439 48.5809 31.2639 48.0061H33.0369C34.4483 48.0061 35.5965 46.8578 35.5965 45.4464C35.5965 44.035 34.4483 42.8868 33.0369 42.8868H32.2002V41.1937C32.2002 41.174 32.1994 41.1539 32.1988 41.134H33.0369C34.4483 41.134 35.5965 39.9857 35.5965 38.5743C35.5965 37.1629 34.4483 36.0147 33.0369 36.0147H30.8592C30.0636 36.0147 29.3517 36.3796 28.8819 36.9508C28.8832 36.92 28.8848 36.8893 28.8848 36.8581V33.3292C29.3546 33.8982 30.0653 34.2616 30.8591 34.2616H33.0368C34.4482 34.2616 35.5964 33.1134 35.5964 31.702C35.5964 30.2906 34.4482 29.1424 33.0368 29.1424H32.2001V25.7091H33.0368C34.4482 25.7091 35.5964 24.5609 35.5964 23.1495C35.5964 21.7381 34.4482 20.5899 33.0368 20.5899H30.859C30.1624 20.5899 29.5019 20.8779 29.0253 21.3661C26.6093 20.3943 23.1199 19.8959 19.6536 19.8959C18.5529 19.8959 17.4499 19.9463 16.3795 20.0461V3.49042C16.3795 2.5357 17.1563 1.75898 18.111 1.75898H25.2281C25.7139 1.75898 26.1076 1.36523 26.1076 0.87949C26.1076 0.393749 25.7139 0 25.2281 0H18.111C16.1863 0 14.6206 1.56586 14.6206 3.49042V20.26C10.4224 20.8953 7.10734 22.3559 7.10734 24.588V28.6672C4.37558 29.723 3.79199 31.0269 3.79199 31.947V36.8581C3.79199 38.3113 5.1973 39.4375 7.3362 40.222C7.15937 40.592 7.10745 40.9291 7.10745 41.1937V46.1048C7.10745 46.4464 7.18538 46.7698 7.33199 47.0751C4.43711 48.1292 3.79199 49.4628 3.79199 50.4402V55.3513C3.79199 58.2777 9.30788 59.6684 14.0313 59.9701C14.0504 59.9713 14.0693 59.972 14.0882 59.972C14.5483 59.972 14.9353 59.6141 14.9651 59.1485C14.996 58.6637 14.6282 58.2456 14.1434 58.2147C8.14562 57.8316 5.55097 56.1331 5.55097 55.3513V52.959C7.85968 54.3927 12.1163 55.1319 16.3383 55.1319C20.5603 55.1319 24.8169 54.3927 27.1256 52.959V55.3513C27.1256 56.228 24.0934 57.9438 18.0519 58.2421C17.5668 58.266 17.1928 58.6787 17.2169 59.1639C17.2401 59.6344 17.6288 60 18.0945 60C18.1091 60 18.1238 59.9997 18.1385 59.9989C23.4874 59.7349 28.8847 58.1954 28.8847 55.3513V54.7849H54.2179C56.1426 54.7849 57.7083 53.2191 57.7083 51.2945V41.1728C57.7083 40.687 57.3145 40.2931 56.8287 40.2931ZM32.2001 46.1048V44.646H33.0368V44.6459C33.4782 44.6459 33.8373 45.005 33.8373 45.4464C33.8373 45.8878 33.4781 46.247 33.0368 46.247H32.1955C32.1985 46.2 32.2001 46.1525 32.2001 46.1048ZM30.8591 37.7737H33.0368C33.4782 37.7737 33.8373 38.1327 33.8373 38.5742C33.8373 39.0156 33.4781 39.3748 33.0368 39.3748H31.3591C31.0458 39.0633 30.6253 38.7515 30.069 38.4507C30.1287 38.0679 30.4597 37.7737 30.8591 37.7737ZM30.4411 41.1936C30.4411 41.5431 29.8491 42.3282 27.6303 43.0531C25.5125 43.7451 22.6798 44.1262 19.6538 44.1262C12.6739 44.1262 8.86644 42.1888 8.86644 41.1936C8.8662 41.0412 8.96429 40.8815 9.07632 40.748C11.2171 41.2791 13.784 41.5498 16.3382 41.5498C20.6916 41.5498 25.0818 40.7638 27.3353 39.2411C29.7845 39.983 30.4411 40.8366 30.4411 41.1936ZM33.0369 30.9016C33.4782 30.9015 33.8373 31.2605 33.8373 31.7021C33.8373 32.1435 33.4781 32.5026 33.0368 32.5026H30.8591C30.5878 32.5026 30.3482 32.3667 30.2033 32.1598C30.8535 31.7897 31.369 31.37 31.7135 30.9016H33.0369ZM30.8591 22.3494H33.0368C33.4782 22.3494 33.8373 22.7084 33.8373 23.1499C33.8373 23.5913 33.4781 23.9504 33.0368 23.9504H32.1046C31.9233 23.3521 31.4882 22.818 30.8557 22.3495C30.857 22.3495 30.8579 22.3494 30.8591 22.3494ZM11.6771 22.7285C13.7949 22.0365 16.6275 21.6554 19.6536 21.6554C26.6336 21.6554 30.441 23.5927 30.441 24.5881C30.441 24.9377 29.8489 25.7227 27.6302 26.4476C25.5124 27.1396 22.6797 27.5207 19.6536 27.5207C12.6737 27.5207 8.86632 25.5834 8.86632 24.5881C8.8662 24.2384 9.45835 23.4534 11.6771 22.7285ZM8.86609 27.1069C11.1749 28.5406 15.4315 29.2798 19.6535 29.2798C23.8755 29.2798 28.1321 28.5405 30.4408 27.1069V29.4992C30.4408 29.7741 30.0742 30.3183 28.8385 30.8908C28.8353 30.8922 28.8322 30.8937 28.8291 30.8951C28.4954 31.0492 28.0996 31.2053 27.63 31.3587C25.5122 32.0507 22.6795 32.4318 19.6534 32.4318C12.6736 32.4318 8.86609 30.4945 8.86609 29.4991V27.1069ZM7.33503 30.4757C8.51651 32.919 14.1151 34.1908 19.6536 34.1908C21.0901 34.1908 22.5305 34.105 23.897 33.9357C21.8303 34.5443 19.1483 34.8796 16.3384 34.8796C9.3585 34.8796 5.55109 32.9423 5.55109 31.9469C5.55097 31.5833 6.1089 31.0142 7.33503 30.4757ZM5.55097 36.858V34.4657C7.85968 35.8994 12.1163 36.6386 16.3383 36.6386C20.3199 36.6386 24.7397 35.9484 27.1256 34.4684V36.858C27.1256 37.2075 26.5336 37.9926 24.3149 38.7175C22.1971 39.4095 19.3644 39.7906 16.3383 39.7906C9.35839 39.7907 5.55097 37.8535 5.55097 36.858ZM24.3149 52.2997C22.1971 52.9917 19.3644 53.3728 16.3383 53.3728C9.35839 53.3728 5.55097 51.4355 5.55097 50.4401C5.55097 49.947 6.5248 49.1351 8.65679 48.4878C10.9104 50.0104 15.3005 50.7963 19.6536 50.7963C22.2081 50.7963 24.775 50.5256 26.9159 49.9944C27.0271 50.127 27.1256 50.2874 27.1256 50.4401C27.1256 50.7897 26.5336 51.5747 24.3149 52.2997ZM27.6301 47.9642C25.5124 48.6562 22.6797 49.0373 19.6535 49.0373C12.6737 49.0373 8.8662 47.0999 8.8662 46.1046V43.7124C11.1749 45.146 15.4315 45.8853 19.6535 45.8853C23.8755 45.8853 28.1321 45.146 30.4408 43.7124V46.1046C30.441 46.4542 29.8489 47.2392 27.6301 47.9642Z" fill="#00A4FF"/>
<path d="M54.2177 0H29.2359C28.7502 0 28.3564 0.393749 28.3564 0.87949C28.3564 1.36523 28.7502 1.75898 29.2359 1.75898H54.2178C55.1725 1.75898 55.9492 2.5357 55.9492 3.49042V37.1645C55.9492 37.6503 56.3429 38.044 56.8287 38.044C57.3146 38.044 57.7082 37.6503 57.7082 37.1645V3.49042C57.7082 1.56586 56.1424 0 54.2177 0Z" fill="#00A4FF"/>
<path d="M52.6445 7.18613C52.6445 6.70039 52.2509 6.30664 51.765 6.30664H20.5636C20.0778 6.30664 19.6841 6.70039 19.6841 7.18613V15.8312C19.6841 16.3169 20.0778 16.7106 20.5636 16.7106H51.7651C52.251 16.7106 52.6446 16.3169 52.6446 15.8312V7.18613H52.6445ZM50.8855 14.9517H21.4431V8.06562H50.8855V14.9517Z" fill="#00A4FF"/>
<path d="M41.4697 20.5898H39.292C37.8806 20.5898 36.7324 21.738 36.7324 23.1495C36.7324 24.5609 37.8806 25.7091 39.292 25.7091H41.4697C42.8811 25.7091 44.0293 24.5609 44.0293 23.1495C44.0293 21.738 42.881 20.5898 41.4697 20.5898ZM41.4697 23.95H39.292C38.8506 23.95 38.4915 23.5909 38.4915 23.1495C38.4915 22.708 38.8507 22.3489 39.292 22.3489H41.4697C41.9112 22.3489 42.2702 22.708 42.2702 23.1495C42.2702 23.5909 41.911 23.95 41.4697 23.95Z" fill="#00A4FF"/>
<path d="M49.9026 20.5898H47.7249C46.3135 20.5898 45.1653 21.738 45.1653 23.1495C45.1653 24.5609 46.3135 25.7091 47.7249 25.7091H49.9026C51.314 25.7091 52.4622 24.5609 52.4622 23.1495C52.4622 21.738 51.314 20.5898 49.9026 20.5898ZM49.9026 23.95H47.7249C47.2834 23.95 46.9244 23.5909 46.9244 23.1495C46.9244 22.708 47.2836 22.3489 47.7249 22.3489H49.9026C50.344 22.3489 50.7031 22.708 50.7031 23.1495C50.7031 23.5909 50.344 23.95 49.9026 23.95Z" fill="#00A4FF"/>
<path d="M41.4697 29.1426H39.292C37.8806 29.1426 36.7324 30.2908 36.7324 31.7022C36.7324 33.1136 37.8806 34.2618 39.292 34.2618H41.4697C42.8811 34.2618 44.0293 33.1136 44.0293 31.7022C44.0293 30.2908 42.881 29.1426 41.4697 29.1426ZM41.4697 32.5028H39.292C38.8506 32.5028 38.4915 32.1437 38.4915 31.7023C38.4915 31.2609 38.8507 30.9018 39.292 30.9018H41.4697C41.9112 30.9018 42.2702 31.2609 42.2702 31.7023C42.2701 32.1437 41.911 32.5028 41.4697 32.5028Z" fill="#00A4FF"/>
<path d="M49.9026 29.1426H47.7249C46.3135 29.1426 45.1653 30.2908 45.1653 31.7022C45.1653 33.1136 46.3135 34.2618 47.7249 34.2618H49.9026C51.314 34.2618 52.4622 33.1136 52.4622 31.7022C52.4622 30.2908 51.314 29.1426 49.9026 29.1426ZM49.9026 32.5028H47.7249C47.2834 32.5028 46.9244 32.1437 46.9244 31.7023C46.9244 31.2609 47.2836 30.9018 47.7249 30.9018H49.9026C50.344 30.9018 50.7031 31.2609 50.7031 31.7023C50.7031 32.1437 50.344 32.5028 49.9026 32.5028Z" fill="#00A4FF"/>
<path d="M41.4697 36.0146H39.292C37.8806 36.0146 36.7324 37.1628 36.7324 38.5742C36.7324 39.9857 37.8806 41.134 39.292 41.134H41.4697C42.8811 41.134 44.0293 39.9857 44.0293 38.5742C44.0293 37.1628 42.881 36.0146 41.4697 36.0146ZM41.4697 39.3749H39.292C38.8506 39.3749 38.4915 39.0157 38.4915 38.5742C38.4915 38.1328 38.8507 37.7737 39.292 37.7737H41.4697C41.9112 37.7737 42.2702 38.1328 42.2702 38.5742C42.2701 39.0157 41.911 39.3749 41.4697 39.3749Z" fill="#00A4FF"/>
<path d="M49.9026 36.0146H47.7249C46.3135 36.0146 45.1653 37.1628 45.1653 38.5742C45.1653 39.9857 46.3135 41.134 47.7249 41.134H49.9026C51.314 41.134 52.4622 39.9857 52.4622 38.5742C52.4622 37.1628 51.314 36.0146 49.9026 36.0146ZM49.9026 39.3749H47.7249C47.2834 39.3749 46.9244 39.0157 46.9244 38.5742C46.9244 38.1328 47.2836 37.7737 47.7249 37.7737H49.9026C50.344 37.7737 50.7031 38.1328 50.7031 38.5742C50.7031 39.0157 50.344 39.3749 49.9026 39.3749Z" fill="#00A4FF"/>
<path d="M41.4697 42.8867H39.292C37.8806 42.8867 36.7324 44.0349 36.7324 45.4463C36.7324 46.8577 37.8806 48.006 39.292 48.006H41.4697C42.8811 48.006 44.0293 46.8577 44.0293 45.4463C44.0292 44.0349 42.881 42.8867 41.4697 42.8867ZM41.4697 46.2468H39.292C38.8506 46.2468 38.4915 45.8876 38.4915 45.4462C38.4915 45.0048 38.8507 44.6457 39.292 44.6457H41.4697C41.9112 44.6457 42.2702 45.0048 42.2702 45.4462C42.2701 45.8876 41.911 46.2468 41.4697 46.2468Z" fill="#00A4FF"/>
<path d="M49.9026 42.8867H47.7249C46.3135 42.8867 45.1653 44.0349 45.1653 45.4463C45.1653 46.8577 46.3135 48.006 47.7249 48.006H49.9026C51.314 48.006 52.4622 46.8577 52.4622 45.4463C52.4622 44.0349 51.314 42.8867 49.9026 42.8867ZM49.9026 46.2468H47.7249C47.2834 46.2468 46.9244 45.8876 46.9244 45.4462C46.9244 45.0048 47.2836 44.6457 47.7249 44.6457H49.9026C50.344 44.6457 50.7031 45.0048 50.7031 45.4462C50.7031 45.8876 50.344 46.2468 49.9026 46.2468Z" fill="#00A4FF"/>
<path d="M11.7722 17.3652H8.79844C8.31269 17.3652 7.91895 17.759 7.91895 18.2447C7.91895 18.7305 8.31269 19.1242 8.79844 19.1242H11.7722C12.2579 19.1242 12.6517 18.7305 12.6517 18.2447C12.6517 17.759 12.2579 17.3652 11.7722 17.3652Z" fill="#00A4FF"/>
<path d="M11.7722 14.6396H8.79844C8.31269 14.6396 7.91895 15.0334 7.91895 15.5191C7.91895 16.0049 8.31269 16.3986 8.79844 16.3986H11.7722C12.2579 16.3986 12.6517 16.0049 12.6517 15.5191C12.6517 15.0334 12.2579 14.6396 11.7722 14.6396Z" fill="#00A4FF"/>
<path d="M11.7665 11.6152C11.2807 11.6152 10.887 12.009 10.887 12.4947C10.887 12.9805 11.2807 13.3742 11.7665 13.3742H11.7782C12.2639 13.3742 12.6518 12.9805 12.6518 12.4947C12.6518 12.009 12.2522 11.6152 11.7665 11.6152Z" fill="#00A4FF"/>
</svg>
