<svg width="21" height="24" viewBox="0 0 21 24" fill="none" xmlns="http://www.w3.org/2000/svg">
<path d="M14.4994 6.74902L5.38756 16.0121C5.05937 16.3403 4.875 16.7854 4.875 17.2496C4.875 17.7137 5.05937 18.1588 5.38756 18.487C5.71575 18.8152 6.16087 18.9996 6.625 18.9996C7.08913 18.9996 7.53425 18.8152 7.86244 18.487L18.7242 7.4739C19.0492 7.14889 19.307 6.76305 19.4829 6.33842C19.6588 5.91378 19.7494 5.45865 19.7494 4.99902C19.7494 4.5394 19.6588 4.08427 19.4829 3.65963C19.307 3.23499 19.0492 2.84915 18.7242 2.52415C18.3992 2.19914 18.0134 1.94134 17.5888 1.76545C17.1641 1.58955 16.709 1.49902 16.2494 1.49902C15.7897 1.49902 15.3346 1.58955 14.91 1.76545C14.4853 1.94134 14.0995 2.19914 13.7745 2.52415L2.91269 13.5372C1.92812 14.5218 1.375 15.8572 1.375 17.2496C1.375 18.6419 1.92812 19.9773 2.91269 20.9619C3.89726 21.9464 5.23261 22.4996 6.625 22.4996C8.01739 22.4996 9.35275 21.9464 10.3373 20.9619L19.3119 11.999" stroke="#4B5563" stroke-width="2" stroke-linecap="round" stroke-linejoin="round"/>
</svg>
