<svg width="28" height="28" viewBox="0 0 28 28" fill="none" xmlns="http://www.w3.org/2000/svg">
<path d="M14 24.5C19.799 24.5 24.5 19.799 24.5 14C24.5 8.20101 19.799 3.5 14 3.5C8.20101 3.5 3.5 8.20101 3.5 14C3.5 19.799 8.20101 24.5 14 24.5Z" stroke="#4B5563" stroke-width="2" stroke-linecap="round" stroke-linejoin="round"/>
<path d="M10.0625 13.125C10.7874 13.125 11.375 12.5374 11.375 11.8125C11.375 11.0876 10.7874 10.5 10.0625 10.5C9.33763 10.5 8.75 11.0876 8.75 11.8125C8.75 12.5374 9.33763 13.125 10.0625 13.125Z" fill="#4B5563"/>
<path d="M17.9375 13.125C18.6624 13.125 19.25 12.5374 19.25 11.8125C19.25 11.0876 18.6624 10.5 17.9375 10.5C17.2126 10.5 16.625 11.0876 16.625 11.8125C16.625 12.5374 17.2126 13.125 17.9375 13.125Z" fill="#4B5563"/>
<path d="M18.5487 16.625C18.0877 17.4232 17.4248 18.086 16.6265 18.5468C15.8282 19.0077 14.9227 19.2503 14.0009 19.2503C13.0792 19.2503 12.1737 19.0077 11.3754 18.5469C10.5771 18.0861 9.91412 17.4233 9.45312 16.6251" stroke="#4B5563" stroke-width="2" stroke-linecap="round" stroke-linejoin="round"/>
</svg>
