<svg width="19" height="20" viewBox="0 0 19 20" fill="none" xmlns="http://www.w3.org/2000/svg">
<path d="M4.16802 12.9652C5.94341 15.0874 8.08058 16.7584 10.5199 17.9407C11.4486 18.3809 12.6906 18.903 14.0744 18.9925C14.1601 18.9963 14.2422 19 14.328 19C15.2567 19 16.0027 18.6792 16.6106 18.0191C16.6144 18.0153 16.6218 18.0079 16.6255 18.0004C16.8419 17.7393 17.088 17.5044 17.3454 17.2545C17.5207 17.0866 17.6997 16.9113 17.8713 16.7323C18.6657 15.9043 18.6657 14.8525 17.8638 14.0506L15.6222 11.809C15.2418 11.4136 14.7868 11.2047 14.3093 11.2047C13.8319 11.2047 13.3732 11.4136 12.9815 11.8052L11.6463 13.1405C11.5232 13.0696 11.3964 13.0062 11.277 12.9465C11.1278 12.8719 10.9898 12.8011 10.8667 12.7228C9.65082 11.9507 8.5468 10.9436 7.49127 9.6494C6.95791 8.97431 6.59985 8.40738 6.34995 7.82926C6.70056 7.51223 7.02878 7.18027 7.34581 6.85578C7.4577 6.74016 7.57333 6.62453 7.68895 6.50891C8.09177 6.10609 8.3081 5.63987 8.3081 5.16618C8.3081 4.6925 8.0955 4.22627 7.68895 3.82346L6.57747 2.71198C6.44693 2.58143 6.32385 2.45462 6.19703 2.32408C5.95087 2.07045 5.69351 1.80937 5.43988 1.57439C5.05571 1.19768 4.60441 1 4.127 1C3.65331 1 3.19828 1.19768 2.79919 1.57812L1.40424 2.97306C0.896992 3.48032 0.609797 4.09573 0.550121 4.80812C0.479254 5.69954 0.643365 6.64691 1.06856 7.79196C1.72128 9.56361 2.70594 11.2085 4.16802 12.9652ZM1.46019 4.88645C1.50495 4.39039 1.69517 3.97638 2.05323 3.61832L3.44071 2.23083C3.65704 2.02196 3.89575 1.9138 4.127 1.9138C4.35451 1.9138 4.58576 2.02196 4.79836 2.23829C5.04826 2.46954 5.28323 2.71198 5.53686 2.96933C5.66367 3.09988 5.79421 3.23042 5.92476 3.36469L7.03624 4.47617C7.26748 4.70742 7.38684 4.9424 7.38684 5.17364C7.38684 5.40489 7.26748 5.63987 7.03624 5.87112C6.92061 5.98674 6.80499 6.10609 6.68937 6.22172C6.34249 6.57232 6.018 6.90427 5.65994 7.2213C5.65248 7.22876 5.64875 7.23249 5.64129 7.23995C5.33172 7.54952 5.38021 7.84418 5.4548 8.06797C5.45853 8.07915 5.46226 8.08661 5.46599 8.0978C5.75319 8.78782 6.15228 9.44426 6.77515 10.2275C7.89409 11.6075 9.07271 12.678 10.3707 13.5023C10.5311 13.6067 10.7026 13.6888 10.863 13.7708C11.0122 13.8454 11.1502 13.9163 11.2733 13.9946C11.2882 14.0021 11.2994 14.0095 11.3143 14.017C11.4374 14.0804 11.5568 14.1102 11.6761 14.1102C11.9745 14.1102 12.1684 13.92 12.2318 13.8566L13.6268 12.4617C13.8431 12.2453 14.0781 12.1297 14.3093 12.1297C14.5928 12.1297 14.8241 12.305 14.9695 12.4617L17.2186 14.707C17.6662 15.1546 17.6624 15.6395 17.2074 16.1131C17.0507 16.281 16.8866 16.4414 16.7113 16.6092C16.4502 16.8628 16.178 17.1239 15.9318 17.4186C15.5029 17.8811 14.9919 18.0974 14.3317 18.0974C14.2683 18.0974 14.2012 18.0937 14.1378 18.0899C12.9144 18.0116 11.7768 17.5342 10.9227 17.1276C8.60275 16.005 6.56628 14.4123 4.87668 12.3908C3.48547 10.7161 2.54929 9.15707 1.93015 7.48612C1.54598 6.46042 1.40051 5.63614 1.46019 4.88645Z" fill="#6B7280" stroke="#6B7280" stroke-width="0.5"/>
</svg>
