<svg width="19" height="18" viewBox="0 0 19 18" fill="none" xmlns="http://www.w3.org/2000/svg">
<path d="M14.75 0.75H4.25C3.2558 0.751191 2.30267 1.14666 1.59966 1.84966C0.896661 2.55267 0.501191 3.5058 0.5 4.5L0.5 13.5C0.501191 14.4942 0.896661 15.4473 1.59966 16.1503C2.30267 16.8533 3.2558 17.2488 4.25 17.25H14.75C15.7442 17.2488 16.6973 16.8533 17.4003 16.1503C18.1033 15.4473 18.4988 14.4942 18.5 13.5V4.5C18.4988 3.5058 18.1033 2.55267 17.4003 1.84966C16.6973 1.14666 15.7442 0.751191 14.75 0.75ZM4.25 2.25H14.75C15.1991 2.25088 15.6376 2.38614 16.0092 2.63835C16.3808 2.89057 16.6684 3.24821 16.835 3.66525L11.0915 9.4095C10.6688 9.83049 10.0966 10.0669 9.5 10.0669C8.90344 10.0669 8.33118 9.83049 7.9085 9.4095L2.165 3.66525C2.33161 3.24821 2.61921 2.89057 2.99079 2.63835C3.36236 2.38614 3.80091 2.25088 4.25 2.25ZM14.75 15.75H4.25C3.65326 15.75 3.08097 15.5129 2.65901 15.091C2.23705 14.669 2 14.0967 2 13.5V5.625L6.848 10.47C7.55197 11.1722 8.50569 11.5665 9.5 11.5665C10.4943 11.5665 11.448 11.1722 12.152 10.47L17 5.625V13.5C17 14.0967 16.7629 14.669 16.341 15.091C15.919 15.5129 15.3467 15.75 14.75 15.75Z" fill="#6B7280"/>
</svg>
