<svg width="19" height="18" viewBox="0 0 19 18" fill="none" xmlns="http://www.w3.org/2000/svg">
<path d="M6.12531 18C4.76763 17.9991 3.45607 17.5072 2.43266 16.6151C1.40924 15.7229 0.743042 14.4907 0.556987 13.1458C0.370932 11.801 0.677579 10.4342 1.42034 9.29768C2.1631 8.16119 3.29186 7.3317 4.59831 6.96226C5.54791 6.69033 6.55304 6.6779 7.50907 6.92626L13.4401 0.996763C13.7549 0.679726 14.1296 0.428365 14.5424 0.257261C14.9551 0.0861574 15.3977 -0.00128235 15.8446 1.42104e-05C16.5477 0.000610034 17.2219 0.280207 17.7192 0.777424C18.2164 1.27464 18.496 1.94884 18.4966 2.65201C18.4977 3.09885 18.4103 3.54149 18.2393 3.95434C18.0684 4.36719 17.8173 4.74205 17.5006 5.05726L16.9966 5.56126C16.7146 5.84134 16.3335 5.99898 15.9361 6.00001H14.7466V6.75001C14.7466 7.14783 14.5885 7.52936 14.3072 7.81067C14.0259 8.09197 13.6444 8.25001 13.2466 8.25001H12.4966V9.43951C12.4971 9.63656 12.4585 9.83176 12.3831 10.0138C12.3076 10.1958 12.1968 10.3611 12.0571 10.5L11.5696 10.9875C11.8193 11.9431 11.8071 12.9483 11.5343 13.8975C11.2273 14.979 10.6045 15.9443 9.74567 16.6697C8.88679 17.3951 7.83093 17.8476 6.71331 17.9692C6.51797 17.9896 6.32171 17.9998 6.12531 18ZM6.12531 8.25001C5.35743 8.24926 4.60457 8.46288 3.95151 8.8668C3.29844 9.27072 2.77108 9.84891 2.42879 10.5363C2.08651 11.2237 1.94289 11.993 2.0141 12.7575C2.0853 13.5221 2.36852 14.2516 2.83185 14.864C3.29519 15.4763 3.92025 15.9472 4.63668 16.2236C5.35311 16.4999 6.13246 16.5708 6.88701 16.4283C7.64155 16.2858 8.34133 15.9355 8.90757 15.4168C9.47381 14.8981 9.88404 14.2317 10.0921 13.4925C10.3261 12.6799 10.2998 11.8144 10.0171 11.0175C9.97092 10.8844 9.96318 10.741 9.99475 10.6037C10.0263 10.4664 10.0959 10.3408 10.1956 10.2413L10.9966 9.43951V8.25001C10.9966 7.85218 11.1546 7.47065 11.4359 7.18935C11.7172 6.90804 12.0987 6.75001 12.4966 6.75001H13.2466V6.00001C13.2466 5.60219 13.4046 5.22065 13.6859 4.93935C13.9672 4.65805 14.3487 4.50001 14.7466 4.50001H15.9361L16.4401 3.99601C16.617 3.81988 16.7573 3.61041 16.8529 3.37972C16.9484 3.14903 16.9972 2.90169 16.9966 2.65201C16.9964 2.34667 16.875 2.05389 16.6592 1.83791C16.4434 1.62193 16.1507 1.50041 15.8453 1.50001C15.5955 1.4994 15.348 1.54833 15.1171 1.64398C14.8863 1.73963 14.6768 1.8801 14.5006 2.05726L8.25231 8.30476C8.1526 8.40442 8.02681 8.47396 7.88938 8.5054C7.75195 8.53684 7.60844 8.5289 7.47532 8.48251C7.04037 8.32937 6.58268 8.25076 6.12156 8.25001H6.12531ZM4.24656 13.5C4.24656 13.6483 4.29055 13.7933 4.37296 13.9167C4.45537 14.04 4.57251 14.1361 4.70955 14.1929C4.8466 14.2497 4.9974 14.2645 5.14288 14.2356C5.28837 14.2067 5.42201 14.1352 5.52689 14.0303C5.63178 13.9254 5.70322 13.7918 5.73215 13.6463C5.76109 13.5008 5.74624 13.35 5.68947 13.213C5.63271 13.0759 5.53658 12.9588 5.41324 12.8764C5.28991 12.794 5.1449 12.75 4.99656 12.75C4.79765 12.75 4.60689 12.829 4.46623 12.9697C4.32558 13.1103 4.24656 13.3011 4.24656 13.5Z" fill="#6B7280"/>
</svg>
