<svg width="15" height="18" viewBox="0 0 15 18" fill="none" xmlns="http://www.w3.org/2000/svg">
<path d="M7.5 9C8.39002 9 9.26005 8.73608 10.0001 8.24162C10.7401 7.74715 11.3169 7.04434 11.6575 6.22208C11.9981 5.39981 12.0872 4.49501 11.9135 3.6221C11.7399 2.74918 11.3113 1.94736 10.682 1.31802C10.0526 0.688685 9.25082 0.260102 8.37791 0.0864683C7.50499 -0.0871652 6.60019 0.00194979 5.77792 0.342544C4.95566 0.683138 4.25285 1.25991 3.75839 1.99994C3.26392 2.73996 3 3.60999 3 4.5C3 5.69348 3.47411 6.83807 4.31802 7.68198C5.16193 8.5259 6.30653 9 7.5 9ZM7.5 1.5C8.09334 1.5 8.67336 1.67595 9.16671 2.00559C9.66006 2.33524 10.0446 2.80377 10.2716 3.35195C10.4987 3.90013 10.5581 4.50333 10.4424 5.08527C10.3266 5.66722 10.0409 6.20177 9.62132 6.62132C9.20176 7.04088 8.66721 7.3266 8.08527 7.44236C7.50333 7.55811 6.90013 7.4987 6.35195 7.27164C5.80377 7.04458 5.33524 6.66006 5.00559 6.16671C4.67595 5.67337 4.5 5.09335 4.5 4.5C4.5 3.70435 4.81607 2.94129 5.37868 2.37868C5.94129 1.81607 6.70435 1.5 7.5 1.5Z" fill="#6B7280"/>
<path d="M7.5 10.5C5.7104 10.502 3.99466 11.2138 2.72922 12.4792C1.46378 13.7447 0.751985 15.4604 0.75 17.25C0.75 17.4489 0.829018 17.6397 0.96967 17.7803C1.11032 17.921 1.30109 18 1.5 18C1.69891 18 1.88968 17.921 2.03033 17.7803C2.17098 17.6397 2.25 17.4489 2.25 17.25C2.25 15.8576 2.80312 14.5223 3.78769 13.5377C4.77226 12.5531 6.10761 12 7.5 12C8.89239 12 10.2277 12.5531 11.2123 13.5377C12.1969 14.5223 12.75 15.8576 12.75 17.25C12.75 17.4489 12.829 17.6397 12.9697 17.7803C13.1103 17.921 13.3011 18 13.5 18C13.6989 18 13.8897 17.921 14.0303 17.7803C14.171 17.6397 14.25 17.4489 14.25 17.25C14.248 15.4604 13.5362 13.7447 12.2708 12.4792C11.0053 11.2138 9.2896 10.502 7.5 10.5Z" fill="#6B7280"/>
</svg>
