<svg width="28" height="28" viewBox="0 0 28 28" fill="none" xmlns="http://www.w3.org/2000/svg">
<path d="M26.3173 6.24414C25.3794 6.66221 24.3848 6.93667 23.3663 7.05842C24.4256 6.41755 25.2404 5.40477 25.6239 4.19623C24.6153 4.79877 23.5119 5.22328 22.3613 5.45142C21.3902 4.4073 20.0322 3.81588 18.6114 3.81837C15.7751 3.81837 13.4731 6.13379 13.4731 8.99003C13.4731 9.39588 13.5185 9.79144 13.6073 10.1691C9.33656 9.9531 5.55153 7.89489 3.01688 4.76519C2.57431 5.52815 2.32187 6.41755 2.32187 7.36566C2.32187 9.15926 3.22858 10.7426 4.60695 11.6703C3.79087 11.6451 2.99269 11.4232 2.27937 11.0233V11.0893C2.27937 13.5945 4.05062 15.685 6.39993 16.1612C5.6433 16.3675 4.84998 16.3977 4.08002 16.2497C4.73413 18.3048 6.63224 19.7999 8.87961 19.8433C7.12146 21.2283 4.90636 22.0567 2.49858 22.0567C2.08916 22.0563 1.6801 22.0321 1.27344 21.9843C3.54701 23.4514 6.2483 24.3088 9.14963 24.3088C18.6002 24.3088 23.7673 16.426 23.7673 9.59004C23.7673 9.36644 23.7673 9.14285 23.7513 8.92086C24.7567 8.18848 25.625 7.28218 26.3157 6.24414H26.3173Z" fill="#1F2937"/>
</svg>
