<svg width="28" height="28" viewBox="0 0 28 28" fill="none" xmlns="http://www.w3.org/2000/svg">
<path d="M13.3812 7.81298L15.5467 5.64746C15.9935 5.20024 16.5241 4.84543 17.108 4.6033C17.692 4.36117 18.318 4.23648 18.9501 4.23633C19.5823 4.23618 20.2083 4.36059 20.7924 4.60244C21.3765 4.8443 21.9072 5.19886 22.3542 5.64588C22.8012 6.09289 23.1558 6.6236 23.3976 7.20768C23.6395 7.79176 23.7639 8.41777 23.7638 9.04995C23.7636 9.68212 23.6389 10.3081 23.3968 10.892C23.1547 11.476 22.7998 12.0066 22.3526 12.4534L19.259 15.547C18.8121 15.9938 18.2816 16.3483 17.6977 16.5902C17.1139 16.832 16.4881 16.9565 15.8561 16.9565C15.2241 16.9565 14.5983 16.832 14.0144 16.5902C13.4305 16.3483 12.9 15.9938 12.4531 15.547" stroke="#1F2937" stroke-width="2" stroke-linecap="round" stroke-linejoin="round"/>
<path d="M14.6189 20.1875L12.4534 22.353C12.0066 22.8002 11.476 23.155 10.892 23.3971C10.3081 23.6393 9.68212 23.764 9.04995 23.7641C8.41777 23.7643 7.79176 23.6399 7.20768 23.398C6.6236 23.1562 6.09289 22.8016 5.64588 22.3546C5.19886 21.9076 4.8443 21.3769 4.60244 20.7928C4.36059 20.2087 4.23618 19.5827 4.23633 18.9505C4.23648 18.3183 4.36117 17.6924 4.6033 17.1084C4.84543 16.5244 5.20024 15.9939 5.64746 15.5471L8.74105 12.4535C9.18794 12.0066 9.71846 11.6521 10.3023 11.4103C10.8862 11.1684 11.512 11.0439 12.144 11.0439C12.776 11.0439 13.4018 11.1684 13.9857 11.4103C14.5695 11.6521 15.1001 12.0066 15.547 12.4535" stroke="#1F2937" stroke-width="2" stroke-linecap="round" stroke-linejoin="round"/>
</svg>
