<svg width="24" height="24" viewBox="0 0 24 24" fill="none" xmlns="http://www.w3.org/2000/svg">
<path fill-rule="evenodd" clip-rule="evenodd" d="M23.454 12.0701C23.454 5.70595 18.3252 0.545898 11.9995 0.545898C5.67378 0.545898 0.544922 5.70595 0.544922 12.0701C0.544922 17.8216 4.7331 22.5895 10.2099 23.455V15.4021H7.3007V12.0701H10.2099V9.53057C10.2099 6.64261 11.9205 5.0463 14.5365 5.0463C15.7897 5.0463 17.1009 5.27156 17.1009 5.27156V8.10768H15.656C14.2337 8.10768 13.7891 8.99578 13.7891 9.90816V12.07H16.9656L16.4581 15.402H13.789V23.4549C19.2657 22.591 23.4539 17.8232 23.4539 12.07L23.454 12.0701Z" fill="#1F2937"/>
</svg>
