<svg width="17" height="16" viewBox="0 0 17 16" fill="none" xmlns="http://www.w3.org/2000/svg">
<path d="M8.27672 15.7913C8.36365 15.9217 8.51003 16 8.66675 16C8.82347 16 8.96984 15.9217 9.05678 15.7913C10.1661 14.1273 11.8001 12.0723 12.9387 9.98222C13.8492 8.31109 14.2917 6.88581 14.2917 5.625C14.2917 2.52338 11.7684 0 8.66675 0C5.56512 0 3.04175 2.52338 3.04175 5.625C3.04175 6.88581 3.48434 8.31109 4.39478 9.98222C5.53256 12.0707 7.16965 14.1307 8.27672 15.7913ZM8.66675 0.9375C11.2514 0.9375 13.3542 3.04031 13.3542 5.625C13.3542 6.72512 12.949 8.00369 12.1155 9.53372C11.134 11.3352 9.73344 13.1627 8.66675 14.699C7.60022 13.1629 6.19956 11.3353 5.21803 9.53372C4.38447 8.00369 3.97925 6.72512 3.97925 5.625C3.97925 3.04031 6.08206 0.9375 8.66675 0.9375Z" fill="#4B5563"/>
<path d="M8.66675 8.4375C10.2176 8.4375 11.4792 7.17581 11.4792 5.625C11.4792 4.07419 10.2176 2.8125 8.66675 2.8125C7.11594 2.8125 5.85425 4.07419 5.85425 5.625C5.85425 7.17581 7.11594 8.4375 8.66675 8.4375ZM8.66675 3.75C9.70062 3.75 10.5417 4.59113 10.5417 5.625C10.5417 6.65887 9.70062 7.5 8.66675 7.5C7.63287 7.5 6.79175 6.65887 6.79175 5.625C6.79175 4.59113 7.63287 3.75 8.66675 3.75Z" fill="#4B5563"/>
</svg>
