<svg width="140" height="40" viewBox="0 0 140 40" fill="none" xmlns="http://www.w3.org/2000/svg">
<g clip-path="url(#clip0_1798_106892)">
<path fill-rule="evenodd" clip-rule="evenodd" d="M12.7981 15.4787C9.40938 13.5423 5.68249 12.6621 5.68249 12.6621L5.68066 23.4837C5.68066 32.5454 13.1552 39.8965 22.2082 39.9381V39.9383C22.2208 39.9383 22.2333 39.9383 22.2459 39.9383C22.2585 39.9383 22.2711 39.9383 22.2837 39.9383V39.9381C31.3366 39.8965 38.8111 32.5454 38.8111 23.4837L38.8093 12.6621C38.8093 12.6621 35.0825 13.5423 31.6937 15.4787C27.2466 18.0196 22.7135 21.7311 22.2459 22.117C21.7783 21.7311 17.2452 18.0196 12.7981 15.4787Z" fill="#131C41"/>
<path fill-rule="evenodd" clip-rule="evenodd" d="M12.7981 14.4409C6.90785 11.9277 0.0493164 11.1796 0.0493164 11.1796L22.2063 0.10111V0.0615234L22.2459 0.0813165L22.2855 0.0615234V0.10111L44.4425 11.1796C44.4425 11.1796 37.5839 11.9277 31.6937 14.4409C26.9214 16.4771 22.8932 20.0426 22.2855 20.5941V20.6667C22.2855 20.6667 22.2721 20.6542 22.2459 20.6302C22.2197 20.6542 22.2063 20.6667 22.2063 20.6667V20.5941C21.5987 20.0426 17.5704 16.4771 12.7981 14.4409Z" fill="#01A885"/>
<path fill-rule="evenodd" clip-rule="evenodd" d="M58.5628 15.9538H55.0155V26.1062C55.0155 27.3704 54.6975 28.36 54.0614 29.0749C53.4253 29.7899 52.5759 30.1474 51.5133 30.1474C50.4504 30.1474 49.5861 29.7899 48.9202 29.0749C48.2544 28.36 47.9213 27.3704 47.921 26.1062V15.9538H44.374V26.1062C44.374 27.254 44.5424 28.2892 44.8791 29.212C45.1881 30.0895 45.6776 30.8925 46.316 31.5692C46.9472 32.2248 47.7132 32.7355 48.561 33.0662C49.4366 33.4155 50.4207 33.5901 51.5133 33.5898C52.5909 33.5898 53.5675 33.4153 54.4431 33.0662C55.2861 32.7389 56.0455 32.2274 56.6657 31.5692C57.2909 30.8886 57.7686 30.0861 58.0688 29.212C58.3979 28.2892 58.5625 27.254 58.5628 26.1062V15.9538ZM66.2158 20.4687C65.5122 20.8679 64.9434 21.4915 64.5096 22.3396V19.9942H61.0523V33.4152H64.5096V26.8045C64.5096 25.8065 64.7528 24.9875 65.2393 24.3475C65.7257 23.7075 66.403 23.3791 67.2711 23.3622C68.0192 23.3622 68.6028 23.6074 69.0219 24.098C69.4411 24.5886 69.6507 25.2579 69.6509 26.1059V33.4152H73.1083V24.9839C73.1175 24.2648 73.0113 23.5489 72.7938 22.8635C72.6057 22.2708 72.3044 21.7201 71.9067 21.2421C71.5281 20.7951 71.052 20.4409 70.515 20.2068C69.9372 19.9595 69.3138 19.8361 68.6853 19.8448C67.7427 19.8623 66.9196 20.0703 66.2158 20.469V20.4687ZM75.8045 14.6311C75.46 15.0302 75.2878 15.5457 75.2881 16.1777C75.2883 16.8096 75.4605 17.3252 75.8045 17.7243C75.9748 17.9127 76.1827 18.0633 76.4147 18.1663C76.6468 18.2694 76.8979 18.3226 77.1519 18.3226C77.4058 18.3226 77.6569 18.2694 77.889 18.1663C78.121 18.0633 78.3289 17.9127 78.4992 17.7243C78.8429 17.3252 79.0148 16.8096 79.0148 16.1777C79.0148 15.5457 78.8429 15.0302 78.4992 14.6311C78.3289 14.4426 78.121 14.292 77.8889 14.1889C77.6568 14.0859 77.4057 14.0327 77.1517 14.0327C76.8977 14.0328 76.6466 14.0861 76.4146 14.1893C76.1825 14.2925 75.9747 14.4432 75.8045 14.6317V14.6311ZM78.8802 33.4149V19.9946H75.4227V33.4155H78.8802V33.4149ZM86.5562 20.4058C85.8946 20.7808 85.3385 21.3171 84.9396 21.9646V14.9062H81.4821V33.4155H84.9396V31.4694C85.3404 32.1195 85.9007 32.6564 86.5673 33.029C87.2184 33.3862 87.9706 33.565 88.8239 33.5652C89.6212 33.577 90.411 33.4109 91.136 33.0789C91.821 32.7572 92.4236 32.2837 92.8984 31.6943C93.406 31.0556 93.7904 30.328 94.0318 29.5486C94.5742 27.7251 94.5703 25.7826 94.0208 23.9613C93.7733 23.1685 93.3812 22.4284 92.8643 21.7783C92.3826 21.1808 91.7727 20.6993 91.0798 20.3692C90.3529 20.0298 89.5587 19.8592 88.7566 19.8702C87.9892 19.8564 87.2312 20.0411 86.5562 20.4064V20.4058ZM85.7705 29.3484C85.216 28.6672 84.939 27.7692 84.9396 26.6545C84.9396 25.5567 85.2165 24.6669 85.7705 23.9852C86.3244 23.3035 87.0502 22.9626 87.9479 22.9626C88.8461 22.9626 89.5682 23.3077 90.1142 23.9979C90.6602 24.688 90.9335 25.5736 90.934 26.6545C90.9394 27.1653 90.8675 27.674 90.721 28.1634C90.595 28.5894 90.3891 28.9875 90.1142 29.3365C89.8588 29.6552 89.5372 29.9147 89.1717 30.0969C88.7909 30.2832 88.3717 30.3773 87.9479 30.3717C87.0497 30.3722 86.3239 30.0312 85.7705 29.349V29.3484ZM99.0576 20.3686C98.3129 20.693 97.6438 21.1685 97.0924 21.765C96.5217 22.393 96.0863 23.1318 95.8132 23.9353C95.2182 25.7542 95.2144 27.7148 95.8021 29.5361C96.0701 30.3357 96.5021 31.0706 97.0703 31.6937C97.6251 32.2932 98.303 32.7655 99.0576 33.0783C99.8285 33.4022 100.7 33.5643 101.673 33.5646C102.765 33.5646 103.746 33.3566 104.614 32.9404C105.475 32.5304 106.234 31.9341 106.837 31.1947L105.018 29.1488C104.165 30.0969 103.147 30.5711 101.965 30.5713C101.186 30.5713 100.524 30.3342 99.978 29.8601C99.4314 29.3864 99.0534 28.7253 98.8437 27.8767H107.51C107.584 26.6632 107.517 25.5614 107.308 24.5713C107.098 23.5828 106.746 22.739 106.253 22.0399C105.766 21.3478 105.109 20.7936 104.345 20.4311C103.566 20.0562 102.645 19.869 101.583 19.8696C100.715 19.8576 99.8551 20.0278 99.0576 20.3692V20.3686ZM98.7764 25.6066C98.9111 24.7092 99.2255 23.9984 99.7198 23.4743C100.213 22.95 100.842 22.688 101.606 22.6886C102.414 22.6886 103.053 22.9505 103.525 23.4743C103.996 23.9981 104.247 24.7089 104.277 25.6066H98.7764ZM112.654 19.9939H109.196V33.4149H112.654V26.9546C112.646 26.4297 112.741 25.9085 112.934 25.4203C113.11 24.9792 113.382 24.583 113.731 24.2607C114.09 23.9362 114.521 23.7012 114.989 23.5747C115.53 23.43 116.094 23.3918 116.65 23.4623V19.8448C114.839 19.8789 113.507 20.7354 112.654 22.4143V19.9946V19.9939ZM125.233 29.8474C124.589 30.1801 124.051 30.3464 123.617 30.3464C123.243 30.363 122.955 30.2508 122.753 30.0098C122.55 29.7687 122.449 29.3655 122.449 28.8003V23.262H125.727V20.5927H122.449V16.9017H119.015V20.5934H117.331V23.2381H119.015V29.4488C119.015 30.1474 119.112 30.7544 119.306 31.2698C119.478 31.7496 119.75 32.1874 120.103 32.5545C120.442 32.8972 120.852 33.1614 121.305 33.3284C121.786 33.5059 122.296 33.5944 122.809 33.5898C123.372 33.5906 123.932 33.5065 124.47 33.3403C124.991 33.1823 125.49 32.9559 125.952 32.667L125.233 29.8474ZM139.275 19.9939H135.817L132.966 29.224L129.801 19.9939H126.231L131.237 33.14L130.901 33.8886C130.556 34.687 130.025 35.0862 129.307 35.0862C128.783 35.0862 128.259 34.8449 127.736 34.3622L126.276 37.1313C126.721 37.5491 127.239 37.883 127.803 38.1167C128.361 38.3308 128.955 38.4367 129.553 38.4288C131.664 38.4288 133.139 37.2562 133.976 34.9111L139.275 19.9939Z" fill="#01A885"/>
</g>
<defs>
<clipPath id="clip0_1798_106892">
<rect width="139.327" height="40" fill="white"/>
</clipPath>
</defs>
</svg>
