<svg width="24" height="24" viewBox="0 0 24 24" fill="none" xmlns="http://www.w3.org/2000/svg">
<g clip-path="url(#clip0_2490_85070)">
<path d="M23 12.9785H1C0.447998 12.9785 0 12.5305 0 11.9785C0 11.4265 0.447998 10.9785 1 10.9785H23C23.552 10.9785 24 11.4265 24 11.9785C24 12.5305 23.552 12.9785 23 12.9785Z" fill="black"/>
<path d="M23 5.3125H1C0.447998 5.3125 0 4.8645 0 4.3125C0 3.7605 0.447998 3.3125 1 3.3125H23C23.552 3.3125 24 3.7605 24 4.3125C24 4.8645 23.552 5.3125 23 5.3125Z" fill="black"/>
<path d="M23 20.6465H1C0.447998 20.6465 0 20.1985 0 19.6465C0 19.0945 0.447998 18.6465 1 18.6465H23C23.552 18.6465 24 19.0945 24 19.6465C24 20.1985 23.552 20.6465 23 20.6465Z" fill="black"/>
</g>
<defs>
<clipPath id="clip0_2490_85070">
<rect width="24" height="24" fill="white"/>
</clipPath>
</defs>
</svg>
