<svg width="72" height="72" viewBox="0 0 72 72" fill="none" xmlns="http://www.w3.org/2000/svg">
<g clip-path="url(#clip0_2650_13131)">
<rect width="72" height="72" rx="36" fill="#E5E7EB"/>
<path d="M29.3067 1.76169C34.5614 0.730508 40.0558 0.923893 45.2179 2.35381C49.879 3.63444 54.2588 5.91728 57.9985 8.98059C63.7358 13.6584 67.9526 20.1982 69.762 27.3869C69.8357 27.6729 69.762 27.3869 69.8357 27.6729C71.2895 33.5349 71.1624 39.7774 69.4876 45.579C68.076 50.5037 65.5478 55.099 62.1643 58.9422C59.0231 62.5296 55.1424 65.4675 50.8331 67.5072C48.4415 68.636 45.9234 69.4984 43.3373 70.0521C37.3092 71.3566 30.933 71.0196 25.0805 69.07C19.4156 67.1998 14.2648 63.8247 10.2507 59.4127C7.1831 56.0452 4.7701 52.0754 3.22688 47.7863C1.21289 42.2537 0.669747 36.2039 1.60688 30.3941C2.09842 27.3428 3.00786 24.3589 4.29177 21.5475C5.80038 18.2442 7.83513 15.1841 10.2815 12.5012C12.624 9.93492 15.3511 7.722 18.3381 5.94878C21.7228 3.94563 25.4468 2.5157 29.3067 1.76169ZM33.7331 1.78248C32.4045 1.87318 31.0803 2.03696 29.7706 2.28137C24.0364 3.33901 18.5993 5.92043 14.1276 9.66216C10.9675 12.3028 8.27191 15.5028 6.23401 19.0845C4.2087 22.6304 2.82282 26.5434 2.18401 30.5787C1.67548 33.763 1.61632 37.0184 2.02352 40.2171C2.67555 45.5324 4.62597 50.6776 7.63247 55.1047C11.3552 60.6209 16.7055 65.0209 22.8431 67.5897C28.5546 69.9979 34.9302 70.7822 41.0565 69.8593C46.4678 69.0606 51.6676 66.9132 56.0833 63.6861C59.8979 60.9006 63.1436 57.334 65.5371 53.2596C68.2944 48.59 69.9118 43.2496 70.1932 37.8322C70.54 31.7466 69.2057 25.574 66.3672 20.1806C62.9667 13.6596 57.4251 8.28137 50.801 5.09271C45.5275 2.5283 39.5812 1.38689 33.7331 1.78248Z" fill="white"/>
<path d="M34.9345 4.42273C35.6212 3.83186 36.6426 3.77139 37.4703 4.06997C37.4092 4.31879 37.345 4.56698 37.2802 4.81517C36.8415 4.64635 36.3267 4.58462 35.8918 4.7969C35.5601 4.93737 35.3323 5.26178 35.2656 5.61076C35.1611 6.10462 35.2404 6.69233 35.6451 7.03438C36.0926 7.40415 36.7484 7.37769 37.2645 7.17989C37.3243 7.42682 37.3752 7.67564 37.4042 7.92761C36.7937 8.13611 36.1089 8.14619 35.4947 7.9484C34.8842 7.75375 34.4172 7.20257 34.3045 6.57454C34.1453 5.818 34.3247 4.938 34.9345 4.42273Z" fill="white"/>
<path d="M31.4441 4.19652C31.9262 4.10392 32.453 4.18518 32.8571 4.47494C33.2775 4.7477 33.5267 5.21636 33.6482 5.69069C33.7715 6.26518 33.7659 6.90077 33.472 7.42486C32.8936 8.46738 31.2578 8.71998 30.4283 7.84376C29.7977 7.16533 29.651 6.09384 30.0192 5.25289C30.271 4.6847 30.8305 4.27841 31.4441 4.19652ZM31.5316 4.92911C30.9658 5.04313 30.7468 5.68502 30.7902 6.19904C30.8299 6.69163 30.9759 7.26675 31.4422 7.52313C31.7519 7.70077 32.1748 7.63589 32.4253 7.38455C32.6569 7.16534 32.7431 6.83274 32.752 6.52281C32.7696 6.06297 32.6601 5.57478 32.3529 5.22014C32.1553 4.98707 31.8331 4.85793 31.5316 4.92911Z" fill="white"/>
<path d="M39.0254 8.17468C39.2457 6.84366 39.5125 5.52082 39.7334 4.19043C40.0953 4.21311 40.4471 4.30949 40.8059 4.35799C41.1256 5.36586 41.5561 6.34224 41.7468 7.38728C41.7701 7.39799 41.7978 7.31358 41.7978 7.31358C41.7978 7.31358 42.0697 5.52775 42.1949 4.63452C42.4838 4.64838 42.7651 4.72334 43.0483 4.77752C42.7966 6.10098 42.5612 7.42823 42.329 8.75547C42.0042 8.7246 41.6864 8.64649 41.3648 8.59421C41.0218 7.54035 40.6297 6.50098 40.3641 5.42319C40.1916 6.39074 40.0506 7.36523 39.8473 8.32712C39.5761 8.26224 39.3011 8.21374 39.0254 8.17468Z" fill="white"/>
<path d="M27.663 5.01662C27.9544 4.93284 28.2445 4.84402 28.5372 4.76465C28.8613 5.79268 29.147 6.83268 29.4554 7.86575C29.5366 8.13347 29.6234 8.40118 29.6738 8.67709C29.3799 8.75016 29.0935 8.84906 28.7977 8.91331C28.6366 8.37473 28.4906 7.83173 28.3188 7.29693C27.8486 7.43236 27.3829 7.58418 26.909 7.70449C27.0216 8.26323 27.2532 8.79237 27.3476 9.35425C27.0569 9.42607 26.773 9.52181 26.4841 9.60118C26.2349 8.80622 26.0134 8.00307 25.7767 7.20433C25.6351 6.69977 25.4595 6.20276 25.3525 5.68937C25.6509 5.62638 25.9347 5.50796 26.2355 5.45567C26.3784 5.94827 26.5213 6.4415 26.6698 6.93284C27.14 6.79614 27.6088 6.65315 28.0815 6.52591C27.9808 6.01315 27.7857 5.52433 27.663 5.01662Z" fill="white"/>
<path d="M44.2679 5.8231C44.7796 5.51633 45.4108 5.48924 45.981 5.62027C46.4424 5.7431 46.898 5.93019 47.2643 6.24452C47.124 6.46058 46.983 6.67601 46.8414 6.89082C46.4399 6.56515 45.9364 6.31948 45.4083 6.34405C44.9797 6.33775 44.6015 6.642 44.4227 7.0168C44.2641 7.34814 44.1741 7.73932 44.2849 8.09964C44.4403 8.63759 45.0124 8.98657 45.5568 8.96956C45.6192 8.70121 45.7469 8.45239 45.7897 8.17838C45.5996 8.12231 45.4121 8.05869 45.2245 7.99696C45.29 7.76452 45.3712 7.53712 45.4436 7.30657C45.9269 7.46027 46.409 7.62027 46.8905 7.7809C46.6494 8.45995 46.4373 9.14908 46.1988 9.8294C45.4039 9.79097 44.5662 9.63727 43.928 9.12956C43.4271 8.74908 43.1854 8.082 43.2792 7.46594C43.3597 6.81523 43.6996 6.17145 44.2679 5.8231Z" fill="white"/>
<path d="M22.251 7.01625C22.5279 6.91609 22.7815 6.7605 23.061 6.66602C23.156 6.68554 23.1541 6.81846 23.202 6.88712C23.6998 7.9668 24.1894 9.05027 24.6929 10.1268C24.725 10.1999 24.7452 10.2767 24.7666 10.3536C24.4834 10.4588 24.2196 10.6087 23.9389 10.7214C23.5204 9.82192 23.112 8.91798 22.6947 8.01846C22.5474 7.68397 22.3756 7.35956 22.251 7.01625Z" fill="white"/>
<path d="M48.8148 7.14721C49.7482 6.94563 50.8295 7.50941 51.1032 8.44673C51.2952 9.08988 51.1001 9.78973 50.7395 10.3359C50.438 10.8178 49.9408 11.197 49.3681 11.2694C48.4064 11.396 47.3358 10.7497 47.1627 9.76012C46.9884 8.6565 47.7065 7.41996 48.8148 7.14721ZM49.0836 7.94532C48.6569 8.12043 48.3806 8.52673 48.2044 8.93555C48.0678 9.25177 48.0061 9.62217 48.1326 9.95161C48.2811 10.3485 48.7557 10.5979 49.1635 10.4637C49.5286 10.3466 49.7916 10.0354 49.9742 9.71035C50.1881 9.34185 50.3146 8.88579 50.185 8.46689C50.0585 8.0228 49.5065 7.75256 49.0836 7.94532Z" fill="white"/>
<path d="M19.3198 8.59931C19.6855 8.44876 19.9914 8.18104 20.3551 8.02734C21.4238 8.94514 22.4553 9.90577 23.519 10.8299C23.2288 11.0125 22.9481 11.2185 22.6291 11.3477C22.3962 11.0888 22.1174 10.8752 21.8713 10.6289C21.5409 10.8028 21.2381 11.0264 20.9008 11.187C20.9386 11.5568 21.0921 11.9039 21.1727 12.2655C20.8901 12.4129 20.6346 12.6075 20.3457 12.7429C20.0178 11.4554 19.7 10.1653 19.3702 8.879C19.3481 8.7864 19.3337 8.69254 19.3198 8.59931ZM20.1651 8.94766C20.34 9.47616 20.4816 10.0141 20.6446 10.5458C20.8888 10.3971 21.1349 10.2503 21.3785 10.1004C20.9713 9.71868 20.5597 9.34199 20.1651 8.94766Z" fill="white"/>
<path d="M31.8639 8.84159C32.056 8.7427 32.3275 8.67718 32.4805 8.8775C32.7376 9.13703 32.4994 9.63655 32.1297 9.57419C31.7618 9.57041 31.6509 9.09167 31.8639 8.84159Z" fill="white"/>
<path d="M53.3977 9.31543C53.3977 9.31543 54.0151 9.76015 54.3399 9.95858C54.2052 10.5022 54.012 11.0294 53.8452 11.5636C53.589 12.3831 53.3209 13.1989 53.066 14.0191C52.7683 13.866 52.5179 13.6386 52.2359 13.4603C52.3567 13.1176 52.4782 12.7743 52.5701 12.4222C52.2617 12.2225 51.9621 12.009 51.6651 11.7929C51.3535 11.9674 50.8204 12.4398 50.8204 12.4398L50.0728 11.8641L53.3977 9.31543ZM52.1572 11.2902C52.3725 11.4364 52.6166 11.5465 52.8023 11.7293C52.8179 11.7446 52.8388 11.7841 52.8508 11.8024C53.0415 11.2776 53.2133 10.746 53.4021 10.2206C53 10.5916 52.5676 10.928 52.1572 11.2902Z" fill="white"/>
<path d="M16.3305 10.6754C16.8019 10.3636 17.4042 10.1841 17.96 10.3554C18.5887 10.5438 19.0456 11.0842 19.3169 11.66C19.5076 12.0493 19.5397 12.4972 19.4554 12.9186C19.4352 13.2329 19.1797 13.4868 19.0028 13.7318C18.5755 14.2345 18.0437 14.6446 17.4741 14.9734C17.1097 14.5362 16.7742 14.0745 16.4061 13.6417C16.3022 13.7287 16.2097 13.8383 16.08 13.8855C15.9158 13.7192 15.788 13.5164 15.6401 13.3337C15.7458 13.2442 15.8528 13.1554 15.9617 13.0691C15.6401 12.649 15.3135 12.232 14.9824 11.8194C15.3921 11.3942 15.8358 10.9986 16.3305 10.6754ZM16.1486 11.7557C16.2833 12.0247 16.5149 12.2527 16.7025 12.4934C16.9089 12.3239 17.335 12.0014 17.335 12.0014C17.335 12.0014 17.6277 12.3781 17.7743 12.5665C17.5786 12.7548 17.1512 13.0861 17.1512 13.0861C17.1512 13.0861 17.5685 13.6115 17.78 13.8729C18.111 13.6348 18.4572 13.3539 18.5667 12.9419C18.6882 12.4676 18.4578 11.9819 18.1438 11.6354C17.8914 11.3255 17.4942 11.0968 17.0845 11.1712C16.717 11.248 16.3916 11.4748 16.1486 11.7557Z" fill="white"/>
<path d="M30.4331 11.054C33.1677 10.4317 36.0055 10.2918 38.7918 10.5866C41.6466 10.8959 44.4454 11.7028 47.0315 12.9495C51.0066 14.865 54.4751 17.8232 56.9818 21.4584C59.0084 24.375 60.41 27.7217 61.0677 31.2128C61.6933 34.5532 61.653 38.0184 60.9444 41.3419C60.3773 43.9888 59.3804 46.5425 58.0109 48.877C55.5123 53.1328 51.7618 56.6452 47.3443 58.8436C45.1088 59.9592 42.7071 60.7441 40.2425 61.1561C36.8659 61.7186 33.376 61.604 30.0467 60.8039C26.891 60.0462 23.8832 58.6767 21.2424 56.7888C17.5052 54.1413 14.5044 50.4663 12.6502 46.2767C10.2341 40.8556 9.81995 34.5791 11.4783 28.8821C12.3771 25.7778 13.8762 22.8499 15.8688 20.3069C19.472 15.6745 24.7002 12.3214 30.4331 11.054ZM34.3025 10.8531C31.2626 11.0597 28.2592 11.8238 25.4976 13.1126C19.3398 15.9435 14.4137 21.3564 12.216 27.7778C10.2378 33.4408 10.4002 39.8213 12.6716 45.3734C14.4081 49.6783 17.3686 53.4736 21.102 56.2251C23.8373 58.2565 26.9904 59.7224 30.3091 60.4921C33.7455 61.2959 37.3518 61.3652 40.8146 60.6836C45.9162 59.6978 50.6705 57.0515 54.2327 53.2707C57.7704 49.5561 60.1451 44.7391 60.8839 39.6562C61.3849 36.3019 61.1961 32.8468 60.3276 29.5674C59.3898 26.0172 57.6553 22.6799 55.2939 19.8698C52.1288 16.0676 47.8339 13.2084 43.0841 11.8181C40.2456 10.9734 37.2555 10.6553 34.3025 10.8531Z" fill="white"/>
<path d="M53.3501 14.3485C54.2344 13.3211 55.1149 12.2912 55.9903 11.2568C56.0853 11.3412 56.5328 11.716 56.6902 11.8697C55.8286 12.906 54.938 13.9189 54.0695 14.9494C53.8177 14.7636 53.5874 14.5513 53.3501 14.3485Z" fill="white"/>
<path d="M28.6414 12.6541C33.4869 11.1121 38.817 11.1417 43.6437 12.7442C47.9473 14.1678 51.8393 16.8173 54.7382 20.3052C57.1525 23.1795 58.8958 26.6176 59.7694 30.2711C60.6247 33.8321 60.6669 37.5883 59.8839 41.1663C58.797 46.2315 56.0202 50.9036 52.1345 54.3196C49.1752 56.9426 45.5689 58.8305 41.7235 59.7502C41.6014 59.793 41.7235 59.7502 41.6014 59.793C40.0399 60.1281 38.4539 60.3713 36.8553 60.4097C33.1974 60.5414 29.5086 59.8428 26.1623 58.3549C21.5773 56.3429 17.6582 52.8715 15.0652 48.5892C13.7221 46.348 12.7239 43.8982 12.155 41.3464C11.0517 36.4406 11.4923 31.1959 13.4408 26.5571C13.4553 26.5414 13.4836 26.5086 13.4974 26.4929C13.556 26.2233 13.7039 25.9833 13.8109 25.7307C14.2949 24.6554 14.889 23.6343 15.5114 22.6346L15.5259 22.6359C18.5809 17.9341 23.2936 14.336 28.6414 12.6541ZM29.8768 13.531C27.2725 14.2548 24.7827 15.417 22.5874 16.9981C22.4521 17.1121 22.5874 16.9981 22.4521 17.1121C21.8574 17.4907 21.3199 17.9562 20.7799 18.4085C17.9918 20.8261 15.7808 23.9121 14.4088 27.3414C12.3029 32.5256 12.1928 38.4815 14.0834 43.747C14.8959 46.0274 16.0703 48.1773 17.543 50.0979C20.3305 53.7269 24.1898 56.5319 28.5256 58.0022C31.9518 59.1858 35.6601 59.5285 39.2475 59.0214C42.1325 58.6144 44.9383 57.6526 47.4652 56.2006C51.8941 53.674 55.4664 49.6683 57.4445 44.9628C58.6636 42.0784 59.2848 38.9414 59.2584 35.8094C59.2426 31.7955 58.1425 27.7949 56.1203 24.3297C53.9213 20.5464 50.6442 17.4018 46.7735 15.3653C44.2604 14.0437 41.5032 13.1845 38.6817 12.8633C35.7394 12.5193 32.7335 12.7518 29.8768 13.531Z" fill="white"/>
<path d="M22.2216 12.1719C22.5321 12.0416 22.8779 12.3691 22.791 12.686C22.7412 13.0519 22.1743 13.1137 22.0105 12.8031C21.8751 12.5801 21.9746 12.2652 22.2216 12.1719Z" fill="white"/>
<path d="M57.4841 13.6296C57.6559 13.4255 57.8623 13.2548 58.0675 13.0859C58.7151 13.8154 59.3791 14.531 60.0393 15.2491C60.0727 15.297 60.1715 15.3726 60.1004 15.4324C59.9361 15.6037 59.7593 15.7612 59.5742 15.9092C59.3351 15.6384 59.0921 15.3713 58.8448 15.108C58.2123 15.6516 57.6118 16.2324 56.9919 16.7911C56.8018 16.9543 56.6357 17.1496 56.4255 17.2856C56.1832 17.1017 55.9931 16.844 55.793 16.6122C56.4374 16.056 57.0454 15.4595 57.6836 14.897C57.8579 14.7313 58.0392 14.5738 58.2022 14.3968C57.9542 14.1486 57.7258 13.8822 57.4841 13.6296Z" fill="white"/>
<path d="M50.6192 13.8947C50.5115 13.6743 50.6255 13.3536 50.8743 13.2925C51.0318 13.2339 51.1811 13.3151 51.319 13.3894C51.4205 13.5544 51.4891 13.765 51.3581 13.9338C51.2082 14.2065 50.7357 14.1864 50.6192 13.8947Z" fill="white"/>
<path d="M12.9575 13.8467C13.0242 13.7944 13.1092 13.7856 13.1904 13.7705C13.3062 13.9834 13.4654 14.1686 13.5768 14.3847C13.1709 14.5919 12.826 14.9239 12.6044 15.322C12.3816 15.7226 12.4156 16.2606 12.7334 16.602C13.0821 17.0524 13.7115 17.3762 14.271 17.1267C14.592 16.9674 14.9029 16.7047 15.0143 16.3544C14.7972 16.19 14.6077 15.991 14.3818 15.8379C14.2509 15.9853 14.1237 16.1359 14.001 16.2902C13.7965 16.1453 13.5925 15.9904 13.4383 15.7919C13.7814 15.4398 14.103 15.0644 14.4038 14.6751C14.974 15.116 15.4989 15.6143 16.0509 16.0792C15.7305 16.8237 15.2415 17.5456 14.5146 17.9406C13.9469 18.2568 13.2225 18.1957 12.6806 17.853C12.1909 17.5362 11.7718 17.06 11.6497 16.4754C11.4993 15.8492 11.7164 15.1853 12.0946 14.6814C12.3262 14.3519 12.6208 14.0685 12.9575 13.8467Z" fill="white"/>
<path d="M60.6499 16.1055C60.6725 16.108 60.7172 16.1137 60.7392 16.1168C60.9186 16.3398 61.0684 16.5855 61.2446 16.811C60.833 17.0995 60.4334 17.4056 60.0079 17.6721C60.0023 17.6922 59.9922 17.7319 59.9865 17.7515C60.2622 18.1363 60.5536 18.513 60.7953 18.9206C61.2679 18.685 61.6462 18.2875 62.1207 18.0538C62.2705 18.319 62.475 18.5477 62.6292 18.8104C61.7211 19.4151 60.8406 20.0633 59.9431 20.6844C59.7197 20.8229 59.5296 21.0478 59.2558 21.0737C59.0928 20.8418 58.9367 20.605 58.7693 20.377C59.2306 20.0582 59.6813 19.7237 60.147 19.4119C59.8959 18.988 59.5781 18.6081 59.3162 18.1911C58.836 18.4891 58.3804 18.8305 57.9222 19.1612C57.7409 18.9086 57.566 18.651 57.3828 18.3996C58.2608 17.7559 59.1664 17.148 60.0526 16.5149C60.2571 16.387 60.4371 16.2214 60.6499 16.1055Z" fill="white"/>
<path d="M9.71622 17.8198C9.8421 17.566 10.0114 17.3379 10.1599 17.0967C10.2254 17.142 10.3834 17.2372 10.3978 17.2315C11.4589 17.9338 12.5541 18.5852 13.6064 19.3008C13.3911 19.5383 13.2558 19.8343 13.0676 20.0932C12.2658 20.0384 11.4634 19.9981 10.6628 19.9294C10.3399 19.9074 10.0227 19.8318 9.6986 19.8305C9.97426 19.9351 10.209 20.1159 10.4627 20.2627C11.0656 20.6198 11.6478 21.0116 12.2419 21.3827C12.1041 21.6157 11.953 21.84 11.8196 22.0762C11.7503 22.056 11.6761 22.0447 11.6163 22.0025C10.6848 21.4035 9.75021 20.8107 8.81685 20.2142C8.6614 20.1159 8.50091 20.0233 8.36182 19.9017C8.5651 19.6145 8.73692 19.3033 8.94461 19.0205C10.0089 19.074 11.0807 19.0898 12.1324 19.2819C11.2953 18.8479 10.5162 18.3168 9.71622 17.8198Z" fill="white"/>
<path d="M61.3254 20.8236C61.9768 20.5099 62.6124 20.1635 63.2708 19.8643C63.4061 20.1383 63.5634 20.4035 63.671 20.6907C62.9674 21.041 62.2726 21.4076 61.5664 21.7515C61.2845 21.8876 61.0094 22.1068 60.9182 22.418C60.8666 22.7121 61.0277 23.0309 61.2889 23.1732C61.5444 23.2948 61.837 23.223 62.0844 23.1147C62.8459 22.7638 63.5747 22.3411 64.3457 22.0123C64.4917 22.28 64.6182 22.5578 64.7806 22.8167C65.0084 22.8539 65.1689 22.6643 65.3055 22.5124C65.4484 22.6737 65.5642 22.8558 65.6863 23.0334C65.4956 23.2891 65.191 23.5102 64.8593 23.4857C64.6 23.4668 64.4395 23.2419 64.3029 23.0485C63.9649 23.2047 63.6421 23.3918 63.3054 23.5499C62.7994 23.7981 62.2959 24.1187 61.7131 24.125C61.2297 24.1458 60.7677 23.8806 60.499 23.4857C60.2051 23.0466 59.9823 22.4917 60.1434 21.9625C60.3146 21.4082 60.8382 21.0756 61.3254 20.8236Z" fill="white"/>
<path d="M7.43822 20.46C7.7699 20.4656 8.12612 20.5431 8.35395 20.8039C8.50374 20.974 8.46095 21.2171 8.43137 21.4212C9.18913 21.3488 9.96388 21.6505 10.4963 22.1897C10.8633 22.562 11.0602 23.0981 11.003 23.6196C10.9444 24.1715 10.6889 24.7157 10.2547 25.0691C9.96514 25.3091 9.59004 25.4181 9.21997 25.4426C8.56165 25.4628 7.91654 25.1907 7.43193 24.7522C7.06563 24.4045 6.82018 23.91 6.83214 23.3979C6.81577 22.7592 7.13927 22.145 7.61759 21.7349C7.73402 21.6241 7.89326 21.5119 7.88507 21.3318C7.83221 21.1655 7.62766 21.1428 7.48165 21.1157C7.48165 21.1157 7.39416 21.1434 7.27836 21.1163C7.32116 20.8946 7.38095 20.6779 7.43822 20.46ZM8.31053 22.3831C7.83158 22.4455 7.49172 22.9702 7.62892 23.4332C7.7743 23.8956 8.20354 24.1891 8.63277 24.3623C9.00661 24.5167 9.45158 24.5595 9.81976 24.3661C10.12 24.1721 10.3012 23.7872 10.2062 23.4338C10.103 23.0722 9.80906 22.8039 9.48871 22.6294C9.13123 22.4392 8.71836 22.3025 8.31053 22.3831Z" fill="white"/>
<path d="M22.0021 21.6994C22.5931 21.1545 23.388 20.776 24.2043 20.8201C24.6826 20.8276 25.1628 20.7955 25.6405 20.8371C26.9842 20.7911 28.3304 20.8327 29.6748 20.8138C33.0507 20.8251 36.426 20.7967 39.8013 20.827C39.829 22.7104 39.8064 24.5958 39.8152 26.4799C38.7421 26.5101 37.6684 26.4868 36.5953 26.4925C33.5208 26.4982 30.4464 26.4875 27.3725 26.4969C27.3826 33.135 27.3706 39.7731 27.3782 46.4119C25.1918 46.4131 23.0053 46.4068 20.8195 46.4119C20.8195 39.0985 20.8145 31.7857 20.822 24.4723C20.9101 23.4613 21.2689 22.4251 22.0021 21.6994Z" fill="white"/>
<path d="M6.17782 22.2296L7.06271 22.0859L6.74048 22.7354L5.7832 23.0982L6.17782 22.2296Z" fill="white"/>
<path d="M62.5776 25.0504C63.1157 24.6579 63.8061 24.462 64.4682 24.5672C64.8666 24.6371 65.2593 24.8173 65.5275 25.1285C65.9686 25.6078 66.1379 26.2963 66.0454 26.9338C66.0133 27.0894 66.0567 27.2425 66.1065 27.3899C66.3507 27.4548 66.559 27.2853 66.7201 27.1234C66.8372 27.3093 66.9278 27.5102 67.0361 27.7017C66.824 27.9448 66.4986 28.0885 66.1776 28.0841C65.9321 28.0759 65.7628 27.8762 65.6571 27.6752C65.1593 28.2321 64.3977 28.5212 63.657 28.4847C63.2013 28.4828 62.7626 28.2762 62.4366 27.9656C62.0477 27.5335 61.8148 26.9496 61.8563 26.3644C61.8626 25.839 62.1798 25.3697 62.5776 25.0504ZM62.7645 26.2126C62.4863 26.6056 62.65 27.2217 63.0849 27.4258C63.47 27.6123 63.9263 27.5537 64.3178 27.4138C64.7156 27.2696 65.1152 27.005 65.2581 26.5861C65.3519 26.2837 65.2436 25.9669 65.0472 25.7319C64.8408 25.5908 64.6073 25.4812 64.3524 25.4869C63.7577 25.4749 63.1119 25.7067 62.7645 26.2126Z" fill="white"/>
<path d="M5.29128 24.8659C5.60974 24.8357 5.98548 24.8363 6.21834 25.0921C6.39646 25.2861 6.34611 25.5633 6.34736 25.8033C6.67212 25.8637 6.98366 25.9771 7.30527 26.0527C7.48778 26.0987 7.30527 26.0527 7.48778 26.0987C8.05359 26.2782 8.69303 26.3822 9.11156 26.8458C9.55338 27.3314 9.52254 28.0703 9.28715 28.6455C9.12729 29.0877 8.74464 29.4587 8.27261 29.5374C7.67219 29.6533 7.08436 29.4278 6.51163 29.2779C5.99618 29.1292 5.47695 28.9957 4.96338 28.8433C5.04583 28.551 5.13834 28.2612 5.19373 27.9626C5.62233 28.0407 6.50785 28.367 6.53303 28.4086C6.76023 28.3267 6.97925 28.4552 7.1989 28.5018C7.53058 28.5894 7.87925 28.7135 8.22289 28.6146C8.68799 28.5037 8.85037 27.8247 8.5124 27.4977C8.29464 27.2911 7.99569 27.2067 7.71436 27.1261C7.00946 26.934 6.30646 26.7374 5.60156 26.5453C5.65883 26.2089 5.99668 25.7568 5.77716 25.5343C5.64536 25.4007 5.40646 25.4864 5.22016 25.5085C5.24723 25.2949 5.27492 25.0807 5.29128 24.8659Z" fill="white"/>
<path d="M28.6973 27.6988C29.8402 27.6566 30.985 27.6931 32.1286 27.6799C37.2479 27.678 42.3666 27.6805 47.4859 27.6793C48.6754 27.69 49.8661 27.6591 51.055 27.7001C51.05 29.8021 51.0601 31.9042 51.05 34.0062C48.4872 34.0024 45.9244 34.0005 43.3616 34.0075C43.3698 37.4355 43.3578 40.8642 43.3666 44.2922C41.824 44.3004 40.2815 44.2935 38.7382 44.296C37.9572 44.2846 37.1743 44.3174 36.3945 44.279C36.4083 40.8541 36.4039 37.4292 36.3957 34.0043C33.831 34.0075 31.2657 34.0005 28.701 34.0075C28.6979 31.9042 28.7061 29.8015 28.6973 27.6988Z" fill="white"/>
<path d="M62.7227 29.425C64.0569 29.2096 65.3868 28.9702 66.7217 28.7617C66.7815 29.1151 66.8457 29.4679 66.8948 29.8238C66.0564 30.489 65.2546 31.2064 64.3414 31.7709C65.2559 31.5132 66.1999 31.3847 67.1364 31.231C67.1799 31.5082 67.2283 31.7841 67.2787 32.06C66.5335 32.1967 65.7839 32.3075 65.0381 32.4417C64.4484 32.5293 63.8643 32.6584 63.2715 32.7239C63.2192 32.4064 63.1531 32.0915 63.1154 31.7721C63.9959 31.1025 64.8273 30.3649 65.76 29.7658C64.792 29.9258 63.8285 30.1217 62.8567 30.2622C62.8076 29.9838 62.7573 29.7053 62.7227 29.425Z" fill="white"/>
<path d="M5.34832 30.0557C5.63468 29.9663 5.95818 29.9763 6.2307 30.1055C6.51706 30.2497 6.72035 30.525 6.81035 30.8292C6.95321 30.6365 7.16594 30.5067 7.4007 30.462C7.86958 30.3694 8.34979 30.3474 8.81615 30.2409C8.79035 30.5571 8.73244 30.8702 8.6972 31.1851C8.27363 31.3067 7.82741 31.2922 7.40007 31.3861C7.04888 31.4566 6.96832 31.8636 6.97398 32.1659C7.49195 32.2226 8.00678 32.3033 8.52412 32.3631C8.51216 32.6686 8.46056 32.9703 8.41902 33.2733C7.09293 33.1133 5.77126 32.9181 4.4458 32.7505C4.45461 32.1181 4.48042 31.4737 4.66482 30.8645C4.76489 30.5155 4.99524 30.1811 5.34832 30.0557ZM5.38356 31.097C5.20419 31.3344 5.19916 31.6475 5.20293 31.9322C5.56797 31.9681 5.93049 32.0261 6.29552 32.0664C6.32258 31.7937 6.41384 31.5007 6.2886 31.2393C6.14888 30.8992 5.61643 30.8034 5.38356 31.097Z" fill="white"/>
<path d="M64.4516 33.3173C65.1924 33.0225 66.11 33.0943 66.7356 33.6153C67.5343 34.3378 67.6287 35.5661 67.3165 36.5431C67.0622 36.4915 66.8105 36.4323 66.5606 36.3649C66.7513 35.825 66.8117 35.1787 66.5103 34.6672C66.149 34.065 65.2817 33.9819 64.6996 34.2849C64.6996 34.2849 64.6996 34.2849 64.6857 34.2899C64.1275 34.5677 63.9777 35.2852 64.1413 35.8439C64.417 35.8445 64.6933 35.8458 64.9696 35.8389C64.9885 35.6297 64.9897 35.42 64.9954 35.2108C65.2295 35.2026 65.4649 35.2008 65.7003 35.2014C65.7066 35.7053 65.728 36.2093 65.7267 36.7132C65.0092 36.7132 64.2917 36.7573 63.5743 36.7422C63.3829 36.0971 63.2501 35.4124 63.3798 34.7415C63.466 34.1274 63.8669 33.5491 64.4516 33.3173Z" fill="white"/>
<path d="M4.33969 33.5762L5.09242 33.5869L5.09683 34.6993L8.37333 34.7535L8.35571 35.6644L5.08424 35.6322L5.05718 36.7138C5.05718 36.7138 4.54424 36.7069 4.28809 36.7107C4.29249 36.0127 4.28683 35.3141 4.31641 34.6174C4.32144 34.2703 4.33969 33.5762 4.33969 33.5762Z" fill="white"/>
<path d="M28.7769 35.3499C30.8199 35.3474 32.8628 35.3518 34.9064 35.3486C34.9019 38.4856 34.9089 41.6227 34.9032 44.7597C34.9038 45.0626 34.8717 45.3675 34.912 45.6705C38.237 45.668 41.5619 45.6705 44.8863 45.6686C44.8901 42.2293 44.8838 38.7899 44.8894 35.3499C46.9821 35.3499 49.0741 35.3493 51.1668 35.3512C51.1693 38.5499 51.1661 41.7486 51.1668 44.948C51.1926 45.7682 50.9968 46.5795 50.7174 47.3461C50.2429 48.6286 49.334 49.7764 48.1074 50.4082C48.1043 50.3811 48.0973 50.3269 48.0936 50.2998C48.0904 50.3301 48.0829 50.3899 48.0797 50.4195C47.4264 50.7634 46.7058 50.9619 45.9776 51.0626C45.0373 51.1748 44.0901 51.1263 43.1461 51.137C40.2101 51.1357 37.274 51.1401 34.3387 51.1351C33.3443 51.0406 32.3694 50.7313 31.5027 50.2356C30.5347 49.6806 29.7235 48.8271 29.293 47.7915C28.9871 47.0929 28.8424 46.3313 28.8159 45.571C28.8033 43.9968 28.814 42.422 28.8109 40.8472C28.7568 39.6113 28.8109 38.3735 28.7782 37.137C28.7725 36.5411 28.7757 35.9458 28.7769 35.3499Z" fill="white"/>
<path d="M9.28955 54.7441C10.5577 53.803 11.8309 52.8675 13.1067 51.9365C13.4371 52.4058 13.7782 52.8688 14.1219 53.3287C13.9651 53.4395 13.8185 53.5699 13.6379 53.6417C13.4409 53.3646 13.2407 53.0905 13.0419 52.8146C12.6089 53.0452 12.2489 53.391 11.836 53.655C12.0047 53.9321 12.2243 54.174 12.3848 54.4562C12.2451 54.5715 12.0997 54.6792 11.948 54.7794C11.7642 54.5236 11.5735 54.2735 11.3929 54.0153C10.7963 54.4127 10.2336 54.86 9.65144 55.2789C9.51864 55.1101 9.35878 54.9513 9.28955 54.7441Z" fill="white"/>
<path d="M58.9689 52.4608C59.0709 52.2889 59.2018 52.1358 59.3163 51.9727C59.8752 52.7475 60.4183 53.5355 60.9904 54.2996C61.5254 54.7185 62.0824 55.1103 62.623 55.5223C62.494 55.6879 62.37 55.858 62.2548 56.0338C61.8162 55.7503 61.4146 55.4152 60.9885 55.1153C60.8104 54.9963 60.6594 54.8268 60.4467 54.7701C59.7153 54.5446 58.9846 54.3185 58.2558 54.0867C58.1432 54.0482 58.0248 54.0325 57.9084 54.0186C58.0387 54.1037 58.2609 54.3229 58.2609 54.3229L57.8121 54.8363C57.8121 54.8363 59.4686 56.2763 60.2918 57.0019C60.5121 57.201 60.7557 57.3749 60.9533 57.5991C60.8098 57.7541 60.6764 57.9185 60.5203 58.0615C59.4755 57.1443 58.4276 56.2284 57.3659 55.332C57.1978 55.5141 56.8737 55.8882 56.8737 55.8882L56.4961 55.4819C56.4961 55.4819 57.0518 54.8489 57.3168 54.5213C57.5056 54.3147 57.6762 54.0898 57.8864 53.9034C58.0274 53.7427 58.1331 53.5538 58.2804 53.3975C58.9588 53.6779 59.6411 53.9506 60.3277 54.2127C59.8626 53.7024 59.4214 53.1708 58.9897 52.6328C58.9393 52.5799 58.9324 52.5226 58.9689 52.4608Z" fill="white"/>
<path d="M13.9603 54.1013C14.292 53.9999 14.6828 54.0257 14.9554 54.2581C15.0888 54.381 15.2166 54.517 15.3003 54.6802C15.4746 55.111 15.3361 55.6106 15.0617 55.9677C14.703 56.478 14.2096 56.8685 13.752 57.2849C13.331 57.627 12.8615 57.986 12.3007 58.0244C11.6348 58.0931 11.0369 57.3718 11.2207 56.7287C11.3635 56.221 11.7242 55.8065 12.0924 55.4443C12.6752 54.9485 13.2076 54.335 13.9603 54.1013ZM14.2001 54.7142C13.7344 54.8723 13.3838 55.2395 13.0043 55.5369C12.6468 55.8701 12.2761 56.1989 11.9879 56.597C11.8626 56.7677 11.7506 57.0166 11.8777 57.2162C11.9973 57.414 12.2724 57.4254 12.4624 57.3315C12.9867 57.0915 13.4052 56.6802 13.8256 56.2959C14.1328 56.0194 14.4449 55.7328 14.6514 55.3706C14.7728 55.1822 14.7779 54.9416 14.6382 54.7627C14.501 54.7022 14.3461 54.6518 14.2001 54.7142Z" fill="white"/>
<path d="M13.1571 59.1555C14.2025 58.0405 15.2051 56.8846 16.2543 55.7734C16.523 56.0607 16.8547 56.2837 17.1027 56.5898C17.3097 56.8292 17.3141 57.1826 17.2128 57.4679C17.0032 57.9057 16.6432 58.283 16.192 58.4714C15.9862 58.5634 15.7501 58.5464 15.5456 58.4619C15.2391 59.2241 14.949 59.9927 14.6424 60.7549C14.4838 60.6049 14.3303 60.45 14.1629 60.3108C14.431 59.5523 14.7715 58.821 15.0301 58.0601C14.5342 58.6024 14.0395 59.1467 13.5473 59.6934C13.3611 59.6292 13.2301 59.4717 13.0936 59.3382C13.0237 59.279 13.1238 59.2021 13.1571 59.1555ZM16.3373 56.6112C16.005 57.015 15.6117 57.3665 15.297 57.7854C15.4524 57.8963 15.6431 58.0267 15.842 57.9416C16.146 57.8043 16.3764 57.5347 16.5457 57.2544C16.7011 57.0264 16.5513 56.736 16.3373 56.6112Z" fill="white"/>
<path d="M55.7251 56.1896C55.873 56.0403 56.0215 55.8916 56.1738 55.7461C57.2551 56.8157 58.3093 57.9118 59.3893 58.9826C59.4208 59.0381 59.5353 59.0822 59.4913 59.1603C59.361 59.3152 59.2061 59.4463 59.0658 59.5918C58.5856 59.0715 58.0626 58.5933 57.5761 58.08C56.9744 57.4343 56.3136 56.8466 55.7251 56.1896Z" fill="white"/>
<path d="M54.2455 57.7882C54.3059 57.2868 54.7691 56.9259 55.2354 56.8125C55.3626 56.9807 55.5155 57.1306 55.6162 57.3183C55.35 57.3385 55.0794 57.4632 54.9541 57.7101C54.849 57.9779 54.9686 58.2884 55.1989 58.449C55.4154 58.6311 55.71 58.6355 55.9775 58.6638C56.238 58.6997 56.5017 58.7174 56.7617 58.7627C57.4332 58.883 57.9801 59.5048 58.0122 60.1864C58.0041 60.752 57.5251 61.232 56.9713 61.2862C56.8007 61.1445 56.6792 60.9574 56.5427 60.7867C56.8649 60.7514 57.2715 60.616 57.3476 60.2569C57.3715 59.8821 57.0858 59.5432 56.739 59.4311C56.2651 59.283 55.7553 59.358 55.2801 59.2188C55.0813 59.1621 54.9107 59.0424 54.7433 58.9278C54.4557 58.6229 54.1825 58.2298 54.2455 57.7882Z" fill="white"/>
<path d="M18.2054 57.5439C18.6454 57.8784 19.0714 58.2318 19.5221 58.5518C19.4875 58.7452 19.3062 58.8687 19.2099 59.0331C18.9261 58.8151 18.6447 58.5947 18.3603 58.378C18.067 58.7742 17.7491 59.1521 17.4659 59.5553C17.7246 59.7323 17.9562 59.9452 18.2105 60.1285C18.0858 60.2702 17.97 60.4202 17.8486 60.565C17.5962 60.3742 17.3558 60.1676 17.0914 59.9931C16.7849 60.4246 16.43 60.8195 16.1329 61.258C16.4067 61.4696 16.6754 61.6876 16.9555 61.8917C16.8605 62.051 16.7409 62.194 16.6263 62.3402C16.216 62.0359 15.8201 61.7128 15.411 61.4073C15.3015 61.3512 15.316 61.212 15.3928 61.1358C16.3324 59.9402 17.2538 58.7301 18.2054 57.5439Z" fill="white"/>
<path d="M52.9536 58.5908C53.318 58.4365 53.7321 58.5688 53.9983 58.8453C54.3067 59.1798 54.5843 59.5949 54.5924 60.0655C54.6063 60.2185 54.5119 60.3496 54.4791 60.4944C54.4968 60.5744 54.5868 60.6003 54.6453 60.6475C55.2734 61.0431 55.8858 61.4651 56.5202 61.8519C56.3326 61.9729 56.1545 62.1089 55.9815 62.2513C55.2936 61.8255 54.6308 61.3593 53.9505 60.9215C54.3703 61.5477 54.836 62.1429 55.2678 62.7622C55.1022 62.8976 54.9241 63.0154 54.7498 63.1389C54.014 62.1253 53.2708 61.1168 52.5319 60.1051C52.3405 59.828 52.1177 59.5735 51.9497 59.2812C52.2902 59.0589 52.5973 58.7892 52.9536 58.5908ZM52.7931 59.3518C52.8944 59.4979 52.9957 59.6453 53.1052 59.787C53.301 60.0661 53.5049 60.3401 53.7044 60.6179C53.9064 60.4944 54.0625 60.2469 53.9511 60.0113C53.7944 59.6529 53.5483 59.2617 53.1436 59.1609C53.0196 59.21 52.9013 59.273 52.7931 59.3518Z" fill="white"/>
<path d="M19.9354 58.8828C20.1198 58.9956 20.2948 59.1222 20.4767 59.2393C19.6132 60.5704 18.7213 61.8838 17.8528 63.211C17.6879 63.1077 17.5312 62.9912 17.3588 62.9011C17.3392 62.7354 17.4809 62.6233 17.5558 62.4923C18.3469 61.2879 19.1468 60.0891 19.9354 58.8828Z" fill="white"/>
<path d="M50.0742 60.439C50.5708 60.1776 51.0183 59.8293 51.5174 59.5723C51.6048 59.726 51.7018 59.8753 51.81 60.0164C51.5331 60.2475 51.1976 60.3943 50.9062 60.606C51.1605 61.0028 51.3934 61.4142 51.6558 61.8053L51.7131 61.8223C51.9856 61.6951 52.2235 61.5061 52.4809 61.3518C52.5886 61.5086 52.693 61.6674 52.7981 61.8268C52.5426 61.9855 52.2946 62.1581 52.0265 62.296C52.0146 62.439 52.1197 62.548 52.1864 62.6645C52.4041 63.0041 52.6175 63.3455 52.8271 63.6901C52.9297 63.629 53.0323 63.5679 53.1374 63.5105C53.1348 63.4872 53.1304 63.4406 53.1279 63.4173L53.1651 63.4847C53.3325 63.3732 53.5037 63.2674 53.6742 63.1597C53.7 63.166 53.7529 63.1792 53.7787 63.1855C53.8574 63.326 53.943 63.4633 54.0336 63.5968C53.6258 63.8601 53.2097 64.1096 52.8019 64.3729C52.7276 64.4063 52.6402 64.4957 52.5552 64.4453C51.832 63.2945 51.1102 62.143 50.3921 60.989C50.2788 60.8101 50.1523 60.6368 50.0742 60.439Z" fill="white"/>
<path d="M20.5195 60.6539C20.7574 60.3421 21.0872 60.0574 21.4931 60.0215C21.8065 60.0063 22.0973 60.1726 22.3402 60.3553C22.7015 60.6501 22.7632 61.1931 22.6039 61.6038C22.39 61.5862 22.1797 61.5421 21.9658 61.5276C22.0211 61.3078 22.1105 61.0476 21.962 60.8454C21.8367 60.7062 21.6139 60.6016 21.4352 60.7011C21.1205 60.8637 20.9474 61.19 20.7674 61.4791C20.437 62.0378 20.0978 62.5991 19.8851 63.2158C19.8227 63.3878 19.8114 63.5711 19.8253 63.7525C19.9379 63.8791 20.077 63.9742 20.235 64.0359C20.724 63.8791 20.9191 63.3506 21.1658 62.9487C21.0041 62.8712 20.8442 62.7893 20.702 62.6797C20.7964 62.5292 20.8851 62.3748 20.9726 62.2211C21.2886 62.3837 21.5976 62.5594 21.9079 62.732C21.9563 62.8208 21.9192 62.9254 21.8732 63.0073C21.6146 63.4772 21.3653 63.9685 20.9632 64.3352C20.7127 64.5424 20.3728 64.6949 20.0449 64.6023C19.6761 64.4945 19.3174 64.2426 19.2066 63.8577C19.0757 63.3575 19.2739 62.8542 19.4791 62.4038C19.7774 61.7941 20.1066 61.1944 20.5195 60.6539Z" fill="white"/>
<path d="M49.2516 60.8639C49.4291 60.7908 49.599 60.7014 49.7734 60.6201C50.1944 62.1785 50.6312 63.7319 51.0579 65.2891C50.8999 65.3735 50.7464 65.4699 50.5727 65.5171C49.6198 64.2296 48.6329 62.9653 47.6631 61.6897C47.8406 61.5757 48.0319 61.4881 48.2195 61.393C48.9099 62.3524 49.5896 63.3212 50.2504 64.3014C50.0616 63.5278 49.7784 62.7789 49.5644 62.0116C49.4643 61.6274 49.3108 61.257 49.2516 60.8639Z" fill="white"/>
<path d="M22.4037 63.6875C22.7908 62.8258 23.1413 61.9471 23.5517 61.0967C23.7248 61.2031 23.9287 61.2453 24.1005 61.3568C23.9513 62.572 23.811 63.7902 23.7027 65.0098C23.9671 64.257 24.1936 63.4891 24.5215 62.7609C24.6713 62.4145 24.8142 62.0636 24.9816 61.7247C25.1761 61.8116 25.3743 61.8929 25.5638 61.9924C24.9212 63.4406 24.317 64.9064 23.658 66.3477C23.478 66.2683 23.2974 66.1915 23.1155 66.1184C23.2596 64.8699 23.4107 63.6227 23.546 62.3729C23.1898 63.4992 22.7234 64.5864 22.2552 65.6699C22.0349 65.6661 21.8423 65.5515 21.6396 65.4822C21.8618 64.8718 22.152 64.2866 22.4037 63.6875Z" fill="white"/>
<path d="M46.6597 62.0718C46.8523 61.9893 47.0467 61.9099 47.2456 61.8438C47.7491 63.1225 48.2841 64.3886 48.7989 65.663C48.8719 65.862 48.9978 66.0516 48.9902 66.2721C48.8083 66.3338 48.6309 66.4063 48.4515 66.4749C47.853 65.0078 47.2337 63.5483 46.6597 62.0718Z" fill="white"/>
<path d="M45.2936 62.5707C45.4906 62.5064 45.6894 62.4447 45.8783 62.3584C46.0463 62.6897 46.1199 63.0608 46.2508 63.4078C46.6247 64.5719 47.0036 65.7341 47.3894 66.8945C47.2056 66.965 47.0187 67.0255 46.8336 67.0904C46.1149 66.0982 45.4239 65.086 44.7164 64.0856C44.9071 64.6425 45.1425 65.183 45.3515 65.7329C45.5334 66.2853 45.7146 66.8378 45.8915 67.3921C45.6882 67.4614 45.4836 67.525 45.2772 67.5842C44.7907 66.0737 44.2891 64.5688 43.8032 63.0582C43.9946 62.994 44.1871 62.9329 44.3778 62.8655C45.1029 63.8771 45.8122 64.9001 46.5353 65.9137C46.3087 65.3323 46.0551 64.7622 45.8204 64.1839C45.6372 63.6485 45.4711 63.108 45.2936 62.5707Z" fill="white"/>
<path d="M27.2524 62.6182C27.9064 62.8286 28.5653 63.0238 29.2268 63.2103C29.2148 63.4005 29.1519 63.5813 29.0984 63.7634C28.8699 63.7004 28.6446 63.6279 28.4161 63.5668C28.0266 64.8966 27.6213 66.2226 27.2417 67.5549C27.0221 67.5511 26.8175 67.4679 26.6143 67.3961C27.0215 66.0594 27.4161 64.7177 27.7849 63.3709C27.5564 63.3023 27.3299 63.2311 27.0995 63.1706C27.1316 62.981 27.1939 62.7996 27.2524 62.6182Z" fill="white"/>
<path d="M29.4943 63.3047C29.9122 63.4011 30.349 63.4288 30.7493 63.5938C31.0363 63.7198 31.21 64.0341 31.215 64.3415C31.2326 64.7837 31.142 65.2505 30.8833 65.6178C30.7638 65.8174 30.5435 65.9302 30.3188 65.9636C30.4459 66.7756 30.6272 67.5781 30.7335 68.3932C30.5246 68.3182 30.2747 68.3422 30.0834 68.2426C29.9267 67.4496 29.8411 66.6408 29.6668 65.8521C29.5245 66.603 29.3779 67.3538 29.2432 68.1066C29.0336 68.0707 28.8253 68.0266 28.6201 67.9718C28.9197 66.4178 29.2023 64.8606 29.4943 63.3047ZM30.0305 63.9611C29.9298 64.4776 29.8147 64.9923 29.7492 65.5145C29.9204 65.5271 30.0954 65.5195 30.2477 65.4319C30.4786 65.1119 30.5592 64.6968 30.5183 64.3094C30.4686 64.0839 30.2332 63.9951 30.0305 63.9611Z" fill="white"/>
<path d="M42.5171 63.3621C42.7267 63.3098 42.9369 63.2582 43.1522 63.2305C43.4165 64.4418 43.6833 65.6531 43.954 66.8632C44.0408 67.2525 43.9911 67.7432 43.6254 67.9757C43.2988 68.164 42.8973 68.2667 42.5247 68.1829C42.2201 68.1161 42.0161 67.8434 41.9173 67.5643C41.7367 67.0736 41.6587 66.5539 41.5322 66.0481C41.3603 65.2645 41.1715 64.4853 41.0054 63.7004C41.2143 63.6601 41.422 63.6135 41.6303 63.5719C41.8783 64.6913 42.1313 65.8094 42.3906 66.9262C42.4479 67.1372 42.485 67.3804 42.66 67.5309C42.8557 67.6557 43.1673 67.5958 43.2805 67.3842C43.3888 67.2273 43.3378 67.0289 43.3051 66.8582C43.0458 65.6916 42.7777 64.5275 42.5171 63.3621Z" fill="white"/>
<path d="M32.5972 64.3773C32.6639 64.211 32.696 64.0271 32.7897 63.874C32.954 63.8847 33.1176 63.9131 33.2813 63.9364C33.4304 65.5414 33.5947 67.1446 33.7458 68.7496C33.5343 68.7389 33.3235 68.7194 33.1126 68.6998C33.0925 68.3906 33.0528 68.0832 33.0421 67.7739C32.7325 67.7109 32.4165 67.6901 32.1031 67.6536C32.0225 67.954 31.9105 68.245 31.8318 68.5462C31.6242 68.5285 31.4177 68.5008 31.2119 68.4712C31.6651 67.1036 32.1383 65.743 32.5972 64.3773ZM32.2649 67.1736C32.509 67.2069 32.7551 67.2239 33.0012 67.2416C32.9314 66.441 32.9326 65.6372 32.9118 64.834C32.6865 65.6113 32.4776 66.3931 32.2649 67.1736Z" fill="white"/>
<path d="M37.4849 64.061C38.0437 64.0169 38.6026 63.9753 39.1609 63.9287C39.1961 64.1158 39.21 64.3054 39.2087 64.4963C38.8537 64.5038 38.5013 64.546 38.1476 64.57C38.1992 65.0563 38.2401 65.5445 38.2615 66.0333C38.5806 66.0339 38.8984 66.003 39.2169 65.986C39.2307 66.1637 39.2484 66.3419 39.2641 66.5208C38.95 66.563 38.6335 66.5838 38.3163 66.5882C38.3458 67.13 38.388 67.6723 38.444 68.2128C38.7984 68.1769 39.154 68.141 39.5108 68.1372C39.5121 68.3149 39.5234 68.4925 39.5366 68.6708C38.9714 68.7293 38.4037 68.7652 37.8373 68.81C37.7291 67.2263 37.578 65.6452 37.4849 64.061Z" fill="white"/>
<path d="M34.6161 64.0498C35.107 64.0876 35.6224 64.0038 36.09 64.1896C36.5784 64.407 36.7452 64.9739 36.8207 65.4596C36.9114 66.1745 36.9026 66.9052 36.7761 67.6152C36.6754 68.0303 36.5048 68.5046 36.0819 68.6879C35.5947 68.892 35.0541 68.8114 34.5405 68.8126C34.56 67.2246 34.606 65.6378 34.6161 64.0498ZM35.2454 64.6067C35.2354 65.8356 35.2095 67.064 35.1932 68.293C35.4084 68.2766 35.6577 68.2741 35.8156 68.1015C36.1051 67.8684 36.1561 67.4684 36.1826 67.1213C36.1857 66.4719 36.2707 65.8073 36.0894 65.1723C35.9805 64.8177 35.6149 64.5752 35.2454 64.6067Z" fill="white"/>
<path d="M25.9738 1.43319C32.2196 -0.396734 38.9652 -0.469175 45.252 1.20705C49.8458 2.43602 54.1885 4.59476 57.9452 7.51256C63.0487 11.4489 67.0704 16.7774 69.4413 22.7743C71.6642 28.356 72.4264 34.5047 71.6736 40.4637C71.0122 45.7815 69.1278 50.9412 66.2107 55.4344C63.512 59.6184 59.9378 63.2329 55.7877 65.9806C51.4469 68.865 46.4692 70.7863 41.314 71.5497C38.8186 71.9195 36.2835 72.0322 33.7654 71.8697C33.6792 71.8508 33.6087 71.8748 33.5539 71.9422C33.4645 71.8842 33.3745 71.8231 33.2625 71.8344C27.658 71.4206 22.1642 69.6404 17.369 66.7107C14.5853 65.0118 12.0282 62.9381 9.8002 60.5563C6.7572 57.3167 4.31839 53.5107 2.65118 49.3885C0.420064 43.8804 -0.392453 37.8099 0.28412 31.9069C0.28412 31.7752 0.357127 31.362 0.359645 31.27C0.571113 29.6889 0.871952 28.1173 1.3037 26.5815C1.34964 26.4026 1.3037 26.5815 1.34964 26.4026C3.05587 20.1891 6.50104 14.4757 11.1515 10.0247C15.3097 6.02846 20.4353 3.04201 25.9738 1.43319ZM29.3069 1.76201C25.447 2.51602 21.723 3.94594 18.3382 5.94909C15.3513 7.72232 12.6242 9.93524 10.2817 12.5015C7.83531 15.1844 5.80055 18.2445 4.29195 21.5478C3.00804 24.3592 2.0986 27.3431 1.60706 30.3944C0.669924 36.2042 1.21307 42.254 3.22706 47.7866C4.77027 52.0757 7.18328 56.0455 10.2508 59.413C14.265 63.825 19.4157 67.2001 25.0807 69.0704C30.9332 71.02 37.3094 71.357 43.3375 70.0524C45.9236 69.4987 48.4417 68.6363 50.8333 67.5075C55.1426 65.4678 59.0233 62.5299 62.1645 58.9425C65.548 55.0993 68.0761 50.5041 69.4878 45.5793C71.1626 39.7778 71.2897 33.5352 69.8359 27.6732C69.7622 27.3872 69.8359 27.6732 69.7622 27.3872C67.9528 20.1985 63.736 13.6587 57.9987 8.9809C54.2589 5.9176 49.8792 3.63476 45.218 2.35413C40.0559 0.924211 34.5615 0.730825 29.3069 1.76201Z" fill="#B71B21"/>
<path d="M33.733 1.78266C39.5812 1.38707 45.5274 2.52849 50.8009 5.0929C57.4251 8.28156 62.9667 13.6598 66.3672 20.1808C69.2056 25.5742 70.5399 31.7468 70.1931 37.8324C69.9118 43.2497 68.2943 48.5902 65.537 53.2598C63.1435 57.3342 59.8979 60.9008 56.0832 63.6863C51.6676 66.9134 46.4677 69.0608 41.0564 69.8595C34.9301 70.7823 28.5546 69.9981 22.843 67.5899C16.7054 65.0211 11.3551 60.6211 7.63241 55.1049C4.62591 50.6778 2.67549 45.5326 2.02346 40.2173C1.61626 37.0186 1.67542 33.7631 2.18395 30.5789C2.82276 26.5436 4.20864 22.6305 6.23395 19.0847C8.27185 15.503 10.9674 12.303 14.1275 9.66235C18.5992 5.92061 24.0363 3.3392 29.7705 2.28156C31.0802 2.03715 32.4044 1.87337 33.733 1.78266ZM34.9345 4.42329C34.3246 4.93857 34.1453 5.81857 34.3045 6.5751C34.4172 7.20313 34.8842 7.75431 35.4946 7.94896C36.1089 8.14676 36.7937 8.13668 37.4042 7.92817C37.3752 7.6762 37.3242 7.42739 37.2644 7.18046C36.7484 7.37825 36.0926 7.40471 35.6451 7.03494C35.2404 6.6929 35.1611 6.10518 35.2656 5.61132C35.3323 5.26235 35.5601 4.93794 35.8918 4.79746C36.3267 4.58518 36.8415 4.64691 37.2802 4.81573C37.345 4.56754 37.4092 4.31935 37.4702 4.07054C36.6426 3.77195 35.6212 3.83243 34.9345 4.42329ZM31.444 4.19715C30.8304 4.27904 30.2709 4.68534 30.0191 5.25353C29.6509 6.09447 29.7976 7.16597 30.4282 7.84439C31.2577 8.72061 32.8935 8.46802 33.4719 7.4255C33.7658 6.9014 33.7714 6.26581 33.6481 5.69132C33.5266 5.21699 33.2774 4.74833 32.857 4.47558C32.4529 4.18581 31.9261 4.10455 31.444 4.19715ZM39.0254 8.17447L39.8474 8.32691C39.8474 8.32691 40.1916 6.39054 40.3641 5.42298C40.6297 6.50077 41.0218 7.54014 41.3648 8.594C41.6864 8.64628 42.329 8.75526 42.329 8.75526C42.329 8.75526 42.7966 6.10077 43.0484 4.77731C42.7651 4.72313 42.1949 4.63432 42.1949 4.63432L41.7978 7.31337L41.7468 7.38707L40.8059 4.35778L39.7335 4.19022L39.0254 8.17447ZM27.6628 5.01668C27.7855 5.52439 27.9806 6.01321 28.0813 6.52597C27.6086 6.65321 27.1398 6.7962 26.6696 6.9329C26.5211 6.44156 26.3782 5.94833 26.2353 5.45573C25.9345 5.50802 25.6507 5.62644 25.3523 5.68943C25.4593 6.20282 25.6349 6.69983 25.7765 7.20439C26.0132 8.00313 26.2347 8.80628 26.4839 9.60124C26.7728 9.52187 27.0567 9.42613 27.3474 9.35431C27.253 8.79243 27.0214 8.26329 26.9088 7.70455C27.3827 7.58424 27.8484 7.43243 28.3186 7.29699C28.4904 7.83179 28.6364 8.37479 28.7975 8.91337C29.0933 8.84912 29.3797 8.75022 29.6736 8.67715C29.6233 8.40124 29.5364 8.13353 29.4552 7.86581C29.1468 6.83274 28.8611 5.79274 28.537 4.76471C28.2443 4.84408 27.9542 4.9329 27.6628 5.01668ZM44.2681 5.82298C43.6998 6.17132 43.3599 6.8151 43.2793 7.46581C43.1856 8.08187 43.4272 8.74896 43.9282 9.12943C44.5664 9.63715 45.4041 9.79085 46.199 9.82928C46.4375 9.14896 46.6496 8.45983 46.8907 7.78077C46.4092 7.62014 45.9271 7.46014 45.4437 7.30644C45.3714 7.53699 45.2902 7.76439 45.2247 7.99683C45.4123 8.05857 45.5998 8.12219 45.7899 8.17825C45.7471 8.45227 45.6193 8.70109 45.557 8.96943C45.0126 8.98644 44.4405 8.63746 44.2851 8.09951C44.1743 7.7392 44.2643 7.34802 44.4229 7.01668C44.6016 6.64187 44.9799 6.33762 45.4085 6.34392C45.9365 6.31935 46.44 6.56502 46.8416 6.89069C46.9832 6.67589 47.1242 6.46046 47.2645 6.24439C46.8982 5.93006 46.4426 5.74298 45.9812 5.62014C45.411 5.48912 44.7798 5.5162 44.2681 5.82298ZM22.2508 7.01605C22.3754 7.35935 22.5472 7.68376 22.6945 8.01825C23.1118 8.91778 23.5202 9.82172 23.9388 10.7212C24.2195 10.6085 24.4832 10.4586 24.7664 10.3534C24.745 10.2765 24.7249 10.1997 24.6928 10.1266C24.1893 9.05006 23.6996 7.9666 23.2018 6.88691C23.1539 6.81825 23.1558 6.68534 23.0608 6.66581C22.7814 6.7603 22.5277 6.91589 22.2508 7.01605ZM48.8146 7.14707C47.7063 7.41983 46.9882 8.65636 47.1625 9.75998C47.3356 10.7496 48.4062 11.3959 49.3679 11.2693C49.9406 11.1968 50.4378 10.8176 50.7393 10.3357C51.0999 9.78959 51.295 9.08975 51.103 8.4466C50.8293 7.50928 49.748 6.9455 48.8146 7.14707ZM19.3198 8.59967C19.3337 8.6929 19.3481 8.78676 19.3702 8.87935C19.7 10.1657 20.0178 11.4557 20.3457 12.7433C20.6346 12.6079 20.8901 12.4132 21.1727 12.2658C21.0921 11.9042 20.9386 11.5571 20.9008 11.1874C21.2381 11.0268 21.5409 10.8031 21.8713 10.6293C22.1174 10.8756 22.3962 11.0891 22.6291 11.348C22.9481 11.2189 23.2288 11.0129 23.519 10.8302C22.4553 9.90613 21.4238 8.9455 20.3551 8.0277C19.9914 8.1814 19.6855 8.44912 19.3198 8.59967ZM31.8638 8.84219C31.6511 9.09227 31.7619 9.57101 32.1294 9.57479C32.4988 9.63715 32.7367 9.13762 32.48 8.87809C32.327 8.67778 32.0558 8.74329 31.8638 8.84219ZM50.0728 11.8639L50.8204 12.4397C50.8204 12.4397 51.3535 11.9672 51.6651 11.7927C51.9621 12.0088 52.2617 12.2223 52.5701 12.422C52.4782 12.7742 52.3567 13.1175 52.2359 13.4601C52.5179 13.6384 52.7684 13.8658 53.066 14.0189C53.3209 13.1987 53.5891 12.383 53.8452 11.5634C54.012 11.0293 54.2052 10.502 54.3399 9.95841C54.0151 9.75998 53.3977 9.31526 53.3977 9.31526L50.0728 11.8639ZM16.3303 10.6759C15.8356 10.999 15.3919 11.3946 14.9822 11.8198C15.3133 12.2324 15.6399 12.6494 15.9615 13.0696C15.8526 13.1559 15.7456 13.2447 15.6399 13.3342C15.7878 13.5168 16.0798 13.886 16.0798 13.886L16.4058 13.6422C16.4058 13.6422 17.1095 14.5367 17.4739 14.9738C18.0435 14.645 18.5753 14.2349 19.0026 13.7323C19.1795 13.4872 19.3709 13.2097 19.4551 12.919C19.5395 12.4976 19.5074 12.0497 19.3167 11.6605C19.0454 11.0847 18.5885 10.5442 17.9598 10.3559C17.404 10.1846 16.8017 10.3641 16.3303 10.6759ZM30.4333 11.0545C24.7003 12.3219 19.4721 15.6749 15.869 20.3074C13.8764 22.8504 12.3772 25.7783 11.4785 28.8825C9.8201 34.5795 10.2342 40.856 12.6504 46.2772C14.5045 50.4668 17.5053 54.1417 21.2426 56.7893C23.8834 58.6772 26.8912 60.0466 30.0468 60.8044C33.3762 61.6044 36.866 61.719 40.2426 61.1565C42.7072 60.7445 45.1089 59.9597 47.3444 58.8441C51.762 56.6457 55.5124 53.1332 58.011 48.8775C59.3805 46.543 60.3774 43.9893 60.9445 41.3423C61.6532 38.0189 61.6935 34.5537 61.0679 31.2132C60.4102 27.7222 59.0086 24.3754 56.982 21.4589C54.4752 17.8236 51.0067 14.8655 47.0316 12.9499C44.4456 11.7033 41.6467 10.8964 38.7919 10.5871C36.0057 10.2923 33.1679 10.4321 30.4333 11.0545ZM53.3499 14.349C53.5872 14.5518 53.8175 14.7641 54.0693 14.9499C54.9378 13.9194 55.8284 12.9064 56.69 11.8702C56.5326 11.7165 56.0851 11.3417 55.9901 11.2573C55.1146 12.2916 54.2342 13.3216 53.3499 14.349ZM22.2212 12.1726C21.9745 12.2658 21.8751 12.5808 22.0104 12.8038C22.174 13.1143 22.7405 13.0526 22.7902 12.6866C22.877 12.3697 22.5315 12.0422 22.2212 12.1726ZM57.4842 13.6302C57.7259 13.8828 57.9544 14.1493 58.2023 14.3975C58.0393 14.5745 57.8581 14.732 57.6837 14.8976C57.0456 15.4601 56.4376 16.0567 55.7931 16.6129C55.9932 16.8447 56.1833 17.1023 56.4256 17.2863C56.6358 17.1502 56.802 16.9549 56.9921 16.7918C57.612 16.2331 58.2124 15.6523 58.8449 15.1086C59.0923 15.372 59.3352 15.639 59.5744 15.9099C59.7594 15.7619 59.9363 15.6044 60.1005 15.4331C60.1716 15.3732 60.0728 15.2976 60.0395 15.2497C59.3793 14.5316 58.7153 13.816 58.0677 13.0866C57.8625 13.2554 57.656 13.4261 57.4842 13.6302ZM50.6191 13.8948C50.7355 14.1864 51.2075 14.2066 51.3573 13.9338C51.4882 13.765 51.4196 13.5545 51.3183 13.3895C51.1805 13.3151 51.0313 13.234 50.874 13.2926C50.6253 13.3537 50.5114 13.6743 50.6191 13.8948ZM12.9575 13.8469C12.6208 14.0686 12.3263 14.3521 12.0947 14.6816C11.7164 15.1855 11.4993 15.8494 11.6497 16.4756C11.7718 17.0601 12.1909 17.5364 12.6806 17.8532C13.2225 18.1959 13.9469 18.257 14.5146 17.9408C15.2415 17.5458 15.7305 16.8239 16.0509 16.0794C15.4989 15.6145 14.974 15.1162 14.4038 14.6753C14.103 15.0646 13.7814 15.44 13.4384 15.7921C13.5926 15.9905 13.7965 16.1455 14.001 16.2904C14.1237 16.136 14.2509 15.9855 14.3818 15.8381C14.6077 15.9912 14.7972 16.1902 15.0143 16.3546C14.9029 16.7049 14.592 16.9675 14.271 17.1269C13.7115 17.3764 13.0821 17.0526 12.7335 16.6022C12.4156 16.2608 12.3816 15.7228 12.6044 15.3222C12.826 14.9241 13.1709 14.5921 13.5768 14.3849C13.4654 14.1688 13.3062 13.9836 13.1904 13.7707C13.1092 13.7858 13.0242 13.7946 12.9575 13.8469ZM60.65 16.1058C60.4372 16.2217 60.2572 16.3874 60.0527 16.5153C59.1665 17.1483 58.2609 17.7562 57.3829 18.4C57.566 18.6513 57.741 18.909 57.9223 19.1616C58.3805 18.8309 58.8361 18.4894 59.3163 18.1915C59.5781 18.6085 59.896 18.9883 60.1471 19.4123C59.6814 19.7241 59.2307 20.0586 58.7694 20.3773C58.9368 20.6053 59.0929 20.8422 59.2559 21.074C59.5297 21.0482 59.7198 20.8233 59.9432 20.6847C60.8407 20.0636 61.7211 19.4154 62.6293 18.8107C62.4751 18.548 62.2706 18.3194 62.1208 18.0542C61.6463 18.2879 61.268 18.6853 60.7953 18.9209C60.5537 18.5134 60.2623 18.1367 59.9866 17.7518C59.9923 17.7323 60.0023 17.6926 60.008 17.6724C60.4335 17.406 60.8331 17.0998 61.2447 16.8113C61.0685 16.5858 60.9187 16.3401 60.7393 16.1171C60.7173 16.114 60.6726 16.1083 60.65 16.1058ZM9.71626 17.8198C10.5162 18.3168 11.2953 18.8479 12.1324 19.2819C11.0807 19.0897 10.0089 19.074 8.94465 19.0205C8.73696 19.3033 8.56514 19.6145 8.36185 19.9017C8.50094 20.0233 8.66143 20.1159 8.81689 20.2142C9.75024 20.8107 10.6849 21.4035 11.6163 22.0025C11.6761 22.0447 11.7504 22.056 11.8196 22.0762C11.953 21.84 12.1041 21.6157 12.2419 21.3827C11.6478 21.0116 11.0656 20.6198 10.4627 20.2627C10.2091 20.1159 9.9743 19.9351 9.69864 19.8305C10.0228 19.8318 10.34 19.9074 10.6628 19.9294C11.4634 19.9981 12.2658 20.0384 13.0677 20.0932C13.2558 19.8343 13.3912 19.5383 13.6064 19.3008C12.5541 18.5852 11.459 17.9338 10.3979 17.2315C10.3834 17.2371 10.2254 17.142 10.16 17.0967C10.0114 17.3379 9.84213 17.566 9.71626 17.8198ZM61.3253 20.8239C60.8381 21.0759 60.3145 21.4085 60.1433 21.9628C59.9822 22.492 60.205 23.0469 60.4989 23.486C60.7677 23.8809 61.2296 24.1461 61.713 24.1253C62.2958 24.119 62.7993 23.7984 63.3053 23.5502C63.642 23.3921 63.9649 23.205 64.3028 23.0488C64.4394 23.2422 64.5999 23.4671 64.8592 23.486C65.1909 23.5105 65.4955 23.2894 65.6862 23.0337C65.5641 22.856 65.4483 22.674 65.3054 22.5127C65.1688 22.6646 65.0084 22.8542 64.7805 22.817C64.6181 22.5581 64.4916 22.2803 64.3456 22.0126C63.5746 22.3414 62.8458 22.7641 62.0843 23.1149C61.837 23.2233 61.5443 23.2951 61.2888 23.1735C61.0276 23.0312 60.8665 22.7124 60.9181 22.4183C61.0093 22.1071 61.2844 21.8879 61.5663 21.7518C62.2725 21.4079 62.9673 21.0412 63.6709 20.691C63.5633 20.4038 63.406 20.1386 63.2707 19.8646C62.6123 20.1638 61.9767 20.5102 61.3253 20.8239ZM7.43794 20.4598C7.38066 20.6778 7.32087 20.8945 7.27808 21.1162C7.39388 21.1433 7.48136 21.1156 7.48136 21.1156C7.62738 21.1427 7.83192 21.1653 7.88479 21.3316C7.89297 21.5118 7.73374 21.6239 7.61731 21.7348C7.13899 22.1449 6.81549 22.759 6.83185 23.3978C6.8199 23.9099 7.06535 24.4044 7.43164 24.7521C7.91626 25.1905 8.56136 25.4627 9.21969 25.4425C9.58976 25.4179 9.96486 25.309 10.2544 25.069C10.6886 24.7156 10.9442 24.1713 11.0027 23.6195C11.06 23.0979 10.863 22.5619 10.496 22.1896C9.9636 21.6504 9.18885 21.3486 8.43108 21.4211C8.46067 21.217 8.50346 20.9738 8.35367 20.8038C8.12584 20.543 7.76962 20.4655 7.43794 20.4598ZM6.17794 22.2299L5.78332 23.0986L6.74059 22.7357L7.06283 22.0863L6.17794 22.2299ZM62.5777 25.0501C62.18 25.3694 61.8628 25.8387 61.8565 26.3641C61.8149 26.9493 62.0478 27.5332 62.4367 27.9653C62.7628 28.2759 63.2014 28.4825 63.6571 28.4844C64.3979 28.5209 65.1594 28.2318 65.6572 27.6749C65.763 27.8759 65.9323 28.0756 66.1777 28.0838C66.4987 28.0882 66.8241 27.9446 67.0362 27.7014C66.9279 27.5099 66.8373 27.309 66.7202 27.1231C66.5591 27.285 66.3508 27.4545 66.1066 27.3896C66.0569 27.2422 66.0135 27.0891 66.0456 26.9335C66.1381 26.296 65.9688 25.6075 65.5276 25.1282C65.2595 24.817 64.8667 24.6368 64.4683 24.5669C63.8063 24.4617 63.1158 24.6576 62.5777 25.0501ZM5.29115 24.8661C5.27479 25.0809 5.2471 25.2951 5.22004 25.5086C5.40633 25.4866 5.64341 25.4028 5.77703 25.5345C6.03048 25.7842 5.65871 26.2091 5.60143 26.5455C6.30633 26.7376 7.00934 26.9342 7.71423 27.1263C7.99556 27.2069 8.29451 27.2913 8.51227 27.4979C8.85024 27.8249 8.68787 28.5039 8.22276 28.6148C7.87913 28.7137 7.53046 28.5896 7.19878 28.502C6.97913 28.4554 5.6222 28.0409 5.1936 27.9628C5.13822 28.2614 5.0457 28.5512 4.96325 28.8435C5.47682 28.9959 5.99605 29.1294 6.5115 29.2781C7.08423 29.428 7.67206 29.6535 8.27248 29.5376C8.74451 29.4589 9.12717 29.0879 9.28703 28.6457C9.52241 28.0705 9.55325 27.3316 9.11143 26.846C8.6929 26.3823 8.05346 26.2784 7.48766 26.0989C7.30514 26.0529 7.48766 26.0989 7.30514 26.0529C6.98353 25.9773 6.67199 25.8639 6.34724 25.8034C6.34598 25.5634 6.39633 25.2863 6.21822 25.0923C5.98535 24.8365 5.60962 24.8359 5.29115 24.8661ZM62.7225 29.4249C62.7571 29.7052 62.8074 29.9836 62.8565 30.262C63.8283 30.1216 64.7918 29.9257 65.7598 29.7657C64.8271 30.3647 63.9957 31.1023 63.1152 31.772C63.153 32.0913 63.2191 32.4063 63.2713 32.7238C63.8642 32.6583 64.4482 32.5291 65.0379 32.4416C65.7837 32.3074 66.5333 32.1965 67.2785 32.0598C67.2281 31.7839 67.1797 31.508 67.1363 31.2309C66.1997 31.3846 65.2557 31.5131 64.3412 31.7707C65.2544 31.2063 66.0563 30.4888 66.8946 29.8236C66.8455 29.4677 66.7813 29.1149 66.7215 28.7616C65.3866 28.9701 64.0567 29.2094 62.7225 29.4249ZM5.34843 30.056C4.99535 30.1814 4.765 30.5159 4.66493 30.8649C4.48053 31.474 4.45472 32.1184 4.44591 32.7508C5.77136 32.9184 7.09304 33.1137 8.41913 33.2737C8.46066 32.9707 8.51227 32.669 8.52423 32.3635C8.00689 32.3036 7.49206 32.223 6.97409 32.1663C6.96843 31.8639 7.04899 31.457 7.40018 31.3864C7.82752 31.2926 8.27374 31.3071 8.69731 31.1855C8.73255 30.8705 8.79045 30.5575 8.81626 30.2412C8.3499 30.3477 7.86969 30.3697 7.4008 30.4623C7.16605 30.5071 6.95332 30.6368 6.81045 30.8296C6.72046 30.5253 6.51717 30.2501 6.2308 30.1058C5.95829 29.9767 5.63479 29.9666 5.34843 30.056ZM64.4514 33.3178C63.8667 33.5496 63.4658 34.1279 63.3795 34.742C63.2499 35.4129 63.3827 36.0976 63.574 36.7427C64.2915 36.7578 65.009 36.7137 65.7265 36.7137C65.7277 36.2098 65.7063 35.7058 65.7 35.2019C65.4646 35.2012 65.2293 35.2031 64.9951 35.2113C64.9895 35.4205 64.9882 35.6302 64.9693 35.8394C64.693 35.8463 64.4167 35.845 64.1411 35.8444C63.9774 35.2857 64.1272 34.5682 64.6855 34.2904C64.6993 34.2853 64.6993 34.2853 64.6993 34.2853C65.2815 33.9823 66.1488 34.0655 66.51 34.6677C66.8115 35.1792 66.7511 35.8255 66.5604 36.3653C66.8102 36.4327 67.062 36.492 67.3162 36.5436C67.6284 35.5666 67.534 34.3383 66.7353 33.6157C66.1097 33.0948 65.1921 33.023 64.4514 33.3178ZM4.33955 33.576C4.33955 33.576 4.32129 34.2702 4.31626 34.6173C4.28668 35.314 4.28794 36.7105 4.28794 36.7105L5.05703 36.7137L5.08409 35.6321L8.35556 35.6642L8.37318 34.7534L5.09668 34.6992L5.09227 33.5868L4.33955 33.576ZM9.28955 54.7439C9.35878 54.9512 9.51864 55.1099 9.65143 55.2787C10.2336 54.8598 10.7963 54.4126 11.3929 54.0151C11.5735 54.2734 11.7642 54.5234 11.948 54.7792C12.0997 54.679 12.2451 54.5713 12.3848 54.456C12.2243 54.1738 12.0047 53.932 11.836 53.6548C12.2488 53.3909 12.6088 53.045 13.0419 52.8145C13.2407 53.0904 13.4409 53.3644 13.6379 53.6416C13.8185 53.5697 13.9651 53.4394 14.1219 53.3285C13.7782 52.8686 13.4371 52.4057 13.1067 51.9364C11.8309 52.8674 10.5577 53.8028 9.28955 54.7439ZM58.9689 52.4611C58.9324 52.5228 58.9393 52.5801 58.9897 52.6331C59.4214 53.171 59.8626 53.7027 60.3277 54.2129C59.6411 53.9509 58.9588 53.6781 58.2804 53.3978C58.1331 53.554 58.0274 53.743 57.8864 53.9036C57.6762 54.0901 57.5056 54.3149 57.3168 54.5216C57.0519 54.8491 56.4961 55.4822 56.4961 55.4822L56.8737 55.8885C56.8737 55.8885 57.1979 55.5143 57.3659 55.3323C58.4277 56.2286 59.4756 57.1446 60.5203 58.0617C60.6764 57.9187 60.8098 57.7543 60.9533 57.5994C60.7557 57.3751 60.5121 57.2012 60.2918 57.0022C59.4686 56.2765 57.8121 54.8365 57.8121 54.8365L58.2609 54.3231C58.2609 54.3231 58.0387 54.1039 57.9084 54.0189C58.0249 54.0327 58.1432 54.0485 58.2558 54.0869C58.9846 54.3187 59.7153 54.5449 60.4467 54.7704C60.6594 54.8271 60.8105 54.9965 60.9886 55.1156C61.4146 55.4154 61.8162 55.7505 62.2549 56.034C62.37 55.8582 62.494 55.6882 62.623 55.5225C62.0824 55.1105 61.5254 54.7187 60.9905 54.2998C60.4184 53.5357 59.8752 52.7477 59.3163 51.9729C59.2018 52.136 59.0709 52.2891 58.9689 52.4611ZM13.9601 54.1014C13.2074 54.3351 12.6749 54.9486 12.0921 55.4444C11.724 55.8066 11.3633 56.2211 11.2205 56.7288C11.0367 57.372 11.6346 58.0932 12.3005 58.0246C12.8612 57.9861 13.3307 57.6271 13.7518 57.285C14.2093 56.8686 14.7028 56.4781 15.0615 55.9679C15.3359 55.6107 15.4744 55.1112 15.3 54.6803C15.2163 54.5172 15.0886 54.3811 14.9551 54.2583C14.6826 54.0258 14.2918 54 13.9601 54.1014ZM13.157 59.1559C13.1237 59.2025 13.0236 59.2794 13.0935 59.3386C13.23 59.4721 13.3609 59.6296 13.5472 59.6938C14.0394 59.1471 14.5341 58.6028 15.03 58.0605C14.7714 58.8214 14.4309 59.5527 14.1628 60.3112C14.3302 60.4504 14.4837 60.6053 14.6423 60.7553C14.9488 59.9931 15.239 59.2246 15.5455 58.4623C15.75 58.5468 15.986 58.5638 16.1919 58.4718C16.6431 58.2834 17.0031 57.9061 17.2127 57.4683C17.314 57.183 17.3096 56.8296 17.1026 56.5902C16.8546 56.2841 16.5229 56.0611 16.2542 55.7738C15.205 56.885 14.2024 58.0409 13.157 59.1559ZM55.7251 56.1902C56.3136 56.8472 56.9744 57.4349 57.5761 58.0806C58.0626 58.594 58.5856 59.0721 59.0658 59.5924C59.2062 59.4469 59.361 59.3159 59.4913 59.1609C59.5353 59.0828 59.4208 59.0387 59.3893 58.9833C58.3093 57.9124 57.2551 56.8164 56.1739 55.7468C56.0216 55.8923 55.873 56.0409 55.7251 56.1902ZM54.2455 57.7883C54.1826 58.2299 54.4557 58.623 54.7433 58.9279C54.9107 59.0425 55.0813 59.1622 55.2802 59.2189C55.7553 59.3581 56.2651 59.2831 56.7391 59.4312C57.0858 59.5433 57.3716 59.8822 57.3477 60.257C57.2715 60.616 56.8649 60.7515 56.5427 60.7868C56.6793 60.9575 56.8007 61.1446 56.9713 61.2863C57.5251 61.2321 58.0041 60.7521 58.0123 60.1864C57.9802 59.5049 57.4333 58.8831 56.7617 58.7628C56.5018 58.7175 56.2381 58.6998 55.9775 58.6639C55.71 58.6356 55.4155 58.6312 55.199 58.4491C54.9686 58.2885 54.8491 57.9779 54.9542 57.7102C55.0794 57.4633 55.35 57.3386 55.6163 57.3184C55.5156 57.1307 55.3626 56.9808 55.2355 56.8126C54.7691 56.926 54.3059 57.2869 54.2455 57.7883ZM18.2052 57.5439C17.2536 58.7301 16.3322 59.9401 15.3926 61.1357C15.3158 61.212 15.3013 61.3512 15.4108 61.4072C15.8199 61.7127 16.2158 62.0359 16.6261 62.3401C16.7407 62.194 16.8602 62.051 16.9553 61.8916C16.6752 61.6875 16.4065 61.4696 16.1327 61.2579C16.4298 60.8195 16.7847 60.4246 17.0912 59.9931C17.3556 60.1675 17.596 60.3742 17.8484 60.565C17.9698 60.4201 18.0856 60.2702 18.2102 60.1285C17.956 59.9452 17.7244 59.7323 17.4657 59.5553C17.7489 59.1521 18.0667 58.7742 18.36 58.3779C18.6445 58.5946 18.9258 58.8151 19.2097 59.0331C19.306 58.8686 19.4872 58.7452 19.5219 58.5518C19.0712 58.2318 18.6451 57.8784 18.2052 57.5439ZM52.9534 58.5909C52.5972 58.7893 52.29 59.0589 51.9495 59.2812C52.1176 59.5735 52.3404 59.828 52.5317 60.1052C53.2706 61.1168 54.0139 62.1253 54.7496 63.1389C54.9239 63.0154 55.1021 62.8976 55.2676 62.7622C54.8358 62.143 54.3701 61.5477 53.9503 60.9216C54.6307 61.3594 55.2934 61.8255 55.9813 62.2513C56.1544 62.109 56.3325 61.9729 56.52 61.852C55.8856 61.4652 55.2733 61.0431 54.6451 60.6475C54.5866 60.6003 54.4966 60.5745 54.479 60.4945C54.5117 60.3496 54.6061 60.2186 54.5923 60.0655C54.5841 59.5949 54.3065 59.1798 53.9981 58.8453C53.7319 58.5688 53.3178 58.4365 52.9534 58.5909ZM19.9354 58.8825C19.1467 60.0888 18.3468 61.2875 17.5557 62.492C17.4808 62.623 17.3392 62.7351 17.3587 62.9008C17.5312 62.9908 17.6879 63.1074 17.8528 63.2107C18.7213 61.8834 19.6131 60.5701 20.4766 59.239C20.2947 59.1219 20.1198 58.9953 19.9354 58.8825ZM50.074 60.439C50.1521 60.6368 50.2786 60.8101 50.3918 60.989C51.11 62.143 51.8318 63.2945 52.555 64.4453C52.64 64.4957 52.7274 64.4063 52.8017 64.3729C53.2095 64.1096 53.6256 63.8601 54.0334 63.5968C53.9428 63.4633 53.8572 63.326 53.7785 63.1855C53.7527 63.1792 53.6998 63.166 53.674 63.1597C53.5035 63.2674 53.3323 63.3732 53.1649 63.4847L53.1277 63.4173C53.1302 63.4406 53.1346 63.4872 53.1372 63.5105C53.0321 63.5679 52.9295 63.629 52.8269 63.6901C52.6173 63.3455 52.4039 63.0041 52.1862 62.6646C52.1195 62.548 52.0144 62.439 52.0263 62.296C52.2944 62.1581 52.5424 61.9855 52.7979 61.8268C52.6928 61.6674 52.5884 61.5086 52.4807 61.3518C52.2233 61.5061 51.9854 61.6951 51.7129 61.8223L51.6556 61.8053C51.3932 61.4142 51.1603 61.0028 50.906 60.606C51.1974 60.3943 51.5329 60.2475 51.8098 60.0164C51.7016 59.8753 51.6046 59.726 51.5172 59.5723C51.0181 59.8293 50.5706 60.1776 50.074 60.439ZM20.5194 60.6538C20.1065 61.1943 19.7774 61.794 19.4791 62.4038C19.2739 62.8542 19.0756 63.3575 19.2065 63.8576C19.3173 64.2425 19.676 64.4945 20.0449 64.6022C20.3728 64.6948 20.7126 64.5423 20.9631 64.3351C21.3653 63.9685 21.6145 63.4771 21.8732 63.0072C21.9191 62.9253 21.9563 62.8208 21.9078 62.732C21.5975 62.5594 21.2885 62.3836 20.9726 62.2211C20.8851 62.3748 20.7963 62.5291 20.7019 62.6797C20.8442 62.7893 21.004 62.8712 21.1658 62.9486C20.9191 63.3505 20.724 63.879 20.2349 64.0359C20.077 63.9742 19.9379 63.879 19.8252 63.7524C19.8114 63.571 19.8227 63.3877 19.885 63.2157C20.0977 62.599 20.437 62.0378 20.7674 61.479C20.9474 61.1899 21.1205 60.8636 21.4351 60.7011C21.6139 60.6016 21.8367 60.7061 21.9619 60.8453C22.1105 61.0475 22.0211 61.3077 21.9657 61.5275C22.1797 61.542 22.3899 61.5861 22.6039 61.6038C22.7631 61.1931 22.7014 60.6501 22.3402 60.3553C22.0972 60.1726 21.8065 60.0063 21.493 60.0214C21.0871 60.0573 20.7573 60.342 20.5194 60.6538ZM49.2514 60.8642C49.3106 61.2573 49.4642 61.6277 49.5642 62.012C49.7782 62.7792 50.0614 63.5282 50.2502 64.3017C49.5894 63.3216 48.9097 62.3527 48.2193 61.3934C48.0317 61.4885 47.8404 61.576 47.6629 61.6901C48.6328 62.9657 49.6196 64.2299 50.5725 65.5175C50.7462 65.4702 50.8998 65.3738 51.0577 65.2894C50.631 63.7323 50.1942 62.1789 49.7732 60.6205C49.5988 60.7017 49.4289 60.7912 49.2514 60.8642ZM22.4037 63.6882C22.152 64.2872 21.8619 64.8724 21.6397 65.4828C21.8423 65.5521 22.0349 65.6668 22.2552 65.6705C22.7235 64.5871 23.1898 63.4998 23.546 62.3735C23.4107 63.6233 23.2597 64.8705 23.1156 66.119C23.2974 66.1921 23.4781 66.269 23.6581 66.3483C24.317 64.9071 24.9212 63.4412 25.5638 61.9931C25.3744 61.8935 25.1761 61.8123 24.9816 61.7253C24.8142 62.0642 24.6714 62.4151 24.5216 62.7616C24.1937 63.4897 23.9671 64.2576 23.7028 65.0104C23.811 63.7909 23.9514 62.5726 24.1005 61.3575C23.9287 61.246 23.7248 61.2038 23.5517 61.0973C23.1414 61.9477 22.7908 62.8264 22.4037 63.6882ZM46.6597 62.0718C47.2337 63.5483 47.853 65.0079 48.4515 66.4749C48.6309 66.4063 48.8084 66.3338 48.9902 66.2721C48.9978 66.0516 48.8719 65.862 48.7989 65.663C48.2841 64.3886 47.7491 63.1225 47.2456 61.8438C47.0467 61.9099 46.8523 61.9893 46.6597 62.0718ZM45.2933 62.5713C45.4708 63.1086 45.637 63.6491 45.8201 64.1846C46.0549 64.7628 46.3085 65.3329 46.5351 65.9143C45.8119 64.9008 45.1026 63.8778 44.3776 62.8661C44.1869 62.9335 43.9943 62.9946 43.803 63.0589C44.2888 64.5694 44.7905 66.0743 45.277 67.5849C45.4834 67.5257 45.6879 67.462 45.8912 67.3927C45.7144 66.8384 45.5331 66.286 45.3512 65.7335C45.1423 65.1836 44.9069 64.6431 44.7162 64.0863C45.4236 65.0866 46.1147 66.0989 46.8334 67.091C47.0184 67.0261 47.2053 66.9657 47.3891 66.8951C47.0033 65.7348 46.6244 64.5726 46.2506 63.4085C46.1197 63.0614 46.046 62.6904 45.878 62.359C45.6892 62.4453 45.4903 62.5071 45.2933 62.5713ZM27.2524 62.6186C27.1939 62.8 27.1316 62.9814 27.0995 63.171C27.3298 63.2315 27.5564 63.3027 27.7849 63.3713C27.416 64.7181 27.0214 66.0598 26.6142 67.3965C26.8175 67.4683 27.0221 67.5515 27.2417 67.5553C27.6212 66.223 28.0265 64.897 28.4161 63.5672C28.6446 63.6283 28.8699 63.7008 29.0984 63.7638C29.1519 63.5817 29.2148 63.4009 29.2267 63.2107C28.5653 63.0242 27.9063 62.829 27.2524 62.6186ZM29.4942 63.3052C29.2022 64.8611 28.9196 66.4183 28.62 67.9723C28.8252 68.0271 29.0335 68.0712 29.2431 68.1071C29.3778 67.3543 29.5244 66.6035 29.6667 65.8526C29.841 66.6412 29.9266 67.4501 30.0833 68.2431C30.2746 68.3427 30.5245 68.3187 30.7335 68.3937C30.6271 67.5786 30.4458 66.7761 30.3187 65.9641C30.5434 65.9307 30.7637 65.8179 30.8833 65.6182C31.1419 65.251 31.2325 64.7842 31.2149 64.342C31.2099 64.0346 31.0362 63.7203 30.7492 63.5943C30.3489 63.4293 29.9121 63.4016 29.4942 63.3052ZM42.5172 63.3625C42.7777 64.5279 43.0458 65.692 43.3051 66.8586C43.3379 67.0293 43.3888 67.2277 43.2806 67.3846C43.1673 67.5962 42.8558 67.6561 42.66 67.5313C42.4851 67.3808 42.4479 67.1376 42.3907 66.9266C42.1314 65.8097 41.8784 64.6916 41.6304 63.5723C41.4221 63.6138 41.2144 63.6605 41.0054 63.7008C41.1716 64.4857 41.3604 65.2649 41.5322 66.0485C41.6587 66.5543 41.7367 67.074 41.9174 67.5647C42.0162 67.8438 42.2201 68.1165 42.5247 68.1833C42.8973 68.2671 43.2988 68.1644 43.6255 67.976C43.9911 67.7436 44.0409 67.2529 43.954 66.8636C43.6834 65.6535 43.4165 64.4422 43.1522 63.2309C42.937 63.2586 42.7267 63.3102 42.5172 63.3625ZM32.597 64.3773C32.1382 65.743 31.6649 67.1036 31.2118 68.4712C31.4176 68.5008 31.624 68.5285 31.8317 68.5461C31.9104 68.245 32.0224 67.954 32.103 67.6535C32.4164 67.6901 32.7323 67.7109 33.042 67.7738C33.0527 68.0831 33.0923 68.3905 33.1125 68.6998C33.3233 68.7194 33.5342 68.7389 33.7456 68.7496C33.5946 67.1446 33.4303 65.5414 33.2812 63.9364C33.1175 63.9131 32.9539 63.8847 32.7896 63.874C32.6958 64.0271 32.6637 64.211 32.597 64.3773ZM37.4847 64.0611C37.5779 65.6453 37.7289 67.2264 37.8372 68.8101C38.4036 68.7653 38.9713 68.7294 39.5365 68.6709C39.5233 68.4926 39.5119 68.3149 39.5107 68.1373C39.1538 68.1411 38.7982 68.177 38.4439 68.2129C38.3879 67.6724 38.3457 67.1301 38.3161 66.5883C38.6333 66.5839 38.9499 66.5631 39.264 66.5209C39.2482 66.342 39.2306 66.1638 39.2167 65.9861C38.8983 66.0031 38.5805 66.034 38.2614 66.0334C38.24 65.5446 38.1991 65.0564 38.1474 64.5701C38.5012 64.5461 38.8536 64.5039 39.2086 64.4964C39.2098 64.3055 39.196 64.1159 39.1607 63.9288C38.6025 63.9754 38.0436 64.017 37.4847 64.0611ZM34.616 64.0498C34.606 65.6378 34.56 67.2246 34.5405 68.8126C35.0541 68.8113 35.5947 68.892 36.0819 68.6879C36.5048 68.5046 36.6754 68.0302 36.7761 67.6151C36.9026 66.9052 36.9114 66.1745 36.8207 65.4595C36.7452 64.9738 36.5784 64.4069 36.09 64.1896C35.6224 64.0038 35.107 64.0875 34.616 64.0498Z" fill="#B71B21"/>
<path d="M31.5319 4.92971C31.8334 4.85852 32.1556 4.98766 32.3532 5.22073C32.6604 5.57537 32.7699 6.06356 32.7522 6.52341C32.7434 6.83333 32.6572 7.16593 32.4256 7.38514C32.1751 7.63648 31.7522 7.70136 31.4425 7.52372C30.9762 7.26734 30.8301 6.69222 30.7905 6.19963C30.7471 5.68561 30.9661 5.04372 31.5319 4.92971Z" fill="#B71B21"/>
<path d="M49.0834 7.94492C49.5063 7.75217 50.0583 8.0224 50.1848 8.4665C50.3144 8.8854 50.1879 9.34146 49.9739 9.70996C49.7914 10.035 49.5283 10.3462 49.1633 10.4633C48.7555 10.5975 48.2809 10.3481 48.1324 9.95122C48.0059 9.62177 48.0676 9.25138 48.2041 8.93516C48.3804 8.52634 48.6567 8.12004 49.0834 7.94492Z" fill="#B71B21"/>
<path d="M20.165 8.94824C20.5597 9.34257 20.9713 9.71927 21.3785 10.101C21.1349 10.2509 20.8888 10.3977 20.6446 10.5464C20.4816 10.0147 20.34 9.47675 20.165 8.94824Z" fill="#B71B21"/>
<path d="M52.1572 11.2903C52.5676 10.9281 53 10.5917 53.4021 10.2207C53.2133 10.7461 53.0415 11.2777 52.8508 11.8024C52.8388 11.7842 52.3725 11.4365 52.1572 11.2903Z" fill="#B71B21"/>
<path d="M34.3029 10.8537C37.256 10.6559 40.2461 10.974 43.0846 11.8187C47.8344 13.209 52.1292 16.0682 55.2943 19.8704C57.6558 22.6804 59.3903 26.0178 60.3281 29.568C61.1966 32.8474 61.3854 36.3025 60.8844 39.6568C60.1455 44.7397 57.7709 49.5567 54.2332 53.2713C50.671 57.0521 45.9167 59.6984 40.815 60.6842C37.3522 61.3658 33.746 61.2965 30.3096 60.4927C26.9909 59.723 23.8378 58.2571 21.1025 56.2256C17.3691 53.4741 14.4085 49.6789 12.6721 45.374C10.4007 39.8219 10.2383 33.4414 12.2164 27.7784C14.4142 21.357 19.3403 15.9441 25.4981 13.1132C28.2597 11.8244 31.2631 11.0603 34.3029 10.8537ZM28.6418 12.654C23.294 14.3359 18.5813 17.934 15.5263 22.6357L15.5118 22.6345C14.8894 23.6341 14.2953 24.6552 13.8113 25.7305C13.7043 25.9831 13.5564 26.2231 13.4978 26.4927C13.484 26.5085 13.4557 26.5412 13.4412 26.557C11.4927 31.1957 11.0521 36.4404 12.1554 41.3463C12.7243 43.8981 13.7225 46.3478 15.0656 48.5891C17.6586 52.8713 21.5777 56.3428 26.1627 58.3548C29.509 59.8427 33.1978 60.5412 36.8557 60.4096C38.4543 60.3712 40.0403 60.128 41.6018 59.7929C41.7239 59.7501 41.6018 59.7929 41.7239 59.7501C45.5693 58.8304 49.1756 56.9425 52.1349 54.3195C56.0206 50.9034 58.7974 46.2313 59.8843 41.1661C60.6673 37.5882 60.6251 33.8319 59.7698 30.271C58.8962 26.6175 57.1529 23.1793 54.7386 20.305C51.8397 16.8171 47.9477 14.1677 43.6441 12.7441C38.8174 11.1415 33.4873 11.1119 28.6418 12.654Z" fill="#B71B21"/>
<path d="M16.1484 11.7559C16.3914 11.475 16.7168 11.2482 17.0843 11.1713C17.494 11.097 17.8912 11.3257 18.1435 11.6356C18.4576 11.9821 18.6879 12.4677 18.5665 12.9421C18.457 13.354 18.1108 13.635 17.7798 13.8731C17.5683 13.6117 17.151 13.0863 17.151 13.0863C17.151 13.0863 17.5784 12.755 17.7741 12.5666C17.6275 12.3783 17.3348 12.0016 17.3348 12.0016C17.3348 12.0016 16.9087 12.3241 16.7023 12.4935C16.5147 12.2529 16.2831 12.0249 16.1484 11.7559Z" fill="#B71B21"/>
<path d="M29.877 13.5304C32.7338 12.7512 35.7396 12.5188 38.6819 12.8627C41.5034 13.184 44.2607 14.0432 46.7738 15.3648C50.6444 17.4013 53.9215 20.5459 56.1205 24.3292C58.1427 27.7944 59.2428 31.795 59.2586 35.8089C59.285 38.9408 58.6638 42.0779 57.4447 44.9623C55.4666 49.6678 51.8943 53.6734 47.4654 56.2001C44.9385 57.652 42.1328 58.6139 39.2477 59.0208C35.6603 59.5279 31.9521 59.1853 28.5258 58.0016C24.19 56.5314 20.3307 53.7264 17.5433 50.0974C16.0705 48.1767 14.8961 46.0268 14.0836 43.7465C12.193 38.481 12.3031 32.5251 14.409 27.3408C15.781 23.9115 17.992 20.8256 20.7801 18.4079C21.3201 17.9556 21.8576 17.4901 22.4524 17.1115C22.5877 16.9975 22.4524 17.1115 22.5877 16.9975C24.7829 15.4164 27.2727 14.2542 29.877 13.5304ZM22.0024 21.6993C21.2691 22.4249 20.9104 23.4612 20.8223 24.4722C20.8147 31.7856 20.8198 39.0983 20.8198 46.4117C23.0056 46.4067 25.192 46.413 27.3784 46.4117C27.3709 39.773 27.3828 33.1349 27.3728 26.4967C30.4466 26.4873 33.5211 26.498 36.5956 26.4923C37.6686 26.4867 38.7424 26.51 39.8154 26.4797C39.8066 24.5956 39.8293 22.7103 39.8016 20.8268C36.4263 20.7966 33.051 20.8249 29.675 20.8136C28.3307 20.8325 26.9844 20.7909 25.6407 20.8369C25.1631 20.7953 24.6828 20.8275 24.2045 20.8199C23.3882 20.7758 22.5933 21.1544 22.0024 21.6993ZM28.6976 27.6986C28.7064 29.8013 28.6982 31.904 28.7014 34.0073C31.2661 34.0004 33.8314 34.0073 36.3961 34.0041C36.4042 37.429 36.4086 40.8539 36.3948 44.2788C37.1746 44.3172 37.9575 44.2845 38.7386 44.2958C40.2818 44.2933 41.8244 44.3002 43.367 44.292C43.3582 40.864 43.3701 37.4353 43.3619 34.0073C45.9247 34.0004 48.4875 34.0023 51.0503 34.006C51.0604 31.904 51.0503 29.8019 51.0554 27.6999C49.8665 27.6589 48.6757 27.6898 47.4862 27.6791C42.3669 27.6804 37.2482 27.6778 32.1289 27.6797C30.9854 27.693 29.8405 27.6564 28.6976 27.6986ZM28.7769 35.3497C28.7756 35.9456 28.7725 36.5408 28.7782 37.1367C28.8109 38.3733 28.7568 39.6111 28.8109 40.847C28.814 42.4218 28.8033 43.9966 28.8159 45.5708C28.8424 46.3311 28.9871 47.0927 29.293 47.7912C29.7235 48.8268 30.5347 49.6804 31.5027 50.2353C32.3693 50.7311 33.3442 51.0404 34.3386 51.1349C37.274 51.1399 40.21 51.1355 43.1461 51.1367C44.0901 51.126 45.0373 51.1745 45.9776 51.0624C46.7058 50.9616 47.4264 50.7632 48.0797 50.4193C48.0828 50.3897 48.0904 50.3298 48.0935 50.2996C48.0973 50.3267 48.1042 50.3808 48.1074 50.4079C49.334 49.7761 50.2428 48.6284 50.7174 47.3459C50.9968 46.5793 51.1926 45.7679 51.1668 44.9478C51.1661 41.7484 51.1693 38.5497 51.1668 35.3509C49.0741 35.349 46.9821 35.3497 44.8894 35.3497C44.8838 38.7897 44.89 42.229 44.8863 45.6684C41.5619 45.6703 38.237 45.6678 34.912 45.6703C34.8717 45.3673 34.9038 45.0624 34.9032 44.7594C34.9089 41.6224 34.9019 38.4854 34.9063 35.3484C32.8628 35.3515 30.8198 35.3471 28.7769 35.3497Z" fill="#B71B21"/>
<path d="M8.31044 22.383C8.71827 22.3024 9.13114 22.439 9.48862 22.6293C9.80897 22.8038 10.1029 23.0721 10.2061 23.4337C10.3011 23.7871 10.1199 24.172 9.81967 24.366C9.45149 24.5594 9.00652 24.5165 8.63268 24.3622C8.20344 24.189 7.77421 23.8954 7.62883 23.4331C7.49163 22.9701 7.83149 22.4453 8.31044 22.383Z" fill="#B71B21"/>
<path d="M62.7647 26.2124C63.1121 25.7066 63.7578 25.4748 64.3526 25.4868C64.6075 25.4811 64.841 25.5907 65.0474 25.7318C65.2438 25.9668 65.352 26.2836 65.2582 26.586C65.1154 27.0049 64.7157 27.2694 64.318 27.4137C63.9265 27.5535 63.4702 27.6121 63.085 27.4257C62.6501 27.2216 62.4865 26.6055 62.7647 26.2124Z" fill="#B71B21"/>
<path d="M5.38397 31.0976C5.61684 30.804 6.14929 30.8998 6.28901 31.2399C6.41425 31.5014 6.32299 31.7943 6.29593 32.067C5.9309 32.0267 5.56838 31.9688 5.20334 31.9329C5.19957 31.6481 5.2046 31.3351 5.38397 31.0976Z" fill="#B71B21"/>
<path d="M14.2002 54.7141C14.3462 54.6518 14.501 54.7022 14.6382 54.7626C14.7779 54.9415 14.7729 55.1822 14.6514 55.3705C14.445 55.7327 14.1328 56.0193 13.8257 56.2959C13.4053 56.6801 12.9867 57.0915 12.4625 57.3315C12.2724 57.4253 11.9974 57.414 11.8778 57.2162C11.7507 57.0165 11.8627 56.7677 11.9879 56.597C12.2762 56.1989 12.6469 55.8701 13.0044 55.5368C13.3839 55.2395 13.7344 54.8723 14.2002 54.7141Z" fill="#B71B21"/>
<path d="M16.3372 56.6113C16.5512 56.7361 16.701 57.0264 16.5455 57.2545C16.3762 57.5348 16.1459 57.8044 15.8419 57.9417C15.643 58.0268 15.4523 57.8964 15.2969 57.7855C15.6116 57.3666 16.0049 57.0151 16.3372 56.6113Z" fill="#B71B21"/>
<path d="M52.793 59.352C52.9012 59.2733 53.0195 59.2103 53.1435 59.1611C53.5482 59.2619 53.7943 59.6531 53.951 60.0115C54.0624 60.2471 53.9063 60.4947 53.7043 60.6181C53.5048 60.3403 53.3009 60.0663 53.1051 59.7873C52.9956 59.6455 52.8943 59.4981 52.793 59.352Z" fill="#B71B21"/>
<path d="M30.0311 63.9619C30.2339 63.9959 30.4695 64.0848 30.5193 64.3103C30.5602 64.6977 30.4796 65.1128 30.2484 65.4328C30.096 65.5203 29.9209 65.5279 29.7495 65.5153C29.815 64.9931 29.9303 64.4784 30.0311 63.9619Z" fill="#B71B21"/>
<path d="M35.2456 64.6063C35.6154 64.5748 35.9814 64.8173 36.0904 65.1719C36.2718 65.8069 36.1867 66.4715 36.1836 67.1209C36.1571 67.468 36.1061 67.868 35.8164 68.1011C35.6582 68.2737 35.4088 68.2762 35.1934 68.2926C35.2097 67.0636 35.2356 65.8352 35.2456 64.6063Z" fill="#B71B21"/>
<path d="M32.2651 67.1735C32.4781 66.393 32.6872 65.6113 32.9127 64.834C32.9335 65.6371 32.9322 66.4409 33.0021 67.2415C32.7558 67.2239 32.5095 67.2069 32.2651 67.1735Z" fill="#B71B21"/>
</g>
<defs>
<clipPath id="clip0_2650_13131">
<rect width="72" height="72" rx="36" fill="white"/>
</clipPath>
</defs>
</svg>
