<svg width="73" height="72" viewBox="0 0 73 72" fill="none" xmlns="http://www.w3.org/2000/svg">
<g clip-path="url(#clip0_2650_11191)">
<rect x="0.333252" width="72" height="72" rx="36" fill="#E5E7EB"/>
<path d="M33.0964 2.35015C33.6859 2.22715 34.3849 2.23915 34.8439 2.68465C35.4439 3.23515 35.4934 4.13815 35.3389 4.88665C35.0059 6.11965 33.1624 6.43915 32.3644 5.48665C31.5889 4.53865 31.7674 2.69065 33.0964 2.35015ZM33.2479 3.06865C32.7334 3.45415 32.7754 4.21015 32.9599 4.76065C33.0964 5.21515 33.6274 5.52415 34.0669 5.26615C34.5979 4.89115 34.5454 4.13815 34.3894 3.58465C34.2799 3.10765 33.6799 2.73115 33.2479 3.06865Z" fill="white"/>
<path d="M36.8298 2.3053C37.4748 2.0368 38.2098 2.1748 38.8323 2.4433C38.8263 2.7343 38.8233 3.0253 38.8188 3.3148C38.4573 3.1063 38.1033 2.8228 37.6668 2.8153C36.5883 2.9608 36.4323 4.6588 37.3263 5.1433C37.8768 5.3803 38.4138 5.0593 38.8323 4.7218C38.8293 5.0173 38.8278 5.3113 38.8278 5.6068C38.1558 5.9248 37.3278 6.0673 36.6528 5.6818C35.4693 4.9708 35.5428 2.8723 36.8298 2.3053Z" fill="white"/>
<path d="M29.7784 2.82424C30.0784 2.77774 30.3784 2.73574 30.6799 2.69824C30.9334 3.85624 31.2049 5.01124 31.4719 6.16774C31.1779 6.22774 30.8839 6.29224 30.5899 6.35674C30.4669 5.84374 30.3484 5.32774 30.2329 4.81324C29.8309 4.89874 29.4304 4.98574 29.0269 5.06224C29.1334 5.59174 29.2594 6.11824 29.3824 6.64324C29.0869 6.71074 28.7929 6.78124 28.4989 6.85324C28.2469 5.66374 27.9109 4.49224 27.7024 3.29374C27.9934 3.24574 28.2859 3.19924 28.5784 3.15574C28.6789 3.56824 28.7704 3.98224 28.8334 4.40224C29.2564 4.33324 29.6779 4.24174 30.0889 4.11424C29.9659 3.68824 29.8639 3.25774 29.7784 2.82424Z" fill="white"/>
<path d="M41.3794 2.59668C41.6749 2.62818 41.9704 2.65818 42.2674 2.68968C42.2059 3.22668 42.0964 3.75768 42.0589 4.29768C42.5044 3.83568 42.9619 3.38268 43.4059 2.91768C43.7644 2.96118 44.1199 3.01968 44.4739 3.08418C43.9414 3.54018 43.4344 4.02468 42.9319 4.51368C43.2469 5.23668 43.6204 5.93268 43.9354 6.65568C43.5904 6.57618 43.2394 6.51768 42.8884 6.47868C42.6064 5.93718 42.3709 5.37018 42.0769 4.83468C41.7739 5.25018 41.8024 5.78118 41.7349 6.26718C41.4394 6.23718 41.1439 6.20568 40.8499 6.17418C40.9534 4.97268 41.2174 3.79068 41.3794 2.59668Z" fill="white"/>
<path d="M45.0093 3.35938C45.6378 3.53187 46.2708 3.69237 46.9023 3.85887C46.8468 4.05537 46.7913 4.25037 46.7373 4.44537C46.5618 4.41687 46.3878 4.38838 46.2138 4.36137C46.0353 5.11437 45.8013 5.85537 45.6423 6.61437C45.8043 6.65487 45.9678 6.69687 46.1328 6.73737C46.0758 6.93687 46.0203 7.13487 45.9663 7.33437C45.3573 7.18287 44.7558 7.00437 44.1438 6.86487C44.1573 6.68037 44.1708 6.49737 44.1858 6.31287C44.3778 6.32187 44.5683 6.33087 44.7603 6.33987C44.9268 5.58087 45.2103 4.85037 45.3243 4.07937L44.8383 3.94437L45.0093 3.35938Z" fill="white"/>
<path d="M23.4348 4.80552C24.0183 4.59552 24.5883 4.35102 25.1568 4.10352C25.2483 4.29402 25.3383 4.48602 25.4298 4.67802C25.2648 4.75002 25.1013 4.82202 24.9378 4.89402C25.2378 5.61102 25.5048 6.33852 25.8138 7.05102C25.9743 6.99852 26.1363 6.94602 26.2968 6.89502L26.5533 7.41702C25.9638 7.70802 25.3398 7.91502 24.7413 8.18652L24.4938 7.60602C24.6048 7.56402 24.8283 7.48002 24.9393 7.43802C24.7518 6.68952 24.3753 6.00702 24.1278 5.27802C23.9343 5.30952 23.7408 5.33502 23.5473 5.36502C23.5083 5.17902 23.4708 4.99152 23.4348 4.80552Z" fill="white"/>
<path d="M47.8684 4.22559C48.1969 4.35759 48.5269 4.49259 48.8614 4.61709C49.0474 5.39559 49.0594 6.20259 49.2034 6.98859C49.4434 6.35259 49.7134 5.73009 49.9579 5.09559C50.2204 5.17959 50.4784 5.27559 50.7349 5.37759C50.2999 6.49359 49.8364 7.59759 49.3939 8.70909C49.0924 8.56059 48.5224 8.56209 48.5434 8.10909C48.4324 7.26459 48.3529 6.41709 48.2119 5.57859C47.8969 6.34209 47.5834 7.10859 47.2864 7.88109C47.0269 7.77309 46.7689 7.66209 46.5154 7.54209C46.9819 6.44259 47.4094 5.32809 47.8684 4.22559Z" fill="white"/>
<path d="M20.9194 5.9758C21.2074 5.8333 21.4954 5.6908 21.7849 5.5498C22.6834 6.4273 23.5684 7.32131 24.4879 8.17631C24.2269 8.33531 23.9629 8.48981 23.6989 8.64281C23.5099 8.45381 23.3209 8.26181 23.1319 8.07131C22.8094 8.24231 22.4824 8.4058 22.1494 8.5528C22.1704 8.8303 22.1959 9.1078 22.2214 9.3838C21.9619 9.5068 21.7024 9.6268 21.4384 9.7423C21.2884 8.4838 21.0424 7.2373 20.9194 5.9758ZM21.8284 6.7228C21.8599 7.1308 21.9289 7.5328 22.0234 7.9318C22.2349 7.8073 22.4479 7.6843 22.6609 7.5598C22.3759 7.28831 22.1029 7.0048 21.8284 6.7228Z" fill="white"/>
<path d="M51.7864 5.96387C52.0414 6.09587 52.2979 6.22787 52.5559 6.35837C52.3759 6.76787 52.1404 7.15037 51.9304 7.54337C52.2979 7.74737 52.6594 7.96637 53.0584 8.10587C53.2354 7.74887 53.4214 7.39487 53.6014 7.03937C53.9194 7.10087 54.1984 7.26437 54.4534 7.45787C53.8264 8.47787 53.2834 9.54737 52.6939 10.5914C52.4449 10.4234 52.1344 10.3184 51.9424 10.0829C52.1659 9.62537 52.4494 9.19937 52.6714 8.74037C52.3189 8.53637 51.9634 8.33537 51.6094 8.13287C51.3334 8.59487 51.0919 9.07787 50.8009 9.53237C50.5339 9.38387 50.2744 9.22487 50.0239 9.04937C50.6599 8.04887 51.1624 6.97187 51.7864 5.96387Z" fill="white"/>
<path d="M33.3872 6.33748C33.6812 6.32848 33.9737 6.32098 34.2677 6.31348C34.2767 6.52498 34.2872 6.73648 34.2977 6.94798C34.0037 6.96448 33.7112 6.98098 33.4187 6.99898L33.3872 6.33748Z" fill="white"/>
<path d="M16.6863 8.50745C17.3028 8.10845 17.9058 7.63595 18.6273 7.44845C20.0088 7.18145 21.1743 8.91395 20.4648 10.1064C20.0268 10.7844 19.2453 11.1189 18.5838 11.5344C18.3048 11.0739 18.0168 10.6209 17.7363 10.1619C17.4468 10.4169 17.2053 10.2264 17.0643 9.93545C17.1528 9.86045 17.3313 9.71045 17.4198 9.63545C17.1708 9.26345 16.9293 8.88395 16.6863 8.50745ZM17.7978 8.55695C17.9343 8.73095 17.9883 9.01145 18.1923 9.11345C18.4533 9.08795 18.6738 8.90645 18.9153 8.81045C18.9768 8.97095 19.0383 9.12995 19.1013 9.29045C18.8973 9.41195 18.6948 9.53345 18.4923 9.65645C18.6528 9.94295 18.8268 10.2204 19.0068 10.4964C19.2558 10.3284 19.5348 10.1784 19.7088 9.92495C20.0013 9.28145 19.5663 8.46695 18.9258 8.23895C18.5133 8.08445 18.1458 8.38445 17.7978 8.55695Z" fill="white"/>
<path d="M33.8672 7.93352C37.0547 7.67702 40.2902 7.90802 43.3877 8.72252C47.9222 9.88802 52.1477 12.2235 55.5587 15.429C61.1732 20.6205 64.5527 28.185 64.5077 35.8455C64.6037 41.7885 62.6612 47.721 59.1647 52.5195C55.8692 57.0795 51.1832 60.621 45.8882 62.526C40.4057 64.521 34.2947 64.7175 28.6832 63.1365C24.3752 61.914 20.3657 59.646 17.1077 56.574C11.5307 51.408 8.17973 43.9035 8.17223 36.2925C8.08373 30.852 9.66173 25.401 12.6167 20.8335C15.9482 15.6195 21.0407 11.5485 26.8712 9.47102C29.1227 8.65202 31.4837 8.15552 33.8672 7.93352ZM13.6307 22.89C13.6352 27.0585 13.6187 31.2285 13.6382 35.3985C13.7282 37.4115 13.9427 39.522 14.9957 41.289C15.8747 42.777 17.4962 43.7145 19.1837 43.9545C20.8322 44.163 22.6022 44.0895 24.0932 43.281C25.3292 42.633 26.2472 41.478 26.7467 40.188C27.4577 38.3865 27.6062 36.42 27.5942 34.5C27.5852 30.6255 27.6092 26.751 27.5822 22.8765C26.1617 22.914 24.7412 22.881 23.3192 22.896C23.3267 27.414 23.3207 31.9335 23.3222 36.453C23.3012 37.3785 23.2157 38.3625 22.7162 39.168C22.2752 39.8835 21.3872 40.1715 20.5847 40.1385C19.8212 40.1655 18.9557 39.9525 18.5222 39.2715C17.9987 38.433 17.9282 37.407 17.9312 36.444C17.9357 31.9275 17.9207 27.411 17.9387 22.8945C16.5017 22.89 15.0662 22.8975 13.6307 22.89ZM30.5477 43.4715C34.4102 43.467 38.2742 43.467 42.1382 43.4715C42.1337 42.114 42.1457 40.7565 42.1307 39.399C39.7217 39.393 37.3112 39.4185 34.9022 39.387C34.9247 37.677 34.9202 35.9655 34.9052 34.2555C37.1057 34.248 39.3062 34.2465 41.5082 34.2555C41.5022 32.9295 41.5127 31.6035 41.5007 30.2775C40.4282 30.3165 39.3572 30.312 38.2847 30.2775C37.1627 30.3735 36.0392 30.252 34.9172 30.3285C34.9157 29.097 34.9112 27.867 34.9172 26.6355C37.3397 26.6415 39.7622 26.634 42.1862 26.64C42.2087 25.3905 42.1907 24.141 42.2012 22.8915C38.3192 22.8885 34.4372 22.8975 30.5552 22.887C30.5387 29.748 30.5522 36.609 30.5477 43.47V43.4715ZM45.0032 22.899C45.0107 29.7525 45.0122 36.6075 45.0017 43.4625C49.0442 43.476 53.0882 43.4685 57.1307 43.4655C57.7712 42.1605 58.4282 40.8645 59.0627 39.5565C55.8197 39.558 52.5767 39.5655 49.3322 39.5535C49.3457 34.0005 49.3307 28.446 49.3397 22.893C47.8937 22.896 46.4477 22.8885 45.0032 22.899ZM15.8747 44.3205C16.2422 45.0045 16.5932 45.699 16.9727 46.377C18.9782 46.425 20.9852 46.4205 22.9877 46.53C25.1387 46.5675 27.2912 46.5795 29.4407 46.689C30.7982 46.6605 32.1647 47.01 33.2972 47.769C32.6327 46.464 31.4447 45.4245 30.0407 44.994C28.9502 44.763 27.8267 44.8245 26.7197 44.766C23.1062 44.601 19.4897 44.4645 15.8747 44.3205ZM47.5817 44.67C45.8852 44.8485 44.1647 44.694 42.4802 44.976C41.0597 45.366 39.8612 46.4175 39.1787 47.709C39.7727 47.43 40.3367 47.067 40.9892 46.9335C42.1547 46.5885 43.3802 46.7415 44.5742 46.617C48.1982 46.578 51.8177 46.416 55.4417 46.3845C55.8542 45.7155 56.1932 45.0045 56.5667 44.3145C53.5712 44.43 50.5772 44.5785 47.5817 44.67ZM17.2802 46.863C17.5937 47.469 17.9177 48.072 18.2312 48.678C19.2167 48.6885 20.2022 48.714 21.1877 48.717C24.4862 48.8595 27.7892 48.8235 31.0892 48.9465C32.3717 48.966 33.6347 49.314 34.7492 49.947C33.9002 48.4665 32.3357 47.373 30.6392 47.154C26.1902 46.938 21.7337 46.962 17.2802 46.863ZM43.2887 47.073C42.4712 47.1585 41.6177 47.0565 40.8392 47.3715C39.5417 47.8455 38.3222 48.7215 37.7057 49.9875C38.8412 49.224 40.2302 48.9585 41.5787 48.939C45.7892 48.837 50.0012 48.768 54.2117 48.675C54.5237 48.069 54.8372 47.463 55.1612 46.863C51.2027 46.929 47.2457 46.977 43.2887 47.073ZM18.5612 49.275C18.9452 49.956 19.2887 50.6595 19.6682 51.3435C23.5217 51.3585 27.3752 51.381 31.2302 51.393C32.1287 51.396 32.9852 51.768 33.7202 52.263C34.4687 52.7385 35.0462 53.4975 35.1647 54.3915C35.8712 54.3855 36.5777 54.387 37.2857 54.393C37.4987 52.44 39.6302 51.3195 41.4332 51.3915C45.2042 51.3915 48.9752 51.342 52.7447 51.3555C53.1632 50.6865 53.4902 49.968 53.8757 49.281C49.4357 49.323 44.9942 49.287 40.5572 49.4775C38.8142 49.6845 37.2662 50.772 36.2387 52.1625C35.1182 50.7675 33.5432 49.584 31.7027 49.467C28.3982 49.329 25.0892 49.416 21.7832 49.3725C20.7107 49.29 19.6337 49.329 18.5612 49.275Z" fill="white"/>
<path d="M55.9788 9.40213C56.1138 9.21463 56.2533 9.03013 56.3973 8.84863C57.1803 9.49213 57.9963 10.0951 58.7868 10.7296C58.6458 10.9051 58.5078 11.0836 58.3683 11.2606C58.0833 11.0371 57.7938 10.8211 57.4923 10.6231C56.9118 11.3896 56.3358 12.1621 55.7118 12.8941C55.4973 12.7291 55.2813 12.5686 55.0623 12.4111C55.5198 11.5501 56.2308 10.8421 56.8128 10.0591C56.5383 9.83563 56.2608 9.61513 55.9788 9.40213Z" fill="white"/>
<path d="M22.7493 9.49201C23.0148 9.36001 23.2848 9.23701 23.5683 9.14551C23.6493 9.34351 23.7303 9.54001 23.8113 9.73801C23.5503 9.85201 23.2878 9.96151 23.0223 10.0605C22.9308 9.87151 22.8393 9.68101 22.7493 9.49201Z" fill="white"/>
<path d="M12.7188 12.7528C12.6048 11.6578 13.5873 10.7563 14.5788 10.5088C14.7783 10.7218 14.9793 10.9303 15.1833 11.1373C14.6583 11.2003 14.0658 11.3038 13.7508 11.7808C13.1178 12.6583 14.3028 13.9933 15.2628 13.5433C15.4563 13.4398 15.6333 13.3063 15.8148 13.1833C15.6783 12.9673 15.5178 12.7693 15.3438 12.5833C15.1788 12.7393 15.0138 12.8953 14.8488 13.0528L14.3493 12.5893C14.7243 12.2233 15.1188 11.8798 15.4953 11.5138C15.9288 11.9248 16.3128 12.3823 16.7403 12.7978C16.3593 13.4893 15.8643 14.1973 15.0738 14.4418C13.9863 14.7613 12.9018 13.7863 12.7188 12.7528Z" fill="white"/>
<path d="M59.6792 11.0762C60.0752 11.0267 60.4697 10.9697 60.8612 10.8857C61.0127 11.0342 61.1642 11.1842 61.3157 11.3357C61.2602 11.7197 61.2017 12.1037 61.1447 12.4892C61.0022 12.3392 60.8597 12.1907 60.7187 12.0422C60.7337 11.8367 60.7487 11.6312 60.7652 11.4257C60.5477 11.4482 60.3302 11.4872 60.1127 11.4752C59.9567 11.3537 59.8202 11.2112 59.6792 11.0762Z" fill="white"/>
<path d="M56.7993 13.8901C57.6123 13.0006 58.4253 12.1111 59.2653 11.2471C59.8518 11.8081 60.4323 12.3751 61.0473 12.9061C60.8868 13.0786 60.7278 13.2496 60.5688 13.4206C60.1908 13.0621 59.8143 12.7036 59.4378 12.3451C59.2968 12.5146 59.1588 12.6886 59.0193 12.8596C59.3778 13.1536 59.7153 13.4731 60.0438 13.8001C59.8878 13.9591 59.7333 14.1196 59.5788 14.2786C59.2278 13.9651 58.8858 13.6426 58.5348 13.3306C58.3338 13.5466 58.1313 13.7611 57.9243 13.9696C58.2858 14.3431 58.6713 14.6911 59.0553 15.0406C58.8918 15.2116 58.7283 15.3826 58.5663 15.5536C57.9918 14.9836 57.3858 14.4466 56.7993 13.8901Z" fill="white"/>
<path d="M61.3279 12.2695C61.5469 12.1645 61.7674 12.061 61.9894 11.959C62.1454 12.088 62.3044 12.217 62.4619 12.3475C62.0779 12.463 61.6444 12.6115 61.3279 12.2695Z" fill="white"/>
<path d="M10.9353 13.8108C11.1498 13.6428 11.3823 13.0263 11.6913 13.3743C12.5088 14.1213 13.3338 14.8623 14.1588 15.6018C13.9638 15.8268 13.7658 16.0503 13.5648 16.2708C12.6438 16.0308 11.7168 15.8028 10.7778 15.6513C11.4333 16.1568 12.0078 16.7583 12.6483 17.2833C12.4728 17.5053 12.2763 17.7108 12.0558 17.8893C11.2263 17.0928 10.3338 16.3638 9.50732 15.5673C9.52082 15.2178 9.93032 14.9928 10.1163 14.7078C10.9008 14.7663 11.6388 15.0843 12.4248 15.1353C11.9133 14.7108 11.4318 14.2533 10.9353 13.8108Z" fill="white"/>
<path d="M60.7864 16.323C60.9589 16.179 61.1344 16.035 61.3114 15.8955C61.6414 16.305 61.9699 16.716 62.3059 17.1195C62.1424 17.2695 61.9819 17.4195 61.8199 17.568C61.4599 17.166 61.1344 16.7355 60.7864 16.323Z" fill="white"/>
<path d="M8.64175 16.4981C8.76025 16.3586 8.87725 16.2191 8.99575 16.0811C9.22675 16.2626 9.48475 16.4216 9.66025 16.6631C9.75325 16.8971 9.63175 17.1356 9.57925 17.3636C10.1613 17.6096 10.7268 18.0116 10.9758 18.6131C11.3973 19.7561 10.2828 21.2051 9.04525 20.9396C8.29975 20.7566 7.56625 20.2376 7.33075 19.4801C7.10875 18.7001 7.57825 17.9021 8.21425 17.4761C8.55925 17.2391 9.08725 17.3831 9.29875 16.9481C9.13075 16.7291 8.90425 16.5821 8.64175 16.4981ZM8.67775 18.1151C8.15875 18.1886 7.84525 18.8606 8.19025 19.2806C8.56825 19.7921 9.22525 20.2361 9.88525 20.0351C10.2663 19.8506 10.4448 19.3046 10.1583 18.9626C9.83125 18.4871 9.26725 18.1046 8.67775 18.1151Z" fill="white"/>
<path d="M6.14722 17.9415C6.29722 17.7255 6.44572 17.5095 6.59422 17.292C6.94822 17.325 7.30222 17.3565 7.65622 17.391C7.53322 17.553 7.45972 17.772 7.27822 17.88C6.90322 17.9325 6.52372 17.922 6.14722 17.9415Z" fill="white"/>
<path d="M61.9968 20.088C63.0513 19.515 64.0683 18.873 65.1303 18.3105C65.2713 18.57 65.4153 18.8295 65.5608 19.0875C64.7208 19.5705 63.8823 20.0595 63.0408 20.5395C63.2823 20.979 63.5373 21.411 63.7893 21.8445C63.5883 21.96 63.3873 22.074 63.1848 22.1865C62.7993 21.48 62.3823 20.793 61.9968 20.088Z" fill="white"/>
<path d="M5.58942 20.1297C5.65692 20.0277 5.79342 19.8237 5.86092 19.7217C6.13842 19.8702 6.49692 19.9617 6.64992 20.2662C6.72192 20.5062 6.65442 20.7612 6.65142 21.0072C7.26042 21.2862 7.87842 21.5517 8.47242 21.8652C9.00342 22.1472 9.21042 22.8447 8.98392 23.3922C8.77542 24.0702 8.16942 24.8337 7.37142 24.6297C6.51642 24.3312 5.73042 23.8692 4.88892 23.5362C5.00442 23.2497 5.13192 22.9692 5.26992 22.6932C6.02742 23.0307 6.76242 23.4192 7.53192 23.7312C7.99092 23.9292 8.26692 23.4402 8.38092 23.0802C8.22942 22.8582 8.05842 22.6332 7.79892 22.5327C7.12992 22.2192 6.46392 21.8952 5.78442 21.6027C5.94192 21.2382 6.10542 20.8752 6.27942 20.5182C6.07842 20.3412 5.83992 20.2197 5.58942 20.1297Z" fill="white"/>
<path d="M64.1178 22.2265C64.9023 21.73 65.7993 21.4345 66.6393 21.043C66.7578 21.3205 66.8778 21.5995 67.0008 21.877C66.2253 22.231 65.4123 22.513 64.6758 22.9435C64.1688 23.2405 64.5693 24.145 65.1318 23.9755C65.9658 23.743 66.7053 23.2585 67.5273 22.9885C67.6308 23.263 67.7388 23.5375 67.8393 23.8135C67.1433 24.1225 66.4473 24.433 65.7528 24.7465C65.2833 24.9565 64.6503 24.952 64.2933 24.535C63.7368 23.941 63.3678 22.822 64.1178 22.2265Z" fill="white"/>
<path d="M4.14623 25.7049C4.29323 25.3014 4.67423 24.9159 5.13623 24.9759C5.68073 24.9924 6.09623 25.4424 6.21173 25.9509C6.82523 25.7379 7.42073 25.4739 8.02223 25.2264C7.91573 25.5759 7.81223 25.9254 7.71323 26.2764C7.17323 26.6064 6.34523 26.5854 6.02723 27.1869C6.45623 27.3369 6.89723 27.4539 7.33673 27.5724C7.25873 27.8604 7.17923 28.1484 7.10273 28.4364C5.94773 28.1379 4.81673 27.7569 3.65723 27.4764C3.76673 26.8734 3.95273 26.2854 4.14623 25.7049ZM4.52873 26.7714C4.83773 26.8584 5.14523 26.9484 5.45123 27.0429C5.50673 26.8254 5.56373 26.6094 5.62223 26.3949C5.58473 26.3094 5.51123 26.1399 5.47373 26.0544C5.31323 25.9734 5.14523 25.9239 4.96973 25.9044C4.63823 26.0589 4.62023 26.4639 4.52873 26.7714Z" fill="white"/>
<path d="M68.7468 25.1426C69.1218 25.2881 69.4923 25.4426 69.8643 25.5971C69.9168 25.7741 69.9693 25.9526 70.0248 26.1311C69.7848 26.4536 69.5493 26.7791 69.3168 27.1061C69.2538 26.9156 69.1923 26.7251 69.1323 26.5346C69.2568 26.3456 69.3798 26.1536 69.4983 25.9601C69.0648 25.8806 68.7378 25.6136 68.7468 25.1426Z" fill="white"/>
<path d="M64.7449 25.5791C66.0079 25.5926 67.2664 25.7246 68.5294 25.7351C68.6329 26.0576 68.7319 26.3801 68.8264 26.7056C67.7689 27.4076 66.7369 28.1486 65.6944 28.8716C65.6059 28.5791 65.5189 28.2881 65.4274 27.9986C65.6269 27.8486 65.8309 27.7061 66.0409 27.5711C65.9809 27.1931 65.8804 26.8241 65.7724 26.4581C65.5084 26.4521 65.2459 26.4446 64.9834 26.4371C64.9054 26.1506 64.8259 25.8641 64.7449 25.5791ZM66.4789 26.4671C66.5254 26.7026 66.5719 26.9381 66.6199 27.1736C66.9829 26.9651 67.3369 26.7401 67.6729 26.4896C67.2739 26.4731 66.8764 26.4671 66.4789 26.4671Z" fill="white"/>
<path d="M64.1089 27.0841C64.3189 27.0196 64.5304 26.9551 64.7419 26.8906C64.8289 27.1801 64.9054 27.4741 64.9654 27.7711C64.7539 27.8071 64.5454 27.8431 64.3369 27.8791C64.2604 27.6136 64.1839 27.3496 64.1089 27.0841Z" fill="white"/>
<path d="M2.8999 31.144C3.0349 30.139 3.2404 29.1445 3.4174 28.1455C3.6379 28.1905 3.8569 28.234 4.0759 28.2775C4.0204 28.6255 3.9604 28.972 3.8854 29.3155C4.8394 29.4985 5.7949 29.674 6.7564 29.815C6.7189 30.1165 6.6799 30.4165 6.6424 30.718C5.6704 30.5815 4.7104 30.379 3.7429 30.2125C3.6859 30.574 3.6139 30.9325 3.5374 31.291C3.3244 31.2415 3.1129 31.1935 2.8999 31.144Z" fill="white"/>
<path d="M68.5863 28.2961C68.8083 28.2526 69.0318 28.2091 69.2553 28.1641C69.4443 29.1511 69.6168 30.1426 69.8508 31.1221C69.6213 31.1836 69.3933 31.2436 69.1653 31.3051C69.1008 30.9436 69.0258 30.5836 68.9403 30.2281C67.9908 30.4141 67.0473 30.6526 66.0828 30.7546C66.0288 30.4756 65.9763 30.1951 65.9253 29.9161C66.8718 29.6776 67.8468 29.5726 68.7918 29.3296C68.7138 28.9861 68.6463 28.6426 68.5863 28.2961Z" fill="white"/>
<path d="M3.79831 34.1113C4.03531 33.5398 4.15081 32.9128 4.48381 32.3848C4.69081 32.9608 4.90081 33.5353 5.11531 34.1083C5.73481 34.1308 6.35431 34.1398 6.97231 34.1728C6.52381 34.6213 5.98981 34.9693 5.51131 35.3818C5.68831 35.9848 5.89231 36.5818 6.01981 37.1983C5.51431 36.8443 4.99231 36.5113 4.49431 36.1468C3.93031 36.4423 3.43231 36.8428 2.89831 37.1878C2.99431 36.5488 3.28531 35.9563 3.33781 35.3098C2.84731 34.9408 2.36281 34.5658 1.89331 34.1728C2.52781 34.1398 3.16231 34.1308 3.79831 34.1113Z" fill="white"/>
<path d="M68.2262 32.3711C68.5202 32.9156 68.6747 33.5201 68.8832 34.1006C69.5282 34.1366 70.1747 34.1396 70.8212 34.1711C70.3352 34.5611 69.8462 34.9496 69.3422 35.3156C69.4187 35.9516 69.6977 36.5396 69.7922 37.1726C69.2777 36.8381 68.7692 36.4931 68.2667 36.1406C67.7162 36.4661 67.1972 36.8411 66.6692 37.2011C66.8087 36.5831 66.9962 35.9786 67.1882 35.3771C66.6842 34.9751 66.1727 34.5836 65.6792 34.1711C66.3092 34.1411 66.9422 34.1276 67.5737 34.1156C67.8002 33.5366 68.0012 32.9486 68.2262 32.3711Z" fill="white"/>
<path d="M66.6438 39.6465C67.7913 40.1415 68.8758 40.773 69.9903 41.3385C69.9168 41.6355 69.8523 41.937 69.7998 42.2385C69.0423 42.4125 68.2593 42.2925 67.4928 42.3825C68.1498 42.7155 68.8038 43.0575 69.4653 43.3845C69.4293 43.719 69.3678 44.049 69.2733 44.3715C68.0463 44.424 66.8178 44.445 65.5908 44.4615C65.6358 44.1675 65.6823 43.8735 65.7273 43.5795C66.5478 43.5345 67.3683 43.623 68.1888 43.5795C67.4748 43.1985 66.7473 42.8415 66.0303 42.4695C66.0948 42.1785 66.1623 41.8875 66.2358 41.598C67.0593 41.598 67.8828 41.6055 68.7048 41.5845C67.9788 41.214 67.2333 40.8825 66.4998 40.5255C66.5493 40.233 66.5958 39.9405 66.6438 39.648V39.6465Z" fill="white"/>
<path d="M3.92736 40.2295C4.68636 40.09 5.44686 39.9595 6.20586 39.832C6.24186 40.126 6.27936 40.4215 6.31686 40.7185C5.49936 40.906 4.65786 40.981 3.84636 41.191C3.38136 41.317 3.50886 41.842 3.58236 42.1915C3.79236 42.2665 4.00836 42.385 4.24086 42.3265C5.01336 42.202 5.78136 42.0535 6.55236 41.917C6.60786 42.214 6.66336 42.5095 6.71436 42.8065C5.94036 42.949 5.16486 43.087 4.38936 43.2175C3.97686 43.294 3.49686 43.204 3.22086 42.868C2.82636 42.3985 2.71986 41.7385 2.82486 41.1475C2.92686 40.627 3.42786 40.3 3.92736 40.2295Z" fill="white"/>
<path d="M3.38574 44.0988C4.54674 43.8333 5.68524 43.4793 6.84324 43.1973C6.94074 43.5498 7.03674 43.9023 7.13724 44.2548C6.58524 44.8068 6.01674 45.3423 5.45424 45.8853C6.12324 45.7593 6.77574 45.5658 7.42524 45.3678C7.50624 45.6438 7.57524 45.9213 7.62924 46.2048C6.46224 46.4613 5.32524 46.8363 4.15974 47.1018C4.08024 46.8108 4.01274 46.5183 3.96474 46.2213C4.66524 45.6063 5.32524 44.9478 5.98374 44.2893C5.17524 44.4783 4.37724 44.7108 3.57774 44.9358C3.50424 44.6583 3.43824 44.3793 3.38574 44.0988Z" fill="white"/>
<path d="M65.2412 45.3654C66.5072 45.3594 67.7717 45.3369 69.0362 45.3414C68.9492 45.6189 68.8607 45.8949 68.7737 46.1724C68.5232 46.1964 68.2367 46.1109 68.0117 46.2309C67.8272 46.5459 67.7657 46.9194 67.6367 47.2614C67.8437 47.4129 68.0597 47.5554 68.2427 47.7384C68.1902 48.0249 68.0837 48.2979 67.9982 48.5754C66.9752 47.8464 65.9882 47.0694 64.9697 46.3344C65.0432 46.0059 65.1362 45.6834 65.2412 45.3654ZM66.1412 46.1709C66.4292 46.4469 66.7637 46.6689 67.0922 46.8969C67.1627 46.6524 67.2362 46.4109 67.3097 46.1694C66.9197 46.1634 66.5297 46.1574 66.1412 46.1709Z" fill="white"/>
<path d="M7.16719 46.597C7.36519 46.5145 7.56319 46.4335 7.76119 46.3525C8.09269 47.1835 8.36419 48.043 8.80219 48.8275C8.21269 49.435 7.57969 50.002 7.01869 50.638C7.84969 50.5075 8.67919 50.371 9.50869 50.233C9.99319 51.2575 10.6367 52.195 11.2502 53.146C11.0537 53.275 10.8572 53.401 10.6622 53.53C10.3892 53.0935 10.1222 52.6525 9.83719 52.225C9.66619 52.324 9.49519 52.423 9.32569 52.522C9.52819 52.9525 9.79669 53.347 10.0622 53.74C9.86869 53.8735 9.67369 54.007 9.47869 54.139C9.21769 53.749 9.02719 53.3035 8.70469 52.96C8.43469 53.0755 8.19769 53.251 7.95469 53.4115C8.23219 53.851 8.50669 54.2935 8.78869 54.73C8.57869 54.8395 8.36869 54.949 8.15419 55.051C7.77319 54.343 7.27669 53.7025 6.92419 52.978C7.92169 52.348 8.96119 51.7735 9.90619 51.067C8.64919 51.2035 7.40419 51.4285 6.14869 51.5725C6.00619 51.2905 5.86669 51.007 5.73469 50.722C6.46519 49.9615 7.20619 49.21 7.93969 48.451C7.85269 48.271 7.76719 48.0895 7.68169 47.911C6.94969 48.1885 6.21919 48.472 5.48569 48.748C5.53669 48.8665 5.63869 49.105 5.68969 49.2235C5.49619 49.3075 5.30269 49.3915 5.10919 49.477C4.86469 48.8695 4.63669 48.256 4.39819 47.6455C4.60219 47.569 4.80469 47.494 5.00869 47.4205C5.03719 47.5315 5.09419 47.755 5.12269 47.866C5.89369 47.6845 6.60319 47.3215 7.35469 47.08C7.29319 46.918 7.23019 46.7575 7.16719 46.597Z" fill="white"/>
<path d="M67.2468 48.4502C67.4703 48.4922 67.6923 48.5357 67.9158 48.5822C67.6578 49.3637 67.2483 50.0837 66.9513 50.8487C65.8398 50.3837 64.7493 49.8692 63.6438 49.3907C63.7623 49.1237 63.8853 48.8582 64.0083 48.5927C64.9188 48.9287 65.7888 49.3622 66.6783 49.7537C66.8808 49.3247 67.0758 48.8927 67.2468 48.4502Z" fill="white"/>
<path d="M62.9987 51.4228C64.2362 50.9893 65.7062 52.2343 65.3477 53.5333C65.1137 54.1798 64.7087 54.7543 64.3127 55.3108C63.2657 54.7438 62.2997 54.0118 61.2812 53.3878C61.7912 52.6933 62.1317 51.7453 62.9987 51.4228ZM62.9387 52.2883C62.6837 52.4653 62.5113 52.7323 62.3133 52.9648C62.9493 53.3968 63.5972 53.8093 64.2407 54.2308C64.4417 53.8858 64.7327 53.5168 64.5977 53.0923C64.3517 52.4743 63.5897 52.0258 62.9387 52.2883Z" fill="white"/>
<path d="M8.57422 55.5313C9.52522 54.8128 10.4492 54.0628 11.3957 53.3398C11.8067 53.9668 12.4022 54.4828 12.6812 55.1878C12.9377 56.0623 11.7872 56.7493 11.0642 56.3038C10.8947 56.9263 10.7762 57.5638 10.5857 58.1818C10.3847 57.9193 10.1612 57.6733 9.98722 57.3928C9.87922 56.7568 10.4627 56.1433 10.2527 55.5088C9.77122 55.5613 9.52972 56.0788 9.08872 56.2168C8.86522 56.0308 8.71372 55.7818 8.57422 55.5313ZM10.6547 55.0498C10.8572 55.3753 11.1932 55.7998 11.6237 55.5553C12.1142 55.2598 11.6642 54.7588 11.4377 54.4573C11.1752 54.6523 10.9142 54.8503 10.6547 55.0498Z" fill="white"/>
<path d="M60.5029 54.4109C60.6619 54.1739 60.8359 53.9474 61.0234 53.7314C61.9504 54.4919 62.9119 55.2059 63.8449 55.9604C63.6679 56.1824 63.4924 56.4074 63.3214 56.6339C62.3569 56.5124 61.4044 56.3144 60.4399 56.1854C61.1179 56.6924 61.7809 57.2189 62.4454 57.7409C62.2834 57.9509 62.1229 58.1609 61.9639 58.3739C61.0054 57.6989 60.0889 56.9579 59.1814 56.2154C59.2309 55.8704 59.5669 55.5359 59.8399 55.3079C60.5704 55.3994 61.2904 55.5689 62.0284 55.6184C61.5544 55.1729 61.0204 54.8009 60.5029 54.4109Z" fill="white"/>
<path d="M12.2013 57.2893C12.1608 56.6293 12.9018 56.1283 13.5123 56.3338C14.2503 56.5633 14.7453 57.2473 15.0378 57.9298C14.8278 58.1233 14.6193 58.3183 14.4123 58.5163C14.3208 57.9553 14.1093 57.3313 13.5483 57.0838C13.2663 57.0418 13.1313 57.1588 13.1433 57.4378C13.3278 57.9028 13.6818 58.3003 13.7613 58.8058C13.8648 59.4838 13.1133 60.0673 12.4743 59.8858C11.7663 59.7133 11.2578 59.0998 10.9473 58.4728C10.6428 58.0513 11.2263 57.7978 11.4678 57.5338C11.5263 58.1953 11.8263 58.9138 12.4863 59.1748C12.7113 59.1088 12.8373 58.8988 12.7473 58.6738C12.5793 58.2058 12.1713 57.8173 12.2013 57.2893Z" fill="white"/>
<path d="M57.5312 57.7663C57.7622 57.5308 57.9902 57.2908 58.2197 57.0508C59.3612 57.5968 60.5342 58.0768 61.6742 58.6273C61.4732 58.8418 61.2737 59.0593 61.0772 59.2768C60.8222 59.1823 60.5718 59.0818 60.3213 58.9813C60.0903 59.2378 59.8382 59.4778 59.6342 59.7583C59.6162 60.0358 59.9192 60.2623 59.8622 60.5548C59.7182 60.7753 59.5053 60.9388 59.3133 61.1143C58.7448 59.9848 58.1177 58.8868 57.5312 57.7663ZM58.6338 58.1848C58.8378 58.5298 59.0447 58.8718 59.2502 59.2153C59.4062 59.0263 59.5652 58.8403 59.7242 58.6543C59.3717 58.4713 59.0133 58.3003 58.6338 58.1848Z" fill="white"/>
<path d="M14.8489 58.3606C15.0034 58.2106 15.1579 58.0606 15.3124 57.9121C16.3009 58.9396 17.4829 59.7421 18.5839 60.6376C19.0024 60.9691 19.4854 61.2031 19.9309 61.4941C19.9054 61.9906 19.8754 62.4871 19.8679 62.9836C20.2549 62.7571 20.6284 62.4991 21.0424 62.3221C21.3949 62.3446 21.6499 62.6641 21.9439 62.8366C21.2269 63.1711 20.5009 63.4966 19.8094 63.8836C19.4524 64.2586 19.2349 64.7401 18.9349 65.1586C18.6799 64.9921 18.4264 64.8256 18.1714 64.6606C18.4309 64.2286 18.7819 63.8416 18.9604 63.3676C19.0234 62.6326 19.0234 61.8916 19.0429 61.1536C18.9199 61.2991 18.7969 61.4446 18.6754 61.5931C18.4054 61.3681 18.1354 61.1461 17.8654 60.9226C17.2549 61.6846 16.6564 62.4556 16.0639 63.2326C15.8239 63.0466 15.5839 62.8621 15.3409 62.6806C15.9319 61.9261 16.5004 61.1521 17.1244 60.4231C16.7449 60.0301 16.2994 59.7106 15.9229 59.3146C15.4009 59.9026 14.8639 60.4771 14.3359 61.0576C14.4634 61.1851 14.5924 61.3141 14.7199 61.4431C14.5804 61.5916 14.4424 61.7386 14.3044 61.8871C13.8184 61.4476 13.3369 61.0051 12.8479 60.5701C12.9994 60.4126 13.1614 60.2641 13.3369 60.1336C13.4494 60.2446 13.5604 60.3541 13.6729 60.4666C14.1859 59.8711 14.7184 59.2936 15.2419 58.7101C15.1429 58.6216 14.9479 58.4476 14.8489 58.3606Z" fill="white"/>
<path d="M54.2072 60.7783C54.4832 60.0643 55.2212 59.7208 55.8722 59.4238C56.0642 59.6383 56.2532 59.8543 56.4422 60.0748C55.8227 60.1663 54.7277 60.4483 55.0097 61.3003C55.5782 61.2838 56.0297 60.8743 56.5817 60.7978C57.3197 60.6658 57.9182 61.5733 57.6167 62.2258C57.3092 62.9998 56.5127 63.4138 55.7792 63.7003C55.5782 63.4633 55.3877 63.2203 55.2077 62.9698C55.7837 62.9443 56.4167 62.8003 56.7887 62.3218C56.9252 62.1373 56.8082 61.9153 56.7797 61.7203C56.0897 61.7908 55.5092 62.3848 54.7862 62.1853C54.2762 61.9603 53.9327 61.3048 54.2072 60.7783Z" fill="white"/>
<path d="M51.7037 63.1421C51.5942 62.0276 52.7147 61.2566 53.7182 61.1816C53.8772 61.4276 54.0407 61.6676 54.2117 61.9076C53.6372 61.8491 52.9202 61.9031 52.6412 62.5016C52.4342 63.1631 52.8812 63.8711 53.4557 64.1846C53.9222 64.4261 54.4892 64.1036 54.6932 63.6611C54.7997 63.4931 54.8267 63.2636 54.9857 63.1361C55.1507 63.3626 55.2947 63.6026 55.4402 63.8441C55.0337 64.4111 54.4832 64.9736 53.7542 65.0516C52.6712 65.2046 51.8132 64.1261 51.7037 63.1421Z" fill="white"/>
<path d="M49.2603 63.5521C49.8138 63.2191 50.4033 62.9506 50.9583 62.6191C51.0663 62.7991 51.1743 62.9791 51.2823 63.1621C51.1233 63.2506 50.9643 63.3391 50.8053 63.4291C51.2013 64.1056 51.5433 64.8136 51.9243 65.5006C52.0773 65.4151 52.2303 65.3296 52.3863 65.2456C52.4778 65.4316 52.5723 65.6176 52.6653 65.8066C52.1058 66.1096 51.5358 66.3946 50.9898 66.7231C50.8728 66.5356 50.7573 66.3496 50.6463 66.1636C50.8083 66.0736 50.9718 65.9851 51.1368 65.8966C50.7183 65.2381 50.3973 64.5256 50.0073 63.8506C49.8513 63.9181 49.6953 63.9856 49.5408 64.0546C49.4463 63.8851 49.3533 63.7186 49.2603 63.5521Z" fill="white"/>
<path d="M23.4588 63.7345C24.4803 63.574 25.6293 64.4185 25.5573 65.503C25.4523 66.256 25.0728 67.0405 24.3603 67.387C23.3568 67.7605 22.0488 67.114 21.9093 66.007C21.8658 65.0455 22.4358 63.9175 23.4588 63.7345ZM22.8108 66.1585C22.8438 66.5695 23.2608 66.712 23.5878 66.8365C24.2343 66.58 24.5943 65.908 24.6663 65.245C24.6738 64.7605 24.2223 64.3285 23.7333 64.4575C23.1078 64.741 22.7688 65.4985 22.8108 66.1585Z" fill="white"/>
<path d="M48.0859 64.0201C48.3904 63.9046 48.6934 63.7786 48.9904 63.6436C49.5199 64.7266 49.8934 65.8786 50.3899 66.9781C50.1049 67.0966 49.8154 67.2091 49.5229 67.3096C49.2514 66.5821 48.9799 65.8516 48.6304 65.1571C48.6169 65.7016 48.6124 66.2491 48.6019 66.7951L48.0304 67.0246C47.6449 66.6241 47.2564 66.2266 46.8424 65.8561C47.1424 66.5971 47.4949 67.3201 47.7184 68.0896C47.4619 68.1781 47.2069 68.2696 46.9534 68.3656C46.5319 67.2796 46.0534 66.2116 45.6604 65.1166C45.8254 64.8016 46.3024 64.7821 46.6204 64.6621C47.0629 65.1136 47.5204 65.5501 47.9824 65.9836C47.9959 65.3281 48.0184 64.6726 48.0859 64.0201Z" fill="white"/>
<path d="M25.1372 68.1104C25.4897 66.9614 25.9412 65.8439 26.2772 64.6904C27.0557 64.9349 27.8342 65.1854 28.5932 65.4899C28.5242 65.6939 28.4567 65.8994 28.3892 66.1064C27.9032 65.9654 27.4262 65.7959 26.9552 65.6114C26.8547 65.8289 26.7827 66.0569 26.7377 66.2939C27.1757 66.4214 27.6077 66.5699 28.0382 66.7229C27.9647 66.9284 27.8927 67.1339 27.8222 67.3394C27.3692 67.2224 26.9282 67.0664 26.4842 66.9254C26.3162 67.4039 26.1512 67.8839 25.9967 68.3684C25.7087 68.2814 25.4237 68.1944 25.1372 68.1104Z" fill="white"/>
<path d="M43.5859 65.4864C44.2909 65.1609 45.2149 65.3139 45.6739 65.9709C46.1059 66.6234 46.2949 67.5279 45.9079 68.2449C45.5119 68.9589 44.5894 69.2184 43.8289 69.0459C42.3469 68.6049 42.0289 66.0489 43.5859 65.4864ZM43.8994 66.0984C43.2499 66.5109 43.4434 67.4589 43.7884 68.0154C44.0269 68.5164 44.8294 68.5179 45.0814 68.0304C45.3199 67.4889 45.1594 66.8349 44.8429 66.3594C44.6479 66.0399 44.2309 65.9694 43.8994 66.0984Z" fill="white"/>
<path d="M29.9807 65.7031C30.7877 65.8186 31.5752 66.0376 32.3852 66.1336C32.3327 66.3721 32.2772 66.6106 32.2202 66.8491C31.7267 66.7126 31.2212 66.6316 30.7217 66.5236C30.6977 66.7381 30.6722 66.9541 30.6497 67.1716C31.0952 67.2511 31.5377 67.3366 31.9802 67.4356C31.9547 67.6486 31.9292 67.8616 31.9037 68.0761C31.4207 68.0191 30.9467 67.9096 30.4667 67.8331C30.4232 68.1346 30.3797 68.4376 30.3377 68.7406C30.8282 68.8306 31.3172 68.9281 31.8092 69.0106C31.7777 69.2356 31.7447 69.4606 31.7117 69.6871C30.9017 69.5506 30.0962 69.3916 29.2937 69.2161C29.5217 68.0446 29.7542 66.8746 29.9807 65.7031Z" fill="white"/>
<path d="M41.2114 65.979C41.4919 65.9565 41.7724 65.9355 42.0544 65.916C42.1684 67.107 42.3694 68.289 42.5299 69.4755C42.2359 69.51 41.9419 69.543 41.6494 69.573C41.0869 68.8275 40.5379 68.0715 39.9589 67.338C40.0399 68.16 40.1719 68.976 40.2874 69.795C40.0099 69.8205 39.7324 69.8475 39.4549 69.8745C39.3064 68.6805 39.1084 67.4925 38.9614 66.297C39.3364 66.264 39.7114 66.228 40.0879 66.1965C40.5559 66.792 40.9669 67.4385 41.4889 67.9905C41.3989 67.32 41.2894 66.651 41.2114 65.979Z" fill="white"/>
<path d="M32.6718 66.8428C33.2988 66.0433 34.5048 66.1393 35.3058 66.6058C35.4348 66.9088 35.3103 67.2643 35.3373 67.5883C35.0118 67.3198 34.6923 66.9493 34.2378 66.9463C33.0123 66.8683 32.7678 69.0073 33.9078 69.3148C34.3773 69.4648 34.8018 69.1213 35.1858 68.9038C35.1588 69.2053 35.1258 69.5098 35.0928 69.8128C34.3443 70.0783 33.4038 70.1218 32.7783 69.5563C32.0358 68.8678 32.1048 67.6183 32.6718 66.8428Z" fill="white"/>
<path d="M36.5404 66.3798C37.3594 66.1503 38.3689 66.4368 38.7004 67.2843C38.9524 68.0193 38.9599 68.9673 38.3914 69.5628C37.6144 70.3488 36.0169 70.2153 35.5624 69.1383C35.1019 68.1813 35.3854 66.6678 36.5404 66.3798ZM36.6964 67.0998C36.0649 67.6533 36.1249 69.0198 36.9394 69.3678C37.7434 69.5568 38.0449 68.5743 37.9114 67.9548C37.9429 67.3458 37.2844 66.6888 36.6964 67.0998Z" fill="white"/>
<path d="M34.3879 0.115807C36.8929 -0.0731929 39.4009 0.175807 41.8804 0.528307C47.0419 1.33531 52.0189 3.28981 56.3464 6.21931C63.2539 10.8558 68.4889 17.9448 70.8049 25.9413C72.0034 30.0153 72.4729 34.3068 72.1669 38.5398C71.7874 43.8993 70.1839 49.1658 67.5034 53.8218C64.6084 58.8693 60.4744 63.2028 55.5589 66.3198C50.9119 69.2793 45.5779 71.1663 40.0954 71.7243C34.8904 72.2973 29.5594 71.6628 24.6124 69.9468C16.8199 67.2543 10.0384 61.7778 5.73637 54.7473C3.17737 50.6013 1.48987 45.9258 0.79987 41.1033C0.46687 38.4768 0.19387 35.8113 0.55687 33.1713C0.99637 27.3738 2.91187 21.7038 6.03187 16.7988C11.1274 8.74831 19.5214 2.84431 28.8604 0.894307C30.6754 0.469807 32.5369 0.307807 34.3879 0.115807ZM33.0964 2.35081C31.7674 2.69131 31.5889 4.53931 32.3644 5.48731C33.1624 6.43981 35.0059 6.12031 35.3389 4.88731C35.4934 4.13881 35.4439 3.23581 34.8439 2.68531C34.3849 2.23981 33.6859 2.22781 33.0964 2.35081ZM36.8299 2.30581C35.5429 2.87281 35.4694 4.97131 36.6529 5.68231C37.3279 6.06781 38.1559 5.92531 38.8279 5.60731C38.8279 5.31181 38.8294 5.01781 38.8324 4.72231C38.4139 5.05981 37.8769 5.38081 37.3264 5.14381C36.4324 4.65931 36.5884 2.96131 37.6669 2.81581C38.1034 2.82331 38.4574 3.10681 38.8189 3.31531C38.8234 3.02581 38.8264 2.73481 38.8324 2.44381C38.2099 2.17531 37.4749 2.03731 36.8299 2.30581ZM29.7784 2.82481C29.8639 3.25831 29.9659 3.68881 30.0889 4.11481C29.6779 4.24231 29.2564 4.33381 28.8334 4.40281C28.7704 3.98281 28.6789 3.56881 28.5784 3.15631C28.2859 3.19981 27.9934 3.24631 27.7024 3.29431C27.9109 4.49281 28.2469 5.66431 28.4989 6.85381C28.7929 6.78181 29.0869 6.71131 29.3824 6.64381C29.2594 6.11881 29.1334 5.59231 29.0269 5.06281C29.4304 4.98631 29.8309 4.89931 30.2329 4.81381C30.3484 5.32831 30.4669 5.84431 30.5899 6.35731C30.8839 6.29281 31.1779 6.22831 31.4719 6.16831C31.2049 5.01181 30.9334 3.85681 30.6799 2.69881C30.3784 2.73631 30.0784 2.77831 29.7784 2.82481ZM41.3794 2.59681C41.2174 3.79081 40.9534 4.97281 40.8499 6.17431C41.1439 6.20581 41.4394 6.23731 41.7349 6.26731C41.8024 5.78131 41.7739 5.25031 42.0769 4.83481C42.3709 5.37031 42.6064 5.93731 42.8884 6.47881C43.2394 6.51781 43.5904 6.57631 43.9354 6.65581C43.6204 5.93281 43.2469 5.23681 42.9319 4.51381C43.4344 4.02481 43.9414 3.54031 44.4739 3.08431C44.1199 3.01981 43.7644 2.96131 43.4059 2.91781C42.9619 3.38281 42.5044 3.83581 42.0589 4.29781C42.0964 3.75781 42.2059 3.22681 42.2674 2.68981C41.9704 2.65831 41.6749 2.62831 41.3794 2.59681ZM45.0094 3.36031L44.8384 3.94531L45.3244 4.08031C45.2104 4.85131 44.9269 5.58181 44.7604 6.34081C44.5684 6.33181 44.3779 6.32281 44.1859 6.31381C44.1709 6.49831 44.1574 6.68131 44.1439 6.86581C44.7559 7.00531 45.3574 7.18381 45.9664 7.33531C46.0204 7.13581 46.0759 6.93781 46.1329 6.73831C45.9679 6.69781 45.8044 6.65581 45.6424 6.61531C45.8014 5.85631 46.0354 5.11531 46.2139 4.36231C46.3879 4.38931 46.5619 4.41781 46.7374 4.44631C46.7914 4.25131 46.8469 4.05631 46.9024 3.85981C46.2709 3.69331 45.6379 3.53281 45.0094 3.36031ZM23.4349 4.80631C23.4709 4.99231 23.5084 5.17981 23.5474 5.36581C23.7409 5.33581 23.9344 5.31031 24.1279 5.27881C24.3754 6.00781 24.7519 6.69031 24.9394 7.43881C24.8284 7.48081 24.6049 7.56481 24.4939 7.60681L24.7414 8.18731C25.3399 7.91581 25.9639 7.70881 26.5534 7.41781L26.2969 6.89581C26.1364 6.94681 25.9744 6.99931 25.8139 7.05181C25.5049 6.33931 25.2379 5.61181 24.9379 4.89481C25.1014 4.82281 25.2649 4.75081 25.4299 4.67881C25.3384 4.48681 25.2484 4.29481 25.1569 4.10431C24.5884 4.35181 24.0184 4.59631 23.4349 4.80631ZM47.8684 4.22581C47.4094 5.32831 46.9819 6.44281 46.5154 7.54231C46.7689 7.66231 47.0269 7.77331 47.2864 7.88131C47.5834 7.10881 47.8969 6.34231 48.2119 5.57881C48.3529 6.41731 48.4324 7.26481 48.5434 8.10931C48.5224 8.56231 49.0924 8.56081 49.3939 8.70931C49.8364 7.59781 50.2999 6.49381 50.7349 5.37781C50.4784 5.27581 50.2204 5.17981 49.9579 5.09581C49.7134 5.73031 49.4434 6.35281 49.2034 6.98881C49.0594 6.20281 49.0474 5.39581 48.8614 4.61731C48.5269 4.49281 48.1969 4.35781 47.8684 4.22581ZM20.9194 5.97631C21.0424 7.23781 21.2884 8.48431 21.4384 9.74281C21.7024 9.62731 21.9619 9.50731 22.2214 9.38431C22.1959 9.10831 22.1704 8.83081 22.1494 8.55331C22.4824 8.40631 22.8094 8.24281 23.1319 8.07181C23.3209 8.26231 23.5099 8.45431 23.6989 8.64331C23.9629 8.49031 24.2269 8.33581 24.4879 8.17681C23.5684 7.32181 22.6834 6.42781 21.7849 5.55031C21.4954 5.69131 21.2074 5.83381 20.9194 5.97631ZM51.7864 5.96431C51.1624 6.97231 50.6599 8.04931 50.0239 9.04981C50.2744 9.22531 50.5339 9.38431 50.8009 9.53281C51.0919 9.07831 51.3334 8.59531 51.6094 8.13331C51.9634 8.33581 52.3189 8.53681 52.6714 8.74081C52.4494 9.19981 52.1659 9.62581 51.9424 10.0833C52.1344 10.3188 52.4449 10.4238 52.6939 10.5918C53.2834 9.54781 53.8264 8.47831 54.4534 7.45831C54.1984 7.26481 53.9194 7.10131 53.6014 7.03981C53.4214 7.39531 53.2354 7.74931 53.0584 8.10631C52.6594 7.96681 52.2979 7.74781 51.9304 7.54381C52.1404 7.15081 52.3759 6.76831 52.5559 6.35881C52.2979 6.22831 52.0414 6.09631 51.7864 5.96431ZM33.3874 6.33781L33.4189 6.99931C33.7114 6.98131 34.0039 6.96481 34.2979 6.94831C34.2874 6.73681 34.2769 6.52531 34.2679 6.31381C33.9739 6.32131 33.6814 6.32881 33.3874 6.33781ZM16.6864 8.50831C16.9294 8.88481 17.1709 9.26431 17.4199 9.63631C17.3314 9.71131 17.1529 9.86131 17.0644 9.93631C17.2054 10.2273 17.4469 10.4178 17.7364 10.1628C18.0169 10.6218 18.3049 11.0748 18.5839 11.5353C19.2454 11.1198 20.0269 10.7853 20.4649 10.1073C21.1744 8.91481 20.0089 7.18231 18.6274 7.44931C17.9059 7.63681 17.3029 8.10931 16.6864 8.50831ZM33.8674 7.93381C31.4839 8.15581 29.1229 8.65231 26.8714 9.47131C21.0409 11.5488 15.9484 15.6198 12.6169 20.8338C9.66187 25.4013 8.08387 30.8523 8.17237 36.2928C8.17987 43.9038 11.5309 51.4083 17.1079 56.5743C20.3659 59.6463 24.3754 61.9143 28.6834 63.1368C34.2949 64.7178 40.4059 64.5213 45.8884 62.5263C51.1834 60.6213 55.8694 57.0798 59.1649 52.5198C62.6614 47.7213 64.6039 41.7888 64.5079 35.8458C64.5529 28.1853 61.1734 20.6208 55.5589 15.4293C52.1479 12.2238 47.9224 9.88831 43.3879 8.72281C40.2904 7.90831 37.0549 7.67731 33.8674 7.93381ZM55.9789 9.40231C56.2609 9.61531 56.5384 9.83581 56.8129 10.0593C56.2309 10.8423 55.5199 11.5503 55.0624 12.4113C55.2814 12.5688 55.4974 12.7293 55.7119 12.8943C56.3359 12.1623 56.9119 11.3898 57.4924 10.6233C57.7939 10.8213 58.0834 11.0373 58.3684 11.2608C58.5079 11.0838 58.6459 10.9053 58.7869 10.7298C57.9964 10.0953 57.1804 9.49231 56.3974 8.84881C56.2534 9.03031 56.1139 9.21481 55.9789 9.40231ZM22.7494 9.49231C22.8394 9.68131 22.9309 9.87181 23.0224 10.0608C23.2879 9.96181 23.5504 9.85231 23.8114 9.73831C23.7304 9.54031 23.6494 9.34381 23.5684 9.14581C23.2849 9.23731 23.0149 9.36031 22.7494 9.49231ZM12.7189 12.7533C12.9019 13.7868 13.9864 14.7618 15.0739 14.4423C15.8644 14.1978 16.3594 13.4898 16.7404 12.7983C16.3129 12.3828 15.9289 11.9253 15.4954 11.5143C15.1189 11.8803 14.7244 12.2238 14.3494 12.5898L14.8489 13.0533C15.0139 12.8958 15.1789 12.7398 15.3439 12.5838C15.5179 12.7698 15.6784 12.9678 15.8149 13.1838C15.6334 13.3068 15.4564 13.4403 15.2629 13.5438C14.3029 13.9938 13.1179 12.6588 13.7509 11.7813C14.0659 11.3043 14.6584 11.2008 15.1834 11.1378C14.9794 10.9308 14.7784 10.7223 14.5789 10.5093C13.5874 10.7568 12.6049 11.6583 12.7189 12.7533ZM59.6794 11.0763C59.8204 11.2113 59.9569 11.3538 60.1129 11.4753C60.3304 11.4873 60.5479 11.4483 60.7654 11.4258C60.7489 11.6313 60.7339 11.8368 60.7189 12.0423C60.8599 12.1908 61.0024 12.3393 61.1449 12.4893C61.2019 12.1038 61.2604 11.7198 61.3159 11.3358C61.1644 11.1843 61.0129 11.0343 60.8614 10.8858C60.4699 10.9698 60.0754 11.0268 59.6794 11.0763ZM56.7994 13.8903C57.3859 14.4468 57.9919 14.9838 58.5664 15.5538C58.7284 15.3828 58.8919 15.2118 59.0554 15.0408C58.6714 14.6913 58.2859 14.3433 57.9244 13.9698C58.1314 13.7613 58.3339 13.5468 58.5349 13.3308C58.8859 13.6428 59.2279 13.9653 59.5789 14.2788C59.7334 14.1198 59.8879 13.9593 60.0439 13.8003C59.7154 13.4733 59.3779 13.1538 59.0194 12.8598C59.1589 12.6888 59.2969 12.5148 59.4379 12.3453C59.8144 12.7038 60.1909 13.0623 60.5689 13.4208C60.7279 13.2498 60.8869 13.0788 61.0474 12.9063C60.4324 12.3753 59.8519 11.8083 59.2654 11.2473C58.4254 12.1113 57.6124 13.0008 56.7994 13.8903ZM61.3279 12.2703C61.6444 12.6123 62.0779 12.4638 62.4619 12.3483C62.3044 12.2178 62.1454 12.0888 61.9894 11.9598C61.7674 12.0618 61.5469 12.1653 61.3279 12.2703ZM10.9354 13.8108C11.4319 14.2533 11.9134 14.7108 12.4249 15.1353C11.6389 15.0843 10.9009 14.7663 10.1164 14.7078C9.93037 14.9928 9.52087 15.2178 9.50737 15.5673C10.3339 16.3638 11.2264 17.0928 12.0559 17.8893C12.2764 17.7108 12.4729 17.5053 12.6484 17.2833C12.0079 16.7583 11.4334 16.1568 10.7779 15.6513C11.7169 15.8028 12.6439 16.0308 13.5649 16.2708C13.7659 16.0503 13.9639 15.8268 14.1589 15.6018C13.3339 14.8623 12.5089 14.1213 11.6914 13.3743C11.3824 13.0263 11.1499 13.6428 10.9354 13.8108ZM60.7864 16.3233C61.1344 16.7358 61.4599 17.1663 61.8199 17.5683C61.9819 17.4198 62.1424 17.2698 62.3059 17.1198C61.9699 16.7163 61.6414 16.3053 61.3114 15.8958C61.1344 16.0353 60.9589 16.1793 60.7864 16.3233ZM8.64187 16.4988C8.90437 16.5828 9.13087 16.7298 9.29887 16.9488C9.08737 17.3838 8.55937 17.2398 8.21437 17.4768C7.57837 17.9028 7.10887 18.7008 7.33087 19.4808C7.56637 20.2383 8.29987 20.7573 9.04537 20.9403C10.2829 21.2058 11.3974 19.7568 10.9759 18.6138C10.7269 18.0123 10.1614 17.6103 9.57937 17.3643C9.63187 17.1363 9.75337 16.8978 9.66037 16.6638C9.48487 16.4223 9.22687 16.2633 8.99587 16.0818C8.87737 16.2198 8.76037 16.3593 8.64187 16.4988ZM6.14737 17.9418C6.52387 17.9223 6.90337 17.9328 7.27837 17.8803C7.45987 17.7723 7.53337 17.5533 7.65637 17.3913C7.30237 17.3568 6.94837 17.3253 6.59437 17.2923C6.44587 17.5098 6.29737 17.7258 6.14737 17.9418ZM61.9969 20.0883C62.3824 20.7933 62.7994 21.4803 63.1849 22.1868C63.3874 22.0743 63.5884 21.9603 63.7894 21.8448C63.5374 21.4113 63.2824 20.9793 63.0409 20.5398C63.8824 20.0598 64.7209 19.5708 65.5609 19.0878C65.4154 18.8298 65.2714 18.5703 65.1304 18.3108C64.0684 18.8733 63.0514 19.5153 61.9969 20.0883ZM5.58937 20.1303C5.83987 20.2203 6.07837 20.3418 6.27937 20.5188C6.10537 20.8758 5.94187 21.2388 5.78437 21.6033C6.46387 21.8958 7.12987 22.2198 7.79887 22.5333C8.05837 22.6338 8.22937 22.8588 8.38087 23.0808C8.26687 23.4408 7.99087 23.9298 7.53187 23.7318C6.76237 23.4198 6.02737 23.0313 5.26987 22.6938C5.13187 22.9698 5.00437 23.2503 4.88887 23.5368C5.73037 23.8698 6.51637 24.3318 7.37137 24.6303C8.16937 24.8343 8.77537 24.0708 8.98387 23.3928C9.21037 22.8453 9.00337 22.1478 8.47237 21.8658C7.87837 21.5523 7.26037 21.2868 6.65137 21.0078C6.65437 20.7618 6.72187 20.5068 6.64987 20.2668C6.49687 19.9623 6.13837 19.8708 5.86087 19.7223C5.79337 19.8243 5.65687 20.0283 5.58937 20.1303ZM64.1179 22.2273C63.3679 22.8228 63.7369 23.9418 64.2934 24.5358C64.6504 24.9528 65.2834 24.9573 65.7529 24.7473C66.4474 24.4338 67.1434 24.1233 67.8394 23.8143C67.7389 23.5383 67.6309 23.2638 67.5274 22.9893C66.7054 23.2593 65.9659 23.7438 65.1319 23.9763C64.5694 24.1458 64.1689 23.2413 64.6759 22.9443C65.4124 22.5138 66.2254 22.2318 67.0009 21.8778C66.8779 21.6003 66.7579 21.3213 66.6394 21.0438C65.7994 21.4353 64.9024 21.7308 64.1179 22.2273ZM4.14637 25.7058C3.95287 26.2863 3.76687 26.8743 3.65737 27.4773C4.81687 27.7578 5.94787 28.1388 7.10287 28.4373C7.17937 28.1493 7.25887 27.8613 7.33687 27.5733C6.89737 27.4548 6.45637 27.3378 6.02737 27.1878C6.34537 26.5863 7.17337 26.6073 7.71337 26.2773C7.81237 25.9263 7.91587 25.5768 8.02237 25.2273C7.42087 25.4748 6.82537 25.7388 6.21187 25.9518C6.09637 25.4433 5.68087 24.9933 5.13637 24.9768C4.67437 24.9168 4.29337 25.3023 4.14637 25.7058ZM68.7469 25.1433C68.7379 25.6143 69.0649 25.8813 69.4984 25.9608C69.3799 26.1543 69.2569 26.3463 69.1324 26.5353C69.1924 26.7258 69.2539 26.9163 69.3169 27.1068C69.5494 26.7798 69.7849 26.4543 70.0249 26.1318C69.9694 25.9533 69.9169 25.7748 69.8644 25.5978C69.4924 25.4433 69.1219 25.2888 68.7469 25.1433ZM64.7449 25.5798C64.8259 25.8648 64.9054 26.1513 64.9834 26.4378C65.2459 26.4453 65.5084 26.4528 65.7724 26.4588C65.8804 26.8248 65.9809 27.1938 66.0409 27.5718C65.8309 27.7068 65.6269 27.8493 65.4274 27.9993C65.5189 28.2888 65.6059 28.5798 65.6944 28.8723C66.7369 28.1493 67.7689 27.4083 68.8264 26.7063C68.7319 26.3808 68.6329 26.0583 68.5294 25.7358C67.2664 25.7253 66.0079 25.5933 64.7449 25.5798ZM64.1089 27.0843C64.1839 27.3498 64.2604 27.6138 64.3369 27.8793C64.5454 27.8433 64.7539 27.8073 64.9654 27.7713C64.9054 27.4743 64.8289 27.1803 64.7419 26.8908C64.5304 26.9553 64.3189 27.0198 64.1089 27.0843ZM2.89987 31.1448C3.11287 31.1943 3.32437 31.2423 3.53737 31.2918C3.61387 30.9333 3.68587 30.5748 3.74287 30.2133C4.71037 30.3798 5.67037 30.5823 6.64237 30.7188C6.67987 30.4173 6.71887 30.1173 6.75637 29.8158C5.79487 29.6748 4.83937 29.4993 3.88537 29.3163C3.96037 28.9728 4.02037 28.6263 4.07587 28.2783C3.85687 28.2348 3.63787 28.1913 3.41737 28.1463C3.24037 29.1453 3.03487 30.1398 2.89987 31.1448ZM68.5864 28.2963C68.6464 28.6428 68.7139 28.9863 68.7919 29.3298C67.8469 29.5728 66.8719 29.6778 65.9254 29.9163C65.9764 30.1953 66.0289 30.4758 66.0829 30.7548C67.0474 30.6528 67.9909 30.4143 68.9404 30.2283C69.0259 30.5838 69.1009 30.9438 69.1654 31.3053C69.3934 31.2438 69.6214 31.1838 69.8509 31.1223C69.6169 30.1428 69.4444 29.1513 69.2554 28.1643C69.0319 28.2093 68.8084 28.2528 68.5864 28.2963ZM3.79837 34.1118C3.16237 34.1313 2.52787 34.1403 1.89337 34.1733C2.36287 34.5663 2.84737 34.9413 3.33787 35.3103C3.28537 35.9568 2.99437 36.5493 2.89837 37.1883C3.43237 36.8433 3.93037 36.4428 4.49437 36.1473C4.99237 36.5118 5.51437 36.8448 6.01987 37.1988C5.89237 36.5823 5.68837 35.9853 5.51137 35.3823C5.98987 34.9698 6.52387 34.6218 6.97237 34.1733C6.35437 34.1403 5.73487 34.1313 5.11537 34.1088C4.90087 33.5358 4.69087 32.9613 4.48387 32.3853C4.15087 32.9133 4.03537 33.5403 3.79837 34.1118ZM68.2264 32.3718C68.0014 32.9493 67.8004 33.5373 67.5739 34.1163C66.9424 34.1283 66.3094 34.1418 65.6794 34.1718C66.1729 34.5843 66.6844 34.9758 67.1884 35.3778C66.9964 35.9793 66.8089 36.5838 66.6694 37.2018C67.1974 36.8418 67.7164 36.4668 68.2669 36.1413C68.7694 36.4938 69.2779 36.8388 69.7924 37.1733C69.6979 36.5403 69.4189 35.9523 69.3424 35.3163C69.8464 34.9503 70.3354 34.5618 70.8214 34.1718C70.1749 34.1403 69.5284 34.1373 68.8834 34.1013C68.6749 33.5208 68.5204 32.9163 68.2264 32.3718ZM66.6439 39.6468C66.5959 39.9393 66.5494 40.2318 66.4999 40.5243C67.2334 40.8813 67.9789 41.2128 68.7049 41.5833C67.8829 41.6043 67.0594 41.5983 66.2359 41.5968C66.1624 41.8863 66.0949 42.1773 66.0304 42.4683C66.7474 42.8403 67.4749 43.1973 68.1889 43.5783C67.3684 43.6233 66.5479 43.5348 65.7274 43.5783C65.6824 43.8723 65.6359 44.1663 65.5909 44.4603C66.8179 44.4438 68.0464 44.4228 69.2734 44.3703C69.3679 44.0478 69.4294 43.7178 69.4654 43.3833C68.8039 43.0563 68.1499 42.7143 67.4929 42.3813C68.2594 42.2913 69.0424 42.4113 69.7999 42.2373C69.8524 41.9358 69.9169 41.6343 69.9904 41.3373C68.8759 40.7718 67.7914 40.1403 66.6439 39.6453V39.6468ZM3.92737 40.2303C3.42787 40.3008 2.92687 40.6278 2.82487 41.1483C2.71987 41.7393 2.82637 42.3993 3.22087 42.8688C3.49687 43.2048 3.97687 43.2948 4.38937 43.2183C5.16487 43.0878 5.94037 42.9498 6.71437 42.8073C6.66337 42.5103 6.60787 42.2148 6.55237 41.9178C5.78137 42.0543 5.01337 42.2028 4.24087 42.3273C4.00837 42.3858 3.79237 42.2673 3.58237 42.1923C3.50887 41.8428 3.38137 41.3178 3.84637 41.1918C4.65787 40.9818 5.49937 40.9068 6.31687 40.7193C6.27937 40.4223 6.24187 40.1268 6.20587 39.8328C5.44687 39.9603 4.68637 40.0908 3.92737 40.2303ZM3.38587 44.0988C3.43837 44.3793 3.50437 44.6583 3.57787 44.9358C4.37737 44.7108 5.17537 44.4783 5.98387 44.2893C5.32537 44.9478 4.66537 45.6063 3.96487 46.2213C4.01287 46.5183 4.08037 46.8108 4.15987 47.1018C5.32537 46.8363 6.46237 46.4613 7.62937 46.2048C7.57537 45.9213 7.50637 45.6438 7.42537 45.3678C6.77587 45.5658 6.12337 45.7593 5.45437 45.8853C6.01687 45.3423 6.58537 44.8068 7.13737 44.2548C7.03687 43.9023 6.94087 43.5498 6.84337 43.1973C5.68537 43.4793 4.54687 43.8333 3.38587 44.0988ZM65.2414 45.3663C65.1364 45.6843 65.0434 46.0068 64.9699 46.3353C65.9884 47.0703 66.9754 47.8473 67.9984 48.5763C68.0839 48.2988 68.1904 48.0258 68.2429 47.7393C68.0599 47.5563 67.8439 47.4138 67.6369 47.2623C67.7659 46.9203 67.8274 46.5468 68.0119 46.2318C68.2369 46.1118 68.5234 46.1973 68.7739 46.1733C68.8609 45.8958 68.9494 45.6198 69.0364 45.3423C67.7719 45.3378 66.5074 45.3603 65.2414 45.3663ZM7.16737 46.5978C7.23037 46.7583 7.29337 46.9188 7.35487 47.0808C6.60337 47.3223 5.89387 47.6853 5.12287 47.8668C5.09437 47.7558 5.03737 47.5323 5.00887 47.4213C4.80487 47.4948 4.60237 47.5698 4.39837 47.6463C4.63687 48.2568 4.86487 48.8703 5.10937 49.4778C5.30287 49.3923 5.49637 49.3083 5.68987 49.2243C5.63887 49.1058 5.53687 48.8673 5.48587 48.7488C6.21937 48.4728 6.94987 48.1893 7.68187 47.9118C7.76737 48.0903 7.85287 48.2718 7.93987 48.4518C7.20637 49.2108 6.46537 49.9623 5.73487 50.7228C5.86687 51.0078 6.00637 51.2913 6.14887 51.5733C7.40437 51.4293 8.64937 51.2043 9.90637 51.0678C8.96137 51.7743 7.92187 52.3488 6.92437 52.9788C7.27687 53.7033 7.77337 54.3438 8.15437 55.0518C8.36887 54.9498 8.57887 54.8403 8.78887 54.7308C8.50687 54.2943 8.23237 53.8518 7.95487 53.4123C8.19787 53.2518 8.43487 53.0763 8.70487 52.9608C9.02737 53.3043 9.21787 53.7498 9.47887 54.1398C9.67387 54.0078 9.86887 53.8743 10.0624 53.7408C9.79687 53.3478 9.52837 52.9533 9.32587 52.5228C9.49537 52.4238 9.66637 52.3248 9.83737 52.2258C10.1224 52.6533 10.3894 53.0943 10.6624 53.5308C10.8574 53.4018 11.0539 53.2758 11.2504 53.1468C10.6369 52.1958 9.99337 51.2583 9.50887 50.2338C8.67937 50.3718 7.84987 50.5083 7.01887 50.6388C7.57987 50.0028 8.21287 49.4358 8.80237 48.8283C8.36437 48.0438 8.09287 47.1843 7.76137 46.3533C7.56337 46.4343 7.36537 46.5153 7.16737 46.5978ZM67.2469 48.4503C67.0759 48.8928 66.8809 49.3248 66.6784 49.7538C65.7889 49.3623 64.9189 48.9288 64.0084 48.5928C63.8854 48.8583 63.7624 49.1238 63.6439 49.3908C64.7494 49.8693 65.8399 50.3838 66.9514 50.8488C67.2484 50.0838 67.6579 49.3638 67.9159 48.5823C67.6924 48.5358 67.4704 48.4923 67.2469 48.4503ZM62.9989 51.4233C62.1319 51.7458 61.7914 52.6938 61.2814 53.3883C62.2999 54.0123 63.2659 54.7443 64.3129 55.3113C64.7089 54.7548 65.1139 54.1803 65.3479 53.5338C65.7064 52.2348 64.2364 50.9898 62.9989 51.4233ZM8.57437 55.5318C8.71387 55.7823 8.86537 56.0313 9.08887 56.2173C9.52987 56.0793 9.77137 55.5618 10.2529 55.5093C10.4629 56.1438 9.87937 56.7573 9.98737 57.3933C10.1614 57.6738 10.3849 57.9198 10.5859 58.1823C10.7764 57.5643 10.8949 56.9268 11.0644 56.3043C11.7874 56.7498 12.9379 56.0628 12.6814 55.1883C12.4024 54.4833 11.8069 53.9673 11.3959 53.3403C10.4494 54.0633 9.52537 54.8133 8.57437 55.5318ZM60.5029 54.4113C61.0204 54.8013 61.5544 55.1733 62.0284 55.6188C61.2904 55.5693 60.5704 55.3998 59.8399 55.3083C59.5669 55.5363 59.2309 55.8708 59.1814 56.2158C60.0889 56.9583 61.0054 57.6993 61.9639 58.3743C62.1229 58.1613 62.2834 57.9513 62.4454 57.7413C61.7809 57.2193 61.1179 56.6928 60.4399 56.1858C61.4044 56.3148 62.3569 56.5128 63.3214 56.6343C63.4924 56.4078 63.6679 56.1828 63.8449 55.9608C62.9119 55.2063 61.9504 54.4923 61.0234 53.7318C60.8359 53.9478 60.6619 54.1743 60.5029 54.4113ZM12.2014 57.2898C12.1714 57.8178 12.5794 58.2063 12.7474 58.6743C12.8374 58.8993 12.7114 59.1093 12.4864 59.1753C11.8264 58.9143 11.5264 58.1958 11.4679 57.5343C11.2264 57.7983 10.6429 58.0518 10.9474 58.4733C11.2579 59.1003 11.7664 59.7138 12.4744 59.8863C13.1134 60.0678 13.8649 59.4843 13.7614 58.8063C13.6819 58.3008 13.3279 57.9033 13.1434 57.4383C13.1314 57.1593 13.2664 57.0423 13.5484 57.0843C14.1094 57.3318 14.3209 57.9558 14.4124 58.5168C14.6194 58.3188 14.8279 58.1238 15.0379 57.9303C14.7454 57.2478 14.2504 56.5638 13.5124 56.3343C12.9019 56.1288 12.1609 56.6298 12.2014 57.2898ZM57.5314 57.7668C58.1179 58.8873 58.7449 59.9853 59.3134 61.1148C59.5054 60.9393 59.7184 60.7758 59.8624 60.5553C59.9194 60.2628 59.6164 60.0363 59.6344 59.7588C59.8384 59.4783 60.0904 59.2383 60.3214 58.9818C60.5719 59.0823 60.8224 59.1828 61.0774 59.2773C61.2739 59.0598 61.4734 58.8423 61.6744 58.6278C60.5344 58.0773 59.3614 57.5973 58.2199 57.0513C57.9904 57.2913 57.7624 57.5313 57.5314 57.7668ZM14.8489 58.3608C14.9479 58.4478 15.1429 58.6218 15.2419 58.7103C14.7184 59.2938 14.1859 59.8713 13.6729 60.4668C13.5604 60.3543 13.4494 60.2448 13.3369 60.1338C13.1614 60.2643 12.9994 60.4128 12.8479 60.5703C13.3369 61.0053 13.8184 61.4478 14.3044 61.8873C14.4424 61.7388 14.5804 61.5918 14.7199 61.4433C14.5924 61.3143 14.4634 61.1853 14.3359 61.0578C14.8639 60.4773 15.4009 59.9028 15.9229 59.3148C16.2994 59.7108 16.7449 60.0303 17.1244 60.4233C16.5004 61.1523 15.9319 61.9263 15.3409 62.6808C15.5839 62.8623 15.8239 63.0468 16.0639 63.2328C16.6564 62.4558 17.2549 61.6848 17.8654 60.9228C18.1354 61.1463 18.4054 61.3683 18.6754 61.5933C18.7969 61.4448 18.9199 61.2993 19.0429 61.1538C19.0234 61.8918 19.0234 62.6328 18.9604 63.3678C18.7819 63.8418 18.4309 64.2288 18.1714 64.6608C18.4264 64.8258 18.6799 64.9923 18.9349 65.1588C19.2349 64.7403 19.4524 64.2588 19.8094 63.8838C20.5009 63.4968 21.2269 63.1713 21.9439 62.8368C21.6499 62.6643 21.3949 62.3448 21.0424 62.3223C20.6284 62.4993 20.2549 62.7573 19.8679 62.9838C19.8754 62.4873 19.9054 61.9908 19.9309 61.4943C19.4854 61.2033 19.0024 60.9693 18.5839 60.6378C17.4829 59.7423 16.3009 58.9398 15.3124 57.9123C15.1579 58.0608 15.0034 58.2108 14.8489 58.3608ZM54.2074 60.7788C53.9329 61.3053 54.2764 61.9608 54.7864 62.1858C55.5094 62.3853 56.0899 61.7913 56.7799 61.7208C56.8084 61.9158 56.9254 62.1378 56.7889 62.3223C56.4169 62.8008 55.7839 62.9448 55.2079 62.9703C55.3879 63.2208 55.5784 63.4638 55.7794 63.7008C56.5129 63.4143 57.3094 63.0003 57.6169 62.2263C57.9184 61.5738 57.3199 60.6663 56.5819 60.7983C56.0299 60.8748 55.5784 61.2843 55.0099 61.3008C54.7279 60.4488 55.8229 60.1668 56.4424 60.0753C56.2534 59.8548 56.0644 59.6388 55.8724 59.4243C55.2214 59.7213 54.4834 60.0648 54.2074 60.7788ZM51.7039 63.1428C51.8134 64.1268 52.6714 65.2053 53.7544 65.0523C54.4834 64.9743 55.0339 64.4118 55.4404 63.8448C55.2949 63.6033 55.1509 63.3633 54.9859 63.1368C54.8269 63.2643 54.7999 63.4938 54.6934 63.6618C54.4894 64.1043 53.9224 64.4268 53.4559 64.1853C52.8814 63.8718 52.4344 63.1638 52.6414 62.5023C52.9204 61.9038 53.6374 61.8498 54.2119 61.9083C54.0409 61.6683 53.8774 61.4283 53.7184 61.1823C52.7149 61.2573 51.5944 62.0283 51.7039 63.1428ZM49.2604 63.5523C49.3534 63.7188 49.4464 63.8853 49.5409 64.0548C49.6954 63.9858 49.8514 63.9183 50.0074 63.8508C50.3974 64.5258 50.7184 65.2383 51.1369 65.8968C50.9719 65.9853 50.8084 66.0738 50.6464 66.1638C50.7574 66.3498 50.8729 66.5358 50.9899 66.7233C51.5359 66.3948 52.1059 66.1098 52.6654 65.8068C52.5724 65.6178 52.4779 65.4318 52.3864 65.2458C52.2304 65.3298 52.0774 65.4153 51.9244 65.5008C51.5434 64.8138 51.2014 64.1058 50.8054 63.4293C50.9644 63.3393 51.1234 63.2508 51.2824 63.1623C51.1744 62.9793 51.0664 62.7993 50.9584 62.6193C50.4034 62.9508 49.8139 63.2193 49.2604 63.5523ZM23.4589 63.7353C22.4359 63.9183 21.8659 65.0463 21.9094 66.0078C22.0489 67.1148 23.3569 67.7613 24.3604 67.3878C25.0729 67.0413 25.4524 66.2568 25.5574 65.5038C25.6294 64.4193 24.4804 63.5748 23.4589 63.7353ZM48.0859 64.0203C48.0184 64.6728 47.9959 65.3283 47.9824 65.9838C47.5204 65.5503 47.0629 65.1138 46.6204 64.6623C46.3024 64.7823 45.8254 64.8018 45.6604 65.1168C46.0534 66.2118 46.5319 67.2798 46.9534 68.3658C47.2069 68.2698 47.4619 68.1783 47.7184 68.0898C47.4949 67.3203 47.1424 66.5973 46.8424 65.8563C47.2564 66.2268 47.6449 66.6243 48.0304 67.0248L48.6019 66.7953C48.6124 66.2493 48.6169 65.7018 48.6304 65.1573C48.9799 65.8518 49.2514 66.5823 49.5229 67.3098C49.8154 67.2093 50.1049 67.0968 50.3899 66.9783C49.8934 65.8788 49.5199 64.7268 48.9904 63.6438C48.6934 63.7788 48.3904 63.9048 48.0859 64.0203ZM25.1374 68.1108C25.4239 68.1948 25.7089 68.2818 25.9969 68.3688C26.1514 67.8843 26.3164 67.4043 26.4844 66.9258C26.9284 67.0668 27.3694 67.2228 27.8224 67.3398C27.8929 67.1343 27.9649 66.9288 28.0384 66.7233C27.6079 66.5703 27.1759 66.4218 26.7379 66.2943C26.7829 66.0573 26.8549 65.8293 26.9554 65.6118C27.4264 65.7963 27.9034 65.9658 28.3894 66.1068C28.4569 65.8998 28.5244 65.6943 28.5934 65.4903C27.8344 65.1858 27.0559 64.9353 26.2774 64.6908C25.9414 65.8443 25.4899 66.9618 25.1374 68.1108ZM43.5859 65.4873C42.0289 66.0498 42.3469 68.6058 43.8289 69.0468C44.5894 69.2193 45.5119 68.9598 45.9079 68.2458C46.2949 67.5288 46.1059 66.6243 45.6739 65.9718C45.2149 65.3148 44.2909 65.1618 43.5859 65.4873ZM29.9809 65.7033C29.7544 66.8748 29.5219 68.0448 29.2939 69.2163C30.0964 69.3918 30.9019 69.5508 31.7119 69.6873C31.7449 69.4608 31.7779 69.2358 31.8094 69.0108C31.3174 68.9283 30.8284 68.8308 30.3379 68.7408C30.3799 68.4378 30.4234 68.1348 30.4669 67.8333C30.9469 67.9098 31.4209 68.0193 31.9039 68.0763C31.9294 67.8618 31.9549 67.6488 31.9804 67.4358C31.5379 67.3368 31.0954 67.2513 30.6499 67.1718C30.6724 66.9543 30.6979 66.7383 30.7219 66.5238C31.2214 66.6318 31.7269 66.7128 32.2204 66.8493C32.2774 66.6108 32.3329 66.3723 32.3854 66.1338C31.5754 66.0378 30.7879 65.8188 29.9809 65.7033ZM41.2114 65.9793C41.2894 66.6513 41.3989 67.3203 41.4889 67.9908C40.9669 67.4388 40.5559 66.7923 40.0879 66.1968C39.7114 66.2283 39.3364 66.2643 38.9614 66.2973C39.1084 67.4928 39.3064 68.6808 39.4549 69.8748C39.7324 69.8478 40.0099 69.8208 40.2874 69.7953C40.1719 68.9763 40.0399 68.1603 39.9589 67.3383C40.5379 68.0718 41.0869 68.8278 41.6494 69.5733C41.9419 69.5433 42.2359 69.5103 42.5299 69.4758C42.3694 68.2893 42.1684 67.1073 42.0544 65.9163C41.7724 65.9358 41.4919 65.9568 41.2114 65.9793ZM32.6719 66.8433C32.1049 67.6188 32.0359 68.8683 32.7784 69.5568C33.4039 70.1223 34.3444 70.0788 35.0929 69.8133C35.1259 69.5103 35.1589 69.2058 35.1859 68.9043C34.8019 69.1218 34.3774 69.4653 33.9079 69.3153C32.7679 69.0078 33.0124 66.8688 34.2379 66.9468C34.6924 66.9498 35.0119 67.3203 35.3374 67.5888C35.3104 67.2648 35.4349 66.9093 35.3059 66.6063C34.5049 66.1398 33.2989 66.0438 32.6719 66.8433ZM36.5404 66.3798C35.3854 66.6678 35.1019 68.1813 35.5624 69.1383C36.0169 70.2153 37.6144 70.3488 38.3914 69.5628C38.9599 68.9673 38.9524 68.0193 38.7004 67.2843C38.3689 66.4368 37.3594 66.1503 36.5404 66.3798Z" fill="#0193DD"/>
<path d="M33.2478 3.06974C33.6798 2.73224 34.2798 3.10874 34.3893 3.58574C34.5453 4.13924 34.5978 4.89224 34.0668 5.26724C33.6273 5.52524 33.0963 5.21624 32.9598 4.76174C32.7753 4.21124 32.7333 3.45524 33.2478 3.06974Z" fill="#0193DD"/>
<path d="M21.8284 6.72363C22.1029 7.00563 22.3759 7.28913 22.6609 7.56063C22.4479 7.68513 22.2349 7.80813 22.0234 7.93263C21.9289 7.53363 21.8599 7.13163 21.8284 6.72363Z" fill="#0193DD"/>
<path d="M17.7979 8.55812C18.1459 8.38562 18.5134 8.08562 18.9259 8.24012C19.5664 8.46812 20.0014 9.28262 19.7089 9.92612C19.5349 10.1796 19.2559 10.3296 19.0069 10.4976C18.8269 10.2216 18.6529 9.94412 18.4924 9.65762C18.6949 9.53462 18.8974 9.41312 19.1014 9.29162C19.0384 9.13112 18.9769 8.97212 18.9154 8.81162C18.6739 8.90762 18.4534 9.08912 18.1924 9.11462C17.9884 9.01262 17.9344 8.73212 17.7979 8.55812Z" fill="#0193DD"/>
<path d="M8.67797 18.1154C9.26747 18.1049 9.83147 18.4874 10.1585 18.9629C10.445 19.3049 10.2665 19.8509 9.88547 20.0354C9.22547 20.2364 8.56847 19.7924 8.19047 19.2809C7.84547 18.8609 8.15897 18.1889 8.67797 18.1154Z" fill="#0193DD"/>
<path d="M13.6309 22.8905C15.0664 22.898 16.5019 22.8905 17.9389 22.895C17.9209 27.4115 17.9359 31.928 17.9314 36.4445C17.9284 37.4075 17.9989 38.4335 18.5224 39.272C18.9559 39.953 19.8214 40.166 20.5849 40.139C21.3874 40.172 22.2754 39.884 22.7164 39.1685C23.2159 38.363 23.3014 37.379 23.3224 36.4535C23.3209 31.934 23.3269 27.4145 23.3194 22.8965C24.7414 22.8815 26.1619 22.9145 27.5824 22.877C27.6094 26.7515 27.5854 30.626 27.5944 34.5005C27.6064 36.4205 27.4579 38.387 26.7469 40.1885C26.2474 41.4785 25.3294 42.6335 24.0934 43.2815C22.6024 44.09 20.8324 44.1635 19.1839 43.955C17.4964 43.715 15.8749 42.7775 14.9959 41.2895C13.9429 39.5225 13.7284 37.412 13.6384 35.399C13.6189 31.229 13.6354 27.059 13.6309 22.8905Z" fill="#0193DD"/>
<path d="M30.5478 43.4717C30.5523 36.6107 30.5388 29.7497 30.5553 22.8887C34.4373 22.8992 38.3193 22.8902 42.2013 22.8932C42.1908 24.1427 42.2088 25.3922 42.1863 26.6417C39.7623 26.6357 37.3398 26.6432 34.9173 26.6372C34.9113 27.8687 34.9158 29.0987 34.9173 30.3302C36.0394 30.2537 37.1629 30.3752 38.2849 30.2792C39.3574 30.3122 40.4284 30.3167 41.5009 30.2792C41.5129 31.6052 41.5024 32.9312 41.5084 34.2572C39.3064 34.2482 37.1058 34.2497 34.9053 34.2572C34.9203 35.9672 34.9249 37.6787 34.9024 39.3887C37.3114 39.4202 39.7218 39.3947 42.1308 39.4007C42.1458 40.7582 42.1339 42.1157 42.1384 43.4732C38.2744 43.4687 34.4103 43.4687 30.5478 43.4732V43.4717Z" fill="#0193DD"/>
<path d="M45.0035 22.8996C46.448 22.8891 47.894 22.8966 49.34 22.8936C49.331 28.4466 49.346 34.0011 49.3325 39.5541C52.577 39.5661 55.82 39.5586 59.063 39.5571C58.4285 40.8651 57.7715 42.1611 57.131 43.4661C53.0885 43.4691 49.0445 43.4766 45.002 43.4631C45.0125 36.6081 45.011 29.7531 45.0035 22.8996Z" fill="#0193DD"/>
<path d="M4.52881 26.7723C4.62031 26.4648 4.63831 26.0598 4.96981 25.9053C5.14531 25.9248 5.31331 25.9743 5.47381 26.0553C5.51131 26.1408 5.58481 26.3103 5.62231 26.3958C5.56381 26.6103 5.50681 26.8263 5.45131 27.0438C5.14531 26.9493 4.83781 26.8593 4.52881 26.7723Z" fill="#0193DD"/>
<path d="M66.4788 26.4678C66.8763 26.4678 67.2738 26.4738 67.6728 26.4903C67.3368 26.7408 66.9828 26.9658 66.6198 27.1743C66.5718 26.9388 66.5253 26.7033 66.4788 26.4678Z" fill="#0193DD"/>
<path d="M15.8748 44.3213C19.4898 44.4653 23.1063 44.6018 26.7198 44.7668C27.8268 44.8253 28.9503 44.7638 30.0408 44.9948C31.4448 45.4253 32.6328 46.4648 33.2973 47.7698C32.1648 47.0108 30.7983 46.6613 29.4408 46.6898C27.2913 46.5803 25.1388 46.5683 22.9878 46.5308C20.9853 46.4213 18.9783 46.4258 16.9728 46.3778C16.5933 45.6998 16.2423 45.0053 15.8748 44.3213Z" fill="#0193DD"/>
<path d="M47.582 44.67C50.5775 44.5785 53.5715 44.43 56.567 44.3145C56.1935 45.0045 55.8545 45.7155 55.442 46.3845C51.818 46.416 48.1985 46.578 44.5745 46.617C43.3805 46.7415 42.155 46.5885 40.9895 46.9335C40.337 47.067 39.773 47.43 39.179 47.709C39.8615 46.4175 41.06 45.366 42.4805 44.976C44.165 44.694 45.8855 44.8485 47.582 44.67Z" fill="#0193DD"/>
<path d="M66.1414 46.1722C66.5299 46.1587 66.9199 46.1647 67.3099 46.1707C67.2364 46.4122 67.1629 46.6537 67.0924 46.8982C66.7639 46.6702 66.4294 46.4482 66.1414 46.1722Z" fill="#0193DD"/>
<path d="M17.2803 46.8633C21.7338 46.9623 26.1903 46.9383 30.6393 47.1543C32.3358 47.3733 33.9003 48.4668 34.7493 49.9473C33.6348 49.3143 32.3718 48.9663 31.0893 48.9468C27.7893 48.8238 24.4863 48.8598 21.1878 48.7173C20.2023 48.7143 19.2168 48.6888 18.2313 48.6783C17.9178 48.0723 17.5938 47.4693 17.2803 46.8633Z" fill="#0193DD"/>
<path d="M43.2888 47.0733C47.2458 46.9773 51.2028 46.9293 55.1613 46.8633C54.8373 47.4633 54.5238 48.0693 54.2118 48.6753C50.0013 48.7683 45.7893 48.8373 41.5788 48.9393C40.2303 48.9588 38.8413 49.2243 37.7058 49.9878C38.3223 48.7218 39.5418 47.8458 40.8393 47.3718C41.6178 47.0568 42.4713 47.1588 43.2888 47.0733Z" fill="#0193DD"/>
<path d="M18.5613 49.2754C19.6338 49.3294 20.7108 49.2904 21.7833 49.3729C25.0893 49.4164 28.3983 49.3294 31.7028 49.4674C33.5433 49.5844 35.1183 50.7679 36.2388 52.1629C37.2663 50.7724 38.8143 49.6849 40.5573 49.4779C44.9943 49.2874 49.4358 49.3234 53.8758 49.2814C53.4903 49.9684 53.1633 50.6869 52.7448 51.3559C48.9753 51.3424 45.2043 51.3904 41.4333 51.3919C39.6303 51.3199 37.4988 52.4404 37.2858 54.3934C36.5778 54.3874 35.8713 54.3859 35.1648 54.3919C35.0463 53.4979 34.4688 52.7389 33.7203 52.2634C32.9853 51.7684 32.1288 51.3964 31.2303 51.3934C27.3753 51.3814 23.5218 51.3589 19.6683 51.3439C19.2888 50.6599 18.9453 49.9564 18.5613 49.2754Z" fill="#0193DD"/>
<path d="M62.939 52.2884C63.59 52.0259 64.352 52.4744 64.598 53.0924C64.733 53.5169 64.442 53.8859 64.241 54.2309C63.5975 53.8094 62.9495 53.3969 62.3135 52.9649C62.5115 52.7324 62.684 52.4654 62.939 52.2884Z" fill="#0193DD"/>
<path d="M10.6548 55.0505C10.9143 54.851 11.1753 54.653 11.4378 54.458C11.6643 54.7595 12.1143 55.2605 11.6238 55.556C11.1933 55.8005 10.8573 55.376 10.6548 55.0505Z" fill="#0193DD"/>
<path d="M58.6338 58.1855C59.0133 58.301 59.3718 58.472 59.7243 58.655C59.5653 58.841 59.4063 59.027 59.2503 59.216C59.0448 58.8725 58.8378 58.5305 58.6338 58.1855Z" fill="#0193DD"/>
<path d="M22.8109 66.1596C22.7689 65.4996 23.1079 64.7421 23.7334 64.4586C24.2224 64.3296 24.6739 64.7616 24.6664 65.2461C24.5944 65.9091 24.2344 66.5811 23.5879 66.8376C23.2609 66.7131 22.8439 66.5706 22.8109 66.1596Z" fill="#0193DD"/>
<path d="M43.8993 66.0991C44.2308 65.9701 44.6478 66.0406 44.8428 66.3601C45.1593 66.8356 45.3198 67.4896 45.0813 68.0311C44.8293 68.5186 44.0268 68.5171 43.7883 68.0161C43.4433 67.4596 43.2498 66.5116 43.8993 66.0991Z" fill="#0193DD"/>
<path d="M36.6965 67.0998C37.2845 66.6888 37.943 67.3458 37.9115 67.9548C38.045 68.5743 37.7435 69.5568 36.9395 69.3678C36.125 69.0198 36.065 67.6533 36.6965 67.0998Z" fill="#0193DD"/>
</g>
<defs>
<clipPath id="clip0_2650_11191">
<rect x="0.333252" width="72" height="72" rx="36" fill="white"/>
</clipPath>
</defs>
</svg>
