<svg width="72" height="72" viewBox="0 0 72 72" fill="none" xmlns="http://www.w3.org/2000/svg">
<rect width="72" height="72" rx="36" fill="#E5E7EB"/>
<path d="M14 14.0024C20.5476 13.9976 27.0942 14.0014 33.6417 14.0014C33.6436 16.4513 33.6427 18.9021 33.6427 21.352C31.1818 21.3539 28.7218 21.352 26.2618 21.3539C26.2618 25.0258 26.2599 28.6978 26.2628 32.3697C31.1922 32.3697 36.1217 32.3706 41.0521 32.3697C43.1588 32.3411 45.1464 30.9782 45.9959 29.0613C46.6997 27.5537 46.6302 25.7282 45.8597 24.2587C45.2112 22.9757 44.014 21.9897 42.6321 21.5937C41.2817 21.2006 39.8607 21.4034 38.476 21.3529C38.476 18.9021 38.475 16.4513 38.4769 14.0005H57.9987C58.0006 16.4513 57.9996 18.9021 57.9996 21.3529C56.3968 21.3539 54.7939 21.352 53.1911 21.3529C53.1901 31.1086 53.1901 40.8643 53.1911 50.619C54.793 50.6199 56.3949 50.6209 57.9968 50.619C58.0025 53.0774 57.9987 55.5368 57.9996 57.9962H38.476C38.4769 55.5368 38.4741 53.0784 38.4779 50.619C39.3036 50.6199 40.1293 50.6199 40.955 50.6199C41.9121 50.6142 42.874 50.3801 43.7017 49.8947C44.7883 49.277 45.6254 48.2472 46.034 47.0698C46.5626 45.5755 46.3931 43.8566 45.6007 42.4861C44.655 40.7719 42.6979 39.7488 40.7569 39.8164C35.9255 39.8192 31.0932 39.8154 26.2618 39.8183C26.2608 43.4179 26.2618 47.0184 26.2618 50.618C28.7056 50.6209 31.1494 50.6199 33.5932 50.619C33.597 53.0774 33.5932 55.5368 33.5951 57.9952C28.6827 57.9971 23.7694 57.9952 18.8571 57.9962C17.2381 57.9809 15.6171 58.0266 14 57.9733V50.6266C15.6343 50.6104 17.2695 50.6247 18.9038 50.619C18.9047 40.8643 18.9047 31.1086 18.9038 21.3539C17.2695 21.3368 15.6333 21.3834 14 21.3301V14.0024H14Z" fill="#C4161C"/>
</svg>
