<svg width="73" height="72" viewBox="0 0 73 72" fill="none" xmlns="http://www.w3.org/2000/svg">
<rect x="0.333252" width="72" height="72" rx="36" fill="#E5E7EB"/>
<path d="M29.3996 8.06913C31.7098 7.95001 34.0256 8.04974 36.3359 8.01649C42.1156 7.80596 47.887 9.62324 52.6923 12.7619C57.0607 15.7427 60.6982 19.8344 62.8656 24.6463C65.7107 30.6606 66.0664 37.7109 64.0838 44.0326C62.4568 48.9913 59.4325 53.5345 55.3777 56.8755C49.9396 61.5572 42.7037 64.1612 35.493 63.9923C33.4628 63.9646 31.4298 64.0477 29.3996 63.9452C29.4584 62.15 29.45 60.3521 29.4276 58.557C29.5312 58.014 28.8927 57.9005 28.4979 57.9559C24.6167 57.9642 20.7384 57.9559 16.86 57.9642C16.8684 53.7811 16.8796 49.598 16.8516 45.4149C13.7013 45.3291 10.5454 45.4316 7.39226 45.3623C7.28585 39.1846 7.35585 33.0014 7.35585 26.8238C10.5174 26.6852 13.6817 26.8321 16.8432 26.7434C16.9104 22.5354 16.8236 18.3274 16.888 14.1194C21.0576 14.0612 25.23 14.1194 29.4024 14.0917C29.4584 12.0832 29.4612 10.0748 29.4024 8.06913H29.3996Z" fill="#E42A20"/>
</svg>
