<svg width="73" height="72" viewBox="0 0 73 72" fill="none" xmlns="http://www.w3.org/2000/svg">
<g clip-path="url(#clip0_2650_12649)">
<rect x="0.666748" width="72" height="72" rx="36" fill="white"/>
<path d="M34.2234 0.092451C36.623 -0.0377973 39.038 -0.000170024 41.4222 0.324004C45.9899 0.921216 50.4398 2.4157 54.4411 4.69842C60.6509 8.21705 65.7744 13.6248 68.9314 20.0282C72.5516 27.243 73.5666 35.7033 71.8617 43.5848C70.6189 49.4257 67.8662 54.9328 63.9653 59.4529C60.1917 63.8543 55.3326 67.3151 49.9429 69.4531C42.1459 72.5607 33.2547 72.8106 25.2965 70.1439C18.4209 67.8795 12.2844 63.4559 7.9309 57.6767C5.55541 54.5536 3.71349 51.0302 2.4775 47.307C0.708908 41.9967 0.245774 36.2735 1.04468 30.7394C1.93139 24.5975 4.46704 18.7074 8.3014 13.8293C12.1367 8.92811 17.2582 5.03513 23.0233 2.68488C26.5846 1.2232 30.3842 0.350053 34.2234 0.092451ZM35.1863 0.568099C29.9433 0.75527 24.7552 2.17256 20.1132 4.61159C15.2349 7.19243 10.9635 10.9166 7.76494 15.4154C4.44485 20.0388 2.2797 25.4832 1.51553 31.1234C0.540057 38.1028 1.68921 45.3755 4.83948 51.6862C8.00519 58.1408 13.2058 63.5668 19.4967 67.0411C23.2365 69.1106 27.3526 70.496 31.5845 71.101C35.9302 71.7165 40.3917 71.5419 44.6699 70.5529C50.3211 69.2572 55.6337 66.5326 59.9958 62.7149C64.2653 58.9956 67.6317 54.241 69.6956 48.9674C72.7494 41.2673 72.9558 32.4867 70.2909 24.6457C67.8951 17.51 63.1442 11.1983 56.9632 6.90589C50.6637 2.47551 42.8782 0.209192 35.1863 0.568099Z" fill="#2E3192"/>
<path d="M36.3364 12.3945C36.6712 12.8904 36.9886 13.3989 37.3485 13.8774C38.158 15.0053 38.9492 16.2287 39.093 17.645C39.0978 18.1573 39.0862 18.6696 39.0611 19.181C39.0534 19.3344 39.0428 19.4878 39.011 19.6383C38.8479 20.1081 38.7225 20.5982 38.4658 21.0295C38.2381 21.4376 37.9187 21.784 37.5772 22.0985C37.8734 22.1352 38.2564 22.004 38.4957 22.1805C38.5353 22.6214 38.4716 23.0643 38.4803 23.5062C39.231 23.7377 39.915 24.1352 40.5567 24.5819C40.8905 24.2539 41.2205 23.921 41.5514 23.5891C41.9876 23.9326 42.3648 24.3436 42.7315 24.7575C42.4198 25.1193 42.0667 25.4425 41.7454 25.7956C42.4681 26.745 42.9409 27.8748 43.0981 29.0586C43.5786 29.0547 44.0582 29.0567 44.5377 29.076C44.558 29.624 44.5512 30.172 44.5184 30.719C44.0427 30.7287 43.568 30.719 43.0933 30.7345C42.9428 31.9279 42.4449 33.0471 41.7444 34.0177C42.0744 34.3583 42.4237 34.6834 42.717 35.0587C42.3446 35.4552 41.9663 35.8498 41.5399 36.1895C41.2109 35.8634 40.8915 35.5276 40.5615 35.2025C39.7443 35.7842 38.8344 36.2406 37.8493 36.4557C37.7731 37.3376 37.7904 38.2262 37.6746 39.1041C36.8391 39.1032 36.0035 39.1041 35.1679 39.1003C35.0714 38.2233 35.1149 37.3395 35.03 36.4615C34.0622 36.2174 33.1282 35.8132 32.337 35.1976C31.954 35.5064 31.6269 35.8778 31.2284 36.1673C30.8473 35.7891 30.4652 35.4089 30.1313 34.9873C30.4459 34.6448 30.7894 34.3322 31.1252 34.01C30.4227 33.0471 29.9143 31.9299 29.783 30.7364C29.3016 30.6968 28.8182 30.6882 28.3357 30.6833C28.301 30.1334 28.3425 29.5835 28.3589 29.0345C28.8336 29.0171 29.3083 29.048 29.783 29.0219C29.9278 27.9568 30.3185 26.9245 30.9476 26.0503C31.0017 25.9384 31.1618 25.8101 31.0402 25.6876C30.7624 25.3354 30.4314 25.0286 30.167 24.6659C30.5443 24.3127 30.9052 23.9374 31.3172 23.6248C31.7311 23.7975 31.9704 24.2597 32.2907 24.5703C33.0047 24.1294 33.7226 23.6779 34.5408 23.4521C34.5359 23.0035 34.5253 22.5539 34.5282 22.1053C34.7993 22.0966 35.0714 22.0947 35.3445 22.0947C34.9856 21.7994 34.6237 21.4945 34.3681 21.1019C34.0805 20.688 33.9454 20.1959 33.8084 19.7183C33.7805 19.5765 33.7669 19.4328 33.766 19.289C33.7901 18.7892 33.7525 18.2663 33.9464 17.7955C34.1239 17.3951 34.3459 17.0159 34.5176 16.6126C34.8215 15.8968 35.276 15.2581 35.6031 14.5528C35.9475 13.8716 36.1781 13.1403 36.3364 12.3945ZM35.66 15.3246C35.1351 16.2981 34.4395 17.2205 34.2455 18.3339C34.1732 19.0555 34.2117 19.8071 34.5022 20.4805C34.8611 21.3228 35.6311 21.8882 36.402 22.3291C36.8738 19.4907 36.7416 16.5847 36.346 13.7453C36.1241 14.274 35.9524 14.8278 35.66 15.3246ZM36.8111 13.7317C36.8642 14.4833 37.0388 15.2214 37.0668 15.9759C37.2684 18.0454 37.1633 20.1322 36.8931 22.1892C37.2675 21.9123 37.6003 21.5775 37.8637 21.1926C38.5575 20.1853 38.7321 18.9098 38.6482 17.7135C38.516 16.2209 37.7017 14.8953 36.8111 13.7317ZM31.9414 28.0012C31.5169 29.0248 31.43 30.1961 31.7591 31.2593C32.1952 32.7847 33.4312 34.0572 34.9489 34.5252C34.9344 32.8455 34.836 31.1677 34.7897 29.4879C34.7009 28.1266 34.7144 26.7604 34.6199 25.4001C33.4051 25.8217 32.4489 26.8367 31.9414 28.0012ZM38.378 25.4271C38.2159 28.4556 38.0857 31.4851 37.9323 34.5146C39.1789 34.1431 40.2325 33.2101 40.8018 32.0466C41.4627 30.7538 41.4839 29.1522 40.85 27.8449C40.3589 26.773 39.4606 25.895 38.378 25.4271Z" fill="#2E3192"/>
<path d="M11.1939 13.0428C11.2914 12.9184 11.4728 12.9695 11.6088 12.9512C13.9023 12.9685 16.1967 12.9357 18.4902 12.9676C18.3368 13.119 18.1737 13.2618 18.0058 13.3969C12.7667 17.7269 9.09342 23.9248 7.88927 30.6206C6.92634 35.8083 7.39816 41.2585 9.26517 46.1954C10.4452 49.3377 12.1684 52.2746 14.3432 54.8313C16.6647 57.5955 19.5188 59.9033 22.6767 61.6457C26.2979 63.6371 30.3513 64.8383 34.4722 65.1431C38.7089 65.4548 43.0199 64.8576 46.9884 63.3322C53.7588 60.7861 59.4882 55.6205 62.7523 49.1689C64.8132 45.1244 65.9257 40.5889 65.9122 36.0466C65.9624 32.0678 65.1326 28.0889 63.5705 24.4323C61.8858 20.5017 59.3289 16.9474 56.141 14.0974C55.7387 13.6921 55.2466 13.3882 54.8539 12.9724C57.2564 12.9377 59.6609 12.957 62.0643 12.9618C64.4466 15.6333 66.4496 18.6512 67.9066 21.9238C71.299 29.4059 71.8307 38.1296 69.3963 45.9744C67.6991 51.5346 64.5363 56.6326 60.3411 60.6539C55.9654 64.8643 50.4561 67.9005 44.5405 69.2899C37.2278 71.0381 29.3382 70.2797 22.5069 67.1297C15.7761 64.0712 10.0978 58.7648 6.57899 52.2649C4.5084 48.4791 3.17882 44.2928 2.66841 40.0091C1.85599 33.3124 3.07172 26.3793 6.16314 20.3782C7.51394 17.7289 9.21692 15.2628 11.1939 13.0428Z" fill="#2E3192"/>
<path d="M34.2248 3.44525C34.3704 2.73033 35.0777 2.32318 35.7068 2.07812C35.4086 2.45826 34.9368 2.84997 35.1066 3.39219C35.3363 3.79451 35.7367 4.055 36.0705 4.36278C36.497 4.75642 37.047 5.09313 37.2197 5.68263C37.4725 6.5413 37.02 7.39612 37.0499 8.26058C37.2544 7.75792 37.3683 7.20123 37.7233 6.77478C37.9761 6.48341 38.2733 6.23642 38.556 5.97593C38.5464 6.32615 38.42 6.65901 38.3987 7.00827C38.3408 7.82352 38.6718 8.59344 38.776 9.39229C38.8271 9.38843 38.9304 9.38071 38.9825 9.37686C39.1803 9.11057 39.3096 8.79894 39.3424 8.46705C39.4012 8.0927 39.4533 7.61802 39.8586 7.45883C39.8595 7.96728 39.7833 8.48441 39.9088 8.98515C40.1702 10.2761 40.8389 11.429 41.2711 12.663C41.5143 13.3248 41.6764 14.0465 41.523 14.7489C41.2856 15.5612 40.8418 16.3167 40.2281 16.9023C39.901 17.2159 39.5575 17.5574 39.0934 17.6452C38.9497 16.2289 38.1585 15.0055 37.349 13.8777C37.2438 13.2592 37.1454 12.607 37.3413 11.9963C37.4522 11.6017 37.6896 11.2129 37.595 10.7884C37.404 9.839 36.7469 9.08934 36.2654 8.27795C36.3098 8.87998 36.2722 9.49263 36.0927 10.0715C35.8283 11.0315 35.2253 11.8834 35.1308 12.8907C35.0999 13.4821 35.3585 14.032 35.6035 14.553C35.2765 15.2583 34.822 15.897 34.5181 16.6129C34.3463 17.0162 34.1244 17.3953 33.9469 17.7957C33.8697 17.5468 33.6121 17.4638 33.4162 17.3326C32.2159 16.5936 31.2761 15.3027 31.2568 13.8574C31.3157 12.5086 32.1194 11.3354 32.2622 10.002C32.377 9.3209 32.2661 8.62913 32.1098 7.96439C32.1484 7.95281 32.2256 7.93062 32.2642 7.91904C32.625 8.13323 32.9984 8.40241 33.1229 8.82595C33.3323 9.5264 33.3438 10.2674 33.5368 10.9717C33.8465 9.85057 33.4529 8.64747 33.8745 7.54759C34.0115 7.09992 34.3473 6.74584 34.7294 6.49113C34.9407 6.3329 35.2494 6.16117 35.2022 5.8505C35.0314 4.98797 34.0906 4.38786 34.2248 3.44525ZM32.1233 12.0802C31.9718 12.772 31.8165 13.4985 32.0133 14.1989C32.2458 14.2626 32.5198 14.2993 32.6414 14.5395C32.8932 14.9737 32.9434 15.4927 32.9936 15.9838C33.0708 15.5998 33.1007 15.2101 33.1441 14.8222C33.1904 14.1092 32.8267 13.4753 32.6038 12.8222C32.4253 12.334 32.516 11.8091 32.4735 11.3026C32.2516 11.5033 32.2005 11.8053 32.1233 12.0802Z" fill="#ED1B24"/>
<path d="M39.0616 19.181C42.6519 18.4091 46.4949 18.3358 49.98 19.6171C51.4341 20.1516 52.7974 20.9456 53.9745 21.9538C54.3518 22.25 53.9186 22.7228 53.8076 23.0576C54.1405 23.4589 54.6731 23.6258 55.0185 24.0021C54.9877 24.2327 54.8931 24.4469 54.8217 24.6659C55.0957 24.8839 55.4122 25.0451 55.6727 25.2814C55.6968 25.3933 55.6534 25.5053 55.609 25.6066C52.7608 31.3028 49.897 36.9912 47.0594 42.6923C45.6835 42.1491 44.3269 41.5499 42.9163 41.0984C40.5215 40.2619 37.9839 39.7824 35.4424 39.8499C33.0448 39.93 30.6847 40.5128 28.454 41.3811C27.7699 41.6165 27.1311 41.9619 26.448 42.2002C23.5486 36.56 20.6424 30.9236 17.7488 25.2805C17.6938 25.1328 17.5501 24.9717 17.6379 24.8106C17.9061 24.6418 18.1946 24.5096 18.4618 24.3388C18.3731 24.088 18.2718 23.841 18.1955 23.5853C18.622 23.3325 19.0485 23.0778 19.4981 22.8685C19.4084 22.5568 19.2521 22.2693 19.1643 21.9577C19.1093 21.8188 19.2318 21.7358 19.3254 21.6625C21.9546 19.7164 25.2622 18.8819 28.4983 18.8404C30.2631 18.8153 32.0307 18.9697 33.7665 19.289C33.7665 19.4328 33.781 19.5766 33.8089 19.7184C32.8692 19.6827 31.9516 19.4415 31.0128 19.401C27.8451 19.1048 24.5569 19.4531 21.6526 20.8105C20.9608 21.1472 20.3086 21.5573 19.667 21.9808C22.2817 28.3022 24.856 34.641 27.4727 40.9614C28.4347 40.6411 29.3725 40.2446 30.3653 40.0217C33.369 39.217 36.5443 39.1707 39.602 39.6772C41.4121 39.9609 43.1797 40.4713 44.902 41.0888C45.1943 41.1939 45.4896 41.2904 45.7896 41.3734C46.4303 39.9927 46.9368 38.5533 47.5476 37.1591C49.0335 33.4658 50.5753 29.7948 52.0554 26.0996C52.5919 24.827 53.0869 23.5371 53.6378 22.2703C51.19 20.2037 47.9779 19.2215 44.8103 19.1115C43.9081 19.1077 43.0012 19.0768 42.1039 19.1964C41.0628 19.2659 40.0429 19.4984 39.0115 19.6383C39.0433 19.4878 39.0539 19.3344 39.0616 19.181ZM18.9462 23.704C18.8295 23.7802 18.8005 23.9278 18.8854 24.0407C19.9033 26.2096 20.9348 28.3717 21.9537 30.5406C23.6547 34.1084 25.3114 37.6975 27.0346 41.2537C26.9054 40.7752 26.6805 40.3333 26.4991 39.8741C24.2481 34.3303 21.9421 28.8087 19.6959 23.2631C19.446 23.4107 19.1807 23.5332 18.9462 23.704ZM53.6069 23.6065C52.7164 25.6953 51.8914 27.8121 51.0163 29.9067C49.4667 33.7321 47.8872 37.547 46.3396 41.3724C46.328 41.4477 46.3049 41.5991 46.2933 41.6744C46.604 41.6097 46.6696 41.2701 46.8008 41.0299C49.3114 35.5054 51.8326 29.9858 54.3518 24.4652C54.3894 24.3581 54.4522 24.2433 54.4194 24.1266C54.1839 23.9037 53.8993 23.7406 53.6069 23.6065ZM18.1753 25.0451C18.2438 25.1985 18.3152 25.3509 18.3924 25.5014C20.544 29.6858 22.687 33.8759 24.857 38.0516C24.91 38.1355 24.9689 38.2156 25.0335 38.2928C24.9766 38.0631 24.8811 37.8461 24.7798 37.6348C23.3267 34.5551 21.8784 31.4735 20.4224 28.3958C19.8233 27.1985 19.3186 25.952 18.6703 24.7807C18.5043 24.8666 18.3393 24.9563 18.1753 25.0451ZM54.5708 25.1377C54.209 25.8333 53.9282 26.5656 53.5896 27.2718C51.8297 31.1098 50.0871 34.9545 48.3369 38.7964C48.1834 39.1341 48.0098 39.4631 47.9027 39.8191C48.1979 39.4196 48.3639 38.943 48.608 38.5127C50.7934 34.1856 52.9663 29.8527 55.1198 25.5101C54.9703 25.3393 54.7937 25.1946 54.5708 25.1377Z" fill="#ED1B24"/>
<path d="M16.9624 28.6864C17.3358 28.5166 17.8076 28.5861 18.0739 28.9093C18.2591 29.0965 18.2244 29.3859 18.1935 29.6252C17.8983 30.289 17.111 30.4067 16.507 30.6488C14.5087 31.4458 12.4941 32.1993 10.4901 32.9837C10.1311 33.1419 9.6767 33.165 9.37277 32.8795C9.08524 32.7068 9.1248 32.3305 9.17208 32.0459C9.41522 31.4911 10.0588 31.3637 10.5615 31.1476C12.7025 30.3459 14.8194 29.4814 16.9624 28.6864Z" fill="#ED1B24"/>
<path d="M55.7468 28.6673C56.1463 28.4744 56.5641 28.7059 56.9384 28.8487C58.982 29.6495 61.0333 30.431 63.0817 31.2221C63.4927 31.3919 64.035 31.4845 64.227 31.9419C64.3959 32.2564 64.3476 32.6915 64.0446 32.9067C63.7812 33.1498 63.3818 33.1459 63.0643 33.0253C60.6734 32.0924 58.2777 31.171 55.8809 30.2554C55.5211 30.0817 55.1843 29.7267 55.2519 29.2954C55.2191 28.9867 55.4873 28.7677 55.7468 28.6673Z" fill="#ED1B24"/>
<path d="M18.2013 31.0396C18.7359 30.8389 19.4286 31.1235 19.5521 31.7082C19.5927 32.1095 19.3775 32.5456 19.0118 32.7309C18.4811 33.0068 17.9061 33.1795 17.3474 33.3898C15.2894 34.2012 13.212 34.9605 11.1482 35.7584C10.6793 35.9572 10.1544 36.125 9.64879 35.9639C9.38925 35.7903 9.13259 35.5134 9.15382 35.1805C9.14707 34.6643 9.59862 34.2649 10.0579 34.1134C12.7778 33.1023 15.4785 32.041 18.2013 31.0396Z" fill="#ED1B24"/>
<path d="M54.4849 31.0534C54.8979 30.8759 55.3417 31.0602 55.7344 31.2058C58.0588 32.0915 60.386 32.9695 62.7085 33.861C63.1706 34.0559 63.7109 34.1552 64.0612 34.5421C64.3198 34.7949 64.2928 35.1924 64.2378 35.5195C63.9599 36.0839 63.2382 36.1254 62.7181 35.9083C60.0474 34.9088 57.3872 33.8803 54.7184 32.874C54.2563 32.7331 53.8616 32.3134 53.9176 31.804C53.8665 31.4384 54.182 31.1808 54.4849 31.0534Z" fill="#ED1B24"/>
<path d="M18.9924 33.7122C19.4141 33.6225 19.9255 33.6408 20.2197 34.0036C20.6858 34.4802 20.3982 35.31 19.8396 35.5772C19.1622 35.8937 18.4376 36.0943 17.7535 36.3973C15.49 37.2318 13.238 38.1031 10.9841 38.9666C10.5431 39.1364 9.96132 39.1962 9.59178 38.8431C9.19908 38.5478 9.20294 37.9371 9.45959 37.5541C9.73458 37.2183 10.1533 37.0562 10.5509 36.9125C11.1751 36.6973 11.782 36.4388 12.3937 36.1908C14.6071 35.4026 16.7877 34.5236 18.9924 33.7122Z" fill="#ED1B24"/>
<path d="M53.7198 33.6967C53.9928 33.6543 54.2823 33.6504 54.5476 33.7431C57.4152 34.8294 60.2837 35.9129 63.1484 37.0041C63.6279 37.1556 64.1248 37.5232 64.1625 38.0634C64.2454 38.5989 63.7543 39.09 63.2323 39.0939C62.7991 39.1382 62.4045 38.9298 62.0128 38.7822C59.4317 37.7943 56.843 36.8266 54.2611 35.8405C53.8336 35.6775 53.3116 35.5424 53.1225 35.0726C52.835 34.5448 53.1264 33.8347 53.7198 33.6967Z" fill="#ED1B24"/>
<path d="M20.0471 36.4092C20.4273 36.3426 20.8711 36.3349 21.1654 36.6253C21.6131 36.9524 21.6411 37.6837 21.2599 38.0706C20.9869 38.3861 20.5836 38.5298 20.2044 38.6717C17.2722 39.7802 14.3399 40.8839 11.4135 42.005C10.8819 42.1932 10.1679 42.0948 9.87939 41.5583C9.61887 40.9872 9.9257 40.3002 10.4824 40.0436C11.6432 39.5361 12.8598 39.1666 14.0273 38.6736C16.042 37.9413 18.0315 37.1376 20.0471 36.4092Z" fill="#ED1B24"/>
<path d="M52.6631 36.4122C52.9401 36.3581 53.2372 36.3524 53.5103 36.4344C56.6017 37.6134 59.7008 38.774 62.7874 39.9646C63.0885 40.0881 63.3779 40.2791 63.5371 40.5734C63.7591 40.9487 63.7407 41.5025 63.3808 41.789C62.9765 42.1701 62.3513 42.1537 61.8698 41.9405C60.8181 41.5131 59.7452 41.1436 58.6945 40.7162C56.7474 40.0408 54.8428 39.2506 52.9092 38.5396C52.5174 38.4026 52.145 38.1315 52.0061 37.7262C51.7755 37.211 52.1112 36.5405 52.6631 36.4122Z" fill="#ED1B24"/>
<path d="M21.2232 39.1045C21.8417 38.8391 22.7062 39.0977 22.9223 39.7779C23.122 40.4176 22.6618 41.0717 22.0703 41.2946C20.6308 41.8619 19.1767 42.3915 17.7333 42.9502C17.0704 43.1817 16.4298 43.4798 15.7524 43.6709C15.7399 43.7066 15.7158 43.7789 15.7032 43.8146C17.6966 43.2666 19.69 42.7176 21.6497 42.0606C21.8822 41.9757 22.135 41.9362 22.3791 41.9979C24.3532 42.4649 26.3099 43.0553 28.1384 43.9468C29.1495 44.4765 30.1665 45.12 30.7946 46.1012C31.1227 46.5884 31.2307 47.1808 31.2655 47.7578C31.3378 48.4515 31.3533 49.1529 31.2857 49.8475C31.2057 51.7916 30.9336 53.7222 30.6644 55.647C30.2784 58.3195 29.7912 60.9756 29.3155 63.6326C28.587 63.5313 27.9135 63.211 27.2188 62.9862C25.7301 62.416 24.277 61.7484 22.8953 60.9514C21.5078 60.2172 20.2197 59.3171 18.894 58.4806C18.8767 57.8448 18.9982 57.2196 19.0658 56.5905C19.1362 55.8013 19.2636 55.0198 19.3157 54.2297C19.4517 53.2407 19.4951 52.2393 19.7084 51.2629C19.802 50.8625 19.9071 50.437 20.1985 50.1302C20.6559 49.6642 21.2676 49.3246 21.9372 49.3429C23.3333 49.4008 24.6234 50.0299 26.0022 50.2026C25.4724 49.8726 24.8607 49.7134 24.2857 49.4857C20.2979 47.9478 16.121 46.956 12.1583 45.3487C11.6479 45.1161 11.0082 45.2985 10.5605 44.9077C10.1282 44.4929 10.1775 43.7336 10.5904 43.3206C10.9484 42.9222 11.4887 42.7968 11.9692 42.6096C15.0587 41.4538 18.1347 40.2622 21.2232 39.1045Z" fill="#ED1B24"/>
<path d="M50.7983 39.3397C51.1958 39.0001 51.7815 38.9114 52.2629 39.1188C55.4605 40.3151 58.6445 41.5482 61.843 42.7416C62.2029 42.868 62.5705 43.0137 62.8455 43.2896C63.3048 43.6958 63.3386 44.5246 62.8513 44.924C62.4692 45.2704 61.9154 45.1585 61.4542 45.2877C56.9406 47.1431 52.1288 48.1686 47.6403 50.0915C47.6026 50.1185 47.5283 50.1735 47.4907 50.2005C48.8357 50.0182 50.1026 49.4296 51.464 49.338C52.3633 49.3332 53.3349 49.8773 53.58 50.7862C53.8627 51.8339 53.8762 52.9271 54.0055 53.9989C54.1405 55.5108 54.3277 57.0178 54.4782 58.5287C54.1048 58.8172 53.7102 59.0767 53.2992 59.3083C51.4968 60.4467 49.6366 61.5032 47.6779 62.3503C46.5172 62.8201 45.3651 63.3363 44.1465 63.6393C43.3901 59.4819 42.6133 55.3188 42.2477 51.1055C42.128 50.1089 42.1406 49.1035 42.155 48.1021C42.1801 47.3804 42.3036 46.6259 42.7108 46.0142C43.3273 45.0446 44.3626 44.4715 45.3429 43.9332C47.1443 43.0513 49.0789 42.4773 51.0231 42.0055C51.5219 41.8675 51.9957 42.1435 52.4626 42.2795C54.0942 42.7822 55.7355 43.251 57.3777 43.7199C57.5185 43.7643 57.6681 43.7865 57.8176 43.774C55.7577 42.9085 53.6359 42.1994 51.5615 41.3687C51.1292 41.2028 50.6767 40.922 50.5474 40.4473C50.3911 40.072 50.5117 39.6186 50.7983 39.3397Z" fill="#ED1B24"/>
</g>
<defs>
<clipPath id="clip0_2650_12649">
<rect x="0.666748" width="72" height="72" rx="36" fill="white"/>
</clipPath>
</defs>
</svg>
