<svg width="16" height="16" viewBox="0 0 16 16" fill="none" xmlns="http://www.w3.org/2000/svg">
<path fill-rule="evenodd" clip-rule="evenodd" d="M1.34491 16H5.41827L12.8731 8.2211C12.8629 8.21131 12.8528 8.20128 12.843 8.19098L8.12018 3.26287L0.864859 10.8336C0.801818 10.8994 0.751811 10.9775 0.717693 11.0635C0.683576 11.1494 0.666016 11.2415 0.666016 11.3346V15.2916C0.666016 15.4795 0.737542 15.6597 0.864859 15.7925C0.992176 15.9254 1.16486 16 1.34491 16ZM9.50463 1.81822C9.51481 1.82799 9.52483 1.83802 9.53469 1.8483L14.2575 6.77645L15.8005 5.16636C15.9278 5.03351 15.9993 4.85332 15.9993 4.66544C15.9993 4.47756 15.9278 4.29737 15.8005 4.16452L12.0084 0.207488C11.881 0.0746355 11.7084 0 11.5283 0C11.3483 0 11.1756 0.0746355 11.0483 0.207488L9.50463 1.81822Z" fill="#1F2937"/>
</svg>
