<svg width="48" height="49" viewBox="0 0 48 49" fill="none" xmlns="http://www.w3.org/2000/svg">
<path d="M24.2638 11.584C32.3517 11.6633 37.4184 11.1601 38.1028 20.1247H47.9655C47.9655 6.23714 35.8537 4.36523 24.007 4.36523C12.1595 4.36523 0.048584 6.23714 0.048584 20.1247H9.83475C10.5919 10.9892 16.2431 11.5055 24.2638 11.584Z" fill="white"/>
<path d="M4.93976 24.5892C7.34196 24.5892 9.34083 24.733 9.78523 22.37C9.84498 22.0488 9.87953 21.6847 9.87953 21.2637H9.76562H0C0 24.7787 2.21174 24.5892 4.93976 24.5892Z" fill="white"/>
<path d="M38.1662 21.2637H38.0737C38.0737 21.6875 38.1101 22.0526 38.1783 22.37C38.647 24.5491 40.643 24.4137 43.0368 24.4137C45.7779 24.4137 47.9999 24.5939 47.9999 21.2637H38.1662Z" fill="white"/>
<path d="M33.3477 18.8691V17.4724C33.3477 16.8478 32.6279 16.8086 31.7391 16.8086H30.2873C29.3995 16.8086 28.6796 16.8478 28.6796 17.4724V18.6758V19.6094H18.4099V18.6758V17.4724C18.4099 16.8478 17.69 16.8086 16.8022 16.8086H15.3495C14.4616 16.8086 13.7418 16.8478 13.7418 17.4724V18.8691V20.0884C11.4021 22.5195 3.74648 32.8687 3.46826 34.1216L3.472 42.4821C3.472 43.2542 4.10032 43.8825 4.87242 43.8825H42.2171C42.9892 43.8825 43.6175 43.2542 43.6175 42.4821V34.0796C43.3421 32.8631 35.6883 22.5186 33.3477 20.0875V18.8691ZM17.9038 35.2466C17.1523 35.2466 16.5426 34.6379 16.5426 33.8854C16.5426 33.1329 17.1523 32.5242 17.9038 32.5242C18.6554 32.5242 19.265 33.1329 19.265 33.8854C19.265 34.6379 18.6554 35.2466 17.9038 35.2466ZM17.9038 30.5785C17.1523 30.5785 16.5426 29.9698 16.5426 29.2173C16.5426 28.4648 17.1523 27.8561 17.9038 27.8561C18.6554 27.8561 19.265 28.4648 19.265 29.2173C19.265 29.9698 18.6554 30.5785 17.9038 30.5785ZM17.9038 25.9114C17.1523 25.9114 16.5426 25.3026 16.5426 24.5501C16.5426 23.7986 17.1523 23.1889 17.9038 23.1889C18.6554 23.1889 19.265 23.7986 19.265 24.5501C19.265 25.3026 18.6554 25.9114 17.9038 25.9114ZM23.5055 35.2466C22.754 35.2466 22.1443 34.6379 22.1443 33.8854C22.1443 33.1329 22.754 32.5242 23.5055 32.5242C24.258 32.5242 24.8667 33.1329 24.8667 33.8854C24.8667 34.6379 24.258 35.2466 23.5055 35.2466ZM23.5055 30.5785C22.754 30.5785 22.1443 29.9698 22.1443 29.2173C22.1443 28.4648 22.754 27.8561 23.5055 27.8561C24.258 27.8561 24.8667 28.4648 24.8667 29.2173C24.8667 29.9698 24.258 30.5785 23.5055 30.5785ZM23.5055 25.9114C22.754 25.9114 22.1443 25.3026 22.1443 24.5501C22.1443 23.7986 22.754 23.1889 23.5055 23.1889C24.258 23.1889 24.8667 23.7986 24.8667 24.5501C24.8667 25.3026 24.258 25.9114 23.5055 25.9114ZM29.1072 35.2466C28.3547 35.2466 27.746 34.6379 27.746 33.8854C27.746 33.1329 28.3547 32.5242 29.1072 32.5242C29.8597 32.5242 30.4684 33.1329 30.4684 33.8854C30.4684 34.6379 29.8597 35.2466 29.1072 35.2466ZM29.1072 30.5785C28.3547 30.5785 27.746 29.9698 27.746 29.2173C27.746 28.4648 28.3547 27.8561 29.1072 27.8561C29.8597 27.8561 30.4684 28.4648 30.4684 29.2173C30.4684 29.9698 29.8597 30.5785 29.1072 30.5785ZM29.1072 25.9114C28.3547 25.9114 27.746 25.3026 27.746 24.5501C27.746 23.7986 28.3547 23.1889 29.1072 23.1889C29.8597 23.1889 30.4684 23.7986 30.4684 24.5501C30.4684 25.3026 29.8597 25.9114 29.1072 25.9114Z" fill="white"/>
</svg>
