<svg width="16" height="16" viewBox="0 0 16 16" fill="none" xmlns="http://www.w3.org/2000/svg">
<path d="M15.4569 7.79742C15.4349 7.74805 14.9057 6.57391 13.7286 5.39673C12.1608 3.8288 10.1799 3 7.99998 3C5.82011 3 3.83916 3.8288 2.27141 5.39673C1.09428 6.57392 0.565048 7.74805 0.543075 7.79742C0.514674 7.86136 0.5 7.93053 0.5 8.00049C0.5 8.07044 0.514674 8.13962 0.543075 8.20355C0.565048 8.25299 1.09435 9.42682 2.27147 10.6038C3.83922 12.1714 5.82011 13 7.99998 13C10.1799 13 12.1608 12.1714 13.7285 10.6038C14.9056 9.42682 15.4349 8.25299 15.4569 8.20356C15.4853 8.13962 15.5 8.07045 15.5 8.00049C15.5 7.93053 15.4853 7.86136 15.4569 7.79742ZM7.99998 5.75055C8.44499 5.75055 8.88001 5.88251 9.25002 6.12974C9.62003 6.37698 9.90842 6.72838 10.0787 7.13951C10.249 7.55065 10.2936 8.00305 10.2068 8.4395C10.1199 8.87596 9.90564 9.27687 9.59097 9.59154C9.27631 9.90621 8.8754 10.1205 8.43894 10.2073C8.00248 10.2941 7.55008 10.2496 7.13895 10.0793C6.72781 9.90898 6.37641 9.62059 6.12918 9.25058C5.88194 8.88057 5.74998 8.44556 5.74998 8.00055C5.75066 7.40402 5.98793 6.83211 6.40974 6.4103C6.83155 5.98849 7.40345 5.75122 7.99998 5.75055Z" fill="white"/>
</svg>
