<svg width="18" height="20" viewBox="0 0 18 20" fill="none" xmlns="http://www.w3.org/2000/svg">
<path d="M6.62576 8.82075C6.91983 9.60495 6.92101 10.3899 6.62459 11.1808C6.68082 11.2175 6.73355 11.2542 6.78783 11.2878C7.25687 11.5768 7.72708 11.8642 8.19533 12.1544C8.55853 12.3793 8.91939 12.6086 9.28259 12.8347C9.76647 13.1358 10.2503 13.4361 10.7354 13.7357C11.1337 13.9817 11.5333 14.2258 11.9324 14.4703C12.0007 14.5121 12.0113 14.5113 12.0671 14.4523C12.2804 14.2258 12.5248 14.0383 12.7931 13.8829C12.9712 13.7798 13.1602 13.6986 13.3547 13.6283C13.5371 13.5627 13.7238 13.5115 13.9136 13.4865C14.1694 13.4525 14.426 13.4182 14.6876 13.4564C14.8728 13.4838 15.0587 13.5029 15.2399 13.5502C15.4191 13.597 15.5933 13.6568 15.7624 13.7337C15.9194 13.8052 16.0698 13.8864 16.2143 13.9801C16.5966 14.2277 16.911 14.5437 17.1625 14.9217C17.316 15.1525 17.4378 15.4005 17.5257 15.6645C17.5757 15.8149 17.6179 15.9668 17.6452 16.1234C17.6858 16.3542 17.7159 16.585 17.7081 16.819C17.7034 16.9557 17.6975 17.0947 17.6698 17.2279C17.6229 17.452 17.5718 17.6746 17.487 17.8902C17.3824 18.1558 17.2531 18.4057 17.0867 18.6358C16.9075 18.8837 16.6985 19.1052 16.4564 19.2954C16.2467 19.4602 16.0225 19.6023 15.7804 19.7109C15.621 19.7824 15.4582 19.8507 15.284 19.8831C15.1563 19.907 15.0298 19.937 14.9024 19.9648C14.6896 20.0108 14.4736 19.9995 14.258 19.9968C14.0827 19.9944 13.9101 19.9722 13.7406 19.9253C13.5859 19.8827 13.4274 19.8515 13.2774 19.7964C13.0552 19.7144 12.8435 19.607 12.6443 19.477C12.3608 19.2915 12.1101 19.0677 11.8941 18.8076C11.7223 18.601 11.5754 18.376 11.4645 18.1304C11.3938 17.9742 11.3345 17.8125 11.2763 17.6508C11.2525 17.5844 11.2431 17.5126 11.2294 17.4427C11.2076 17.3333 11.1876 17.2236 11.1669 17.1138C11.163 17.0923 11.1576 17.0709 11.1572 17.049C11.1564 16.8334 11.1494 16.6175 11.1599 16.4027C11.1654 16.2863 11.2001 16.1711 11.2228 16.0555C11.2368 15.9824 11.2497 15.9094 11.2689 15.8375C11.2853 15.7755 11.3064 15.7145 11.3306 15.6552C11.3661 15.5685 11.3548 15.5263 11.2767 15.4786C10.9881 15.3017 10.6987 15.126 10.4109 14.9471C9.98439 14.6823 9.55987 14.4144 9.13341 14.1493C8.62883 13.8356 8.12269 13.5236 7.61734 13.2108C7.17446 12.9366 6.73198 12.6621 6.28911 12.3879C6.21882 12.3446 6.14696 12.3032 6.07588 12.2606C5.99035 12.2094 5.98762 12.2091 5.92006 12.2782C5.70995 12.4934 5.4764 12.6781 5.21592 12.8281C5.03353 12.9331 4.84608 13.0261 4.64417 13.0913C4.50045 13.1378 4.35595 13.1768 4.20754 13.2088C3.95916 13.2627 3.70961 13.2819 3.45693 13.2776C3.27884 13.2744 3.10427 13.2475 2.93127 13.2077C2.87112 13.194 2.8102 13.1827 2.75006 13.1682C2.158 13.0253 1.6585 12.7218 1.22969 12.2946C0.973888 12.04 0.771589 11.7459 0.612249 11.4245C0.543124 11.2854 0.486886 11.1386 0.442755 10.9871C0.393157 10.8172 0.357227 10.6461 0.325203 10.4719C0.277558 10.2134 0.287712 9.95526 0.300209 9.69711C0.306457 9.57058 0.341606 9.446 0.361523 9.31985C0.385346 9.1695 0.434554 9.02656 0.484152 8.88323C0.556793 8.67312 0.653256 8.47395 0.769636 8.28532C0.957094 7.98226 1.18907 7.7163 1.46167 7.48667C1.68193 7.30155 1.91938 7.14182 2.18495 7.02935C2.34155 6.96295 2.50089 6.90203 2.6614 6.84579C2.73678 6.81924 2.81723 6.80713 2.89612 6.79268C3.01797 6.77003 3.1402 6.74894 3.26283 6.73019C3.31516 6.72238 3.36867 6.72277 3.42139 6.71926C3.64986 6.70442 3.87715 6.72863 4.1021 6.76066C4.23879 6.78018 4.37118 6.82744 4.50631 6.86063C4.72462 6.91453 4.92731 7.00904 5.12375 7.1137C5.41587 7.26953 5.67558 7.47183 5.91107 7.70498C5.99426 7.78738 5.99387 7.78738 6.08603 7.72958C6.41213 7.52572 6.73745 7.32108 7.06433 7.118C7.50681 6.84306 7.94929 6.56851 8.39294 6.29552C8.74365 6.07917 9.0963 5.86554 9.4474 5.64996C9.76256 5.45626 10.0769 5.26177 10.3913 5.06689C10.6901 4.88178 10.9881 4.69588 11.2864 4.51076C11.3501 4.47132 11.3685 4.43578 11.3372 4.3647C11.2681 4.2081 11.2365 4.04095 11.2001 3.87653C11.1689 3.73477 11.1619 3.58675 11.1525 3.44069C11.1451 3.32861 11.1455 3.21535 11.1525 3.10326C11.1615 2.96072 11.1712 2.81661 11.1978 2.67641C11.2404 2.45224 11.3028 2.23197 11.3907 2.02147C11.4848 1.79613 11.602 1.58095 11.7449 1.38294C11.948 1.10097 12.1882 0.852983 12.4682 0.644435C12.685 0.483143 12.9177 0.35036 13.1645 0.243743C13.2907 0.189068 13.425 0.150795 13.5582 0.116428C13.7199 0.0750306 13.8847 0.0449591 14.0487 0.0117633C14.0823 0.00512419 14.1171 0.00434315 14.1514 0.00395262C14.2858 0.00199992 14.4201 0.00160937 14.5545 4.72173e-05C14.7423 -0.00151494 14.9247 0.0359768 15.1086 0.0691725C15.2649 0.0972913 15.414 0.145718 15.5621 0.197269C15.7663 0.267956 15.9608 0.36481 16.1436 0.480409C16.4255 0.658885 16.6798 0.871338 16.8985 1.12519C17.0805 1.33608 17.2347 1.56454 17.3593 1.81371C17.4538 2.00234 17.5296 2.19878 17.5866 2.40186C17.6116 2.49129 17.6253 2.58385 17.6436 2.67523C17.6878 2.8955 17.721 3.11811 17.7069 3.34266C17.6963 3.51567 17.6893 3.69024 17.6456 3.86013C17.6163 3.97417 17.5952 4.09055 17.5647 4.20419C17.512 4.40141 17.4312 4.5877 17.3378 4.7693C17.1156 5.20241 16.8122 5.56639 16.4271 5.86398C16.1721 6.0612 15.8975 6.22288 15.5929 6.32989C15.4379 6.38457 15.282 6.43846 15.1235 6.47947C15.0157 6.5072 14.9024 6.51462 14.7911 6.52555C14.6548 6.53922 14.5174 6.56109 14.3815 6.55523C14.2018 6.54742 14.0229 6.51579 13.8437 6.49548C13.6789 6.47673 13.5223 6.42557 13.3661 6.37363C13.1224 6.29279 12.8923 6.18149 12.6756 6.04441C12.4588 5.90694 12.2593 5.7476 12.082 5.5617C12.0085 5.48477 12.0074 5.48477 11.9133 5.54257C11.4829 5.80579 11.0517 6.06784 10.6225 6.33341C10.232 6.57515 9.84458 6.82197 9.45443 7.0641C9.15098 7.25234 8.84519 7.43668 8.54096 7.62335C8.24727 7.80378 7.95437 7.9846 7.66147 8.1662C7.44433 8.30094 7.22797 8.43763 7.01122 8.57314C6.89367 8.64656 6.77533 8.7196 6.65778 8.79302C6.64841 8.80044 6.63982 8.80903 6.62576 8.82075ZM14.4232 18.7927C15.5792 18.8041 16.4974 17.8535 16.499 16.7334C16.5005 15.5778 15.5777 14.6499 14.4213 14.6507C13.2954 14.6515 12.3593 15.5646 12.355 16.7217C12.3503 17.8586 13.2907 18.8052 14.4232 18.7927ZM14.4361 1.20642C13.3145 1.18572 12.3632 2.11286 12.355 3.25557C12.3464 4.41001 13.2766 5.33597 14.3998 5.3473C15.5656 5.35901 16.4802 4.43305 16.499 3.30713C16.5177 2.15465 15.5843 1.19978 14.4361 1.20642ZM3.56784 7.92993C2.42669 7.91782 1.49604 8.87191 1.49526 9.99627C1.49487 11.128 2.42513 12.0696 3.56316 12.0696C4.72071 12.0696 5.63692 11.132 5.64082 10.0056C5.64473 8.87737 4.72696 7.9229 3.56784 7.92993Z" fill="#0063F7"/>
</svg>
