<svg width="17" height="16" viewBox="0 0 17 16" fill="none" xmlns="http://www.w3.org/2000/svg">
<path d="M15.1738 5.41718L10.8578 4.79018L8.92978 0.879183C8.83821 0.721648 8.7069 0.590908 8.54896 0.500032C8.39102 0.409157 8.212 0.361328 8.02978 0.361328C7.84757 0.361328 7.66854 0.409157 7.51061 0.500032C7.35267 0.590908 7.22135 0.721648 7.12978 0.879183L5.20278 4.79018L0.885783 5.41718C0.700714 5.44355 0.526741 5.52127 0.38361 5.64152C0.240478 5.76177 0.133918 5.91973 0.0760222 6.09748C0.0181266 6.27523 0.0112137 6.46564 0.0560679 6.64712C0.100922 6.8286 0.195748 6.99387 0.329783 7.12418L3.45378 10.1682L2.71678 14.4682C2.68523 14.6523 2.70586 14.8415 2.77635 15.0145C2.84684 15.1875 2.96436 15.3372 3.1156 15.4468C3.26684 15.5565 3.44575 15.6215 3.63207 15.6346C3.81839 15.6478 4.00466 15.6085 4.16978 15.5212L8.02978 13.4922L11.8908 15.5222C12.0559 15.609 12.2421 15.6479 12.4282 15.6345C12.6143 15.621 12.7929 15.5558 12.9439 15.4461C13.0948 15.3365 13.2121 15.1868 13.2824 15.014C13.3527 14.8411 13.3733 14.6521 13.3418 14.4682L12.6048 10.1682L15.7298 7.12518C15.8641 6.99491 15.9592 6.82957 16.0042 6.64794C16.0493 6.46632 16.0424 6.2757 15.9845 6.09777C15.9266 5.91984 15.8199 5.76173 15.6766 5.64141C15.5333 5.5211 15.3591 5.44341 15.1738 5.41718Z" fill="#FFD100"/>
</svg>
