<svg width="28" height="29" viewBox="0 0 28 29" fill="none" xmlns="http://www.w3.org/2000/svg">
<g clip-path="url(#clip0_3055_94809)">
<path d="M27.927 11.2414C27.7437 10.6745 27.2408 10.2718 26.6459 10.2182L18.5643 9.48435L15.3686 2.00457C15.133 1.4564 14.5964 1.10156 14.0001 1.10156C13.4039 1.10156 12.8673 1.4564 12.6316 2.00585L9.43597 9.48435L1.35312 10.2182C0.759232 10.2731 0.257632 10.6745 0.0732711 11.2414C-0.11109 11.8084 0.0591716 12.4303 0.508432 12.8223L6.61714 18.1797L4.81582 26.1145C4.68402 26.6979 4.91046 27.301 5.39454 27.6509C5.65474 27.8389 5.95916 27.9346 6.26615 27.9346C6.53083 27.9346 6.79338 27.8632 7.02902 27.7222L14.0001 23.5558L20.9687 27.7222C21.4786 28.029 22.1214 28.001 22.6045 27.6509C23.0888 27.2999 23.315 26.6966 23.1832 26.1145L21.3819 18.1797L27.4906 12.8234C27.9398 12.4303 28.1114 11.8095 27.927 11.2414Z" fill="white"/>
</g>
<defs>
<clipPath id="clip0_3055_94809">
<rect width="28" height="28" fill="white" transform="translate(0 0.5)"/>
</clipPath>
</defs>
</svg>
