<svg width="21" height="25" viewBox="0 0 21 25" fill="none" xmlns="http://www.w3.org/2000/svg">
<path d="M18.3095 5.25774C18.1475 5.17402 17.9898 5.08225 17.837 4.98276C17.3927 4.689 16.9853 4.34286 16.6236 3.95181C15.7187 2.91636 15.3807 1.86591 15.2562 1.13045H15.2612C15.1572 0.51998 15.2002 0.125 15.2067 0.125H11.0849V16.0632C11.0849 16.2772 11.0849 16.4887 11.0759 16.6977C11.0759 16.7237 11.0734 16.7477 11.0719 16.7757C11.0719 16.7872 11.0719 16.7992 11.0694 16.8112C11.0694 16.8142 11.0694 16.8172 11.0694 16.8202C11.0259 17.392 10.8426 17.9444 10.5356 18.4288C10.2285 18.9132 9.80712 19.3147 9.30847 19.598C8.78877 19.8937 8.20098 20.0488 7.60306 20.048C5.68265 20.048 4.12623 18.4821 4.12623 16.5482C4.12623 14.6143 5.68265 13.0484 7.60306 13.0484C7.96658 13.048 8.32787 13.1052 8.6735 13.2178L8.6785 9.02106C7.62924 8.88552 6.56327 8.96891 5.54785 9.26596C4.53242 9.56302 3.58958 10.0673 2.7788 10.747C2.06837 11.3642 1.4711 12.1008 1.01389 12.9234C0.839896 13.2233 0.183429 14.4288 0.103933 16.3852C0.0539351 17.4956 0.387418 18.6461 0.54641 19.1216V19.1316C0.646405 19.4115 1.03389 20.367 1.66535 21.1724C2.17455 21.8186 2.77614 22.3861 3.45077 22.8569V22.8469L3.46076 22.8569C5.45616 24.2128 7.66855 24.1238 7.66855 24.1238C8.05154 24.1083 9.33447 24.1238 10.7914 23.4333C12.4073 22.6679 13.3273 21.5274 13.3273 21.5274C13.915 20.846 14.3823 20.0694 14.7092 19.231C15.0822 18.2506 15.2067 17.0747 15.2067 16.6047V8.1491C15.2567 8.1791 15.9226 8.61958 15.9226 8.61958C15.9226 8.61958 16.8821 9.23455 18.379 9.63503C19.453 9.92001 20.8999 9.98001 20.8999 9.98001V5.88821C20.3929 5.94321 19.3635 5.78322 18.3095 5.25774Z" fill="#ADBDCC"/>
</svg>
