<svg width="25" height="21" viewBox="0 0 25 21" fill="none" xmlns="http://www.w3.org/2000/svg">
<path d="M24.5 2.7393C23.6013 3.15552 22.648 3.42877 21.672 3.54998C22.6871 2.91194 23.468 1.90363 23.8355 0.70042C22.869 1.3003 21.8116 1.72294 20.7089 1.95008C19.7783 0.910559 18.4769 0.321755 17.1153 0.324227C14.3972 0.324227 12.1912 2.62944 12.1912 5.47307C12.1912 5.87713 12.2347 6.27094 12.3198 6.64698C8.22705 6.43189 4.59978 4.38276 2.17078 1.26687C1.74665 2.02647 1.50473 2.91194 1.50473 3.85587C1.50473 5.64155 2.37366 7.21791 3.69457 8.1415C2.9125 8.11643 2.14759 7.89554 1.46401 7.49738V7.56304C1.46401 10.0572 3.16143 12.1385 5.41281 12.6126C4.68772 12.8179 3.92747 12.8481 3.1896 12.7007C3.81645 14.7468 5.63544 16.2352 7.78914 16.2784C6.10428 17.6573 3.98151 18.4821 1.67408 18.4821C1.28172 18.4816 0.889716 18.4576 0.5 18.41C2.67881 19.8706 5.26751 20.7242 8.04791 20.7242C17.1046 20.7242 22.0563 12.8762 22.0563 6.07043C22.0563 5.84782 22.0563 5.62521 22.041 5.40421C23.0045 4.67506 23.8366 3.77275 24.4985 2.7393H24.5Z" fill="#ADBDCC"/>
</svg>
