<svg width="16" height="16" viewBox="0 0 16 16" fill="none" xmlns="http://www.w3.org/2000/svg">
<path d="M8.57185 2.00822C8.57185 2.07212 8.57185 2.1365 8.57185 2.2004C8.57185 5.44884 8.57185 8.69679 8.57185 11.9452C8.57185 12.29 8.36537 12.5442 8.06637 12.5709C7.71158 12.6024 7.43165 12.3487 7.43118 11.9867C7.42927 11.0349 7.4307 10.0831 7.4307 9.13122C7.4307 6.82317 7.4307 4.51465 7.4307 2.2066C7.4307 2.14175 7.4307 2.07641 7.4307 1.96769C7.36108 2.03397 7.31577 2.07451 7.27285 2.11742C6.32579 3.06353 5.38063 4.01155 4.43165 4.95528C4.0988 5.28622 3.59093 5.17559 3.45693 4.74688C3.38444 4.5156 3.44977 4.31627 3.62145 4.14555C4.13599 3.63387 4.64863 3.1198 5.16174 2.60622C5.95287 1.81557 6.74353 1.02444 7.53466 0.23379C7.8451 -0.076175 8.15602 -0.0785593 8.46551 0.230452C9.76642 1.52944 11.0664 2.82939 12.3654 4.13029C12.5838 4.3487 12.6324 4.58713 12.5161 4.82604C12.4088 5.04588 12.1765 5.1899 11.93 5.13601C11.7893 5.10549 11.642 5.01918 11.5385 4.91665C10.6024 3.99343 9.67486 3.06115 8.74591 2.13078C8.70013 2.085 8.6615 2.03207 8.61954 1.98295C8.60333 1.99153 8.58759 1.99964 8.57185 2.00822Z" fill="#6B7280"/>
<path d="M1.1446 14.8513C5.7221 14.8513 10.2772 14.8513 14.8575 14.8513C14.8575 14.7855 14.8575 14.723 14.8575 14.66C14.8575 13.9762 14.8566 13.2919 14.858 12.6081C14.8585 12.2466 15.0964 11.9991 15.436 12.002C15.7631 12.0048 15.9977 12.2552 15.9982 12.6071C15.9992 13.3568 16.0006 14.1059 15.9977 14.8556C15.9953 15.4984 15.498 15.9986 14.8561 15.9986C10.2872 16.0001 5.71828 15.9996 1.14937 15.9986C0.505596 15.9986 0.00535704 15.5003 0.00344956 14.8599C0.0010652 14.1102 0.00201902 13.3611 0.00297276 12.6114C0.00344964 12.2485 0.239501 12.0001 0.57808 12.002C0.91189 12.0039 1.14365 12.2557 1.14413 12.6214C1.14508 13.3587 1.1446 14.0954 1.1446 14.8513Z" fill="#6B7280"/>
</svg>
