<svg width="16" height="16" viewBox="0 0 16 16" fill="none" xmlns="http://www.w3.org/2000/svg">
<path d="M8.03711 15.9918C6.75319 15.9918 5.46739 15.9937 4.18348 15.9918C1.70224 15.9899 0.723304 15.028 0.872027 12.5657C0.960508 11.1049 1.15441 9.62709 2.24254 8.47877C3.28361 7.37751 4.0084 7.29844 5.27537 8.09662C6.9471 9.14894 8.67906 9.26377 10.4073 8.26981C11.1697 7.83119 11.8399 7.26832 12.8075 7.7653C13.8034 8.27546 14.4077 9.11129 14.6864 10.1184C14.9574 11.1011 15.1514 12.1214 15.1419 13.1624C15.125 14.947 14.163 15.9561 12.3614 15.9881C10.9193 16.0125 9.47728 15.9918 8.03711 15.9918Z" fill="#28293D"/>
<path d="M11.9472 3.95325C11.9472 6.13656 10.1772 7.90649 7.99381 7.90649C5.8104 7.90649 4.0404 6.13656 4.0404 3.95325C4.0404 1.76993 5.8104 0 7.99381 0C10.1772 0 11.9472 1.76993 11.9472 3.95325Z" fill="#28293D"/>
</svg>
