<svg width="17" height="16" viewBox="0 0 17 16" fill="none" xmlns="http://www.w3.org/2000/svg">
<path d="M7.33354 12.0792C4.25014 12.0792 1.75406 9.57728 1.75406 6.49977C1.75406 3.41639 4.25014 0.920319 7.33354 0.920319C10.4169 0.920319 12.913 3.41639 12.913 6.49977C12.913 9.57728 10.4169 12.0792 7.33354 12.0792ZM15.7497 14.5048L11.8911 10.6462C12.8895 9.54795 13.5003 8.09726 13.5003 6.49977C13.5003 3.09337 10.74 0.333008 7.33354 0.333008C3.92712 0.333008 1.16675 3.09337 1.16675 6.49977C1.16675 9.90618 3.92712 12.6665 7.33354 12.6665C8.93104 12.6665 10.3817 12.0499 11.48 11.0573L15.3386 14.916C15.4502 15.0276 15.6381 15.0276 15.7497 14.916C15.8613 14.7985 15.8613 14.6163 15.7497 14.5048Z" fill="#374151" stroke="#374151" stroke-width="0.5"/>
</svg>
