<svg width="15" height="16" viewBox="0 0 15 16" fill="none" xmlns="http://www.w3.org/2000/svg">
<g clip-path="url(#clip0_2237_77140)">
<path d="M7.49461 0.500013C11.6377 0.492496 14.9925 3.84306 14.9995 7.99461C15.0066 12.1377 11.6569 15.492 7.50494 15.5C3.36377 15.508 0.00611487 12.1546 8.33835e-06 8.00495C-0.0060982 3.85527 3.34263 0.507999 7.49461 0.500013ZM1.1532 7.99555C1.14522 11.496 3.99415 14.3471 7.50118 14.3476C11.0082 14.3481 13.8252 11.5312 13.8492 8.0134C13.8731 4.5219 11.0308 1.66839 7.51011 1.65241C4.01153 1.63691 1.15978 4.48245 1.1518 7.99555H1.1532Z" fill="#6B7280"/>
<path d="M8.07264 6.83846C8.07264 7.36604 8.07968 7.89361 8.06982 8.42119C8.06647 8.5486 8.01896 8.67088 7.93542 8.76712C7.85187 8.86336 7.73749 8.92757 7.61183 8.94877C7.33985 8.99575 7.08056 8.86515 6.97769 8.61991C6.94512 8.53848 6.92838 8.45158 6.92836 8.36388C6.92492 7.35006 6.92492 6.3361 6.92836 5.32197C6.92836 4.98184 7.17779 4.73332 7.4958 4.7305C7.82462 4.72721 8.07076 4.97573 8.07451 5.32761C8.08015 5.8317 8.07451 6.33578 8.07451 6.83987L8.07264 6.83846Z" fill="#6B7280"/>
<path d="M7.50788 9.92783C7.60916 9.92788 7.70942 9.94807 7.80283 9.98721C7.89624 10.0264 7.98094 10.0837 8.05201 10.1558C8.12308 10.228 8.17909 10.3136 8.2168 10.4076C8.25451 10.5016 8.27316 10.6022 8.27166 10.7035C8.26834 10.9051 8.18589 11.0973 8.04212 11.2386C7.89834 11.3799 7.70477 11.459 7.50318 11.4589C7.40189 11.4595 7.30148 11.4401 7.20772 11.4017C7.11397 11.3634 7.02873 11.3069 6.95691 11.2354C6.88509 11.164 6.8281 11.079 6.78924 10.9855C6.75038 10.8919 6.73041 10.7916 6.73047 10.6903C6.73083 10.589 6.75129 10.4888 6.79068 10.3955C6.83006 10.3021 6.88758 10.2176 6.95989 10.1466C7.03221 10.0757 7.11788 10.0198 7.21195 9.98228C7.30602 9.94472 7.4066 9.92621 7.50788 9.92783Z" fill="#6B7280"/>
</g>
<defs>
<clipPath id="clip0_2237_77140">
<rect width="15" height="15" fill="white" transform="translate(0 0.5)"/>
</clipPath>
</defs>
</svg>
